<?xml version="1.0" encoding="UTF-8" standalone="no"?>
<svg
   version="1.0"
   width="950.41266pt"
   height="758.14557pt"
   viewBox="0 0 950.41266 758.14557"
   preserveAspectRatio="xMidYMid meet"
   id="svg40"
   sodipodi:docname="Cybereason.svg"
   inkscape:version="1.1 (c68e22c387, 2021-05-23)"
   xmlns:inkscape="http://www.inkscape.org/namespaces/inkscape"
   xmlns:sodipodi="http://sodipodi.sourceforge.net/DTD/sodipodi-0.dtd"
   xmlns="http://www.w3.org/2000/svg"
   xmlns:svg="http://www.w3.org/2000/svg">
  <defs
     id="defs44" />
  <sodipodi:namedview
     id="namedview42"
     pagecolor="#ffffff"
     bordercolor="#cccccc"
     borderopacity="1"
     inkscape:pageshadow="0"
     inkscape:pageopacity="1"
     inkscape:pagecheckerboard="0"
     inkscape:document-units="pt"
     showgrid="false"
     inkscape:zoom="0.4480844"
     inkscape:cx="440.76518"
     inkscape:cy="585.82714"
     inkscape:window-width="1920"
     inkscape:window-height="1017"
     inkscape:window-x="-4"
     inkscape:window-y="-4"
     inkscape:window-maximized="1"
     inkscape:current-layer="svg40" />
  <metadata
     id="metadata2">
Created by potrace 1.16, written by Peter Selinger 2001-2019
</metadata>
  <g
     id="g935"
     transform="translate(-606.7,393.14554)">
    <g
       id="g915"
       transform="matrix(2.6069257,0,0,2.6069257,29.669606,-836.32291)">
      <path
         d="m 246,172.8 c 8.7,6.8 24.5,20.3 35.7,30.5 l 12.2,11.1 -6.5,6.4 c -8.3,8 -15.4,19 -18.9,28.9 -3.6,10.2 -4.6,29 -2.1,39.6 5.6,24.1 24.5,44.7 48.9,53.5 10.6,3.8 17.6,5 37.2,6.1 18.3,1.1 24.2,2.7 33,8.6 8,5.4 13.7,13.8 16.1,23.9 0.9,4.1 2.1,7.3 2.4,7.1 0.4,-0.3 1,-2.3 1.4,-4.5 2.1,-13 9.9,-23.6 22,-29.5 7.6,-3.8 10.7,-4.3 38.1,-6.4 19.4,-1.5 31.3,-5.5 45.6,-15.2 7.9,-5.3 19,-17.6 23.1,-25.6 6.5,-12.2 8.3,-20 8.3,-34.8 -0.1,-11.9 -0.3,-13.7 -3.2,-21.8 -4.2,-11.8 -8.4,-18.6 -17.5,-28.1 -7.4,-7.7 -7.7,-8.1 -6,-9.9 5,-5.6 40,-35.7 48.1,-41.4 0.2,-0.2 0.2,-0.5 -0.1,-0.8 -0.3,-0.3 -5.7,0.8 -11.9,2.4 -52.7,14 -120.1,21 -173.9,18.2 -43.4,-2.3 -81.9,-8 -121.9,-18.1 -6.6,-1.6 -12.3,-3 -12.8,-3 -0.4,0.1 0.8,1.3 2.7,2.8 z m 82.9,79.1 c 15.8,18.5 32.5,41.5 43,59.5 5.9,10.1 16.1,30.1 16.1,31.6 0,0.6 -2.3,-0.1 -5.1,-1.5 -8.4,-4.3 -19.1,-6.6 -35.9,-7.5 -25.2,-1.5 -35.2,-5.3 -48.7,-18.5 -6.4,-6.3 -9,-9.8 -11.8,-15.6 -8.4,-17.8 -8.4,-34.4 0.2,-51.8 2.7,-5.5 5.8,-9.7 11.1,-15 l 7.4,-7.4 8.1,8.9 c 4.5,4.8 11.5,12.6 15.6,17.3 z m 180.7,-19 c 11.2,11.3 16.5,22.9 17.2,38.2 0.5,12 -0.9,18.8 -6.1,29.2 -7.5,15 -22,26.7 -38.7,31.2 -3,0.9 -12.7,2 -21.5,2.5 -16.8,1 -26.5,3 -35.9,7.5 -2.8,1.3 -5.2,2.3 -5.4,2.1 -0.6,-0.6 14.1,-28.7 20,-38.1 8.4,-13.4 19.6,-29.1 30.1,-42.3 12.3,-15.2 31.4,-36.2 33.1,-36.2 0.7,0 3.9,2.7 7.2,5.9 z"
         id="path4"
         style="fill:#000000;stroke:none;stroke-width:0.1" />
      <path
         d="m 305.6,247 c -4.7,5.2 -9.1,14.1 -10.6,21.5 -2.6,12.4 1.4,25.7 10.7,35.6 8.8,9.4 16.1,12.1 37.1,13.9 14.9,1.2 21.9,3 26.2,6.6 1.7,1.5 3.3,2.4 3.6,2.1 0.6,-0.5 -31.8,-48.6 -32.8,-48.7 -0.4,0 -5.6,3.1 -11.5,6.9 -5.9,3.9 -10.8,6.9 -11,6.8 -0.1,-0.2 1.8,-6.6 4.3,-14.4 l 4.5,-14.1 -7.3,-10.1 c -4,-5.6 -7.8,-10.1 -8.4,-10.1 -0.7,0 -2.8,1.8 -4.8,4 z"
         id="path6"
         style="fill:#000000;stroke:none;stroke-width:0.1" />
      <path
         d="m 489.1,252.7 c -3.9,5.3 -7.1,10.4 -7.1,11.2 0,0.9 1.8,7.1 4.1,13.9 2.3,6.8 3.9,12.6 3.6,12.9 -0.4,0.3 -5.4,-2.5 -11.2,-6.2 -6,-3.9 -11,-6.4 -11.4,-5.9 -1.7,1.8 -31.2,45.5 -31.8,47 -0.4,1 0.7,0.7 3.2,-1.1 5.4,-3.6 12.1,-5.3 26.3,-6.5 15.1,-1.2 20,-2.4 27.5,-6.3 7.2,-3.7 13,-10.1 17.1,-18.7 2.9,-6 3.1,-7.3 3.1,-17 0,-9.8 -0.2,-11 -3.3,-17.4 -3.6,-7.7 -9.6,-15.6 -11.7,-15.6 -0.8,0 -4.5,4.4 -8.4,9.7 z"
         id="path8"
         style="fill:#000000;stroke:none;stroke-width:0.1" />
      <path
         d="m 256.4,190.2 c 3.4,7.6 15.8,33.2 16.3,33.8 0.3,0.3 0.9,-0.4 1.5,-1.4 0.6,-1 2.6,-3.6 4.4,-5.6 1.9,-2.1 3.4,-4.1 3.4,-4.6 0,-1.1 -26.2,-27.4 -27.3,-27.4 -0.3,0 0.4,2.4 1.7,5.2 z"
         id="path10"
         style="fill:#000000;stroke:none;stroke-width:0.1" />
      <path
         d="M 538.7,198.4 525,212 l 4.6,5.8 c 2.6,3.1 4.8,5.9 5,6 0.4,0.6 18.5,-37.1 18.1,-38.1 -0.1,-0.4 -6.4,5.3 -14,12.7 z"
         id="path12"
         style="fill:#000000;stroke:none;stroke-width:0.1" />
    </g>
    <g
       id="g908">
      <path
         d="m 796.2,249.2 0.3,56.3 2.4,5.2 c 3,6.7 9.2,12.4 16.7,15.4 5.2,2.1 7.6,2.4 19.9,2.4 13.7,0 14.2,-0.1 20.7,-3.2 16.1,-7.6 23.2,-22.2 23.2,-47.3 -0.1,-24.9 -6.6,-37.5 -23.3,-45.3 -6,-2.9 -7.7,-3.2 -18.5,-3.5 -10.3,-0.4 -20.4,0.6 -25.2,2.5 -1.2,0.4 -1.4,-2.7 -1.4,-19.1 V 193 h -7.5 -7.6 z m 50.2,-4.8 c 10.4,3.2 15.6,10.6 17.7,25.2 2.1,15.5 -1.5,32.9 -8.3,39 -5.4,5 -10.8,6.8 -20.3,6.8 -13.7,-0.1 -21.6,-4.4 -23.6,-13.1 -0.5,-2.1 -0.9,-15.3 -0.9,-29.4 v -25.7 l 7.3,-2 c 8.6,-2.4 21.4,-2.8 28.1,-0.8 z"
         id="path14"
         style="fill:#000000;stroke:none;stroke-width:0.1" />
      <path
         id="path18"
         style="fill:#000000;stroke:none;stroke-width:0.1"
         d="m 1535,213.5 c 0,7.8 0.3,9.5 1.5,9.5 1.1,0 1.5,-1.1 1.5,-4 0,-2.9 0.4,-4 1.5,-4 0.8,0 2.7,1.8 4.1,4 1.5,2.2 3.3,4 4,4 2,0 1.7,-1.7 -0.6,-5 -1.8,-2.5 -1.8,-3 -0.5,-3.7 0.8,-0.5 1.7,-2.2 2.1,-3.9 0.9,-4.5 -1.5,-6.4 -8.2,-6.4 h -5.4 z m -2,-14.4 c -5.4,3.2 -7.4,6.5 -7.8,13.4 -0.3,5 0,6.6 2,9.4 6.7,9.9 20.9,10 27.5,0.1 3.2,-4.6 3.2,-13.4 0.1,-18 -4.7,-6.8 -14.7,-9.1 -21.8,-4.9 z m 16.4,3.9 c 1.9,1.7 4,4.7 4.6,6.6 4.2,12.6 -12,22.7 -21.8,13.6 -6.2,-5.8 -6,-14.5 0.4,-20.1 2.9,-2.6 4.3,-3.1 8.4,-3.1 4.1,0 5.5,0.5 8.4,3 z" />
      <path
         d="m 637.7,230.1 c -5.6,1.3 -13.4,5.6 -18.1,9.9 -9,8.3 -12.9,20 -12.9,38.5 0.1,17.8 3.3,29 10.9,37.4 5.3,5.9 10.8,9.3 18.8,11.6 8,2.3 30.2,1.7 39.1,-1.2 l 6,-1.9 0.3,-7.3 c 0.3,-7.3 0.3,-7.3 -2,-6.7 -13.9,4.1 -18.5,4.8 -27.8,4.4 -8.2,-0.3 -10.5,-0.8 -15.5,-3.3 -10.5,-5.2 -14.8,-14.7 -14.8,-32.5 0,-17.8 4.3,-27.3 14.8,-32.5 5,-2.5 7.3,-3 15.5,-3.3 9.3,-0.4 14,0.4 27.8,4.4 2.1,0.6 2.2,0.4 2.2,-6.4 0,-8 0.1,-7.9 -12,-10.7 -7.1,-1.6 -26.1,-1.9 -32.3,-0.4 z"
         id="path20"
         style="fill:#000000;stroke:none;stroke-width:0.1" />
      <path
         d="m 922.4,231 c -7.1,2.3 -15,8.8 -18.9,15.5 -4.4,7.4 -6.5,18.3 -6.5,32.9 0,25.8 6.2,38.1 22.9,45.9 6.1,2.9 7.6,3.2 19.3,3.5 13.6,0.5 22.7,-0.7 31.4,-3.9 l 5.4,-2 v -7.9 -7.9 l -5.3,2.3 c -7.5,3.4 -15.5,4.8 -27,4.8 -11.2,0 -16.8,-1.5 -22.4,-5.8 -3.9,-2.9 -8,-10.5 -8.9,-16.3 l -0.7,-4.1 h 35.2 35.1 v -8.8 c 0,-11.6 -1.5,-19.2 -5.5,-27.8 -4.3,-9.4 -9.2,-14.7 -17.4,-18.6 -6.2,-3 -7.4,-3.3 -18.6,-3.5 -9.8,-0.2 -13.1,0.1 -18.1,1.7 z m 29.5,14.6 c 3.2,1.6 6.4,4.3 8.2,6.7 3,4.1 6.9,15.1 6.9,19.3 V 274 H 939.5 912 v -2.5 c 0,-4 2.1,-12.8 4,-16.5 4.2,-8.3 11.1,-11.8 23.1,-11.9 6.2,-0.1 8.4,0.4 12.8,2.5 z"
         id="path22"
         style="fill:#000000;stroke:none;stroke-width:0.1" />
      <path
         d="m 1027.2,230.5 c -4,0.7 -11.3,2.6 -16.3,4.1 l -8.9,2.7 v 45.4 45.3 h 7.5 7.5 l 0.2,-40.2 0.3,-40.3 8,-1.7 c 4.4,-0.9 11.7,-2 16.3,-2.4 l 8.2,-0.7 v -6.8 -6.9 l -7.7,0.1 c -4.3,0 -11.1,0.7 -15.1,1.4 z"
         id="path24"
         style="fill:#000000;stroke:none;stroke-width:0.1" />
      <path
         d="m 1086.7,230.1 c -12.9,3 -22.2,13.3 -26.4,29 -2.3,8.8 -2.3,31 0,39.6 3.7,13.7 9.6,21 21.6,26.7 6.1,2.9 7.5,3.1 19.4,3.4 13.7,0.4 22.7,-0.7 31.3,-3.9 l 5.4,-2 v -8 -8 l -2.7,1.4 c -12.6,6.4 -37.8,8 -47.5,3.1 -7.4,-3.7 -13.8,-13.4 -13.8,-20.9 V 288 h 35 35 v -7.9 c 0,-12.1 -2.3,-22.1 -7.3,-31.4 -7.5,-14.2 -17.8,-19.8 -36.1,-19.6 -5.6,0.1 -11.8,0.5 -13.9,1 z m 27,15.2 c 7.7,4 12.7,12.4 14.9,24.9 l 0.6,3.8 h -27.9 -28 l 0.8,-5.5 c 1.9,-14.2 6.8,-21.4 16.7,-24.6 4.4,-1.4 19.3,-0.5 22.9,1.4 z"
         id="path26"
         style="fill:#000000;stroke:none;stroke-width:0.1" />
      <path
         d="m 1176.3,231.2 -8.3,2 v 7.4 c 0,4.1 0.3,7.4 0.8,7.4 0.4,0 3,-0.7 5.7,-1.5 2.8,-0.9 9.1,-2 14.1,-2.5 15.3,-1.6 26.5,1.3 31.8,8.3 2.1,2.7 4.5,9.6 4.6,13.2 0,0.6 -6.1,1 -16.2,1 -17.3,0 -23,0.9 -32.8,5.2 -11.4,5 -17,13.6 -17,26.4 0,6.5 0.4,8.5 3.1,13.8 3.5,7 7.9,10.8 16.8,14.3 7.8,3.1 30.5,3.3 39.5,0.4 8.7,-2.9 14.4,-7.2 18,-13.6 l 3.1,-5.5 0.3,-21.8 c 0.3,-17.6 0,-23.3 -1.3,-29.3 -2.9,-13 -10.6,-21.5 -23.1,-25.4 -9,-2.7 -27.4,-2.7 -39.1,0.2 z m 44.1,48.4 4.6,0.7 v 10.3 c 0,5.6 -0.5,11.5 -1.1,13.1 -2.9,7.7 -10.7,11.3 -24.4,11.3 -16.7,0 -25.5,-5.9 -25.5,-17 0,-9.8 8.1,-16.4 22.5,-18.3 5.2,-0.7 19,-0.7 23.9,-0.1 z"
         id="path28"
         style="fill:#000000;stroke:none;stroke-width:0.1" />
      <path
         d="m 1275.2,230.8 c -11.3,4.1 -18.2,14 -18.2,26.3 0,13 6.4,19.9 23.3,25 20.7,6.2 25.8,9.1 27.8,15.8 4.8,16.2 -21.1,22.7 -44.1,11.1 l -6,-3 v 8 8.1 l 5.3,2.4 c 7.9,3.7 14.9,4.8 27.7,4.3 13.5,-0.5 19,-2.4 25.8,-9.1 10.5,-10.2 9.2,-29.3 -2.5,-39.7 -3.8,-3.3 -6.9,-4.8 -17.7,-8.2 -15.2,-4.8 -22.1,-7.9 -23.7,-10.9 -0.6,-1.2 -0.9,-4 -0.6,-6.3 1.7,-12.6 21.8,-15.5 43,-6.2 1.5,0.7 1.7,0.1 1.7,-6.7 v -7.6 l -5.7,-2.2 c -8.3,-3.2 -28.5,-3.8 -36.1,-1.1 z"
         id="path30"
         style="fill:#000000;stroke:none;stroke-width:0.1" />
      <path
         d="m 1365.5,230.4 c -21.1,6.7 -29.9,21 -29.9,48.6 0,25 6.6,37.9 23.3,45.9 l 7.6,3.6 h 14.5 c 12.7,0 15.2,-0.3 20,-2.2 11.6,-4.8 19.9,-13.8 23.6,-25.8 2.2,-6.8 3,-27.2 1.5,-36.2 -4,-23.7 -19.1,-35.4 -45.4,-35.2 -6.2,0 -13,0.6 -15.2,1.3 z m 30.6,14.8 c 6.1,2.6 11.2,8.3 13.6,15.2 2.5,7.2 2.6,29.9 0,37.1 -3.5,10.1 -10,15.4 -21.7,17.5 -15.4,2.8 -29.1,-3.1 -34,-14.5 -4.4,-10.3 -4.9,-29.1 -0.9,-40.4 3.4,-9.8 9.2,-14.8 20,-17.1 6.4,-1.3 17.3,-0.3 23,2.2 z"
         id="path32"
         style="fill:#000000;stroke:none;stroke-width:0.1" />
      <path
         d="m 1471,229.6 c -6.3,1.2 -17.5,4.6 -21.1,6.4 l -3.9,2 v 45 45 h 7.5 7.5 v -40.4 c 0,-37.7 0.1,-40.5 1.8,-41 6.2,-1.7 14.9,-2.9 22.7,-2.9 12.2,0 18.4,2.6 22.3,9.2 l 2.7,4.6 0.3,35.2 0.3,35.3 h 7.4 7.5 v -34 c 0,-34.8 -0.5,-41.1 -4.1,-48.2 -2.7,-5.3 -8.6,-10.7 -14.9,-13.7 -5,-2.4 -6.7,-2.6 -19.5,-2.8 -7.7,0 -15.1,0.1 -16.5,0.3 z"
         id="path34"
         style="fill:#000000;stroke:none;stroke-width:0.1" />
      <path
         d="m 697,231.2 c 0,0.6 7.9,22.2 17.6,48 19.7,52.6 18.6,47.3 11.9,59.3 -4.9,8.9 -9.6,12.7 -15.5,12.7 -0.3,0 -2.2,-0.3 -4.2,-0.6 l -3.8,-0.7 v 6.9 c 0,8 0.2,8.2 10.4,8.2 10.3,0 19.3,-6.3 25.5,-17.9 2.3,-4.4 40.5,-105.1 43.5,-114.9 0.7,-2.2 0.6,-2.2 -7.2,-2.2 -7.7,0 -8,0.1 -9.1,2.7 -0.6,1.6 -6.7,18.3 -13.6,37.3 -6.9,18.9 -12.7,34.5 -12.8,34.7 -0.2,0.1 -6.3,-16.6 -13.7,-37.2 L 712.5,230 h -7.7 c -5.3,0 -7.8,0.4 -7.8,1.2 z"
         id="path36"
         style="fill:#000000;stroke:none;stroke-width:0.1" />
    </g>
  </g>
</svg>
