<?xml version="1.0" encoding="UTF-8" standalone="no"?>
<!-- Created with Inkscape (http://www.inkscape.org/) -->

<svg
   xmlns:dc="http://purl.org/dc/elements/1.1/"
   xmlns:cc="http://creativecommons.org/ns#"
   xmlns:rdf="http://www.w3.org/1999/02/22-rdf-syntax-ns#"
   xmlns:svg="http://www.w3.org/2000/svg"
   xmlns="http://www.w3.org/2000/svg"
   xmlns:sodipodi="http://sodipodi.sourceforge.net/DTD/sodipodi-0.dtd"
   xmlns:inkscape="http://www.inkscape.org/namespaces/inkscape"
   width="228.2514mm"
   height="55.879559mm"
   viewBox="0 0 228.2514 55.879559"
   version="1.1"
   id="svg8"
   inkscape:version="0.92.5 (2060ec1f9f, 2020-04-08)"
   sodipodi:docname="Cynet_RGB_Pink_01__1_Logo.svg">
  <defs
     id="defs2" />
  <sodipodi:namedview
     id="base"
     pagecolor="#ffffff"
     bordercolor="#666666"
     borderopacity="1.0"
     inkscape:pageopacity="0.0"
     inkscape:pageshadow="2"
     inkscape:zoom="1.1894531"
     inkscape:cx="278.54188"
     inkscape:cy="-28.676724"
     inkscape:document-units="mm"
     inkscape:current-layer="layer1"
     showgrid="false"
     inkscape:window-width="1920"
     inkscape:window-height="1017"
     inkscape:window-x="5"
     inkscape:window-y="1072"
     inkscape:window-maximized="1" />
  <metadata
     id="metadata5">
    <rdf:RDF>
      <cc:Work
         rdf:about="">
        <dc:format>image/svg+xml</dc:format>
        <dc:type
           rdf:resource="http://purl.org/dc/dcmitype/StillImage" />
        <dc:title></dc:title>
      </cc:Work>
    </rdf:RDF>
  </metadata>
  <g
     inkscape:label="Layer 1"
     inkscape:groupmode="layer"
     id="layer1"
     transform="translate(-1.7725771,-85.36639)">
    <path
       style="fill:#d8499c;fill-opacity:1;stroke-width:0.08466666"
       d="m 37.236516,141.15447 c -3.441076,-0.43173 -6.144873,-1.21031 -8.824017,-2.54093 -2.87287,-1.42683 -4.912713,-2.89355 -7.228554,-5.19756 -0.703031,-0.69944 -2.378186,-2.41471 -3.722567,-3.81171 -3.459096,-3.59449 -4.311946,-4.47647 -5.812758,-6.01133 -0.728537,-0.74507 -1.406193,-1.44992 -1.505901,-1.56634 -0.09971,-0.11641 -0.6642683,-0.70701 -1.2545783,-1.31244 -0.930585,-0.95442 -3.634552,-3.75335 -6.283652,-6.50433 -0.440534,-0.45748 -0.814616,-0.86989 -0.831293,-0.91647 -0.01668,-0.0466 0.306039,-0.43428 0.717147,-0.86156 0.411109,-0.42727 1.22487,-1.27216 1.808358,-1.87753 0.583489,-0.60537 2.088854,-2.16747 3.345256,-3.47133 2.8907783,-2.99999 4.3085833,-4.46692 6.0146003,-6.223 0.746444,-0.76835 2.36339,-2.44475 3.593214,-3.72534 3.289059,-3.42481 5.010784,-5.11763 6.057079,-5.9554 3.779758,-3.02644 8.136756,-4.89614 13.083927,-5.61463 1.339209,-0.19449 5.551433,-0.22158 6.685739,-0.043 4.646892,0.73161 7.764239,1.87902 11.260666,4.14471 5.024572,3.25595 9.05677,8.49135 11.066422,14.36865 0.396819,1.16051 0.620626,1.98966 0.537055,1.98966 -0.03835,0 -0.269003,-0.35242 -0.512552,-0.78316 -1.919362,-3.39459 -4.908516,-5.90309 -8.437144,-7.08048 -4.910778,-1.63857 -10.160206,-0.66807 -14.269397,2.63809 -0.788088,0.63407 -1.086519,0.93248 -5.357798,5.35735 -1.25606,1.30123 -2.877879,2.97547 -3.60404,3.72054 -2.644314,2.71315 -3.171545,3.27548 -3.171545,3.38264 0,0.10617 1.379245,1.54988 8.052017,8.42836 0.655023,0.67521 1.702084,1.75616 2.326801,2.4021 2.739415,2.8325 5.346187,4.25426 8.967515,4.89098 0.847657,0.14904 3.656185,0.15025 4.487333,0.002 4.762705,-0.84987 8.641558,-3.52827 10.993797,-7.59136 0.506367,-0.87466 0.53587,-0.90874 0.48485,-0.56 -0.07886,0.53903 -0.80866,2.68347 -1.314322,3.862 -1.502536,3.5019 -3.337241,6.11974 -6.3238,9.02307 -4.090334,3.97636 -8.946636,6.40001 -14.593191,7.28307 -0.906714,0.14181 -1.624324,0.18451 -3.471334,0.20658 -1.280583,0.0153 -2.614083,-0.008 -2.963333,-0.0519 z m 74.506654,-4.1842 v -4.27567 h 0.49691 c 1.55745,0 3.44288,-0.62345 4.89628,-1.61903 1.08685,-0.7445 2.55717,-2.52305 3.2529,-3.93483 l 0.25439,-0.51619 -0.48065,-1.13481 c -0.26434,-0.62414 -0.54842,-1.2872 -0.63125,-1.47347 -0.15467,-0.34775 -0.71589,-1.6637 -2.25674,-5.29167 -0.48456,-1.14088 -0.91666,-2.15053 -0.96023,-2.24366 -0.0915,-0.19562 -0.67807,-1.56761 -2.37092,-5.54567 -0.66385,-1.55998 -1.8832,-4.41748 -2.70968,-6.35 -3.4789,-8.13449 -4.40167,-10.31576 -4.40167,-10.40467 0,-0.0678 1.3088,-0.094 4.68726,-0.094 h 4.68726 l 0.27406,0.65617 c 0.15073,0.36089 0.58934,1.39912 0.97469,2.30717 0.38534,0.90805 0.95689,2.2606 1.27011,3.00566 0.31322,0.74507 0.92764,2.20239 1.36538,3.2385 0.43775,1.03611 1.15406,2.73156 1.5918,3.76767 0.43775,1.03611 1.05131,2.49343 1.36348,3.2385 0.31218,0.74507 0.73761,1.75472 0.94541,2.24367 0.2078,0.48895 0.479,1.12712 0.60268,1.41816 0.12368,0.29104 0.24498,0.52909 0.26954,0.52899 0.043,-1.7e-4 0.32729,-0.76693 1.02029,-2.75149 0.17887,-0.51223 0.55264,-1.57903 0.83059,-2.37066 0.27796,-0.79164 1.0448,-2.98239 1.70409,-4.86834 0.65929,-1.88595 1.2957,-3.6957 1.41423,-4.02166 0.11854,-0.32597 0.39978,-1.12607 0.62498,-1.778 0.2252,-0.65194 0.60596,-1.73779 0.84612,-2.413 0.24015,-0.67522 0.5126,-1.44675 0.60544,-1.7145 l 0.1688,-0.48684 h 4.47456 c 2.48399,0 4.49504,0.0331 4.5206,0.0745 0.0253,0.041 -0.16129,0.66009 -0.41469,1.37583 -0.2534,0.71574 -0.71292,2.02525 -1.02116,2.91002 -0.30825,0.88476 -0.93592,2.67546 -1.39482,3.97933 -0.4589,1.30387 -1.33431,3.79942 -1.94536,5.54567 -0.61104,1.74625 -1.36077,3.87985 -1.66606,4.74133 -0.30529,0.86148 -0.79471,2.25213 -1.08761,3.09033 -0.91884,2.62949 -1.7097,4.88339 -1.97561,5.63034 -0.14091,0.39581 -0.56637,1.61501 -0.94546,2.70933 -1.6138,4.65859 -2.0529,5.81267 -2.6617,6.99553 -1.0074,1.95732 -1.95951,3.29079 -3.4294,4.80304 -2.00444,2.06221 -3.97274,3.33951 -6.60817,4.28826 -1.70999,0.6156 -3.85188,1.01584 -5.43632,1.01584 h -0.74435 z M 90.745844,128.287 c -4.05515,-0.50147 -7.81626,-2.36381 -10.644387,-5.27064 -4.50115,-4.62641 -6.119707,-11.20851 -4.282418,-17.41509 1.532969,-5.17856 5.625751,-9.58692 10.651145,-11.47242 1.11597,-0.4187 1.73052,-0.59414 3.00566,-0.85801 1.44058,-0.29811 4.19994,-0.3778 5.67267,-0.16383 5.017886,0.72907 9.208316,3.26837 12.077456,7.31866 0.346,0.48843 0.61809,0.94506 0.60465,1.01473 -0.0134,0.0697 -0.3483,0.32396 -0.74411,0.56509 -0.39582,0.24112 -2.00819,1.22502 -3.58305,2.18643 -1.57486,0.96141 -2.89065,1.74802 -2.92397,1.74802 -0.0333,0 -0.26658,-0.28802 -0.51833,-0.64004 -1.178346,-1.64765 -3.088696,-2.92483 -5.156716,-3.44756 -0.60912,-0.15397 -0.96728,-0.18422 -2.16893,-0.1832 -1.25516,0.001 -1.53142,0.027 -2.159,0.20262 -2.66256,0.74506 -4.70344,2.40451 -5.88834,4.78784 -2.26398,4.55383 -0.34353,9.99645 4.30223,12.19263 2.91744,1.37916 6.26071,1.07243 9.0169,-0.82726 0.71075,-0.48987 1.91696,-1.72227 2.353286,-2.40435 0.21524,-0.33647 0.34095,-0.45771 0.44393,-0.4281 0.37302,0.10726 7.25847,4.11291 7.28266,4.23673 0.0149,0.076 -0.22209,0.51241 -0.52654,0.96973 -2.76346,4.15105 -6.93027,6.86093 -11.946456,7.76935 -0.9029,0.16352 -3.91248,0.23688 -4.86834,0.11867 z m 133.548436,0.002 c -5.10118,-0.41904 -9.34559,-4.36572 -10.22932,-9.51178 -0.10922,-0.63603 -0.12912,-1.93117 -0.12912,-8.40316 v -7.65125 l -2.81517,-10e-4 c -1.54834,-6.8e-4 -2.86315,-0.0318 -2.9218,-0.069 -0.0839,-0.0533 -0.10194,-0.96939 -0.0847,-4.29554 l 0.022,-4.22784 2.89983,-0.0223 2.89984,-0.0223 v -3.08559 -3.08558 l 0.86783,-0.26391 c 0.47731,-0.14515 1.55363,-0.47281 2.39183,-0.72813 4.11931,-1.25477 5.12736,-1.55523 5.21773,-1.55523 0.0412,0 0.0739,1.93129 0.0739,4.35945 v 4.35945 l 3.7465,0.0221 3.7465,0.0221 v 4.27566 c 0,3.35845 -0.0227,4.27794 -0.10584,4.28625 -0.0582,0.006 -1.74493,0.0154 -3.74828,0.0212 l -3.64245,0.0106 0.0229,7.47184 c 0.0227,7.40277 0.0246,7.47535 0.20173,7.85283 0.26875,0.57272 0.82359,1.14538 1.3694,1.41341 l 0.48382,0.23759 2.70933,0.0423 2.70934,0.0423 0.0219,4.24442 0.022,4.24442 -0.19128,0.0513 c -0.26378,0.0707 -4.58655,0.0439 -5.5385,-0.0343 z m -35.92778,-0.12125 c -7.26073,-0.9464 -13.1653,-6.22813 -14.86307,-13.29527 -0.34422,-1.43286 -0.4617,-2.47598 -0.46004,-4.08461 0.002,-2.2345 0.28891,-3.93239 0.99696,-5.90606 2.14868,-5.9894 7.22339,-10.24352 13.60649,-11.40627 1.35173,-0.24624 4.28178,-0.26602 5.58748,-0.0377 1.80017,0.31474 3.2275,0.76801 4.82652,1.53271 1.62567,0.77746 2.53382,1.36571 3.89616,2.52373 3.16134,2.68721 5.27534,6.48479 5.92701,10.64723 0.26262,1.67736 0.14932,4.74008 -0.23803,6.43467 l -0.10643,0.46566 -12.42286,0.0215 c -6.83257,0.0118 -12.42285,0.0412 -12.42285,0.0653 0,0.0241 0.10379,0.20497 0.23065,0.40188 0.47966,0.74452 1.27555,1.632 1.9542,2.17908 3.68968,2.97442 9.03475,2.61572 12.19934,-0.81868 l 0.58843,-0.6386 1.39077,1.08811 c 0.76492,0.59846 2.27147,1.77391 3.34789,2.61211 1.07643,0.8382 1.95855,1.5506 1.96027,1.5831 0.005,0.10213 -0.78755,1.01408 -1.48553,1.70849 -2.74216,2.72814 -6.27269,4.44014 -10.15049,4.92211 -1.1945,0.14847 -3.23028,0.1492 -4.36287,0.002 z m 9.88484,-21.71602 c 0.18321,-0.006 0.12071,-0.13116 -0.45162,-0.9029 -1.59093,-2.14525 -3.75787,-3.39559 -6.39257,-3.68855 -2.6015,-0.28928 -5.36233,0.71209 -7.24843,2.62903 -0.6105,0.62049 -1.5013,1.83143 -1.43095,1.94524 0.0244,0.0395 14.39311,0.0554 15.52357,0.0172 z m -35.9622,21.09253 c -0.0557,-0.0186 -0.0846,-3.3615 -0.0846,-9.79492 0,-10.65493 0.0191,-10.20451 -0.48539,-11.46842 -1.43592,-3.59768 -5.52512,-5.3941 -9.05824,-3.97937 -2.46904,0.98865 -4.14156,3.22855 -4.42388,5.9246 -0.0503,0.4804 -0.0848,4.51283 -0.0857,10.01261 l -0.001,9.20829 -4.2545,-0.0219 -4.2545,-0.022 -0.0247,-9.48267 c -0.0165,-6.32056 0.006,-9.80735 0.0667,-10.45633 0.41047,-4.37261 2.48192,-8.18381 5.92698,-10.90493 3.91556,-3.09275 9.25559,-4.10967 14.05467,-2.67648 1.85982,0.55541 3.83802,1.58106 5.24635,2.7201 3.07623,2.48802 5.0044,5.79193 5.67731,9.72807 0.1607,0.93997 0.16767,1.4009 0.16767,11.08998 0,8.02935 -0.0218,10.10988 -0.10584,10.11228 -0.75993,0.0217 -8.2989,0.0317 -8.36086,0.0111 z M 54.900761,122.83192 c -2.213717,-0.46056 -4.08355,-1.58922 -5.459999,-3.29574 -0.526983,-0.65335 -0.616536,-0.78612 -1.013124,-1.502 -0.895078,-1.6157 -1.329047,-3.78315 -1.138732,-5.68738 0.345448,-3.45645 2.304474,-6.35645 5.314609,-7.86736 0.736019,-0.36944 1.744961,-0.69073 2.598524,-0.82747 0.930605,-0.14909 2.882314,-0.0634 3.741912,0.16422 5.87914,1.55703 8.80907,8.3747 5.970338,13.89241 -1.243157,2.41636 -3.47519,4.23171 -6.096813,4.95864 -1.000524,0.27742 -2.975628,0.36047 -3.916715,0.16468 z"
       id="path21"
       inkscape:connector-curvature="0" />
  </g>
</svg>
