<?xml version="1.0" encoding="UTF-8" standalone="no"?>
<!-- Created with Inkscape (http://www.inkscape.org/) -->

<svg
   width="116.4166mm"
   height="18.341974mm"
   viewBox="0 0 116.41659 18.341974"
   version="1.1"
   id="svg5"
   inkscape:version="1.1 (c68e22c387, 2021-05-23)"
   sodipodi:docname="Firebolt.svg"
   xmlns:inkscape="http://www.inkscape.org/namespaces/inkscape"
   xmlns:sodipodi="http://sodipodi.sourceforge.net/DTD/sodipodi-0.dtd"
   xmlns="http://www.w3.org/2000/svg"
   xmlns:svg="http://www.w3.org/2000/svg">
  <sodipodi:namedview
     id="namedview7"
     pagecolor="#ffffff"
     bordercolor="#cccccc"
     borderopacity="1"
     inkscape:pageshadow="0"
     inkscape:pageopacity="1"
     inkscape:pagecheckerboard="0"
     inkscape:document-units="mm"
     showgrid="false"
     inkscape:zoom="2.4538768"
     inkscape:cx="219.85619"
     inkscape:cy="34.842825"
     inkscape:window-width="1920"
     inkscape:window-height="1017"
     inkscape:window-x="-4"
     inkscape:window-y="-4"
     inkscape:window-maximized="1"
     inkscape:current-layer="layer1" />
  <defs
     id="defs2">
    <clipPath
       clipPathUnits="userSpaceOnUse"
       id="clipPath838">
      <path
         d="M 0,103 H 375 V 0 H 0 Z"
         id="path836" />
    </clipPath>
  </defs>
  <g
     inkscape:label="Layer 1"
     inkscape:groupmode="layer"
     id="layer1"
     transform="translate(-14.484011,-117.86748)">
    <g
       id="g834"
       clip-path="url(#clipPath838)"
       transform="matrix(0.35277777,0,0,-0.35277777,6.7228294,145.03126)">
      <g
         id="g840"
         transform="translate(32.7932,65.6375)">
        <path
           d="m 0,0 v -9.091 c 0,-0.277 0.242,-0.501 0.538,-0.501 h 12.664 c 0.296,0 0.539,-0.223 0.539,-0.5 v -9.085 c 0,-0.276 -0.243,-0.5 -0.539,-0.5 H 0.532 c -0.296,0 -0.539,-0.224 -0.539,-0.5 v -19.177 c 0,-0.276 -0.242,-0.5 -0.538,-0.5 h -9.71 c -0.296,0 -0.538,0.224 -0.538,0.5 v 49.439 c 0,0.277 0.242,0.501 0.538,0.501 h 25.866 c 0.296,0 0.538,-0.224 0.538,-0.501 V 1.001 C 16.149,0.724 15.907,0.5 15.611,0.5 H 0.538 C 0.236,0.5 0,0.276 0,0"
           style="fill:#f72a30;fill-opacity:1;fill-rule:nonzero;stroke:none"
           id="path842" />
      </g>
      <g
         id="g844"
         transform="translate(59.009,26.2771)">
        <path
           d="m 0,0 v 49.446 c 0,0.276 0.242,0.5 0.538,0.5 h 9.717 c 0.296,0 0.538,-0.224 0.538,-0.5 L 10.793,0 c 0,-0.276 -0.242,-0.5 -0.538,-0.5 H 0.538 C 0.242,-0.5 0,-0.276 0,0"
           style="fill:#f72a30;fill-opacity:1;fill-rule:nonzero;stroke:none"
           id="path846" />
      </g>
      <g
         id="g848"
         transform="translate(107.821,26.0401)">
        <path
           d="m 0,0 -10.564,18.729 c -0.095,0.165 -0.276,0.27 -0.478,0.27 h -4.347 c -0.296,0 -0.538,-0.224 -0.538,-0.5 V 0.237 c 0,-0.276 -0.243,-0.5 -0.539,-0.5 h -9.709 c -0.297,0 -0.539,0.224 -0.539,0.5 v 49.446 c 0,0.276 0.242,0.5 0.539,0.5 H -5.43 c 18.982,0 21.075,-24.66 5.908,-29.453 C 0.155,20.632 0.013,20.283 0.175,20.006 L 11.93,0.48 C 12.132,0.145 11.877,-0.263 11.466,-0.263 H 0.484 C 0.276,-0.263 0.094,-0.165 0,0 m -15.921,29.308 c 0,-0.276 0.243,-0.5 0.539,-0.5 h 8.969 c 7.321,0 7.321,11.29 0,11.29 h -8.969 c -0.296,0 -0.539,-0.224 -0.539,-0.501 z"
           style="fill:#f72a30;fill-opacity:1;fill-rule:nonzero;stroke:none"
           id="path850" />
      </g>
      <g
         id="g852"
         transform="translate(196.071,31.6487)">
        <path
           d="m 0,0 h 7.751 c 0.168,0 0.33,0.072 0.431,0.204 1.965,2.515 3.136,5.642 3.136,9.058 0,3.733 -1.817,7.406 -5.013,9.704 -0.276,0.197 -0.276,0.586 0,0.79 2.987,2.245 4.266,5.958 4.414,9.552 0.228,8.894 -5.74,15.312 -15.322,15.312 h -20.826 c -0.296,0 -0.538,-0.223 -0.538,-0.5 V 1.455 c 0,-0.277 -0.243,-0.5 -0.539,-0.5 h -5.134 c -0.155,0 -0.303,-0.066 -0.404,-0.172 -0.747,-0.803 -0.154,-1.718 0.673,-1.718 h 5.404 v -0.013 h 5.887 c 0.27,0 0.505,-0.184 0.532,-0.434 0.027,-0.283 -0.209,-0.514 -0.505,-0.514 h -5.376 c -0.296,0 -0.538,-0.224 -0.538,-0.5 v -2.996 c 0,-0.276 0.242,-0.5 0.538,-0.5 H -4.61 c 4.206,0 8.048,1.547 10.901,4.095 0.35,0.309 0.114,0.862 -0.37,0.862 h -5.948 c -0.296,0 -0.532,0.237 -0.505,0.514 C -0.512,-0.184 -0.27,0 0,0 m -19.635,31.961 h 3.996 c 0.297,0 0.539,0.224 0.539,0.5 v 1.561 c 0,0.276 0.242,0.5 0.538,0.5 h 9.051 c 2.489,0 4.198,-1.462 4.77,-3.502 0.088,-0.316 -0.168,-0.632 -0.518,-0.632 h -1.648 c -0.155,0 -0.303,-0.066 -0.404,-0.171 -0.747,-0.804 -0.155,-1.719 0.673,-1.719 h 2.032 v -0.013 h 2.994 c 0.269,0 0.512,-0.184 0.532,-0.428 0.027,-0.283 -0.209,-0.513 -0.505,-0.513 h -2.893 c -0.222,0 -0.417,-0.125 -0.498,-0.316 -0.734,-1.672 -2.322,-2.857 -4.529,-2.857 H -8.6 -14.555 c -0.296,0 -0.538,0.224 -0.538,0.5 v 5.648 c 0,0.277 -0.243,0.501 -0.539,0.501 h -4.024 c -0.296,0 -0.531,0.237 -0.504,0.513 0.02,0.244 0.262,0.428 0.525,0.428 M -5.518,4.18 h -3.096 -5.955 c -0.296,0 -0.538,0.224 -0.538,0.501 v 9.091 c 0,0.276 0.242,0.5 0.538,0.5 h 9.051 c 1.48,0 2.792,-0.5 3.755,-1.336 0.356,-0.31 0.121,-0.869 -0.371,-0.869 h -6.002 c -0.155,0 -0.303,-0.066 -0.403,-0.171 -0.747,-0.803 -0.149,-1.718 0.672,-1.718 h 7.698 V 10.164 H 3.425 C 3.694,10.164 3.936,9.98 3.956,9.73 3.983,9.447 3.748,9.216 3.451,9.216 H 0.423 C 0.148,9.216 -0.081,9.019 -0.108,8.762 -0.371,6.175 -2.611,4.18 -5.518,4.18"
           style="fill:#f72a30;fill-opacity:1;fill-rule:nonzero;stroke:none"
           id="path854" />
      </g>
      <g
         id="g856"
         transform="translate(269.113,60.5817)">
        <path
           d="m 0,0 h -4.071 c -0.269,0 -0.505,0.184 -0.532,0.428 -0.027,0.283 0.209,0.513 0.505,0.513 h 1.763 c 1.124,0 1.85,1.113 1.339,2.048 -4.132,7.682 -12.375,13.429 -24.715,13.429 -10.538,0 -18.088,-4.187 -22.643,-10.19 -0.868,-1.146 -2.295,-1.817 -3.802,-1.817 h -3.91 c -0.154,0 -0.302,-0.066 -0.403,-0.171 -0.747,-0.804 -0.155,-1.719 0.672,-1.719 h 5.114 c 0,-0.006 -0.006,-0.006 -0.006,-0.013 h 6.184 c 0.269,0 0.504,-0.184 0.531,-0.434 0.027,-0.283 -0.208,-0.514 -0.504,-0.514 h -4.327 c -1.474,0 -2.772,-0.889 -3.237,-2.199 -5.349,-15.16 3.432,-34.936 26.331,-34.936 23.053,0 31.794,20.045 26.215,35.246 C 0.43,-0.138 0.229,0 0,0 m -1.534,-10.612 h -6.46 c -0.855,0 -1.595,-0.586 -1.716,-1.382 -0.047,-0.316 -0.101,-0.639 -0.168,-0.955 -0.209,-1.014 -1.151,-1.751 -2.254,-1.751 h -10.814 c -0.558,0 -1.016,-0.421 -1.016,-0.948 0,-0.52 0.458,-0.948 1.016,-0.948 h 11.85 c 0,-0.007 -0.007,-0.007 -0.007,-0.013 h 2.025 c 0.27,0 0.505,-0.185 0.532,-0.428 0.027,-0.283 -0.209,-0.514 -0.505,-0.514 h -0.37 c -1.285,0 -2.469,-0.599 -3.209,-1.58 -2.658,-3.541 -7.019,-6.01 -13.088,-6.01 -11.11,0 -16.5,8.262 -16.17,16.28 0.061,1.541 -1.245,2.818 -2.893,2.818 h -3.008 c -0.269,0 -0.511,0.184 -0.532,0.428 -0.027,0.283 0.209,0.513 0.505,0.513 h 3.916 c 1.474,0 2.793,0.836 3.351,2.113 2.214,5.082 7.16,9.026 14.838,9.026 8.962,0 14.204,-5.379 15.718,-11.672 0.263,-1.093 -0.625,-2.133 -1.823,-2.133 h -1.279 c -0.154,0 -0.303,-0.066 -0.403,-0.171 -0.747,-0.803 -0.155,-1.718 0.672,-1.718 h 3.298 v -0.014 h 8.021 c 0.296,0 0.531,-0.237 0.504,-0.513 -0.02,-0.244 -0.262,-0.428 -0.531,-0.428"
           style="fill:#f72a30;fill-opacity:1;fill-rule:nonzero;stroke:none"
           id="path858" />
      </g>
      <g
         id="g860"
         transform="translate(305.799,29.8385)">
        <path
           d="M 0,0 H 3.129 C 4.65,0 5.881,1.152 5.881,2.574 v 2.943 c 0,0.276 -0.242,0.5 -0.538,0.5 h -16.056 c -0.296,0 -0.538,0.224 -0.538,0.5 v 20.882 c 0,0.829 -0.72,1.508 -1.608,1.508 h -1.104 c -0.269,0 -0.504,0.184 -0.531,0.427 -0.027,0.284 0.208,0.514 0.504,0.514 h 2.208 c 0.296,0 0.538,0.224 0.538,0.5 v 15.536 c 0,0.277 -0.242,0.501 -0.538,0.501 h -9.717 c -0.296,0 -0.538,-0.224 -0.538,-0.501 v -2.179 c 0,-0.849 -0.734,-1.533 -1.642,-1.533 h -7.725 c -0.155,0 -0.303,-0.066 -0.404,-0.172 -0.747,-0.803 -0.155,-1.725 0.673,-1.725 h 9.104 v -0.013 h 2.194 c 0.269,0 0.505,-0.184 0.532,-0.428 0.027,-0.283 -0.209,-0.513 -0.505,-0.513 h -1.682 c -0.296,0 -0.539,-0.224 -0.539,-0.5 V 21.632 c 0,-0.276 -0.242,-0.5 -0.538,-0.5 h -3.223 c -0.155,0 -0.303,-0.066 -0.404,-0.171 -0.747,-0.803 -0.155,-1.718 0.673,-1.718 h 3.492 v -0.014 h 3.176 c 0.27,0 0.505,-0.184 0.532,-0.428 0.027,-0.283 -0.209,-0.513 -0.505,-0.513 h -1.541 c -0.915,0 -1.662,-0.698 -1.662,-1.554 V 6.379 c 0,-0.928 -0.8,-1.679 -1.79,-1.679 h -7.576 c -0.155,0 -0.303,-0.065 -0.404,-0.171 -0.747,-0.803 -0.155,-1.718 0.673,-1.718 h 9.104 V 2.798 h 2.194 c 0.269,0 0.504,-0.184 0.531,-0.428 0.027,-0.283 -0.208,-0.513 -0.504,-0.513 h -1.494 c -0.404,0 -0.727,-0.303 -0.727,-0.679 0,-0.375 -0.323,-0.678 -0.727,-0.678 h -4.945 c -0.155,0 -0.303,-0.065 -0.404,-0.171 -0.747,-0.803 -0.155,-1.718 0.673,-1.718 h 5.403 v -0.013 h 5.888 c 0.269,0 0.505,-0.185 0.532,-0.435 0.026,-0.283 -0.209,-0.513 -0.505,-0.513 h -5.013 c -0.498,0 -0.902,-0.375 -0.902,-0.843 0,-0.467 0.404,-0.842 0.902,-0.842 H 5.363 c 0.296,0 0.538,0.223 0.538,0.5 v 2.12 c 0,0.276 -0.242,0.5 -0.538,0.5 h -5.377 c -0.296,0 -0.531,0.237 -0.504,0.513 C -0.511,-0.178 -0.269,0 0,0"
           style="fill:#f72a30;fill-opacity:1;fill-rule:nonzero;stroke:none"
           id="path862" />
      </g>
      <g
         id="g864"
         transform="translate(346.112,73.8073)">
        <path
           d="m 0,0 h 4.905 c 0.538,0 0.976,0.408 0.976,0.915 v 0.968 c 0,0.276 -0.242,0.5 -0.538,0.5 h -30.213 -6.904 -3.903 c -0.559,0 -1.016,-0.421 -1.016,-0.948 0,-0.52 0.451,-0.948 1.016,-0.948 h 3.903 V 0.474 h 7.388 c 0.269,0 0.505,-0.184 0.532,-0.435 0.027,-0.282 -0.209,-0.513 -0.505,-0.513 h -6.177 c -0.686,0 -1.238,-0.52 -1.238,-1.159 V -3.18 c 0,-0.796 0.686,-1.441 1.541,-1.441 h 1.278 c 0.269,0 0.505,-0.185 0.532,-0.428 0.027,-0.283 -0.209,-0.514 -0.505,-0.514 h -1.628 c -0.673,0 -1.218,-0.507 -1.218,-1.139 0,-0.52 0.451,-0.934 1.002,-0.934 h 11.89 c 0.296,0 0.539,-0.224 0.539,-0.501 v -7.195 c 0,-0.277 -0.243,-0.5 -0.539,-0.5 h -9.016 c -0.155,0 -0.303,-0.066 -0.404,-0.172 -0.747,-0.803 -0.155,-1.718 0.673,-1.718 h 9.286 v -0.013 h 2.005 c 0.269,0 0.505,-0.184 0.532,-0.428 0.026,-0.283 -0.209,-0.513 -0.505,-0.513 h -1.494 c -0.296,0 -0.538,-0.224 -0.538,-0.501 v -13.172 c 0,-0.277 -0.243,-0.501 -0.539,-0.501 h -2.328 c -0.558,0 -1.016,-0.421 -1.016,-0.948 0,-0.52 0.451,-0.948 1.016,-0.948 h 2.867 v -0.013 h 4.865 c 0.269,0 0.504,-0.184 0.531,-0.434 0.027,-0.283 -0.208,-0.514 -0.504,-0.514 h -4.354 c -0.296,0 -0.538,-0.224 -0.538,-0.5 v -3.476 c 0,-0.276 -0.243,-0.5 -0.539,-0.5 h -5.894 c -0.559,0 -1.016,-0.422 -1.016,-0.948 0,-0.52 0.451,-0.948 1.016,-0.948 h 6.433 v -0.013 h 4.865 c 0.269,0 0.504,-0.185 0.531,-0.428 0.027,-0.283 -0.208,-0.514 -0.504,-0.514 h -4.354 c -0.296,0 -0.538,-0.224 -0.538,-0.5 v -3.963 c 0,-0.277 0.242,-0.5 0.538,-0.5 h 9.353 c 0.498,0 0.902,0.375 0.902,0.842 0,0.468 -0.404,0.843 -0.902,0.843 h -4.972 c -0.27,0 -0.505,0.184 -0.532,0.428 -0.027,0.283 0.209,0.513 0.505,0.513 h 4.071 c 1.009,0 1.83,0.764 1.83,1.712 v 14.871 c 0,0.277 -0.242,0.5 -0.538,0.5 h -1.454 c -0.269,0 -0.505,0.185 -0.531,0.428 -0.027,0.283 0.208,0.514 0.504,0.514 h 1.481 c 0.296,0 0.538,0.224 0.538,0.5 v 12.936 c 0,0.434 -0.377,0.79 -0.848,0.79 h -5.026 c -0.27,0 -0.505,0.184 -0.532,0.434 -0.027,0.283 0.209,0.514 0.505,0.514 h 3.546 c 1.298,0 2.355,0.987 2.355,2.205 v 1.83 c 0,0.277 0.242,0.501 0.538,0.501 H 5.349 c 0.296,0 0.539,0.223 0.539,0.5 v 0.665 c 0,0.5 -0.438,0.908 -0.976,0.908 H 3.977 c -0.27,0 -0.512,0.185 -0.532,0.435 -0.027,0.283 0.209,0.513 0.505,0.513 h 0.854 c 0.599,0 1.084,0.454 1.084,1.007 v 1.837 c 0,0.454 -0.391,0.823 -0.875,0.823 H -0.02 c -0.296,0 -0.532,0.237 -0.505,0.514 C -0.512,-0.184 -0.269,0 0,0"
           style="fill:#f72a30;fill-opacity:1;fill-rule:nonzero;stroke:none"
           id="path866" />
      </g>
      <g
         id="g868"
         transform="translate(158.765,26.2771)">
        <path
           d="m 0,0 v 9.085 c 0,0.276 -0.242,0.5 -0.538,0.5 h -16.055 c -0.296,0 -0.539,0.224 -0.539,0.5 v 9.092 c 0,0.276 0.243,0.5 0.539,0.5 h 13.114 c 0.297,0 0.539,0.224 0.539,0.5 v 3.568 c 0,0.007 -0.007,0.007 -0.007,0.013 v 1.923 0.013 3.568 c 0,0.276 -0.242,0.5 -0.538,0.5 H -16.6 c -0.296,0 -0.538,0.224 -0.538,0.501 v 9.097 c 0,0.277 0.242,0.501 0.538,0.501 h 15.154 c 0.296,0 0.538,0.224 0.538,0.5 v 9.085 c 0,0.276 -0.242,0.5 -0.538,0.5 h -25.94 c -0.297,0 -0.539,-0.224 -0.539,-0.5 V 38.215 h -0.006 v -1.949 c -0.007,-0.013 -0.007,-0.026 -0.007,-0.033 l -0.007,-2.33 h 0.014 v -4.246 h 0.006 V 18.466 h -0.006 l 0.006,-1.725 v -0.658 c 0,-0.02 -0.006,-0.033 -0.013,-0.053 l -0.007,-2.344 h 0.02 V 13.68 c 0,0 0,-0.007 0.007,-0.007 h 0.007 l 0.006,-1.369 c -0.006,-0.026 -0.02,-0.053 -0.02,-0.079 V 0 c 0,-0.276 0.242,-0.5 0.539,-0.5 H -0.538 C -0.242,-0.5 0,-0.276 0,0"
           style="fill:#f72a30;fill-opacity:1;fill-rule:nonzero;stroke:none"
           id="path870" />
      </g>
    </g>
  </g>
</svg>
