<?xml version="1.0" encoding="UTF-8"?><svg id="Layer_2" xmlns="http://www.w3.org/2000/svg" viewBox="0 0 472.59 219.21"><defs><style>.cls-1{fill:#00e6e6;}</style></defs><g id="Layer_1-2"><g><path class="cls-1" d="M420.61,120.09c7.18-8.32,11.53-19.15,11.53-31,0-26.23-21.26-47.49-47.49-47.49s-47.49,21.26-47.49,47.49c0,11.85,4.35,22.68,11.53,31-12.3,10.29-20.13,25.74-20.13,43.03,0,30.97,25.11,56.08,56.08,56.08s56.08-25.11,56.08-56.08c0-17.29-7.83-32.75-20.13-43.03Zm-35.95,71.79c-15.88,0-28.75-12.87-28.75-28.75s12.87-28.75,28.75-28.75,28.75,12.87,28.75,28.75-12.87,28.75-28.75,28.75Z"/><circle class="cls-1" cx="451.69" cy="20.9" r="20.9"/><path class="cls-1" d="M85.64,216.71c-23.35,0-43.46-8.19-60.33-24.57C8.44,175.76,0,154.91,0,129.6s8.44-46.2,25.31-62.66c16.87-16.46,37.51-24.7,61.93-24.7,18.18,0,34.36,4.47,48.53,13.39,8.72,5.5,15.97,12.41,21.74,20.73,5.05,7.28-.08,17.24-8.94,17.24h-9.45c-3.61,0-7.02-1.75-9.02-4.75-9.35-14.03-23.64-21.05-42.87-21.05-17.2,0-31.25,5.65-42.14,16.96-10.9,11.3-16.34,26.25-16.34,44.85s5.45,33.54,16.34,44.85c10.89,11.3,24.45,16.96,40.67,16.96s29.12-4.3,38.7-12.9c6.09-5.47,10.65-12.17,13.66-20.12,2.73-7.19-2.51-14.89-10.2-14.89h-39.33c-6.04,0-10.93-4.9-10.93-10.93h0c0-6.04,4.9-10.93,10.93-10.93h72.24c6.04,0,10.93,4.9,10.93,10.93v10.16c0,.52-.03,1.03-.1,1.54-2.75,20.14-11.89,37.21-27.42,51.2-15.73,14.17-35.26,21.26-58.61,21.26Z"/><path class="cls-1" d="M209.2,214.86h-1.13c-7.42,0-13.44-6.02-13.44-13.44V57.52c0-7.42,6.02-13.44,13.44-13.44h1.13c7.42,0,13.44,6.02,13.44,13.44V121.98l64.66-73.34c2.55-2.89,6.22-4.55,10.08-4.55h0c11.69,0,17.81,13.9,9.91,22.52l-49.7,54.25c-4.67,5.1-4.71,12.91-.1,18.05l48,53.54c7.76,8.66,1.62,22.42-10.01,22.42h-.61c-3.9,0-7.61-1.7-10.17-4.65l-62.08-71.77v62.98c0,7.42-6.02,13.44-13.44,13.44Z"/></g></g></svg>