<?xml version="1.0" encoding="utf-8"?>
<!-- Generator: Adobe Illustrator 24.1.1, SVG Export Plug-In . SVG Version: 6.00 Build 0)  -->
<svg version="1.1" id="Layer_1" xmlns="http://www.w3.org/2000/svg" xmlns:xlink="http://www.w3.org/1999/xlink" x="0px" y="0px"
	 viewBox="0 0 450 450" style="enable-background:new 0 0 450 450;" xml:space="preserve">
<style type="text/css">
	.st0{fill:url(#SVGID_1_);}
	.st1{fill:url(#SVGID_2_);}
	.st2{fill:#4D4D4F;}
</style>
<g>
	<g>
		<linearGradient id="SVGID_1_" gradientUnits="userSpaceOnUse" x1="303.0863" y1="-33.2707" x2="90.9565" y2="322.8043">
			<stop  offset="0" style="stop-color:#4E61A3"/>
			<stop  offset="1" style="stop-color:#63BA8A"/>
		</linearGradient>
		<path class="st0" d="M382.4,114c5.3-8.4,8.4-18.2,8.4-28.9c0-29.8-24.2-54-54-54c-0.5,0-239.2,0-239.2,0
			c65.9,2.1,124.5,23.3,164.3,55.7L120.1,301.7l138.4,0.2l51.4-77.8c0,0,0,0,0,0L382.4,114z"/>
		<g>
			<linearGradient id="SVGID_2_" gradientUnits="userSpaceOnUse" x1="-697.4031" y1="127.5971" x2="-695.1185" y2="127.5971">
				<stop  offset="0" style="stop-color:#00FFA3"/>
				<stop  offset="0.4636" style="stop-color:#00F9A1"/>
				<stop  offset="1" style="stop-color:#01EB9C"/>
			</linearGradient>
			<path class="st1" d="M390.8,85.1c0-29.8-24.2-54-54-54c-0.5,0-239.2,0-239.2,0c121.5,3.8,218.3,72.6,218.3,156.9
				c0,12.4-2.2,24.4-6.1,36l72.5-110C387.7,105.7,390.8,95.8,390.8,85.1z"/>
		</g>
	</g>
	<g>
		<g>
			<polygon class="st2" points="21.1,382.8 24.6,389 14.7,417.8 22.4,417.8 34.4,382.8 			"/>
			<path class="st2" d="M46.4,382.8h7.1l8.5,22.3l7.7-22.3h7.6l-12,35h-6.6l-8.9-23l-7.9,23h-7.6L46.4,382.8z"/>
			<path class="st2" d="M94.9,418.4c-2.4,0-4.6-0.4-6.5-1.1c-2-0.7-3.6-1.7-5-3.1c-1.4-1.3-2.4-2.9-3.1-4.8c-0.7-1.9-0.9-4-0.8-6.3
				c0.2-2.8,1-5.5,2.3-8c1.3-2.5,3-4.7,5.1-6.7c2.1-1.9,4.4-3.5,7.1-4.6c2.7-1.1,5.5-1.7,8.5-1.7c3.4,0,6.1,0.7,8.3,2
				c2.2,1.3,3.9,3.2,5.1,5.5l-6.7,4.5c-0.9-1.5-2-2.6-3.2-3.5c-1.2-0.9-2.9-1.3-5-1.3c-1.6,0-3.2,0.4-4.7,1.1
				c-1.5,0.7-2.9,1.7-4.2,2.9c-1.2,1.2-2.3,2.7-3.1,4.3c-0.8,1.7-1.3,3.4-1.4,5.3c-0.1,1.3,0,2.4,0.4,3.5c0.3,1,0.9,1.9,1.6,2.7
				c0.7,0.8,1.6,1.3,2.6,1.7c1,0.4,2.1,0.6,3.4,0.6c1.7,0,3.2-0.3,4.5-0.9c1.3-0.6,2.6-1.5,4-2.5l4.6,5.2c-1.8,1.6-3.8,2.9-6,3.9
				C100.4,417.9,97.9,418.4,94.9,418.4z"/>
			<path class="st2" d="M275,382.8h13.6c2.1,0,3.8,0.2,5.3,0.7c1.5,0.5,2.6,1.1,3.5,1.9c0.9,0.8,1.6,1.7,1.9,2.8
				c0.4,1.1,0.5,2.2,0.5,3.3c-0.2,2.3-1,4.2-2.5,5.7c-1.5,1.5-3.4,2.5-5.7,3c1.4,0.7,2.5,1.6,3.4,2.7c0.8,1.1,1.2,2.6,1,4.4
				c-0.1,1.6-0.6,3-1.3,4.3c-0.8,1.3-1.8,2.4-3.2,3.4c-1.3,1-3,1.7-4.9,2.2c-1.9,0.5-4.1,0.8-6.5,0.8h-17.2L275,382.8z M281.8,411.1
				c1.9,0,3.5-0.4,4.7-1.2c1.2-0.8,1.8-1.9,1.9-3.2c0.1-1-0.3-1.8-1-2.4c-0.8-0.6-1.9-0.9-3.5-0.9h-8.5l-2.6,7.7H281.8z M285.4,397
				c2,0,3.6-0.3,4.7-1c1.2-0.7,1.8-1.8,1.9-3.2c0.1-0.9-0.3-1.7-1-2.3c-0.7-0.6-1.9-0.9-3.6-0.9h-7.3l-2.5,7.4H285.4z"/>
			<path class="st2" d="M318.1,418.4c-2,0-3.8-0.3-5.4-0.8s-2.9-1.3-4-2.3c-1.1-1-1.8-2.2-2.3-3.7c-0.5-1.5-0.7-3.1-0.5-5
				c0.1-1.7,0.6-3.6,1.3-5.6l6.2-18.2h7.7l-6.5,18.9c-0.2,0.6-0.4,1.2-0.5,1.8s-0.2,1.3-0.3,2c-0.1,1.7,0.3,3.1,1.2,4.2
				c1,1.1,2.4,1.6,4.4,1.6c2.3,0,4.2-0.7,5.9-2.2c1.6-1.5,2.9-3.7,3.9-6.5l6.8-19.8h7.7l-7.2,20.9c-1.5,4.5-3.6,8-6.2,10.4
				c-1.5,1.4-3.3,2.5-5.3,3.2C323,418,320.7,418.4,318.1,418.4z"/>
			<path class="st2" d="M375.9,382.8h7.7l-9.6,28h17.5l-2.4,7h-25.2L375.9,382.8z"/>
			<g>
				<polygon class="st2" points="188.3,403.6 190.6,396.8 174.4,396.8 174.4,396.8 166.7,396.8 159.5,417.8 185.9,417.8 188.3,411 
					169.5,411 172,403.6 				"/>
				<polygon class="st2" points="171.5,382.8 169.2,389.7 176.8,389.7 176.8,389.7 195.3,389.7 197.7,382.8 				"/>
			</g>
			<path class="st2" d="M432.9,387.3c-1.2-1.3-2.9-2.4-5.1-3.3c-2.1-0.8-4.9-1.3-8.3-1.3h-16.6l4,7h11.5c2,0,3.6,0.2,4.9,0.7
				c1.3,0.5,2.3,1.1,3,1.9c1.3,1.4,1.8,3.2,1.6,5.6c-0.1,1.7-0.5,3.3-1.3,4.8c-0.7,1.5-1.7,2.8-2.9,4c-1.5,1.4-3.3,2.5-5.4,3.2
				c-2.1,0.7-4.3,1.1-6.6,1.1h-4.4l4.9-14.1h-7.7l-7.2,21h13c4.1,0,7.7-0.6,10.8-1.7c3.1-1.1,5.8-2.7,8.1-4.8c2-1.9,3.6-4,4.8-6.4
				c1.1-2.3,1.8-4.8,2-7.5C436.2,393.3,435.2,389.9,432.9,387.3z"/>
			<path class="st2" d="M236.4,387.3c-1.2-1.3-2.9-2.4-5.1-3.3c-2.1-0.8-4.9-1.3-8.3-1.3h-16.6l4,7h11.5c2,0,3.6,0.2,4.9,0.7
				c1.3,0.5,2.3,1.1,3,1.9c1.3,1.4,1.8,3.2,1.6,5.6c-0.1,1.7-0.5,3.3-1.3,4.8c-0.7,1.5-1.7,2.8-2.9,4c-1.5,1.4-3.3,2.5-5.4,3.2
				c-2.1,0.7-4.3,1.1-6.6,1.1h-4.4l4.9-14.1H208l-7.2,21h13c4.1,0,7.7-0.6,10.8-1.7c3.1-1.1,5.8-2.7,8.1-4.8c2-1.9,3.6-4,4.8-6.4
				c1.1-2.3,1.8-4.8,2-7.5C239.7,393.3,238.7,389.9,236.4,387.3z"/>
			<path class="st2" d="M152.9,386.3c-1.1-1.2-2.5-2-4.3-2.6c-1.8-0.6-4-0.9-6.6-0.9h-12.7h0h-5.4l3,7h7.7h2.5h4
				c2.4,0,4.1,0.5,5,1.5c0.7,0.7,1,1.7,0.9,2.8c-0.1,1.4-0.7,2.6-1.7,3.6c-0.8,0.8-1.9,1.3-3.1,1.7c-1.2,0.4-2.6,0.6-4.1,0.6h-6.9
				l0,0h-7.8l-6.2,18h7.7l3.8-11.2h5.8l4.6,11.2h8.8l-5.1-12c3.5-0.8,6.3-2.2,8.4-4.2c1.1-1,2-2.3,2.6-3.7c0.7-1.4,1-3,1.2-4.7
				C155.3,390.5,154.6,388.1,152.9,386.3z"/>
			<polygon class="st2" points="249.2,382.8 252.7,389 242.8,417.8 250.5,417.8 262.5,382.8 			"/>
			<polygon class="st2" points="351.4,382.8 354.9,389 345,417.8 352.7,417.8 364.7,382.8 			"/>
		</g>
	</g>
</g>
</svg>
