<?xml version="1.0" encoding="UTF-8" standalone="no"?>
<!-- Created with Inkscape (http://www.inkscape.org/) -->

<svg
   version="1.1"
   id="svg325"
   width="128.97467"
   height="60"
   viewBox="0 0 128.97467 60"
   xmlns="http://www.w3.org/2000/svg"
   xmlns:svg="http://www.w3.org/2000/svg">
  <defs
     id="defs329">
    <clipPath
       clipPathUnits="userSpaceOnUse"
       id="clipPath343">
      <path
         d="M 0,45 H 96.731 V 0 H 0 Z"
         id="path341" />
    </clipPath>
  </defs>
  <g
     id="g333"
     transform="matrix(1.3333333,0,0,-1.3333333,0,60)">
    <path
       d="M 1.336,40.308 H 5.1 v 3.765 H 1.336 Z"
       style="fill:#00b1e2;fill-opacity:1;fill-rule:nonzero;stroke:none"
       id="path335" />
    <g
       id="g337">
      <g
         id="g339"
         clip-path="url(#clipPath343)">
        <g
           id="g345"
           transform="translate(33.0566,32.5275)">
          <path
             d="m 0,0 c -0.001,0.991 1.138,2.722 3.591,2.725 2.454,0 3.595,-1.729 3.595,-2.721 z m 10.609,-1.243 c 0,0.971 -0.173,1.892 -0.515,2.739 C 9.752,2.34 9.27,3.093 8.658,3.731 8.047,4.368 7.305,4.874 6.451,5.233 5.598,5.593 4.645,5.775 3.619,5.775 2.648,5.775 1.723,5.588 0.869,5.22 0.014,4.851 -0.738,4.345 -1.368,3.716 -1.997,3.086 -2.503,2.334 -2.872,1.48 -3.24,0.626 -3.427,-0.299 -3.427,-1.27 c 0,-0.972 0.178,-1.898 0.529,-2.751 0.351,-0.855 0.843,-1.607 1.462,-2.235 0.621,-0.63 1.381,-1.136 2.263,-1.504 0.881,-0.368 1.858,-0.555 2.902,-0.555 3.017,0 4.9,1.373 6.024,2.657 L 7.186,-3.703 C 6.645,-4.345 5.36,-5.215 3.756,-5.215 c -1.006,0 -1.835,0.233 -2.463,0.692 -0.628,0.459 -1.061,1.091 -1.287,1.879 l -0.035,0.126 H 10.609 Z M -14,4.167 c -0.987,1.067 -2.383,1.608 -4.149,1.608 -0.851,0 -1.638,-0.175 -2.34,-0.521 -0.702,-0.346 -1.298,-0.832 -1.772,-1.445 l -0.195,-0.25 -0.001,0.225 V 5.5 h -3.519 V -8.041 h 3.546 v 7.214 l 0.003,-0.5 c 0,0.083 0.002,0.164 0.004,0.244 0.036,1.265 0.353,2.209 0.941,2.808 0.628,0.639 1.389,0.963 2.264,0.963 1.029,0 1.815,-0.316 2.335,-0.938 0.509,-0.609 0.77,-1.482 0.775,-2.595 h 0.001 v -0.028 -0.006 -7.162 h 3.6 v 7.687 c 0,1.93 -0.502,3.451 -1.493,4.521 M 16.035,11.82 H 12.468 V -8.041 h 3.567 z M -4.41,-8.178 v 3.32 c -0.526,0.004 -0.959,0.031 -1.291,0.084 -0.367,0.058 -0.649,0.183 -0.837,0.371 -0.188,0.187 -0.313,0.46 -0.371,0.809 -0.055,0.334 -0.084,0.774 -0.084,1.307 V 2.45 H -4.41 V 5.5 h -2.583 v 5.276 h -3.567 v -13.09 c 0,-1.104 0.096,-2.043 0.286,-2.792 0.187,-0.74 0.506,-1.344 0.95,-1.796 0.443,-0.452 1.029,-0.781 1.742,-0.977 0.719,-0.199 1.635,-0.299 2.721,-0.299 z M -28.056,5.5 h -3.567 V -8.041 h 3.567 z"
             style="fill:#0e7dc2;fill-opacity:1;fill-rule:nonzero;stroke:none"
             id="path347" />
        </g>
        <g
           id="g349"
           transform="translate(52.0381,43.1388)">
          <path
             d="M 0,0 C -0.043,-0.003 -0.085,-0.005 -0.128,-0.005 H -0.33 v 0.422 h 0.202 C -0.085,0.417 -0.043,0.416 0,0.414 0.043,0.411 0.081,0.403 0.115,0.389 0.15,0.375 0.178,0.353 0.199,0.325 0.221,0.296 0.23,0.257 0.23,0.208 0.23,0.158 0.221,0.119 0.199,0.09 0.178,0.062 0.15,0.041 0.115,0.026 0.081,0.012 0.043,0.003 0,0 m 0.149,-0.218 c 0.103,0.011 0.189,0.051 0.257,0.117 0.068,0.066 0.102,0.165 0.102,0.298 0,0.147 -0.043,0.259 -0.13,0.337 -0.086,0.078 -0.221,0.117 -0.402,0.117 h -0.582 v -1.508 h 0.276 v 0.617 h 0.202 L 0.249,-0.857 H 0.54 Z M 0.902,-0.534 C 0.845,-0.667 0.768,-0.782 0.669,-0.88 0.571,-0.979 0.456,-1.056 0.323,-1.113 0.19,-1.17 0.05,-1.198 -0.1,-1.198 c -0.148,0 -0.29,0.028 -0.421,0.085 -0.133,0.057 -0.249,0.134 -0.347,0.233 -0.098,0.098 -0.176,0.213 -0.233,0.346 -0.056,0.132 -0.085,0.273 -0.085,0.422 0,0.149 0.029,0.29 0.085,0.423 0.057,0.132 0.135,0.248 0.233,0.346 0.098,0.098 0.214,0.176 0.347,0.232 0.131,0.057 0.273,0.086 0.421,0.086 0.15,0 0.29,-0.029 0.423,-0.086 C 0.456,0.833 0.571,0.755 0.669,0.657 0.768,0.559 0.845,0.443 0.902,0.311 0.959,0.178 0.987,0.037 0.987,-0.112 c 0,-0.149 -0.028,-0.29 -0.085,-0.422 M 1.117,0.401 C 1.047,0.561 0.952,0.701 0.833,0.82 0.713,0.939 0.573,1.034 0.414,1.104 0.254,1.174 0.083,1.209 -0.1,1.209 -0.281,1.209 -0.452,1.174 -0.612,1.104 -0.772,1.034 -0.912,0.939 -1.031,0.82 -1.15,0.701 -1.245,0.561 -1.315,0.401 -1.385,0.241 -1.42,0.07 -1.42,-0.112 c 0,-0.182 0.035,-0.353 0.105,-0.513 0.07,-0.16 0.165,-0.299 0.284,-0.419 0.119,-0.12 0.259,-0.214 0.419,-0.284 0.16,-0.07 0.331,-0.105 0.512,-0.105 0.183,0 0.354,0.035 0.514,0.105 0.159,0.07 0.299,0.164 0.419,0.284 0.119,0.12 0.214,0.259 0.284,0.419 0.07,0.16 0.105,0.331 0.105,0.513 0,0.182 -0.035,0.353 -0.105,0.513"
             style="fill:#0e7dc2;fill-opacity:1;fill-rule:nonzero;stroke:none"
             id="path351" />
        </g>
        <g
           id="g353"
           transform="translate(0,3.0563)">
          <path
             d="m 0,0 1.135,1.699 c 1.729,-1.448 3.107,-1.977 4.62,-1.977 2.161,0 3.458,0.975 3.458,2.228 0,1.253 -0.73,1.922 -3.458,1.977 C 2,4.066 0.514,5.32 0.514,7.826 c 0,2.312 2.053,4.15 5.16,4.15 2.053,0 3.836,-0.697 5.349,-2.005 L 9.969,8.272 C 8.375,9.581 7.079,10.026 5.646,10.026 3.783,10.026 2.648,9.052 2.648,7.937 2.648,6.796 3.323,6.1 5.782,5.988 9.78,5.876 11.348,4.68 11.348,2.09 11.348,-0.418 9.105,-2.2 5.701,-2.2 3.485,-2.2 1.567,-1.448 0,0"
             style="fill:#00b1e2;fill-opacity:1;fill-rule:nonzero;stroke:none"
             id="path355" />
        </g>
        <g
           id="g357"
           transform="translate(24.3149,7.9303)">
          <path
             d="m 0,0 c 0,2.841 -1.973,5.124 -4.566,5.124 -2.567,0 -4.539,-2.228 -4.539,-5.152 0,-2.868 1.972,-5.124 4.566,-5.124 C -1.973,-5.152 0,-2.924 0,0 m -11.347,-0.028 c 0,4.01 2.945,7.13 6.835,7.13 3.864,0 6.755,-3.091 6.755,-7.102 0,-4.011 -2.945,-7.13 -6.836,-7.13 -3.864,0 -6.754,3.092 -6.754,7.102"
             style="fill:#00b1e2;fill-opacity:1;fill-rule:nonzero;stroke:none"
             id="path359" />
        </g>
        <g
           id="g361"
           transform="translate(32.0698,20.7135)">
          <path
             d="M 0,0 H 1.783 V -1.894 H 0.324 c -0.946,0 -1.512,-0.501 -1.512,-1.67 V -6.043 H 1.783 V -8.049 H -1.188 V -19.495 H -3.377 V -3.509 C -3.377,-1.226 -2.188,0 0,0"
             style="fill:#00b1e2;fill-opacity:1;fill-rule:nonzero;stroke:none"
             id="path363" />
        </g>
        <g
           id="g365"
           transform="translate(35.6084,18.7916)">
          <path
             d="M 0,0 H 2.188 V -4.121 H 5.214 V -6.127 H 2.188 v -7.658 c 0,-1.281 0.622,-1.755 1.594,-1.755 h 1.432 v -2.033 H 3.458 C 1.027,-17.573 0,-16.459 0,-13.98 Z"
             style="fill:#00b1e2;fill-opacity:1;fill-rule:nonzero;stroke:none"
             id="path367" />
        </g>
        <g
           id="g369"
           transform="translate(55.0869,1.2184)">
          <path
             d="M 0,0 -3.62,10.305 -7.268,0 h -2.107 l -3.296,13.452 h 2.242 l 2.324,-10.333 3.512,10.333 h 1.946 L 0.892,3.176 3.216,13.452 H 5.431 L 2.162,0 Z"
             style="fill:#00b1e2;fill-opacity:1;fill-rule:nonzero;stroke:none"
             id="path371" />
        </g>
        <g
           id="g373"
           transform="translate(63.3193,5.0895)">
          <path
             d="m 0,0 c 0,-1.225 1.081,-2.34 2.999,-2.34 2.404,0 4.539,1.728 4.674,4.652 H 3.863 C 1.026,2.312 0,1.477 0,0 m 7.699,-1.754 c -1.106,-1.532 -2.971,-2.395 -4.97,-2.395 -2.891,0 -4.89,1.615 -4.89,4.094 0,2.562 1.756,4.149 5.997,4.149 H 7.673 C 7.646,6.601 6.35,8.021 4.053,8.021 2.594,8.021 1.27,7.353 0.055,6.211 l -1.162,1.503 c 1.35,1.338 3.133,2.257 5.376,2.257 3.647,0 5.565,-2.451 5.565,-6.016 V -3.871 H 7.699 Z"
             style="fill:#00b1e2;fill-opacity:1;fill-rule:nonzero;stroke:none"
             id="path375" />
        </g>
        <g
           id="g377"
           transform="translate(77.9893,12.9713)">
          <path
             d="M 0,0 C 0.838,1.197 2.188,1.782 3.944,1.782 H 4.998 V -0.362 H 3.917 c -2.513,0 -3.863,-1.366 -3.863,-4.038 v -7.353 H -2.135 V 1.699 l 2.135,0 z"
             style="fill:#00b1e2;fill-opacity:1;fill-rule:nonzero;stroke:none"
             id="path379" />
        </g>
        <g
           id="g381"
           transform="translate(85.9238,8.8776)">
          <path
             d="M 0,0 H 8.564 C 8.267,2.617 6.619,4.205 4.403,4.205 2.242,4.205 0.378,2.673 0,0 m 9.023,-3.843 1.325,-1.254 c -1.46,-1.95 -3.405,-2.98 -5.917,-2.98 -3.891,0 -6.701,2.925 -6.701,7.101 0,4.067 2.918,7.103 6.646,7.103 3.756,0 6.432,-2.702 6.432,-6.935 0,-0.418 -0.055,-0.669 -0.082,-0.947 H 0 c 0.297,-2.728 2.27,-4.399 4.62,-4.399 1.649,0 3.134,0.695 4.403,2.311"
             style="fill:#00b1e2;fill-opacity:1;fill-rule:nonzero;stroke:none"
             id="path383" />
        </g>
      </g>
    </g>
  </g>
</svg>
