<?xml version="1.0" encoding="UTF-8" standalone="no"?>
<svg
   xmlns:dc="http://purl.org/dc/elements/1.1/"
   xmlns:cc="http://creativecommons.org/ns#"
   xmlns:rdf="http://www.w3.org/1999/02/22-rdf-syntax-ns#"
   xmlns:svg="http://www.w3.org/2000/svg"
   xmlns="http://www.w3.org/2000/svg"
   id="svg8"
   version="1.1"
   viewBox="0 0 108.38512 42.165096"
   height="42.165096mm"
   width="108.38512mm">
  <defs
     id="defs2">
    <clipPath
       clipPathUnits="userSpaceOnUse"
       id="clipPath921">
      <path
         d="M 0,0 H 841.89 V 595.276 H 0 Z"
         id="path919" />
    </clipPath>
    <clipPath
       clipPathUnits="userSpaceOnUse"
       id="clipPath998">
      <path
         d="M 0,0 H 841.89 V 595.276 H 0 Z"
         id="path996" />
    </clipPath>
  </defs>
  <metadata
     id="metadata5">
    <rdf:RDF>
      <cc:Work
         rdf:about="">
        <dc:format>image/svg+xml</dc:format>
        <dc:type
           rdf:resource="http://purl.org/dc/dcmitype/StillImage" />
        <dc:title></dc:title>
      </cc:Work>
    </rdf:RDF>
  </metadata>
  <g
     transform="translate(-10.497348,-19.129387)"
     id="layer1">
    <g
       transform="matrix(0.35277777,0,0,-0.35277777,39.625198,28.446954)"
       id="g976">
      <path
         id="path978"
         style="fill:#40b93c;fill-opacity:1;fill-rule:nonzero;stroke:none"
         d="m 0,0 29.295,-44.486 -57.801,0.026 z" />
    </g>
    <g
       transform="matrix(0.35277777,0,0,-0.35277777,39.625198,28.446954)"
       id="g980">
      <path
         id="path982"
         style="fill:none;stroke:#40b93c;stroke-width:10.84599972;stroke-linecap:round;stroke-linejoin:round;stroke-miterlimit:4;stroke-dasharray:none;stroke-opacity:1"
         d="M 0,0 29.295,-44.486 -28.506,-44.46 0,0" />
    </g>
    <g
       transform="matrix(0.35277777,0,0,-0.35277777,22.744923,44.254431)"
       id="g984">
      <path
         id="path986"
         style="fill:#d22027;fill-opacity:1;fill-rule:nonzero;stroke:none"
         d="M 0,0 -29.295,44.486 28.506,44.46 Z" />
    </g>
    <g
       transform="matrix(0.35277777,0,0,-0.35277777,22.744923,44.254431)"
       id="g988">
      <path
         id="path990"
         style="fill:none;stroke:#d22027;stroke-width:10.84599972;stroke-linecap:round;stroke-linejoin:round;stroke-miterlimit:4;stroke-dasharray:none;stroke-opacity:1"
         d="M 0,0 -29.295,44.486 28.506,44.46 0,0" />
    </g>
    <g
       id="g1089">
      <path
         d="M 58.256768,19.129387 H 54.465466 V 46.07032 h 3.791302 z m 10.936464,7.619294 c -5.201356,0 -7.80168,1.92652 -7.80168,5.778147 0,2.301875 0.923572,3.901017 2.770716,4.79672 1.044575,0.509411 2.685345,0.836436 4.921603,0.98178 1.798108,0.122767 2.95275,0.318911 3.463219,0.588434 0.437445,0.24518 0.656167,0.7239 0.656167,1.434747 0,0.589139 -0.170039,1.017764 -0.510117,1.287286 -0.583494,0.491067 -1.75013,0.735894 -3.499908,0.735894 -1.749778,0 -2.916414,-0.246944 -3.499908,-0.742244 -0.340431,-0.271992 -0.510117,-0.705203 -0.510117,-1.299281 h -3.791655 c 0,3.864328 2.600324,5.796492 7.80168,5.796492 5.20065,0 7.80168,-1.925814 7.80168,-5.778147 0,-2.277533 -0.911577,-3.876322 -2.73438,-4.79672 -1.069622,-0.508705 -2.710392,-0.83573 -4.921603,-0.981427 -1.822803,-0.122767 -2.971094,-0.306564 -3.444875,-0.552098 -0.474133,-0.244827 -0.710847,-0.735541 -0.710847,-1.471436 0,-0.588433 0.169686,-1.017411 0.510117,-1.287286 0.583494,-0.490361 1.75013,-0.735894 3.499908,-0.735894 1.749778,0 2.916414,0.243064 3.499908,0.729192 0.340078,0.267758 0.510117,0.692502 0.510117,1.275997 h 3.791655 c 0,-3.839986 -2.60103,-5.760156 -7.80168,-5.760156 m 19.977805,15.603008 c -2.357967,0 -3.986389,-0.329847 -4.885267,-0.9906 -0.656166,-0.488597 -0.98425,-1.246716 -0.98425,-2.273652 v -8.583789 h 5.869517 V 26.748681 H 83.30152 v -7.619294 h -3.791655 v 19.941469 c 0,4.690886 3.220156,7.0358 9.661172,7.0358 z M 101.16478,26.748681 c -6.440668,0 -9.660824,2.341034 -9.660824,7.022747 V 46.07032 h 3.791303 V 33.748145 c 0,-1.020586 0.328436,-1.773767 0.98425,-2.260247 0.898878,-0.656167 2.527653,-0.98425 4.885271,-0.98425 z m 17.7172,5.760156 c 0,-3.839986 -2.61302,-5.760156 -7.83802,-5.760156 -2.98943,0 -5.14032,0.688623 -6.45265,2.064809 -0.89959,0.966258 -1.34903,2.198158 -1.34903,3.695347 h 3.79131 c 0,-0.583495 0.17004,-1.008239 0.51047,-1.275997 0.58349,-0.486128 1.75013,-0.729192 3.4999,-0.729192 1.77377,0 2.95275,0.243064 3.53625,0.729192 0.34008,0.267758 0.51047,0.692502 0.51047,1.275997 0,0.559153 -0.17039,0.972255 -0.51047,1.239308 -0.5835,0.486481 -1.76248,0.729192 -3.53625,0.729192 -2.98943,0 -5.14032,0.692502 -6.45265,2.077861 -0.89959,0.972608 -1.34903,2.211916 -1.34903,3.71863 0,1.507067 0.44944,2.746728 1.34903,3.718631 1.31233,1.385358 3.46322,2.077861 6.45265,2.077861 5.225,0 7.83802,-1.932164 7.83802,-5.796492 z m -4.30177,9.07168 c -0.5835,0.490008 -1.76248,0.734836 -3.53625,0.734836 -1.74977,0 -2.91641,-0.244828 -3.4999,-0.735894 -0.34043,-0.269522 -0.51047,-0.6985 -0.51047,-1.287286 0,-0.588434 0.17004,-1.018117 0.51047,-1.287992 0.58349,-0.466019 1.75013,-0.698853 3.4999,-0.698853 1.57939,0 2.92841,-0.19438 4.04672,-0.583494 v 2.572455 c 0,0.587728 -0.17039,1.016706 -0.51047,1.286228"
         style="fill:#4f4c4d;fill-opacity:1;fill-rule:nonzero;stroke:none;stroke-width:0.35277778"
         id="path1000" />
      <path
         id="path1085"
         style="fill:#4f4c4d;fill-opacity:1;fill-rule:nonzero;stroke:none;stroke-width:0.38650584"
         d="m 61.830729,58.93332 c 0,-1.479157 -0.399262,-2.573742 -1.198167,-3.283754 0.798905,-0.721992 1.198167,-1.816577 1.198167,-3.284139 0,-2.804874 -1.352768,-4.207117 -4.057931,-4.207117 h -3.307332 v 13.118395 h 1.661598 v -4.704162 h 1.645734 c 0.798522,0 1.374033,0.148031 1.725361,0.443708 0.436753,0.355199 0.65513,0.994093 0.65513,1.917069 v 2.343385 h 1.67744 z m -2.316716,-4.636523 c -0.35134,0.298381 -0.931868,0.447187 -1.741215,0.447187 h -1.645734 v -4.757502 h 1.645734 c 0.798522,0 1.374033,0.149193 1.725361,0.447188 0.436753,0.369887 0.65513,1.013419 0.65513,1.931757 0,0.930319 -0.213348,1.573852 -0.639276,1.93137 m 11.375634,5.151349 H 66.94304 c -1.331513,0 -2.082102,-0.650489 -2.252558,-1.952627 h 6.199165 v -0.920271 c 0,-3.138041 -1.31566,-4.706868 -3.946607,-4.706868 -2.641377,0 -3.962077,1.570759 -3.962077,4.713051 0,3.130313 1.3207,4.695274 3.962077,4.695274 h 3.946607 z m -6.199165,-3.781187 c 0.170456,-1.313347 0.921045,-1.970407 2.252558,-1.970407 1.320689,0 2.06626,0.65706 2.237098,1.970407 z M 75.618551,51.86838 c -2.279608,0 -3.419029,0.93805 -3.419029,2.813376 0,1.120867 0.404674,1.899675 1.21401,2.336042 0.458008,0.247749 1.176912,0.406991 2.157086,0.477721 0.788092,0.05991 1.294021,0.155375 1.51781,0.2864 0.191709,0.119817 0.287564,0.35288 0.287564,0.698803 0,0.286788 -0.07494,0.495887 -0.223789,0.626913 -0.255474,0.239246 -0.766826,0.358291 -1.533652,0.358291 -0.76721,0 -1.27818,-0.120204 -1.534047,-0.361383 -0.149189,-0.132573 -0.223395,-0.343217 -0.223395,-0.63271 h -1.661587 c 0,1.881896 1.139421,2.822652 3.419029,2.822652 2.278841,0 3.419028,-0.937663 3.419028,-2.813763 0,-1.108885 -0.399644,-1.887307 -1.198551,-2.335655 -0.469215,-0.24775 -1.187737,-0.406991 -2.156702,-0.478108 -0.798906,-0.05952 -1.30214,-0.149191 -1.509692,-0.268621 -0.207946,-0.119431 -0.311525,-0.357905 -0.311525,-0.716582 0,-0.286401 0.07417,-0.495115 0.223395,-0.626526 0.255867,-0.238861 0.766837,-0.358678 1.534047,-0.358678 0.766826,0 1.278178,0.118658 1.533652,0.3552 0.148806,0.130252 0.223789,0.337419 0.223789,0.621115 h 1.661587 c 0,-1.869529 -1.140187,-2.804487 -3.419028,-2.804487 m 12.31755,7.579766 h -3.946224 c -1.331514,0 -2.082104,-0.650489 -2.252558,-1.952627 h 6.198782 v -0.920271 c 0,-3.138041 -1.315277,-4.706868 -3.946224,-4.706868 -2.641378,0 -3.962067,1.570759 -3.962067,4.713051 0,3.130313 1.320689,4.695274 3.962067,4.695274 h 3.946224 z m -6.198782,-3.781187 c 0.170454,-1.313347 0.921044,-1.970407 2.252558,-1.970407 1.320688,0 2.06626,0.65706 2.236714,1.970407 z m 14.298792,-0.994092 c 0,-1.869529 -1.144834,-2.804487 -3.434883,-2.804487 -1.309864,0 -2.252557,0.3351 -2.827674,1.005302 -0.394233,0.470378 -0.591354,1.070621 -0.591354,1.799185 h 1.661587 c 0,-0.283696 0.07461,-0.490863 0.223788,-0.621115 0.255485,-0.236542 0.766827,-0.3552 1.533653,-0.3552 0.777267,0 1.294022,0.118658 1.54989,0.3552 0.148805,0.130252 0.223789,0.337419 0.223789,0.621115 0,0.272486 -0.07494,0.473469 -0.223789,0.603722 -0.255868,0.236927 -0.772623,0.355198 -1.54989,0.355198 -1.309864,0 -2.252557,0.337034 -2.827674,1.011873 -0.394233,0.473469 -0.591354,1.076805 -0.591354,1.810394 0,0.733974 0.197121,1.337696 0.591354,1.810779 0.575117,0.674453 1.51781,1.011872 2.827674,1.011872 2.290049,0 3.434883,-0.940755 3.434883,-2.822651 z m -1.884993,4.417762 c -0.255868,0.238474 -0.772623,0.357517 -1.54989,0.357517 -0.766826,0 -1.278168,-0.119043 -1.533653,-0.358291 -0.149189,-0.131025 -0.223788,-0.340125 -0.223788,-0.626912 0,-0.286401 0.07461,-0.495501 0.223788,-0.626913 0.255485,-0.226878 0.766827,-0.340511 1.533653,-0.340511 0.692238,0 1.283592,-0.0947 1.773679,-0.284082 v 1.252666 c 0,0.2864 -0.07494,0.495113 -0.223789,0.626526 m 7.396942,-7.222249 c -2.82264,0 -4.233782,1.139805 -4.233782,3.419417 v 5.988908 h 1.661598 v -6.000116 c 0,-0.497047 0.143777,-0.863841 0.43134,-1.100769 0.393849,-0.319255 1.107734,-0.479268 2.140844,-0.479268 z m 6.83768,6.532721 c -0.33007,0.698417 -0.99603,1.047045 -1.99707,1.047045 -0.88393,0 -1.50157,-0.267075 -1.8533,-0.801226 -0.28717,-0.42709 -0.43134,-1.12164 -0.43134,-2.083266 0,-0.961241 0.14417,-1.655791 0.43134,-2.083268 0.35173,-0.522555 0.96937,-0.783834 1.8533,-0.783834 1.01187,0 1.67782,0.343604 1.99707,1.029652 h 1.75745 c -0.45801,-1.905086 -1.70952,-2.857824 -3.75452,-2.857824 -2.63095,0 -3.94623,1.564962 -3.94623,4.695274 0,3.141905 1.31528,4.713051 3.94623,4.713051 2.045,0 3.29651,-0.958534 3.75452,-2.875604 z m 10.49673,-1.81967 c 0,-3.142292 -1.31606,-4.713051 -3.94622,-4.713051 -0.89939,0 -1.66042,0.20137 -2.28464,0.603335 V 48.15831 h -1.67743 v 13.118395 h 1.67743 v -4.704162 c 0,-0.958535 0.14262,-1.651153 0.42825,-2.077083 0.35945,-0.532604 0.97824,-0.798908 1.85639,-0.798908 0.87776,0 1.49114,0.266304 1.84016,0.798908 0.28562,0.42593 0.42863,1.118548 0.42863,2.077083 v 4.704162 h 1.67743 z" />
    </g>
  </g>
</svg>
