<?xml version="1.0" encoding="UTF-8" standalone="no"?>
<svg
   version="1.1"
   id="Layer_1"
   x="0px"
   y="0px"
   width="100%"
   viewBox="0 0 421 380"
   enable-background="new 0 0 421 380"
   xml:space="preserve"
   sodipodi:docname="maakaf.svg"
   inkscape:version="1.4.2 (ebf0e94, 2025-05-08)"
   xmlns:inkscape="http://www.inkscape.org/namespaces/inkscape"
   xmlns:sodipodi="http://sodipodi.sourceforge.net/DTD/sodipodi-0.dtd"
   xmlns="http://www.w3.org/2000/svg"
   xmlns:svg="http://www.w3.org/2000/svg"><defs
   id="defs44" /><sodipodi:namedview
   id="namedview44"
   pagecolor="#ffffff"
   bordercolor="#000000"
   borderopacity="0.25"
   inkscape:showpageshadow="2"
   inkscape:pageopacity="0.0"
   inkscape:pagecheckerboard="0"
   inkscape:deskcolor="#d1d1d1"
   inkscape:zoom="0.37861842"
   inkscape:cx="-302.41529"
   inkscape:cy="373.72719"
   inkscape:window-width="2400"
   inkscape:window-height="1411"
   inkscape:window-x="2391"
   inkscape:window-y="-9"
   inkscape:window-maximized="1"
   inkscape:current-layer="Layer_1" />











































<g
   id="g44"
   transform="matrix(0.5625,0,0,0.5625,91.53125,82.5625)"><path
     fill="#e2e7ef"
     opacity="1"
     stroke="none"
     d="m 227,381 c -10.02089,0 -20.04179,0 -30.6059,-0.31195 -0.82684,-0.10401 -1.11047,0.10397 -1.3941,0.31195 -2.70001,0 -5.40002,0 -8.29192,-0.38043 -5.75135,-1.10791 -11.29925,-1.94241 -16.87223,-2.54483 -28.39739,-3.06983 -56.19229,-8.78858 -82.464871,-20.25339 -20.126022,-8.78247 -39.062683,-19.47766 -51.384369,-39.10623 -2.97908,-8.92893 -7.03585,-17.27796 -8.800258,-26.08618 -5.331305,-26.61481 -6.643671,-53.56104 -3.867653,-80.89113 0.918861,-2.60555 1.53161,-4.96979 2.209789,-7.31514 1.484768,-5.13477 3.002728,-10.25995 4.816109,-15.53522 7.152748,-8.34453 13.996517,-16.54289 20.788788,-24.7587 -0.05149,-0.0174 3.43e-4,0.0782 0.287544,0.008 0.853096,-0.57875 1.418995,-1.08734 1.988136,-1.64046 0.0032,-0.0445 -0.07884,-0.009 0.224427,-0.0591 0.966911,-0.52206 1.630554,-0.99449 2.318004,-1.44839 0.02381,0.0185 0.03587,-0.0406 0.297634,-0.0678 0.469422,-0.29818 0.67709,-0.56912 0.834557,-0.84208 -0.0502,-0.002 0.0274,0.0618 0.368858,-0.0319 5.076336,-2.41051 9.811218,-4.72737 14.546814,-7.04564 7.25e-4,-0.001 0.0041,-0.001 0.412659,0.002 8.097648,-0.76189 15.78022,-2.07216 23.477341,-2.16409 11.501561,-0.13738 21.968961,4.11355 32.161091,9.55923 0.58046,0.39108 1.03291,0.57118 1.7135,1.01656 2.16421,1.45797 4.10029,2.65066 6.11422,3.783 0.0778,-0.0603 -0.10409,0.0151 0.0668,0.30075 1.9329,1.54296 3.69488,2.80027 5.49336,4.09793 0.0365,0.0404 0.0956,0.1317 0.24562,0.39847 3.71152,3.31978 7.27304,6.37277 10.86597,9.426 0.0314,2.1e-4 0.0402,-0.062 0.12429,0.19029 0.37209,0.43877 0.66008,0.62521 0.92087,0.83317 -0.0272,0.0215 -0.0232,0.0908 0.11882,0.37793 4.82643,5.95701 9.51082,11.62691 14.21431,17.25998 0.0191,-0.0368 -0.0638,-0.0339 -0.0168,0.25132 0.40368,0.72253 0.76036,1.1598 1.09906,1.62072 -0.018,0.0236 0.0407,0.0328 0.0674,0.30045 0.29102,0.49243 0.55537,0.71724 0.89648,1.28026 5.41597,13.07817 10.75521,25.81813 16.05591,38.96098 1.00801,6.35191 2.05458,12.3009 2.68256,18.29688 -8.90012,0.069 -17.38786,-0.0755 -25.85826,0.24246 -1.87313,0.0703 -4.71585,1.38806 -5.25865,2.82941 -0.64954,1.72473 0.0574,4.69009 1.27853,6.26278 5.19524,6.69101 10.82385,13.0441 16.24573,19.56094 8.15013,9.79612 17.14129,18.92789 21.31576,31.54334 2.2891,6.91769 5.58297,13.55563 8.99317,20.01935 1.10707,2.09836 3.80919,3.95556 6.15876,4.65298 3.27556,0.97229 5.05788,-1.62539 6.08719,-4.5462 2.43157,-6.89987 4.57325,-13.92511 7.43319,-20.64377 2.43313,-5.71603 4.8724,-11.76889 8.77348,-16.453 9.36255,-11.24179 19.68365,-21.68048 29.36717,-32.66434 1.64679,-1.86795 3.50815,-5.72568 2.67987,-7.08081 -1.21149,-1.98203 -4.71377,-3.38013 -7.32879,-3.53635 -8.1233,-0.48535 -16.28858,-0.26776 -24.45543,-0.69839 1.03225,-6.07614 2.08239,-11.77681 3.36076,-17.75375 8.3753,-33.37101 26.31061,-59.58797 55.03238,-78.20826 10.46588,-6.78502 21.77838,-11.61636 34.31061,-12.22784 26.6073,-1.29826 46.58197,10.72978 61.71005,31.8947 6.21686,8.69774 8.93539,18.8029 11.60385,29.34541 0.28119,6.22093 0.90076,12.01454 0.84399,17.80155 -0.10577,10.77504 -0.54217,21.54866 -0.95553,32.31848 -0.64841,16.89419 -3.48184,33.39465 -9.46314,49.57757 -2.88153,5.52729 -5.4964,10.82837 -8.31598,16.40906 -4.00585,3.75794 -7.58938,7.51648 -11.64489,10.66751 -20.72324,16.1015 -44.51038,25.94547 -69.79877,31.64063 -18.75329,4.22338 -37.98386,6.32068 -56.98773,9.45068 -1.66712,0.2746 -3.22926,1.18652 -4.84015,1.80246 -3.36128,0 -6.72258,0 -10.42122,-0.28278 C 227.82762,380.62295 227.41382,380.81149 227,381 M 81.133827,228.74162 c 0.286461,2.29645 0.370682,4.6402 0.894745,6.88108 2.154266,9.21159 11.311607,16.21513 20.888338,16.12356 9.82699,-0.0939 18.81391,-7.33537 20.89804,-16.83908 2.10084,-9.57996 -2.68032,-19.68677 -11.21815,-23.92143 -11.75448,-5.83011 -28.769118,-0.61608 -31.462973,17.75587 m 233.097463,4.63541 c 0.51071,-1.02199 0.74771,-2.50675 1.57385,-2.99533 9.71894,-5.74768 19.52805,-11.34287 29.30875,-16.98625 2.35187,-1.357 5.29361,-2.97261 2.9324,-5.94272 -0.87701,-1.10318 -4.65423,-1.10082 -6.32559,-0.18036 -12.07159,6.64819 -23.95498,13.63942 -35.8714,20.56772 -5.79608,3.36989 -5.77905,5.6094 0.13675,9.05153 11.77439,6.85102 23.60755,13.60092 35.39231,20.43422 2.37457,1.37692 4.93762,3.17233 6.8778,-0.0613 1.94282,-3.23793 -0.83685,-4.72837 -3.19592,-6.08608 -10.07541,-5.7987 -20.15637,-11.58777 -30.82895,-17.80145 z"
     id="path1" /><path
     fill="#2e58a1"
     opacity="1"
     stroke="none"
     d="m 30.035618,189.03363 c -1.504402,5.12909 -3.022362,10.25427 -4.50713,15.38904 -0.678179,2.34535 -1.290928,4.70959 -2.498314,7.01724 -0.723453,-1.85303 -1.123398,-3.67441 -1.001945,-5.46034 0.909754,-13.37761 1.605486,-26.78104 2.986358,-40.11235 1.584322,-15.29546 3.442555,-30.58284 5.865351,-45.76463 C 32.754082,108.35877 35.167721,96.643646 38.28149,85.170891 41.522785,73.228271 45.352867,61.378628 49.901417,49.87418 55.865566,34.789322 66.03315,22.181002 76.084152,9.65167 78.493843,6.647813 81.99968,4.523285 85.469841,2.002228 108.06165,2.009815 130.18507,2.034121 152.30821,1.965439 154.20645,1.959546 156.10278,1.336406 158,0.999999 161.6929,1 165.38582,1 169.76453,1.264412 c 1.58947,0.39033 2.49316,0.516248 3.74359,0.690396 2.88101,2.917576 6.59637,5.395249 7.70469,8.73745 2.33757,7.049098 3.62992,14.500874 4.78203,21.876326 3.23451,20.706528 6.04212,41.479886 9.29674,62.183087 1.70345,10.836009 8.65894,17.149719 18.15655,17.307379 9.86771,0.1638 17.16256,-6.04382 19.0978,-16.847968 2.05151,-11.453292 3.53888,-23.006858 5.53038,-34.471851 2.87242,-16.53659 5.90929,-33.04565 9.02545,-49.538216 0.90607,-4.795479 3.95807,-7.949159 9.21504,-9.253402 27.22513,0.034812 53.96924,0.025751 81.07437,0.042764 1.19104,0.493626 2.16492,0.811397 2.83014,1.450474 20.74515,19.929156 34.53672,43.985167 41.72361,71.73432 3.89685,15.046173 7.19729,30.256849 10.37979,45.474249 1.92975,9.22729 3.59637,18.5613 4.53869,27.93211 1.69019,16.80716 2.84564,33.67135 3.99057,50.52762 0.26477,3.89796 -0.414,7.86004 -0.6586,11.79261 -2.70163,-10.11221 -5.42016,-20.21737 -11.63702,-28.91511 -15.12808,-21.16492 -35.10275,-33.19296 -61.71005,-31.8947 -12.53223,0.61148 -23.84473,5.44282 -34.31061,12.22784 -28.72177,18.62029 -46.65708,44.83725 -55.48987,78.236 -7.18802,1.3558 -13.66322,2.63739 -20.1987,3.40701 -10.53899,1.24106 -20.65024,-1.52498 -30.7803,-3.86919 -5.33925,-12.73994 -10.67849,-25.4799 -16.1631,-38.80375 -0.38176,-0.82332 -0.61812,-1.06276 -0.8545,-1.30219 0,0 -0.0587,-0.009 -0.08,-0.32651 -0.38313,-0.74896 -0.74495,-1.18062 -1.10676,-1.61229 0,0 0.0829,-0.003 0.0863,-0.35078 -1.25479,-7.9115 -7.67427,-11.76033 -12.10577,-17.0273 -0.33625,-0.39964 -1.4961,-0.10631 -2.27311,-0.1351 0,0 -0.004,-0.0693 0.0136,-0.39146 -0.32007,-0.47643 -0.65767,-0.63063 -0.99527,-0.78484 0,0 -0.009,0.0622 0.0943,-0.29007 -0.33438,-4.56227 -6.30573,-9.3317 -11.15044,-9.34067 0,0 -0.0591,-0.0913 -0.0193,-0.51356 -0.98523,-3.07161 -2.55037,-4.84885 -5.74063,-4.0017 0,0 0.18193,-0.0755 0.11119,-0.38459 -2.16365,-1.43238 -4.25656,-2.55559 -6.34946,-3.67881 -0.45245,-0.1801 -0.9049,-0.3602 -1.47508,-1.13865 -0.77233,-1.4007 -1.26836,-2.62203 -2.10655,-2.93924 -6.8849,-2.60547 -13.90045,-4.87273 -20.74715,-7.57051 -10.619406,-4.18438 -20.955298,-0.74828 -31.353163,0.8909 -0.735566,0.11593 -1.239029,1.70422 -1.850419,2.60788 0,0 -0.0034,-3.7e-4 -0.422287,-0.002 -5.607734,1.38623 -12.320587,-0.22278 -14.470073,7.14273 0,0 -0.07761,-0.0638 -0.262448,0.0184 -0.487686,0.24384 -0.713161,0.47944 -0.86127,0.78908 0,0 -0.01206,0.0591 -0.381718,0.0584 -1.00491,0.49292 -1.640167,0.98657 -2.275429,1.48021 0,0 0.08209,-0.0351 -0.270969,-0.11765 -0.877213,0.55753 -1.401371,1.19762 -1.925526,1.83771 0,0 -0.05184,-0.0956 -0.34491,-0.12389 -1.11203,0.0415 -2.278782,-0.21469 -2.696617,0.2311 -4.623832,4.93312 -9.411461,9.75712 -13.554367,15.07812 -2.12426,2.72833 -3.040199,6.39745 -4.502216,9.64139 z"
     id="path2" /><path
     fill="#1e3866"
     opacity="1"
     stroke="none"
     d="m 400.16223,211.33206 c 0.27774,-4.36287 0.95651,-8.32495 0.69174,-12.22291 -1.14493,-16.85627 -2.30038,-33.72046 -3.99057,-50.52762 -0.94232,-9.37081 -2.60894,-18.70482 -4.53869,-27.93211 -3.1825,-15.2174 -6.48294,-30.428076 -10.37979,-45.474249 C 374.75803,47.426018 360.96646,23.370007 340.22131,3.440851 339.55609,2.801774 338.58221,2.484003 337.38184,1.749532 337.0115,1.482613 337,1 337,1 c 1.38889,0 2.7778,0 4.86414,0.256396 28.64322,4.655495 47.71252,20.798171 60.87942,45.154447 7.31384,13.529205 11.82501,28.024345 16.2009,43.037582 1.01523,3.797821 2.03537,7.174706 3.05554,10.551575 0,1.71435 0,3.42872 -0.20911,5.61066 -0.0697,0.77483 0.0697,1.08208 0.20911,1.38934 0,25.68756 0,51.37512 -0.19507,77.62112 -0.26904,0.68035 -0.42694,0.8879 -0.40381,0.91054 0.17996,0.17621 0.39484,0.31674 0.59888,0.46834 0,10.02089 0,20.04179 -0.39917,30.58466 -0.76111,1.39682 -1.3956,2.25683 -1.44418,3.14874 -0.78489,14.41285 -1.49536,28.82977 -2.30729,43.62127 -0.35931,2.4249 -0.63397,4.47431 -1.15411,6.81641 -2.00613,6.48261 -3.76681,12.67249 -5.71802,19.16217 -6.05246,8.47443 -11.91436,16.64902 -18.06027,24.62006 -0.87695,-1.18564 -1.46991,-2.16776 -2.06283,-3.14984 5.71469,-15.95673 8.54812,-32.45719 9.19653,-49.35138 0.41336,-10.76982 0.84976,-21.54344 0.95553,-32.31848 0.0568,-5.78701 -0.5628,-11.58062 -0.84396,-17.80155 z"
     id="path3" /><path
     fill="#1e3866"
     opacity="1"
     stroke="none"
     d="M 85.001389,1.994344 C 81.99968,4.523285 78.493843,6.647813 76.084152,9.65167 66.03315,22.181002 55.865566,34.789322 49.901417,49.87418 45.352867,61.378628 41.522785,73.228271 38.28149,85.170891 c -3.113769,11.472755 -5.527408,23.187879 -7.401552,34.931699 -2.422796,15.18179 -4.281029,30.46917 -5.865351,45.76463 -1.380872,13.33131 -2.076604,26.73474 -2.986358,40.11235 -0.121453,1.78593 0.278492,3.60731 0.725507,5.71019 -2.211055,27.37814 -0.898689,54.32437 4.432616,80.93918 1.764408,8.80822 5.821178,17.15725 8.438991,26.11709 -0.86581,0.25675 -1.502556,0.2616 -1.792373,-0.0531 C 22.842735,306.7597 12.543272,294.39072 8.7607,277.74036 8.515169,276.97528 8.22567,276.50052 7.95115,275.69223 7.68199,274.55661 7.397851,273.75452 7.1032,272.5108 6.138862,265.68201 5.185036,259.29489 4.217857,252.46445 4.088352,249.35554 3.9722,246.68997 3.910765,243.56456 3.642399,233.82811 3.382971,224.54828 2.913359,215.27908 2.856491,214.15663 1.665412,213.09163 1.000001,212 1,211.25 1,210.5 1.324656,209.10599 1.772995,205.33183 2.087646,202.19482 1.975659,199.07313 1.807171,194.37648 1.340121,189.69051 1,185 1,176.31244 1,167.62486 1.243963,158.28145 1.325284,156.7504 1.162643,155.8752 1,155 1,142.64577 1,130.29155 1.26507,117.23499 1.353426,115.02178 1.176713,113.51089 1,112 1,107.31074 1,102.62149 1.392844,97.456909 2.885194,93.846535 3.910579,90.683128 5.09696,87.581299 10.412861,73.682724 14.789571,59.316074 21.342232,46.023949 32.156853,24.086397 49.247837,8.821904 73.715218,2.98458 74.585121,2.777041 75.243195,1.681614 76,1 76.444443,1 76.888893,1 77.771927,1.261869 78.807007,1.349159 79.403503,1.17458 80,1 c 1.388893,0 2.777779,0 4.585258,0.248584 0.418587,0.248584 0.416131,0.745761 0.416131,0.74576 z"
     id="path4" /><path
     fill="#010102"
     opacity="1"
     stroke="none"
     d="m 3.856047,244.0244 c 0.116153,2.66557 0.232305,5.33114 0.045453,8.71605 0.308849,6.93664 0.895879,13.1568 1.5999,19.36371 0.038491,0.33935 1.052426,0.56808 1.612311,0.84829 0.28414,0.80207 0.568279,1.60416 0.641219,2.90692 0.179802,1.05756 0.570804,1.61445 0.961804,2.1713 3.826538,16.36005 14.126001,28.72903 25.116236,40.66226 0.289817,0.3147 0.926563,0.30985 1.762783,0.4231 12.712543,19.22766 31.649204,29.92285 51.775226,38.70532 26.272581,11.46481 54.067481,17.18356 82.464871,20.25339 5.57298,0.60242 11.12088,1.43692 16.42225,2.54483 C 124.41721,381 62.834408,381 1,381 1,335.64609 1,290.29169 1.357976,244.46866 c 1.071341,-0.46051 1.784706,-0.45239 2.498071,-0.44426 z"
     id="path5" /><path
     fill="#010102"
     opacity="1"
     stroke="none"
     d="m 393.20099,314.15689 c 5.86188,-8.17462 11.72378,-16.34921 18.11178,-24.83127 1.33286,-0.64319 2.77121,-0.87008 2.85077,-1.3313 1.03788,-6.01928 1.88333,-12.0718 2.7772,-18.11593 0.27465,-2.04941 0.54931,-4.09882 1.31655,-6.51673 1.57596,-0.36621 2.65934,-0.36392 3.74271,-0.36166 0,39.27609 0,78.55222 0,118 -60.68744,0 -121.37506,0 -182.53134,0 1.14223,-0.61594 2.70437,-1.52786 4.37149,-1.80246 19.00387,-3.13 38.23444,-5.2273 56.98773,-9.45068 25.28839,-5.69516 49.07553,-15.53913 69.79877,-31.64063 4.05551,-3.15103 7.63904,-6.90957 11.97741,-10.67383 3.89042,-4.61575 7.24369,-8.94564 10.59693,-13.27551 z"
     id="path6" /><path
     fill="#010103"
     opacity="1"
     stroke="none"
     d="m 255.83577,1.90374 c -4.77594,1.348116 -7.82794,4.501796 -8.73401,9.297275 -3.11616,16.492566 -6.15303,33.001626 -9.02545,49.538216 -1.9915,11.464993 -3.47887,23.018559 -5.53038,34.471851 -1.93524,10.804148 -9.23009,17.011768 -19.0978,16.847968 -9.49761,-0.15766 -16.4531,-6.47137 -18.15655,-17.307379 C 192.03696,74.04847 189.22935,53.275112 185.99484,32.568584 184.84273,25.193132 183.55038,17.741356 181.21281,10.692258 180.10449,7.350057 176.38913,4.872384 173.47372,1.727243 173.09257,1.451446 173,1 173,1 c 27.35423,0 54.70845,0 82.48627,0.225206 0.42358,0.225207 0.3495,0.678534 0.3495,0.678534 z"
     id="path7" /><path
     fill="#010103"
     opacity="1"
     stroke="none"
     d="M 75.531342,1 C 75.243195,1.681614 74.585121,2.777041 73.715218,2.98458 49.247837,8.821904 32.156853,24.086397 21.342232,46.023949 14.789571,59.316074 10.412861,73.682724 5.09696,87.581299 3.910579,90.683128 2.885194,93.846535 1.392844,96.990799 1,65.082069 1,33.164143 1,1 25.687016,1 50.374847,1 75.531342,1 Z"
     id="path8" /><path
     fill="#010103"
     opacity="1"
     stroke="none"
     d="M 418.94934,89.027481 C 414.56857,74.435188 410.0574,59.940048 402.74356,46.410843 389.57666,22.054567 370.50736,5.911891 342.28079,1.256396 368.59705,1 395.19409,1 422,1 c 0,29.020561 0,58.041622 -0.38104,87.53344 -1.14389,0.478523 -1.90677,0.486282 -2.66962,0.494041 z"
     id="path9" /><path
     fill="#010313"
     opacity="1"
     stroke="none"
     d="m 422,262.53134 c -1.08337,0.4664 -2.16675,0.46411 -3.65808,0.45481 0.31937,-14.42298 1.02984,-28.8399 1.81473,-43.25275 0.0486,-0.89191 0.68307,-1.75192 1.44418,-2.68009 C 422,232.02089 422,247.04179 422,262.53134 Z"
     id="path10" /><path
     fill="#1d4486"
     opacity="1"
     stroke="none"
     d="M 256.3168,1.947613 C 255.83577,1.90374 255.90985,1.450413 255.95493,1.225206 282.68756,1 309.37512,1 336.53134,1 337,1 337.0115,1.482613 337.02081,1.723458 310.28604,1.973364 283.54193,1.982425 256.3168,1.947613 Z"
     id="path11" /><path
     fill="#010413"
     opacity="1"
     stroke="none"
     d="M 3.910765,243.56456 C 3.142682,244.01627 2.429317,244.00815 1.357976,244 1,233.64577 1,223.29155 1.000001,212.46866 c 0.665411,0.62297 1.85649,1.68797 1.913358,2.81042 0.469612,9.2692 0.72904,18.54903 0.997406,28.28548 z"
     id="path12" /><path
     fill="#1d4386"
     opacity="1"
     stroke="none"
     d="M 85.469841,2.002228 C 85.001389,1.994345 85.003845,1.497168 85.001923,1.248584 109.0209,1 133.04179,1 157.53134,0.999999 c -1.42856,0.336407 -3.32489,0.959547 -5.22313,0.96544 -22.12314,0.068682 -44.24656,0.044376 -66.838369,0.036789 z"
     id="path13" /><path
     fill="#020514"
     opacity="1"
     stroke="none"
     d="m 418.94446,89.448425 c 0.76773,-0.428703 1.53061,-0.436462 2.6745,-0.446327 C 422,92.36129 422,95.722572 422,99.541931 c -1.02017,-2.9188 -2.04031,-6.295685 -3.05554,-10.093506 z"
     id="path14" /><path
     fill="#010413"
     opacity="1"
     stroke="none"
     d="m 1,185.46863 c 0.340121,4.22188 0.807171,8.90785 0.975659,13.6045 0.111987,3.12169 -0.202664,6.2587 -0.651003,9.65786 C 1,201.31242 1,193.62483 1,185.46863 Z"
     id="path15" /><path
     fill="#0d294f"
     opacity="1"
     stroke="none"
     d="m 1,112.41666 c 0.176713,1.09423 0.353426,2.60512 0.26507,4.34967 C 1,115.61111 1,114.22222 1,112.41666 Z"
     id="path16" /><path
     fill="#0d294f"
     opacity="1"
     stroke="none"
     d="m 1,155.375 c 0.162643,0.5002 0.325284,1.3754 0.243963,2.4378 C 1,157.25 1,156.5 1,155.375 Z"
     id="path17" /><path
     fill="#1d4386"
     opacity="1"
     stroke="none"
     d="M 172.625,1 C 173,1 173.09257,1.451446 173.12697,1.679011 172.25769,1.78066 171.354,1.654742 170.22516,1.264412 170.75,1 171.5,1 172.625,1 Z"
     id="path18" /><path
     fill="#010103"
     opacity="1"
     stroke="none"
     d="M 79.666672,1 C 79.403503,1.17458 78.807007,1.349159 78.105255,1.261869 78.444443,1 78.888893,1 79.666672,1 Z"
     id="path19" /><path
     fill="#020514"
     opacity="1"
     stroke="none"
     d="m 422,106.75 c -0.1394,-0.0573 -0.27881,-0.36451 -0.20911,-0.71088 C 422,106 422,106.5 422,106.75 Z"
     id="path20" /><path
     fill="#010313"
     opacity="1"
     stroke="none"
     d="m 422,185.75 c -0.20404,0.0984 -0.41892,-0.0421 -0.59888,-0.21834 -0.0231,-0.0226 0.13477,-0.23019 0.40381,-0.44188 C 422,185 422,185.5 422,185.75 Z"
     id="path21" /><path
     fill="#010102"
     opacity="1"
     stroke="none"
     d="m 195.25,381 c 0.0336,-0.20798 0.31726,-0.41596 0.67545,-0.31195 C 196,381 195.5,381 195.25,381 Z"
     id="path22" /><path
     fill="#010102"
     opacity="1"
     stroke="none"
     d="m 227.25,381 c 0.16382,-0.18851 0.57762,-0.37705 0.87071,-0.28278 C 228,381 227.5,381 227.25,381 Z"
     id="path23" /><path
     fill="#f0bf1e"
     opacity="1"
     stroke="none"
     d="m 234.16241,258.65732 c 8.14899,0.0551 16.31427,-0.16248 24.43757,0.32287 2.61502,0.15622 6.1173,1.55432 7.32879,3.53635 0.82828,1.35513 -1.03308,5.21286 -2.67987,7.08081 -9.68352,10.98386 -20.00462,21.42255 -29.36717,32.66434 -3.90108,4.68411 -6.34035,10.73697 -8.77348,16.453 -2.85994,6.71866 -5.00162,13.7439 -7.43319,20.64377 -1.02931,2.92081 -2.81163,5.51849 -6.08719,4.5462 -2.34957,-0.69742 -5.05169,-2.55462 -6.15876,-4.65298 -3.4102,-6.46372 -6.70407,-13.10166 -8.99317,-20.01935 -4.17447,-12.61545 -13.16563,-21.74722 -21.31576,-31.54334 -5.42188,-6.51684 -11.05049,-12.86993 -16.24573,-19.56094 -1.22111,-1.57269 -1.92807,-4.53805 -1.27853,-6.26278 0.5428,-1.44135 3.38552,-2.75913 5.25865,-2.82941 8.4704,-0.31793 16.95814,-0.17343 26.24365,-0.16306 15.58273,4.47483 30.33766,4.66373 45.06419,-0.21548 z"
     id="path24" /><path
     fill="#062739"
     opacity="1"
     stroke="none"
     d="m 81.176239,228.32007 c 2.651443,-17.9504 19.666081,-23.16443 31.420561,-17.33432 8.53783,4.23466 13.31899,14.34147 11.21815,23.92143 -2.08413,9.50371 -11.07105,16.74515 -20.89804,16.83908 -9.576731,0.0916 -18.734072,-6.91197 -20.888338,-16.12356 -0.524063,-2.24088 -0.608284,-4.58463 -0.852333,-7.30263 z"
     id="path25" /><path
     fill="#213963"
     opacity="1"
     stroke="none"
     d="m 234.14455,258.2818 c -14.70867,5.25473 -29.4636,5.06583 -44.62774,0.54401 -1.43196,-6.02839 -2.47853,-11.97738 -3.48654,-18.32929 10.16861,1.9413 20.27986,4.70734 30.81885,3.46628 6.53548,-0.76962 13.01068,-2.05121 19.97044,-3.13074 -0.59262,5.67293 -1.64276,11.3736 -2.67501,17.44974 z"
     id="path26" /><path
     fill="#0d2c3d"
     opacity="1"
     stroke="none"
     d="m 314.52814,233.58758 c 10.37573,6.00313 20.45669,11.7922 30.5321,17.5909 2.35907,1.35771 5.13874,2.84815 3.19592,6.08608 -1.94018,3.23361 -4.50323,1.4382 -6.8778,0.0613 -11.78476,-6.8333 -23.61792,-13.5832 -35.39231,-20.43422 -5.9158,-3.44213 -5.93283,-5.68164 -0.13675,-9.05153 11.91642,-6.9283 23.79981,-13.91953 35.8714,-20.56772 1.67136,-0.92046 5.44858,-0.92282 6.32559,0.18036 2.36121,2.97011 -0.58053,4.58572 -2.9324,5.94272 -9.7807,5.64338 -19.58981,11.23857 -29.30875,16.98625 -0.82614,0.48858 -1.06314,1.97334 -1.277,3.20588 z"
     id="path27" /><path
     fill="#3c5a8e"
     opacity="1"
     stroke="none"
     d="m 72.41201,153.00357 c 0.202828,-0.90686 0.706291,-2.49515 1.441857,-2.61108 10.397865,-1.63918 20.733757,-5.07528 31.353163,-0.8909 6.8467,2.69778 13.86225,4.96504 20.74715,7.57051 0.83819,0.31721 1.33422,1.53854 1.97853,2.72824 -10.07439,-4.84731 -20.54179,-9.09824 -32.043351,-8.96086 -7.697121,0.0919 -15.379693,1.4022 -23.477349,2.16409 z"
     id="path28" /><path
     fill="#395684"
     opacity="1"
     stroke="none"
     d="m 30.344595,188.88745 c 1.15304,-3.09776 2.068979,-6.76688 4.193239,-9.49521 4.142906,-5.321 8.930535,-10.145 13.554367,-15.07812 0.417835,-0.44579 1.584587,-0.18961 2.748112,-0.21369 -6.499199,8.24413 -13.342968,16.44249 -20.495718,24.78702 z"
     id="path29" /><path
     fill="#38445e"
     opacity="1"
     stroke="none"
     d="m 392.91696,313.95331 c -3.06921,4.53345 -6.42248,8.86334 -10.10824,13.19952 2.2824,-5.2948 4.89727,-10.59588 7.7788,-16.12317 0.85953,0.75589 1.45249,1.73801 2.32944,2.92365 z"
     id="path30" /><path
     fill="#3c5a8e"
     opacity="1"
     stroke="none"
     d="m 153.71394,180.82281 c 0.63495,-0.25833 1.7948,-0.55166 2.13105,-0.15202 4.4315,5.26697 10.85098,9.1158 12.08665,17.0641 -4.70688,-5.28517 -9.39127,-10.95507 -14.2177,-16.91208 z"
     id="path31" /><path
     fill="#3c5a8e"
     opacity="1"
     stroke="none"
     d="m 141.68399,169.99542 c 4.69473,-0.2578 10.66608,4.51163 10.96902,9.07369 -3.69598,-2.70092 -7.2575,-5.75391 -10.96902,-9.07369 z"
     id="path32" /><path
     fill="#3c5a8e"
     opacity="1"
     stroke="none"
     d="m 57.452545,160.04706 c 1.808029,-7.27185 8.520882,-5.66284 14.127899,-7.04764 -4.316681,2.32027 -9.051563,4.63713 -14.127899,7.04764 z"
     id="path33" /><path
     fill="#3c5a8e"
     opacity="1"
     stroke="none"
     d="m 135.94501,165.49902 c 3.01933,-1.13278 4.58447,0.64446 5.5332,3.67572 -1.83832,-0.87545 -3.6003,-2.13276 -5.5332,-3.67572 z"
     id="path34" /><path
     fill="#3c5a8e"
     opacity="1"
     stroke="none"
     d="m 129.76395,161.41528 c 1.86476,0.85793 3.95767,1.98114 6.04348,3.47385 -1.94319,-0.8232 -3.87927,-2.01589 -6.04348,-3.47385 z"
     id="path35" /><path
     fill="#395684"
     opacity="1"
     stroke="none"
     d="m 51.420929,164.13675 c 0.236954,-0.56993 0.761112,-1.21002 1.635082,-1.72302 -0.216087,0.63568 -0.781986,1.14427 -1.635082,1.72302 z"
     id="path36" /><path
     fill="#395684"
     opacity="1"
     stroke="none"
     d="m 53.633492,162.43722 c 0.331993,-0.44401 0.96725,-0.93766 1.948349,-1.44912 -0.317795,0.45463 -0.981438,0.92706 -1.948349,1.44912 z"
     id="path37" /><path
     fill="#3c5a8e"
     opacity="1"
     stroke="none"
     d="m 167.91147,198.33411 c 0.3148,0.14643 0.67662,0.57809 1.07774,1.30343 -0.31738,-0.14363 -0.67406,-0.5809 -1.07774,-1.30343 z"
     id="path38" /><path
     fill="#395684"
     opacity="1"
     stroke="none"
     d="m 56.24913,160.921 c -0.113651,-0.2824 0.111824,-0.518 0.649712,-0.75981 0.02738,0.19069 -0.18029,0.46163 -0.649712,0.75981 z"
     id="path39" /><path
     fill="#3c5a8e"
     opacity="1"
     stroke="none"
     d="m 169.07788,200.25528 c 0.20972,-0.0282 0.44608,0.21126 0.7511,0.69635 -0.19573,0.0209 -0.46008,-0.20392 -0.7511,-0.69635 z"
     id="path40" /><path
     fill="#3c5a8e"
     opacity="1"
     stroke="none"
     d="m 152.67425,179.61171 c 0.25353,-0.0981 0.59113,0.0561 0.93841,0.51099 -0.27833,0.11422 -0.56632,-0.0722 -0.93841,-0.51099 z"
     id="path41" /><path
     fill="#010313"
     opacity="1"
     stroke="none"
     d="m 416.69525,270.17108 c -0.64838,5.75144 -1.49383,11.80396 -2.53171,17.82324 -0.0796,0.46122 -1.51791,0.68811 -2.66018,1.0315 1.42508,-6.18225 3.18576,-12.37213 5.19189,-18.85474 z"
     id="path42" /><path
     fill="#010413"
     opacity="1"
     stroke="none"
     d="M 7.103199,272.5108 C 6.553826,272.67224 5.539891,272.4435 5.5014,272.10416 4.797379,265.89725 4.210349,259.67709 3.914852,253.18378 c 1.270184,6.11111 2.22401,12.49823 3.188347,19.32702 z"
     id="path43" /><path
     fill="#010413"
     opacity="1"
     stroke="none"
     d="m 8.760702,277.74036 c -0.434968,-0.26654 -0.82597,-0.82343 -1.020751,-1.54743 0.485719,0.30759 0.775218,0.78235 1.020751,1.54743 z"
     id="path44" /></g>
</svg>
