<svg version="1.1" id="Layer_1" xmlns="http://www.w3.org/2000/svg" xmlns:xlink="http://www.w3.org/1999/xlink" x="0px" y="0px"
	 width="100%" viewBox="0 0 421 380" enable-background="new 0 0 421 380" xml:space="preserve">
<path fill="#E2E7EF" opacity="1.000000" stroke="none" 
	d="
M227.000000,381.000000 
	C216.979111,381.000000 206.958206,381.000000 196.394104,380.688049 
	C195.567261,380.584045 195.283630,380.792023 195.000000,381.000000 
	C192.299988,381.000000 189.599976,381.000000 186.708084,380.619568 
	C180.956726,379.511658 175.408829,378.677155 169.835846,378.074738 
	C141.438461,375.004913 113.643562,369.286163 87.370979,357.821350 
	C67.244957,349.038879 48.308296,338.343689 35.986610,318.715118 
	C33.007530,309.786194 28.950760,301.437164 27.186352,292.628937 
	C21.855047,266.014130 20.542681,239.067902 23.318699,211.737808 
	C24.237560,209.132263 24.850309,206.768021 25.528488,204.422668 
	C27.013256,199.287903 28.531216,194.162720 30.344597,188.887451 
	C37.497345,180.542923 44.341114,172.344559 51.133385,164.128754 
	C51.081890,164.111343 51.133728,164.206909 51.420929,164.136749 
	C52.274025,163.557999 52.839924,163.049408 53.409065,162.496292 
	C53.412308,162.451782 53.330223,162.486847 53.633492,162.437225 
	C54.600403,161.915161 55.264046,161.442734 55.951496,160.988831 
	C55.975307,161.007370 55.987370,160.948242 56.249130,160.921005 
	C56.718552,160.622818 56.926220,160.351883 57.083687,160.078918 
	C57.033482,160.076889 57.111088,160.140717 57.452545,160.047058 
	C62.528881,157.636551 67.263763,155.319687 71.999359,153.001419 
	C72.000084,153.000000 72.003448,153.000366 72.412018,153.003571 
	C80.509666,152.241684 88.192238,150.931412 95.889359,150.839478 
	C107.390923,150.702103 117.858315,154.953033 128.050446,160.398712 
	C128.630905,160.789795 129.083359,160.969894 129.763947,161.415268 
	C131.928162,162.873245 133.864243,164.065933 135.878174,165.198273 
	C135.956009,165.137939 135.774078,165.213394 135.945007,165.499023 
	C137.877914,167.041977 139.639893,168.299286 141.438370,169.596954 
	C141.474869,169.637299 141.534012,169.728653 141.683990,169.995422 
	C145.395508,173.315201 148.957031,176.368195 152.549957,179.421417 
	C152.581390,179.421631 152.590179,179.359390 152.674255,179.611710 
	C153.046341,180.050476 153.334335,180.236923 153.595123,180.444885 
	C153.567917,180.466415 153.571884,180.535690 153.713943,180.822815 
	C158.540375,186.779816 163.224762,192.449722 167.928253,198.082794 
	C167.947357,198.045990 167.864456,198.048874 167.911469,198.334106 
	C168.315155,199.056641 168.671829,199.493912 169.010529,199.954834 
	C168.992554,199.978470 169.051224,199.987671 169.077881,200.255280 
	C169.368896,200.747711 169.633255,200.972519 169.974365,201.535538 
	C175.390335,214.613708 180.729568,227.353668 186.030273,240.496521 
	C187.038284,246.848434 188.084854,252.797424 188.712830,258.793396 
	C179.812714,258.862427 171.324966,258.717926 162.854568,259.035858 
	C160.981445,259.106140 158.138718,260.423920 157.595917,261.865265 
	C156.946381,263.589996 157.653336,266.555359 158.874451,268.128052 
	C164.069687,274.819061 169.698303,281.172150 175.120178,287.688995 
	C183.270309,297.485107 192.261475,306.616882 196.435944,319.232330 
	C198.725037,326.150024 202.018906,332.787964 205.429108,339.251678 
	C206.536179,341.350037 209.238297,343.207245 211.587875,343.904663 
	C214.863434,344.876953 216.645752,342.279266 217.675064,339.358459 
	C220.106628,332.458588 222.248306,325.433350 225.108246,318.714691 
	C227.541382,312.998657 229.980652,306.945801 233.881729,302.261688 
	C243.244278,291.019897 253.565384,280.581207 263.248901,269.597351 
	C264.895691,267.729401 266.757050,263.871674 265.928772,262.516541 
	C264.717285,260.534515 261.214996,259.136414 258.599976,258.980194 
	C250.476685,258.494843 242.311401,258.712433 234.144547,258.281799 
	C235.176804,252.205658 236.226944,246.504990 237.505310,240.528046 
	C245.880615,207.157043 263.815918,180.940079 292.537689,162.319794 
	C303.003571,155.534775 314.316071,150.703430 326.848297,150.091949 
	C353.455597,148.793686 373.430267,160.821732 388.558350,181.986649 
	C394.775208,190.684387 397.493744,200.789551 400.162201,211.332062 
	C400.443390,217.552994 401.062958,223.346603 401.006195,229.133606 
	C400.900421,239.908646 400.464020,250.682266 400.050659,261.452087 
	C399.402252,278.346283 396.568817,294.846741 390.587524,311.029663 
	C387.705994,316.556946 385.091125,321.858032 382.271545,327.438721 
	C378.265686,331.196655 374.682159,334.955200 370.626648,338.106232 
	C349.903412,354.207733 326.116272,364.051697 300.827881,369.746857 
	C282.074585,373.970245 262.844025,376.067535 243.840149,379.197540 
	C242.173035,379.472137 240.610886,380.384064 239.000000,381.000000 
	C235.638718,381.000000 232.277420,381.000000 228.578781,380.717224 
	C227.827621,380.622955 227.413818,380.811493 227.000000,381.000000 
M81.133827,228.741623 
	C81.420288,231.038071 81.504509,233.381821 82.028572,235.622696 
	C84.182838,244.834290 93.340179,251.837830 102.916908,251.746262 
	C112.743896,251.652328 121.730820,244.410889 123.814949,234.907181 
	C125.915787,225.327225 121.134628,215.220413 112.596802,210.985748 
	C100.842323,205.155640 83.827682,210.369675 81.133827,228.741623 
M314.231293,233.377029 
	C314.742004,232.355042 314.979004,230.870285 315.805145,230.381699 
	C325.524078,224.634018 335.333191,219.038834 345.113892,213.395447 
	C347.465759,212.038452 350.407501,210.422836 348.046295,207.452728 
	C347.169281,206.349548 343.392059,206.351913 341.720703,207.272369 
	C329.649109,213.920563 317.765717,220.911789 305.849304,227.840088 
	C300.053223,231.209976 300.070251,233.449493 305.986053,236.891617 
	C317.760437,243.742645 329.593597,250.492538 341.378357,257.325836 
	C343.752930,258.702759 346.315979,260.498169 348.256165,257.264557 
	C350.198975,254.026627 347.419312,252.536194 345.060242,251.178482 
	C334.984833,245.379776 324.903870,239.590714 314.231293,233.377029 
z"/>
<path fill="#2E58A1" opacity="1.000000" stroke="none" 
	d="
M30.035618,189.033630 
	C28.531216,194.162720 27.013256,199.287903 25.528488,204.422668 
	C24.850309,206.768021 24.237560,209.132263 23.030174,211.439911 
	C22.306721,209.586884 21.906776,207.765503 22.028229,205.979568 
	C22.937983,192.601959 23.633715,179.198532 25.014587,165.867218 
	C26.598909,150.571762 28.457142,135.284378 30.879938,120.102585 
	C32.754082,108.358772 35.167721,96.643646 38.281490,85.170891 
	C41.522785,73.228271 45.352867,61.378628 49.901417,49.874180 
	C55.865566,34.789322 66.033150,22.181002 76.084152,9.651670 
	C78.493843,6.647813 81.999680,4.523285 85.469841,2.002228 
	C108.061646,2.009815 130.185074,2.034121 152.308212,1.965439 
	C154.206451,1.959546 156.102783,1.336406 158.000000,0.999999 
	C161.692902,1.000000 165.385818,1.000000 169.764526,1.264412 
	C171.354004,1.654742 172.257690,1.780660 173.508118,1.954808 
	C176.389130,4.872384 180.104492,7.350057 181.212814,10.692258 
	C183.550385,17.741356 184.842728,25.193132 185.994843,32.568584 
	C189.229355,53.275112 192.036957,74.048470 195.291580,94.751671 
	C196.995026,105.587677 203.950516,111.901390 213.448135,112.059052 
	C223.315842,112.222855 230.610687,106.015228 232.545929,95.211082 
	C234.597443,83.757790 236.084808,72.204224 238.076309,60.739231 
	C240.948730,44.202641 243.985596,27.693581 247.101761,11.201015 
	C248.007828,6.405536 251.059830,3.251856 256.316803,1.947613 
	C283.541931,1.982425 310.286041,1.973364 337.391174,1.990377 
	C338.582214,2.484003 339.556091,2.801774 340.221313,3.440851 
	C360.966461,23.370007 374.758026,47.426018 381.944916,75.175171 
	C385.841766,90.221344 389.142212,105.432022 392.324707,120.649422 
	C394.254456,129.876709 395.921082,139.210724 396.863403,148.581528 
	C398.553589,165.388687 399.709045,182.252884 400.853973,199.109146 
	C401.118744,203.007111 400.439972,206.969193 400.195374,210.901764 
	C397.493744,200.789551 394.775208,190.684387 388.558350,181.986649 
	C373.430267,160.821732 353.455597,148.793686 326.848297,150.091949 
	C314.316071,150.703430 303.003571,155.534775 292.537689,162.319794 
	C263.815918,180.940079 245.880615,207.157043 237.047821,240.555786 
	C229.859802,241.911591 223.384598,243.193176 216.849121,243.962799 
	C206.310135,245.203857 196.198883,242.437820 186.068817,240.093613 
	C180.729568,227.353668 175.390335,214.613708 169.905716,201.289856 
	C169.523956,200.466537 169.287598,200.227097 169.051224,199.987671 
	C169.051224,199.987671 168.992554,199.978470 168.971222,199.661163 
	C168.588089,198.912201 168.226273,198.480545 167.864456,198.048874 
	C167.864456,198.048874 167.947357,198.045990 167.950760,197.698090 
	C166.695969,189.786591 160.276489,185.937759 155.844986,180.670792 
	C155.508743,180.271149 154.348892,180.564484 153.571884,180.535690 
	C153.571884,180.535690 153.567917,180.466415 153.585449,180.144226 
	C153.265381,179.667801 152.927780,179.513596 152.590179,179.359390 
	C152.590179,179.359390 152.581390,179.421631 152.684448,179.069321 
	C152.350067,174.507050 146.378723,169.737625 141.534012,169.728653 
	C141.534012,169.728653 141.474869,169.637299 141.514709,169.215088 
	C140.529480,166.143478 138.964340,164.366241 135.774078,165.213394 
	C135.774078,165.213394 135.956009,165.137939 135.885269,164.828796 
	C133.721619,163.396423 131.628708,162.273209 129.535812,161.149994 
	C129.083359,160.969894 128.630905,160.789795 128.060730,160.011337 
	C127.288399,158.610641 126.792374,157.389313 125.954185,157.072098 
	C119.069283,154.466629 112.053734,152.199371 105.207031,149.501587 
	C94.587624,145.317215 84.251732,148.753311 73.853867,150.392487 
	C73.118301,150.508423 72.614838,152.096710 72.003448,153.000366 
	C72.003448,153.000366 72.000084,153.000000 71.581161,152.997986 
	C65.973427,154.384216 59.260574,152.775208 57.111088,160.140717 
	C57.111088,160.140717 57.033482,160.076889 56.848640,160.159164 
	C56.360954,160.403000 56.135479,160.638596 55.987370,160.948242 
	C55.987370,160.948242 55.975307,161.007370 55.605652,161.006638 
	C54.600742,161.499557 53.965485,161.993210 53.330223,162.486847 
	C53.330223,162.486847 53.412308,162.451782 53.059254,162.369202 
	C52.182041,162.926727 51.657883,163.566818 51.133728,164.206909 
	C51.133728,164.206909 51.081890,164.111343 50.788818,164.083023 
	C49.676788,164.124512 48.510036,163.868332 48.092201,164.314117 
	C43.468369,169.247238 38.680740,174.071243 34.537834,179.392242 
	C32.413574,182.120575 31.497635,185.789688 30.035618,189.033630 
z"/>
<path fill="#1E3866" opacity="1.000000" stroke="none" 
	d="
M400.162231,211.332062 
	C400.439972,206.969193 401.118744,203.007111 400.853973,199.109146 
	C399.709045,182.252884 398.553589,165.388687 396.863403,148.581528 
	C395.921082,139.210724 394.254456,129.876709 392.324707,120.649422 
	C389.142212,105.432022 385.841766,90.221344 381.944916,75.175171 
	C374.758026,47.426018 360.966461,23.370007 340.221313,3.440851 
	C339.556091,2.801774 338.582214,2.484003 337.381836,1.749532 
	C337.011505,1.482613 337.000000,1.000000 337.000000,1.000000 
	C338.388885,1.000000 339.777802,1.000000 341.864136,1.256396 
	C370.507355,5.911891 389.576660,22.054567 402.743561,46.410843 
	C410.057404,59.940048 414.568573,74.435188 418.944458,89.448425 
	C419.959686,93.246246 420.979828,96.623131 422.000000,100.000000 
	C422.000000,101.714355 422.000000,103.428719 421.790894,105.610657 
	C421.721191,106.385490 421.860596,106.692741 422.000000,107.000000 
	C422.000000,132.687561 422.000000,158.375122 421.804932,184.621124 
	C421.535889,185.301468 421.377991,185.509018 421.401123,185.531662 
	C421.581085,185.707870 421.795959,185.848404 422.000000,186.000000 
	C422.000000,196.020889 422.000000,206.041794 421.600830,216.584656 
	C420.839722,217.981476 420.205231,218.841492 420.156647,219.733398 
	C419.371765,234.146255 418.661285,248.563171 417.849365,263.354675 
	C417.490051,265.779572 417.215393,267.828979 416.695251,270.171082 
	C414.689117,276.653687 412.928436,282.843567 410.977234,289.333252 
	C404.924774,297.807678 399.062866,305.982269 392.916962,313.953308 
	C392.040009,312.767670 391.447052,311.785553 390.854126,310.803467 
	C396.568817,294.846741 399.402252,278.346283 400.050659,261.452087 
	C400.464020,250.682266 400.900421,239.908646 401.006195,229.133606 
	C401.062958,223.346603 400.443390,217.552994 400.162231,211.332062 
z"/>
<path fill="#1E3866" opacity="1.000000" stroke="none" 
	d="
M85.001389,1.994344 
	C81.999680,4.523285 78.493843,6.647813 76.084152,9.651670 
	C66.033150,22.181002 55.865566,34.789322 49.901417,49.874180 
	C45.352867,61.378628 41.522785,73.228271 38.281490,85.170891 
	C35.167721,96.643646 32.754082,108.358772 30.879938,120.102585 
	C28.457142,135.284378 26.598909,150.571762 25.014587,165.867218 
	C23.633715,179.198532 22.937983,192.601959 22.028229,205.979568 
	C21.906776,207.765503 22.306721,209.586884 22.753736,211.689758 
	C20.542681,239.067902 21.855047,266.014130 27.186352,292.628937 
	C28.950760,301.437164 33.007530,309.786194 35.625343,318.746033 
	C34.759533,319.002777 34.122787,319.007629 33.832970,318.692932 
	C22.842735,306.759705 12.543272,294.390717 8.760700,277.740356 
	C8.515169,276.975281 8.225670,276.500519 7.951150,275.692230 
	C7.681990,274.556610 7.397851,273.754517 7.103200,272.510803 
	C6.138862,265.682007 5.185036,259.294891 4.217857,252.464447 
	C4.088352,249.355545 3.972200,246.689972 3.910765,243.564560 
	C3.642399,233.828110 3.382971,224.548279 2.913359,215.279083 
	C2.856491,214.156631 1.665412,213.091629 1.000001,212.000000 
	C1.000000,211.250000 1.000000,210.500000 1.324656,209.105988 
	C1.772995,205.331833 2.087646,202.194824 1.975659,199.073135 
	C1.807171,194.376480 1.340121,189.690506 1.000000,185.000000 
	C1.000000,176.312439 1.000000,167.624863 1.243963,158.281448 
	C1.325284,156.750397 1.162643,155.875198 1.000000,155.000000 
	C1.000000,142.645767 1.000000,130.291550 1.265070,117.234993 
	C1.353426,115.021782 1.176713,113.510887 1.000000,112.000000 
	C1.000000,107.310745 1.000000,102.621490 1.392844,97.456909 
	C2.885194,93.846535 3.910579,90.683128 5.096960,87.581299 
	C10.412861,73.682724 14.789571,59.316074 21.342232,46.023949 
	C32.156853,24.086397 49.247837,8.821904 73.715218,2.984580 
	C74.585121,2.777041 75.243195,1.681614 76.000000,1.000000 
	C76.444443,1.000000 76.888893,1.000000 77.771927,1.261869 
	C78.807007,1.349159 79.403503,1.174580 80.000000,1.000000 
	C81.388893,1.000000 82.777779,1.000000 84.585258,1.248584 
	C85.003845,1.497168 85.001389,1.994345 85.001389,1.994344 
z"/>
<path fill="#010102" opacity="1.000000" stroke="none" 
	d="
M3.856047,244.024399 
	C3.972200,246.689972 4.088352,249.355545 3.901500,252.740448 
	C4.210349,259.677094 4.797379,265.897247 5.501400,272.104156 
	C5.539891,272.443512 6.553826,272.672241 7.113711,272.952454 
	C7.397851,273.754517 7.681990,274.556610 7.754930,275.859375 
	C7.934732,276.916931 8.325734,277.473816 8.716734,278.030670 
	C12.543272,294.390717 22.842735,306.759705 33.832970,318.692932 
	C34.122787,319.007629 34.759533,319.002777 35.595753,319.116028 
	C48.308296,338.343689 67.244957,349.038879 87.370979,357.821350 
	C113.643562,369.286163 141.438461,375.004913 169.835846,378.074738 
	C175.408829,378.677155 180.956726,379.511658 186.258102,380.619568 
	C124.417206,381.000000 62.834408,381.000000 1.000000,381.000000 
	C1.000000,335.646088 1.000000,290.291687 1.357976,244.468658 
	C2.429317,244.008148 3.142682,244.016266 3.856047,244.024399 
z"/>
<path fill="#010102" opacity="1.000000" stroke="none" 
	d="
M393.200989,314.156891 
	C399.062866,305.982269 404.924774,297.807678 411.312775,289.325623 
	C412.645630,288.682434 414.083984,288.455536 414.163544,287.994324 
	C415.201416,281.975037 416.046875,275.922516 416.940735,269.878387 
	C417.215393,267.828979 417.490051,265.779572 418.257294,263.361664 
	C419.833252,262.995453 420.916626,262.997742 422.000000,263.000000 
	C422.000000,302.276093 422.000000,341.552216 422.000000,381.000000 
	C361.312561,381.000000 300.624939,381.000000 239.468658,381.000000 
	C240.610886,380.384064 242.173035,379.472137 243.840149,379.197540 
	C262.844025,376.067535 282.074585,373.970245 300.827881,369.746857 
	C326.116272,364.051697 349.903412,354.207733 370.626648,338.106232 
	C374.682159,334.955200 378.265686,331.196655 382.604065,327.432404 
	C386.494476,322.816650 389.847748,318.486755 393.200989,314.156891 
z"/>
<path fill="#010103" opacity="1.000000" stroke="none" 
	d="
M255.835770,1.903740 
	C251.059830,3.251856 248.007828,6.405536 247.101761,11.201015 
	C243.985596,27.693581 240.948730,44.202641 238.076309,60.739231 
	C236.084808,72.204224 234.597443,83.757790 232.545929,95.211082 
	C230.610687,106.015228 223.315842,112.222855 213.448135,112.059052 
	C203.950516,111.901390 196.995026,105.587677 195.291580,94.751671 
	C192.036957,74.048470 189.229355,53.275112 185.994843,32.568584 
	C184.842728,25.193132 183.550385,17.741356 181.212814,10.692258 
	C180.104492,7.350057 176.389130,4.872384 173.473724,1.727243 
	C173.092575,1.451446 173.000000,1.000000 173.000000,1.000000 
	C200.354233,1.000000 227.708450,1.000000 255.486267,1.225206 
	C255.909851,1.450413 255.835770,1.903740 255.835770,1.903740 
z"/>
<path fill="#010103" opacity="1.000000" stroke="none" 
	d="
M75.531342,1.000000 
	C75.243195,1.681614 74.585121,2.777041 73.715218,2.984580 
	C49.247837,8.821904 32.156853,24.086397 21.342232,46.023949 
	C14.789571,59.316074 10.412861,73.682724 5.096960,87.581299 
	C3.910579,90.683128 2.885194,93.846535 1.392844,96.990799 
	C1.000000,65.082069 1.000000,33.164143 1.000000,1.000000 
	C25.687016,1.000000 50.374847,1.000000 75.531342,1.000000 
z"/>
<path fill="#010103" opacity="1.000000" stroke="none" 
	d="
M418.949341,89.027481 
	C414.568573,74.435188 410.057404,59.940048 402.743561,46.410843 
	C389.576660,22.054567 370.507355,5.911891 342.280792,1.256396 
	C368.597046,1.000000 395.194092,1.000000 422.000000,1.000000 
	C422.000000,30.020561 422.000000,59.041622 421.618958,88.533440 
	C420.475067,89.011963 419.712189,89.019722 418.949341,89.027481 
z"/>
<path fill="#010313" opacity="1.000000" stroke="none" 
	d="
M422.000000,262.531342 
	C420.916626,262.997742 419.833252,262.995453 418.341919,262.986145 
	C418.661285,248.563171 419.371765,234.146255 420.156647,219.733398 
	C420.205231,218.841492 420.839722,217.981476 421.600830,217.053314 
	C422.000000,232.020889 422.000000,247.041794 422.000000,262.531342 
z"/>
<path fill="#1D4486" opacity="1.000000" stroke="none" 
	d="
M256.316803,1.947613 
	C255.835770,1.903740 255.909851,1.450413 255.954926,1.225206 
	C282.687561,1.000000 309.375122,1.000000 336.531342,1.000000 
	C337.000000,1.000000 337.011505,1.482613 337.020813,1.723458 
	C310.286041,1.973364 283.541931,1.982425 256.316803,1.947613 
z"/>
<path fill="#010413" opacity="1.000000" stroke="none" 
	d="
M3.910765,243.564560 
	C3.142682,244.016266 2.429317,244.008148 1.357976,244.000000 
	C1.000000,233.645767 1.000000,223.291550 1.000001,212.468658 
	C1.665412,213.091629 2.856491,214.156631 2.913359,215.279083 
	C3.382971,224.548279 3.642399,233.828110 3.910765,243.564560 
z"/>
<path fill="#1D4386" opacity="1.000000" stroke="none" 
	d="
M85.469841,2.002228 
	C85.001389,1.994345 85.003845,1.497168 85.001923,1.248584 
	C109.020897,1.000000 133.041794,1.000000 157.531342,0.999999 
	C156.102783,1.336406 154.206451,1.959546 152.308212,1.965439 
	C130.185074,2.034121 108.061646,2.009815 85.469841,2.002228 
z"/>
<path fill="#020514" opacity="1.000000" stroke="none" 
	d="
M418.944458,89.448425 
	C419.712189,89.019722 420.475067,89.011963 421.618958,89.002098 
	C422.000000,92.361290 422.000000,95.722572 422.000000,99.541931 
	C420.979828,96.623131 419.959686,93.246246 418.944458,89.448425 
z"/>
<path fill="#010413" opacity="1.000000" stroke="none" 
	d="
M1.000000,185.468628 
	C1.340121,189.690506 1.807171,194.376480 1.975659,199.073135 
	C2.087646,202.194824 1.772995,205.331833 1.324656,208.730988 
	C1.000000,201.312424 1.000000,193.624832 1.000000,185.468628 
z"/>
<path fill="#0D294F" opacity="1.000000" stroke="none" 
	d="
M1.000000,112.416664 
	C1.176713,113.510887 1.353426,115.021782 1.265070,116.766335 
	C1.000000,115.611107 1.000000,114.222221 1.000000,112.416664 
z"/>
<path fill="#0D294F" opacity="1.000000" stroke="none" 
	d="
M1.000000,155.375000 
	C1.162643,155.875198 1.325284,156.750397 1.243963,157.812805 
	C1.000000,157.250000 1.000000,156.500000 1.000000,155.375000 
z"/>
<path fill="#1D4386" opacity="1.000000" stroke="none" 
	d="
M172.625000,1.000000 
	C173.000000,1.000000 173.092575,1.451446 173.126968,1.679011 
	C172.257690,1.780660 171.354004,1.654742 170.225159,1.264412 
	C170.750000,1.000000 171.500000,1.000000 172.625000,1.000000 
z"/>
<path fill="#010103" opacity="1.000000" stroke="none" 
	d="
M79.666672,1.000000 
	C79.403503,1.174580 78.807007,1.349159 78.105255,1.261869 
	C78.444443,1.000000 78.888893,1.000000 79.666672,1.000000 
z"/>
<path fill="#020514" opacity="1.000000" stroke="none" 
	d="
M422.000000,106.750000 
	C421.860596,106.692741 421.721191,106.385490 421.790894,106.039124 
	C422.000000,106.000000 422.000000,106.500000 422.000000,106.750000 
z"/>
<path fill="#010313" opacity="1.000000" stroke="none" 
	d="
M422.000000,185.750000 
	C421.795959,185.848404 421.581085,185.707870 421.401123,185.531662 
	C421.377991,185.509018 421.535889,185.301468 421.804932,185.089783 
	C422.000000,185.000000 422.000000,185.500000 422.000000,185.750000 
z"/>
<path fill="#010102" opacity="1.000000" stroke="none" 
	d="
M195.250000,381.000000 
	C195.283630,380.792023 195.567261,380.584045 195.925446,380.688049 
	C196.000000,381.000000 195.500000,381.000000 195.250000,381.000000 
z"/>
<path fill="#010102" opacity="1.000000" stroke="none" 
	d="
M227.250000,381.000000 
	C227.413818,380.811493 227.827621,380.622955 228.120712,380.717224 
	C228.000000,381.000000 227.500000,381.000000 227.250000,381.000000 
z"/>
<path fill="#F0BF1E" opacity="1.000000" stroke="none" 
	d="
M234.162415,258.657318 
	C242.311401,258.712433 250.476685,258.494843 258.599976,258.980194 
	C261.214996,259.136414 264.717285,260.534515 265.928772,262.516541 
	C266.757050,263.871674 264.895691,267.729401 263.248901,269.597351 
	C253.565384,280.581207 243.244278,291.019897 233.881729,302.261688 
	C229.980652,306.945801 227.541382,312.998657 225.108246,318.714691 
	C222.248306,325.433350 220.106628,332.458588 217.675064,339.358459 
	C216.645752,342.279266 214.863434,344.876953 211.587875,343.904663 
	C209.238297,343.207245 206.536179,341.350037 205.429108,339.251678 
	C202.018906,332.787964 198.725037,326.150024 196.435944,319.232330 
	C192.261475,306.616882 183.270309,297.485107 175.120178,287.688995 
	C169.698303,281.172150 164.069687,274.819061 158.874451,268.128052 
	C157.653336,266.555359 156.946381,263.589996 157.595917,261.865265 
	C158.138718,260.423920 160.981445,259.106140 162.854568,259.035858 
	C171.324966,258.717926 179.812714,258.862427 189.098221,258.872803 
	C204.680954,263.347626 219.435883,263.536530 234.162415,258.657318 
z"/>
<path fill="#062739" opacity="1.000000" stroke="none" 
	d="
M81.176239,228.320068 
	C83.827682,210.369675 100.842323,205.155640 112.596802,210.985748 
	C121.134628,215.220413 125.915787,225.327225 123.814949,234.907181 
	C121.730820,244.410889 112.743896,251.652328 102.916908,251.746262 
	C93.340179,251.837830 84.182838,244.834290 82.028572,235.622696 
	C81.504509,233.381821 81.420288,231.038071 81.176239,228.320068 
z"/>
<path fill="#213963" opacity="1.000000" stroke="none" 
	d="
M234.144547,258.281799 
	C219.435883,263.536530 204.680954,263.347626 189.516815,258.825806 
	C188.084854,252.797424 187.038284,246.848434 186.030273,240.496521 
	C196.198883,242.437820 206.310135,245.203857 216.849121,243.962799 
	C223.384598,243.193176 229.859802,241.911591 236.819565,240.832062 
	C236.226944,246.504990 235.176804,252.205658 234.144547,258.281799 
z"/>
<path fill="#0D2C3D" opacity="1.000000" stroke="none" 
	d="
M314.528137,233.587585 
	C324.903870,239.590714 334.984833,245.379776 345.060242,251.178482 
	C347.419312,252.536194 350.198975,254.026627 348.256165,257.264557 
	C346.315979,260.498169 343.752930,258.702759 341.378357,257.325836 
	C329.593597,250.492538 317.760437,243.742645 305.986053,236.891617 
	C300.070251,233.449493 300.053223,231.209976 305.849304,227.840088 
	C317.765717,220.911789 329.649109,213.920563 341.720703,207.272369 
	C343.392059,206.351913 347.169281,206.349548 348.046295,207.452728 
	C350.407501,210.422836 347.465759,212.038452 345.113892,213.395447 
	C335.333191,219.038834 325.524078,224.634018 315.805145,230.381699 
	C314.979004,230.870285 314.742004,232.355042 314.528137,233.587585 
z"/>
<path fill="#3C5A8E" opacity="1.000000" stroke="none" 
	d="
M72.412010,153.003571 
	C72.614838,152.096710 73.118301,150.508423 73.853867,150.392487 
	C84.251732,148.753311 94.587624,145.317215 105.207031,149.501587 
	C112.053734,152.199371 119.069283,154.466629 125.954185,157.072098 
	C126.792374,157.389313 127.288399,158.610641 127.932709,159.800339 
	C117.858315,154.953033 107.390923,150.702103 95.889359,150.839478 
	C88.192238,150.931412 80.509666,152.241684 72.412010,153.003571 
z"/>
<path fill="#395684" opacity="1.000000" stroke="none" 
	d="
M30.344595,188.887451 
	C31.497635,185.789688 32.413574,182.120575 34.537834,179.392242 
	C38.680740,174.071243 43.468369,169.247238 48.092201,164.314117 
	C48.510036,163.868332 49.676788,164.124512 50.840313,164.100433 
	C44.341114,172.344559 37.497345,180.542923 30.344595,188.887451 
z"/>
<path fill="#38445E" opacity="1.000000" stroke="none" 
	d="
M392.916962,313.953308 
	C389.847748,318.486755 386.494476,322.816650 382.808716,327.152832 
	C385.091125,321.858032 387.705994,316.556946 390.587524,311.029663 
	C391.447052,311.785553 392.040009,312.767670 392.916962,313.953308 
z"/>
<path fill="#3C5A8E" opacity="1.000000" stroke="none" 
	d="
M153.713943,180.822815 
	C154.348892,180.564484 155.508743,180.271149 155.844986,180.670792 
	C160.276489,185.937759 166.695969,189.786591 167.931641,197.734894 
	C163.224762,192.449722 158.540375,186.779816 153.713943,180.822815 
z"/>
<path fill="#3C5A8E" opacity="1.000000" stroke="none" 
	d="
M141.683990,169.995422 
	C146.378723,169.737625 152.350067,174.507050 152.653015,179.069107 
	C148.957031,176.368195 145.395508,173.315201 141.683990,169.995422 
z"/>
<path fill="#3C5A8E" opacity="1.000000" stroke="none" 
	d="
M57.452545,160.047058 
	C59.260574,152.775208 65.973427,154.384216 71.580444,152.999420 
	C67.263763,155.319687 62.528881,157.636551 57.452545,160.047058 
z"/>
<path fill="#3C5A8E" opacity="1.000000" stroke="none" 
	d="
M135.945007,165.499023 
	C138.964340,164.366241 140.529480,166.143478 141.478210,169.174744 
	C139.639893,168.299286 137.877914,167.041977 135.945007,165.499023 
z"/>
<path fill="#3C5A8E" opacity="1.000000" stroke="none" 
	d="
M129.763947,161.415283 
	C131.628708,162.273209 133.721619,163.396423 135.807434,164.889130 
	C133.864243,164.065933 131.928162,162.873245 129.763947,161.415283 
z"/>
<path fill="#395684" opacity="1.000000" stroke="none" 
	d="
M51.420929,164.136749 
	C51.657883,163.566818 52.182041,162.926727 53.056011,162.413727 
	C52.839924,163.049408 52.274025,163.557999 51.420929,164.136749 
z"/>
<path fill="#395684" opacity="1.000000" stroke="none" 
	d="
M53.633492,162.437225 
	C53.965485,161.993210 54.600742,161.499557 55.581841,160.988098 
	C55.264046,161.442734 54.600403,161.915161 53.633492,162.437225 
z"/>
<path fill="#3C5A8E" opacity="1.000000" stroke="none" 
	d="
M167.911469,198.334106 
	C168.226273,198.480545 168.588089,198.912201 168.989212,199.637543 
	C168.671829,199.493912 168.315155,199.056641 167.911469,198.334106 
z"/>
<path fill="#395684" opacity="1.000000" stroke="none" 
	d="
M56.249130,160.921005 
	C56.135479,160.638596 56.360954,160.403000 56.898842,160.161194 
	C56.926220,160.351883 56.718552,160.622818 56.249130,160.921005 
z"/>
<path fill="#3C5A8E" opacity="1.000000" stroke="none" 
	d="
M169.077881,200.255280 
	C169.287598,200.227097 169.523956,200.466537 169.828979,200.951630 
	C169.633255,200.972519 169.368896,200.747711 169.077881,200.255280 
z"/>
<path fill="#3C5A8E" opacity="1.000000" stroke="none" 
	d="
M152.674255,179.611710 
	C152.927780,179.513596 153.265381,179.667801 153.612656,180.122696 
	C153.334335,180.236923 153.046341,180.050476 152.674255,179.611710 
z"/>
<path fill="#010313" opacity="1.000000" stroke="none" 
	d="
M416.695251,270.171082 
	C416.046875,275.922516 415.201416,281.975037 414.163544,287.994324 
	C414.083984,288.455536 412.645630,288.682434 411.503357,289.025818 
	C412.928436,282.843567 414.689117,276.653687 416.695251,270.171082 
z"/>
<path fill="#010413" opacity="1.000000" stroke="none" 
	d="
M7.103199,272.510803 
	C6.553826,272.672241 5.539891,272.443512 5.501400,272.104156 
	C4.797379,265.897247 4.210349,259.677094 3.914852,253.183777 
	C5.185036,259.294891 6.138862,265.682007 7.103199,272.510803 
z"/>
<path fill="#010413" opacity="1.000000" stroke="none" 
	d="
M8.760702,277.740356 
	C8.325734,277.473816 7.934732,276.916931 7.739951,276.192932 
	C8.225670,276.500519 8.515169,276.975281 8.760702,277.740356 
z"/>
</svg>