<?xml version="1.0" encoding="UTF-8" standalone="no"?>
<svg
   xmlns:dc="http://purl.org/dc/elements/1.1/"
   xmlns:cc="http://creativecommons.org/ns#"
   xmlns:rdf="http://www.w3.org/1999/02/22-rdf-syntax-ns#"
   xmlns:svg="http://www.w3.org/2000/svg"
   xmlns="http://www.w3.org/2000/svg"
   height="50.23"
   width="360"
   xml:space="preserve"
   viewBox="0 0 360 50.229999"
   y="0px"
   x="0px"
   id="millennium_wordmark"
   version="1.1"><metadata
   id="metadata11"><rdf:RDF><cc:Work
       rdf:about=""><dc:format>image/svg+xml</dc:format><dc:type
         rdf:resource="http://purl.org/dc/dcmitype/StillImage" /><dc:title></dc:title></cc:Work></rdf:RDF></metadata><defs
   id="defs9" />
<style
   id="style2"
   type="text/css">
	.st0{fill:#0C509D;}
</style>
<path
   style="fill:#0c509d"
   id="path4"
   d="M 5.59,18.26 H 0 V 16.6 h 13.1 v 4.17 c 2.92,-3.42 6.34,-5.01 10.77,-5.01 2.67,0 5.01,0.67 6.76,2 1.25,0.83 1.75,1.58 2.42,3.5 2.67,-3.67 6.43,-5.51 11.43,-5.51 3.34,0 6.43,1.25 7.93,3.17 1.25,1.58 1.67,3.76 1.67,8.26 v 20.53 h 5.59 v 1.67 H 41.56 v -1.67 h 5.01 V 27.19 c 0,-5.59 -0.17,-6.59 -1.34,-7.76 -0.75,-0.75 -2,-1.17 -3.34,-1.17 -2.84,0 -5.51,1.67 -6.84,4.17 -1.42,2.75 -1.5,3.25 -1.5,16.27 v 9.01 h 5.01 v 1.67 H 21.03 v -1.67 h 5.01 V 27.19 c 0,-4.01 -0.25,-5.76 -0.92,-6.84 -0.67,-1.08 -2.17,-1.84 -3.76,-1.84 -2.84,0 -5.76,1.75 -6.84,4.09 -1.08,2.25 -1.42,6.43 -1.42,16.11 v 9.01 h 5.01 v 1.67 H 0 v -1.67 h 5.59 z m 61.59,0 H 61.59 V 16.6 h 13.1 V 47.73 H 80.2 V 49.4 H 61.59 v -1.67 h 5.59 z m 3.5,-16.59 c -2.67,0 -4.67,2 -4.67,4.67 0,2.67 2,4.76 4.67,4.76 2.59,0 4.76,-2.09 4.76,-4.76 0,-2.58 -2.17,-4.67 -4.76,-4.67 z m 15.86,0 H 80.95 V 0 h 13.1 v 47.72 h 5.51 v 1.67 H 80.95 v -1.67 h 5.59 z m 19.36,0 h -5.59 V 0 h 13.1 v 47.72 h 5.51 v 1.67 h -18.61 v -1.67 h 5.59 z m 23.95,28.61 v 2.42 c 0,8.1 0.17,10.02 1.09,11.77 1.25,2.42 3.67,3.84 6.84,3.84 5.34,0 9.51,-3.67 11.1,-9.93 h 2 c -1.34,7.01 -6.93,11.85 -13.6,11.85 -8.51,0 -16.11,-8.1 -16.11,-17.28 0,-9.18 7.34,-17.19 15.69,-17.19 5.17,0 9.76,2.5 12.44,6.76 1.42,2.25 2,4.26 2.17,7.76 z m 12.93,-1.67 c 0,-5.51 -0.08,-6.18 -0.67,-7.68 -0.75,-2.09 -2.75,-3.25 -5.34,-3.25 -2.34,0 -4.26,0.75 -5.42,2.17 -1.17,1.42 -1.5,2.84 -1.5,7.01 v 1.75 z m 16.94,-10.35 h -5.59 V 16.6 h 13.1 v 4.34 c 2.75,-3.5 6.09,-5.17 10.52,-5.17 3.34,0 6.68,1.34 8.51,3.25 1.92,2.09 2.34,4.01 2.34,10.18 v 18.53 h 5.5 v 1.67 h -18.03 v -1.67 h 5.01 V 34.87 c 0,-9.93 -0.33,-12.94 -1.5,-14.52 -1,-1.34 -2.5,-2.09 -4.17,-2.09 -2.17,0 -4.76,1.42 -6.09,3.34 -1.59,2.34 -2.09,5.93 -2.09,16.19 v 9.93 h 5.01 v 1.67 h -18.11 v -1.67 h 5.59 z m 41.81,0 h -5.59 V 16.6 h 13.1 v 4.34 c 2.75,-3.5 6.09,-5.17 10.52,-5.17 3.34,0 6.68,1.34 8.51,3.25 1.92,2.09 2.34,4.01 2.34,10.18 v 18.53 h 5.51 v 1.67 h -18.03 v -1.67 h 5.01 V 34.87 c 0,-9.93 -0.33,-12.94 -1.5,-14.52 -1,-1.34 -2.5,-2.09 -4.17,-2.09 -2.17,0 -4.76,1.42 -6.09,3.34 -1.59,2.34 -2.09,5.93 -2.09,16.19 v 9.93 h 5.01 v 1.67 h -18.11 v -1.67 h 5.59 V 18.26 Z m 41.8,0 h -5.59 V 16.6 h 13.1 v 31.13 h 5.51 v 1.67 h -18.61 v -1.67 h 5.59 z m 3.51,-16.59 c -2.67,0 -4.67,2 -4.67,4.67 0,2.67 2,4.76 4.67,4.76 2.59,0 4.76,-2.09 4.76,-4.76 0,-2.58 -2.17,-4.67 -4.76,-4.67 z m 45.56,46.05 h 5.51 v 1.67 H 284.89 V 44.8 c -2.25,3.67 -5.93,5.43 -10.93,5.43 -3.59,0 -6.76,-1.09 -8.68,-3.01 -2.09,-2.09 -2.59,-4.17 -2.59,-11.18 V 18.26 H 257.1 V 16.6 h 13.1 v 19.45 c 0,8.18 0.17,9.68 1.25,10.85 0.75,0.92 2.25,1.42 4.09,1.42 3,0 5.76,-1.5 7.26,-3.84 1.67,-2.67 2.09,-5.43 2.09,-14.52 V 18.26 H 279.3 V 16.6 h 13.1 z m 13.52,-29.46 h -5.59 V 16.6 h 13.1 v 4.17 c 2.92,-3.42 6.34,-5.01 10.77,-5.01 2.67,0 5.01,0.67 6.76,2 1.25,0.83 1.75,1.58 2.42,3.5 2.67,-3.67 6.43,-5.51 11.43,-5.51 3.34,0 6.43,1.25 7.93,3.17 1.25,1.58 1.67,3.76 1.67,8.26 V 47.71 H 360 v 1.67 h -18.11 v -1.67 h 5.01 V 27.19 c 0,-5.59 -0.17,-6.59 -1.34,-7.76 -0.75,-0.75 -2,-1.17 -3.34,-1.17 -2.84,0 -5.51,1.67 -6.84,4.17 -1.42,2.75 -1.5,3.25 -1.5,16.27 v 9.01 h 5.01 v 1.67 h -17.53 v -1.67 h 5.01 V 27.19 c 0,-4.01 -0.25,-5.76 -0.92,-6.84 -0.67,-1.08 -2.17,-1.84 -3.76,-1.84 -2.84,0 -5.76,1.75 -6.84,4.09 -1.09,2.25 -1.42,6.43 -1.42,16.11 v 9.01 h 5.01 v 1.67 h -18.11 v -1.67 h 5.59 z"
   class="st0" />
</svg>