<?xml version="1.0" encoding="utf-8"?>
<!-- Generator: Adobe Illustrator 23.0.1, SVG Export Plug-In . SVG Version: 6.00 Build 0)  -->
<svg version="1.1" id="millennium_wordmark" xmlns="http://www.w3.org/2000/svg" xmlns:xlink="http://www.w3.org/1999/xlink"
	 x="0px" y="0px" viewBox="0 0 479.81 169.19" style="enable-background:new 0 0 479.81 169.19;" xml:space="preserve">
<style type="text/css">
	.st0{fill:#0C509D;}
</style>
<path class="st0" d="M65.49,78.16H59.9V76.5h13.1v4.17c2.92-3.42,6.34-5.01,10.77-5.01c2.67,0,5.01,0.67,6.76,2
	c1.25,0.83,1.75,1.58,2.42,3.5c2.67-3.67,6.43-5.51,11.43-5.51c3.34,0,6.43,1.25,7.93,3.17c1.25,1.58,1.67,3.76,1.67,8.26v20.53
	h5.59v1.67h-18.11v-1.67h5.01V87.09c0-5.59-0.17-6.59-1.34-7.76c-0.75-0.75-2-1.17-3.34-1.17c-2.84,0-5.51,1.67-6.84,4.17
	c-1.42,2.75-1.5,3.25-1.5,16.27v9.01h5.01v1.67H80.93v-1.67h5.01V87.09c0-4.01-0.25-5.76-0.92-6.84c-0.67-1.08-2.17-1.84-3.76-1.84
	c-2.84,0-5.76,1.75-6.84,4.09c-1.08,2.25-1.42,6.43-1.42,16.11v9.01h5.01v1.67H59.9v-1.67h5.59V78.16z M127.08,78.16h-5.59V76.5
	h13.1v31.13h5.51v1.67h-18.61v-1.67h5.59V78.16z M130.58,61.57c-2.67,0-4.67,2-4.67,4.67s2,4.76,4.67,4.76
	c2.59,0,4.76-2.09,4.76-4.76C135.34,63.66,133.17,61.57,130.58,61.57z M146.44,61.57h-5.59V59.9h13.1v47.72h5.51v1.67h-18.61v-1.67
	h5.59V61.57z M165.8,61.57h-5.59V59.9h13.1v47.72h5.51v1.67h-18.61v-1.67h5.59V61.57z M189.75,90.18v2.42
	c0,8.1,0.17,10.02,1.09,11.77c1.25,2.42,3.67,3.84,6.84,3.84c5.34,0,9.51-3.67,11.1-9.93h2c-1.34,7.01-6.93,11.85-13.6,11.85
	c-8.51,0-16.11-8.1-16.11-17.28s7.34-17.19,15.69-17.19c5.17,0,9.76,2.5,12.44,6.76c1.42,2.25,2,4.26,2.17,7.76H189.75z
	 M202.68,88.51c0-5.51-0.08-6.18-0.67-7.68c-0.75-2.09-2.75-3.25-5.34-3.25c-2.34,0-4.26,0.75-5.42,2.17
	c-1.17,1.42-1.5,2.84-1.5,7.01v1.75H202.68z M219.62,78.16h-5.59V76.5h13.1v4.34c2.75-3.5,6.09-5.17,10.52-5.17
	c3.34,0,6.68,1.34,8.51,3.25c1.92,2.09,2.34,4.01,2.34,10.18v18.53H254v1.67h-18.03v-1.67h5.01V94.77c0-9.93-0.33-12.94-1.5-14.52
	c-1-1.34-2.5-2.09-4.17-2.09c-2.17,0-4.76,1.42-6.09,3.34c-1.59,2.34-2.09,5.93-2.09,16.19v9.93h5.01v1.67h-18.11v-1.67h5.59V78.16z
	 M261.43,78.16h-5.59V76.5h13.1v4.34c2.75-3.5,6.09-5.17,10.52-5.17c3.34,0,6.68,1.34,8.51,3.25c1.92,2.09,2.34,4.01,2.34,10.18
	v18.53h5.51v1.67h-18.03v-1.67h5.01V94.77c0-9.93-0.33-12.94-1.5-14.52c-1-1.34-2.5-2.09-4.17-2.09c-2.17,0-4.76,1.42-6.09,3.34
	c-1.59,2.34-2.09,5.93-2.09,16.19v9.93h5.01v1.67h-18.11v-1.67h5.59V78.16z M303.23,78.16h-5.59V76.5h13.1v31.13h5.51v1.67h-18.61
	v-1.67h5.59V78.16z M306.74,61.57c-2.67,0-4.67,2-4.67,4.67s2,4.76,4.67,4.76c2.59,0,4.76-2.09,4.76-4.76
	C311.5,63.66,309.33,61.57,306.74,61.57z M352.3,107.62h5.51v1.67h-13.02v-4.59c-2.25,3.67-5.93,5.43-10.93,5.43
	c-3.59,0-6.76-1.09-8.68-3.01c-2.09-2.09-2.59-4.17-2.59-11.18V78.16H317V76.5h13.1v19.45c0,8.18,0.17,9.68,1.25,10.85
	c0.75,0.92,2.25,1.42,4.09,1.42c3,0,5.76-1.5,7.26-3.84c1.67-2.67,2.09-5.43,2.09-14.52V78.16h-5.59V76.5h13.1V107.62z
	 M365.82,78.16h-5.59V76.5h13.1v4.17c2.92-3.42,6.34-5.01,10.77-5.01c2.67,0,5.01,0.67,6.76,2c1.25,0.83,1.75,1.58,2.42,3.5
	c2.67-3.67,6.43-5.51,11.43-5.51c3.34,0,6.43,1.25,7.93,3.17c1.25,1.58,1.67,3.76,1.67,8.26v20.53h5.59v1.67h-18.11v-1.67h5.01
	V87.09c0-5.59-0.17-6.59-1.34-7.76c-0.75-0.75-2-1.17-3.34-1.17c-2.84,0-5.51,1.67-6.84,4.17c-1.42,2.75-1.5,3.25-1.5,16.27v9.01
	h5.01v1.67h-17.53v-1.67h5.01V87.09c0-4.01-0.25-5.76-0.92-6.84c-0.67-1.08-2.17-1.84-3.76-1.84c-2.84,0-5.76,1.75-6.84,4.09
	c-1.09,2.25-1.42,6.43-1.42,16.11v9.01h5.01v1.67h-18.11v-1.67h5.59V78.16z"/>
</svg>
