<?xml version="1.0" encoding="UTF-8" standalone="no"?>
<svg
   id="Layer_1"
   data-name="Layer 1"
   viewBox="0 0 260 60"
   version="1.1"
   sodipodi:docname="mobileye.svg"
   inkscape:version="1.3.2 (091e20e, 2023-11-25, custom)"
   xmlns:inkscape="http://www.inkscape.org/namespaces/inkscape"
   xmlns:sodipodi="http://sodipodi.sourceforge.net/DTD/sodipodi-0.dtd"
   xmlns="http://www.w3.org/2000/svg"
   xmlns:svg="http://www.w3.org/2000/svg">
  <sodipodi:namedview
     id="namedview25"
     pagecolor="#ffffff"
     bordercolor="#000000"
     borderopacity="0.25"
     inkscape:showpageshadow="2"
     inkscape:pageopacity="0.0"
     inkscape:pagecheckerboard="0"
     inkscape:deskcolor="#d1d1d1"
     inkscape:zoom="3.1884615"
     inkscape:cx="130"
     inkscape:cy="29.951749"
     inkscape:window-width="1920"
     inkscape:window-height="1129"
     inkscape:window-x="1912"
     inkscape:window-y="-8"
     inkscape:window-maximized="1"
     inkscape:current-layer="Layer_1" />
  <defs
     id="defs1">
    <style
       id="style1">.cls-1{fill:#0068b5;}.cls-2{fill:#00c7fd;}</style>
  </defs>
  <g
     id="g26">
    <g
       id="g25"
       transform="translate(0,6.665)">
      <path
         class="cls-1"
         d="m 88.36,17.24 a 7.14,7.14 0 0 1 5.92,-3 7.05,7.05 0 0 1 6.44,3.49 8,8 0 0 1 6.9,-3.49 c 5.15,0 7.92,3.83 7.92,8.43 v 12.67 h -3.49 V 22.9 c 0,-3.28 -1.67,-5.54 -4.94,-5.54 -3.27,0 -5.11,2.52 -5.11,5.75 V 35.34 H 98.5 V 22.9 c 0,-3.28 -1.66,-5.54 -4.94,-5.54 -3.28,0 -5.15,2.52 -5.15,5.75 V 35.34 H 85 V 14.77 h 3.4 z"
         id="path1" />
      <path
         class="cls-1"
         d="M 119.06,25.12 A 10.66,10.66 0 0 1 129.84,14.21 10.54,10.54 0 0 1 140.48,25.07 10.66,10.66 0 0 1 129.71,36 10.55,10.55 0 0 1 119.06,25.12 Z M 137,25.07 c 0,-4.34 -3.11,-7.83 -7.2,-7.83 -4.09,0 -7.15,3.4 -7.15,7.88 0,4.48 3.05,7.88 7.14,7.88 4.09,0 7.21,-3.45 7.21,-7.93 z"
         id="path2" />
      <path
         class="cls-1"
         d="m 144.23,5.52 h 3.45 V 18 a 9.59,9.59 0 0 1 7.54,-3.66 c 5.49,0 10.18,4.13 10.18,10.69 0,6.56 -4.9,10.82 -10.35,10.82 a 9.52,9.52 0 0 1 -7.41,-3.54 v 3.07 h -3.41 z m 10.52,27.26 c 4.05,0 7.11,-2.89 7.11,-7.71 0,-4.82 -3,-7.71 -7,-7.71 a 7.47,7.47 0 0 0 -7.33,7.8 7.29,7.29 0 0 0 7.22,7.62 z"
         id="path3" />
      <path
         class="cls-1"
         d="m 172.92,11.66 h -3.83 V 7.87 h 3.83 z m -0.17,3.11 v 20.57 h -3.49 V 14.77 Z"
         id="path4" />
      <path
         class="cls-1"
         d="m 181.32,35.34 h -3.49 V 5.52 h 3.49 z"
         id="path5" />
      <path
         class="cls-2"
         d="m 203.05,29.5 2.09,1.92 A 11.19,11.19 0 0 1 195.81,36 c -6.14,0 -10.56,-4.48 -10.56,-10.86 0,-6.22 4.59,-10.86 10.47,-10.86 5.88,0 10.14,4.17 10.14,10.6 a 9.78,9.78 0 0 1 -0.13,1.45 h -16.91 a 7.22,7.22 0 0 0 7.29,6.67 8.64,8.64 0 0 0 6.94,-3.5 z m -14.23,-5.88 h 13.55 c -0.51,-4 -3.11,-6.43 -6.6,-6.43 -3.49,0 -6.35,2.35 -6.95,6.43 z"
         id="path6" />
      <path
         class="cls-2"
         d="m 210.41,14.77 6.64,16.35 6.65,-16.35 h 3.62 L 215.35,43 h -3.58 l 3.54,-7.83 -8.69,-20.4 z"
         id="path7" />
      <path
         class="cls-2"
         d="m 245.82,29.5 2.09,1.92 A 11.19,11.19 0 0 1 238.58,36 C 232.45,36 228,31.5 228,25.12 a 10.48,10.48 0 0 1 10.5,-10.86 c 5.87,0 10.13,4.17 10.13,10.6 a 10.09,10.09 0 0 1 -0.12,1.45 H 231.6 a 7.21,7.21 0 0 0 7.28,6.69 8.62,8.62 0 0 0 6.94,-3.5 z M 231.6,23.62 h 13.54 c -0.51,-4 -3.11,-6.43 -6.6,-6.43 -3.49,0 -6.35,2.35 -6.94,6.43 z"
         id="path8" />
      <path
         class="cls-2"
         d="m 252,14.26 a 2.26,2.26 0 0 1 2.38,2.26 2.29,2.29 0 0 1 -2.38,2.27 2.27,2.27 0 1 1 0,-4.53 z m 2,2.27 a 1.9,1.9 0 0 0 -2,-1.89 1.88,1.88 0 0 0 -2,1.88 2,2 0 0 0 3.94,0 z m -2.82,1.1 v -2.21 h 1.07 c 0.51,0 0.8,0.26 0.8,0.68 a 0.65,0.65 0 0 1 -0.54,0.63 l 0.54,0.9 h -0.54 l -0.49,-0.84 h -0.37 v 0.84 z m 0.47,-1.77 v 0.5 h 0.58 c 0.23,0 0.35,-0.11 0.35,-0.26 0,-0.15 -0.11,-0.24 -0.33,-0.24 z"
         id="path9" />
    </g>
    <path
       class="cls-1"
       d="M69.37,9.85h2.57v.47h-1V12.7h-.49V10.32h-1Zm6,2.85h-.49V10.35l-.84,1.57h-.43l-.85-1.6V12.7H72.3V9.85h.76l.8,1.51.79-1.51h.75Z"
       id="path24" />
    <polygon
       class="cls-1"
       points="5.62 38.13 5.62 52.01 19.79 52.01 19.79 23.96 5.62 38.13"
       id="polygon24" />
    <path
       class="cls-1"
       d="M54,9.85H33.9L19.79,24h5.95c3.53,0,5.38,2.44,5.38,6.23V52H45.29V24h6c3.53,0,5.38,2.44,5.38,6.23V52H70.79V26.53C70.79,16.33,65.2,9.85,54,9.85Z"
       id="path25" />
    <rect
       class="cls-2"
       x="5.62"
       y="9.85"
       width="14.17"
       height="14.11"
       id="rect25" />
  </g>
</svg>
