<?xml version="1.0" encoding="UTF-8" standalone="no"?>
<!-- Created with Inkscape (http://www.inkscape.org/) -->

<svg
   xmlns:dc="http://purl.org/dc/elements/1.1/"
   xmlns:cc="http://creativecommons.org/ns#"
   xmlns:rdf="http://www.w3.org/1999/02/22-rdf-syntax-ns#"
   xmlns:svg="http://www.w3.org/2000/svg"
   xmlns="http://www.w3.org/2000/svg"
   xmlns:sodipodi="http://sodipodi.sourceforge.net/DTD/sodipodi-0.dtd"
   xmlns:inkscape="http://www.inkscape.org/namespaces/inkscape"
   version="1.1"
   id="svg2"
   width="481"
   height="481"
   viewBox="0 0 481 480.99999"
   sodipodi:docname="software-sources-intel-logo.svg"
   inkscape:version="0.92.5 (2060ec1f9f, 2020-04-08)">
  <metadata
     id="metadata54">
    <rdf:RDF>
      <cc:Work
         rdf:about="">
        <dc:format>image/svg+xml</dc:format>
        <dc:type
           rdf:resource="http://purl.org/dc/dcmitype/StillImage" />
      </cc:Work>
    </rdf:RDF>
  </metadata>
  <defs
     id="defs6" />
  <sodipodi:namedview
     id="namedview4"
     pagecolor="#ffffff"
     bordercolor="#000000"
     borderopacity="0.25"
     inkscape:showpageshadow="2"
     inkscape:pageopacity="0.0"
     inkscape:pagecheckerboard="0"
     inkscape:deskcolor="#d1d1d1"
     showgrid="false"
     inkscape:zoom="0.90509668"
     inkscape:cx="267.06758"
     inkscape:cy="360.62946"
     inkscape:window-width="1920"
     inkscape:window-height="1017"
     inkscape:window-x="-4"
     inkscape:window-y="-4"
     inkscape:window-maximized="1"
     inkscape:current-layer="g8" />
  <g
     id="g8"
     inkscape:groupmode="layer"
     inkscape:label="ink_ext_XXXXXX"
     transform="matrix(1.3333333,0,0,-1.3333333,-261.88002,451.69282)">
    <g
       id="g107"
       transform="translate(4.8068108e-7,-4.0152409e-6)">
      <g
         transform="translate(269.17992)"
         id="g204">
        <path
           inkscape:connector-curvature="0"
           id="path12"
           style="fill:#a2ce32;fill-opacity:1;fill-rule:nonzero;stroke:none;stroke-width:0.1"
           d="m 197.083,291.393 c -2.202,0.521 -4.206,1.598 -6.368,2.244 -4.609,1.377 -9.262,2.447 -14.075,2.861 -3.339,0.288 -6.67,0.509 -10.014,0.324 -11.307,-0.622 -21.886,-3.711 -31.611,-9.551 -3.928,-2.359 -7.549,-5.136 -10.934,-8.247 -6.939,-6.376 -12.249,-13.883 -16.057,-22.478 -0.11,-0.248 -0.164,-0.535 -0.548,-0.714 -7.6084,17.047 -19.8924,29.408 -37.3115,36.281 -17.3211,6.834 -34.6758,6.265 -52.0114,-0.761 0.2465,1.03 0.9305,1.664 1.4321,2.357 2.6851,3.711 5.666,7.173 8.7836,10.534 4.0753,4.392 8.5238,8.371 13.2976,11.95 5.7027,4.273 11.6813,8.135 18.175,11.173 7.4789,3.499 15.1035,6.567 23.2074,8.25 4.6891,0.973 9.4407,1.597 14.1942,2.235 5.601,0.751 11.197,0.667 16.773,0.443 2.93,-0.118 5.922,-0.548 8.865,-1.042 4.73,-0.795 9.488,-1.457 14.099,-2.815 6.848,-2.016 13.454,-4.644 19.841,-7.852 7.83,-3.933 15.001,-8.806 21.668,-14.481 7.081,-6.027 13.23,-12.873 18.532,-20.496 0.04,-0.058 0.025,-0.154 0.036,-0.232 l 0.026,0.017" />
        <path
           inkscape:connector-curvature="0"
           id="path14"
           style="fill:#a2ce32;fill-opacity:1;fill-rule:nonzero;stroke:none;stroke-width:0.1"
           d="m 18.1262,167.374 c 2.2402,-0.803 4.4605,-1.669 6.725,-2.398 4.6554,-1.498 9.4207,-2.483 14.3101,-2.814 1.8614,-0.126 3.7231,-0.38 5.5832,-0.368 11.2629,0.076 21.97,2.489 31.9731,7.774 0.739,0.391 1.4851,0.768 2.2281,1.151 0.1301,-0.333 0.4504,-0.431 0.7219,-0.594 4.2918,-2.571 8.2613,-5.574 11.8781,-9.028 6.6648,-6.366 11.7943,-13.806 15.4723,-22.254 0.128,-0.295 0.105,-0.823 0.561,-0.802 0.413,0.019 0.451,0.513 0.582,0.824 3.303,7.86 8.045,14.761 13.992,20.833 4.207,4.296 8.98,7.888 14.144,10.962 3.401,-1.827 6.866,-3.523 10.511,-4.808 5.552,-1.957 11.236,-3.328 17.137,-3.7 2.298,-0.145 4.592,-0.448 6.896,-0.367 8.832,0.312 17.396,1.914 25.55,5.43 0.179,0.077 0.377,0.112 0.566,0.166 0.038,-0.028 0.076,-0.057 0.112,-0.087 -1.845,-3.073 -4.216,-5.753 -6.439,-8.539 -2.418,-3.03 -5.244,-5.691 -8.005,-8.402 -5.075,-4.982 -10.723,-9.252 -16.706,-13.06 -7.684,-4.891 -15.84,-8.899 -24.522,-11.633 -6.188,-1.948 -12.519,-3.472 -19.001,-4.268 -3.869,-0.475 -7.737,-0.765 -11.631,-0.937 -9.023,-0.397 -17.8931,0.608 -26.6978,2.486 -3.5352,0.755 -7.043,1.653 -10.4692,2.746 -6.2308,1.988 -12.1429,4.772 -17.9332,7.83 -4.6589,2.461 -8.9996,5.376 -13.2414,8.477 -3.4046,2.489 -6.6293,5.185 -9.6816,8.086 -5.502,5.227 -10.482,10.907 -14.7234,17.215 0.0347,0.028 0.0707,0.055 0.1078,0.079" />
        <path
           inkscape:connector-curvature="0"
           id="path16"
           style="fill:#1e4468;fill-opacity:1;fill-rule:nonzero;stroke:none;stroke-width:0.1"
           d="m 45.2098,205.655 c -12.8844,-0.224 -24.2172,10.827 -23.7321,24.53 0.4332,12.227 10.4399,23.263 24.4184,22.967 12.7434,-0.27 23.5215,-10.916 23.1246,-24.623 C 68.6664,216.299 58.4234,205.5 45.2098,205.655" />
        <path
           inkscape:connector-curvature="0"
           id="path18"
           style="fill:#1e4468;fill-opacity:1;fill-rule:nonzero;stroke:none;stroke-width:0.1"
           d="m 169.826,205.655 c -13.003,-0.193 -23.882,10.789 -23.747,23.96 0.13,12.623 10.417,23.836 24.43,23.549 12.347,-0.252 23.724,-10.73 23.111,-24.969 -0.517,-11.98 -10.625,-22.697 -23.794,-22.54" />
        <path
           inkscape:connector-curvature="0"
           id="path20"
           style="fill:#1e4468;fill-opacity:1;fill-rule:nonzero;stroke:none;stroke-width:0.1"
           d="m 136.297,170.66 c -5.164,-3.074 -9.937,-6.666 -14.144,-10.962 -5.947,-6.072 -10.689,-12.973 -13.992,-20.833 -0.131,-0.311 -0.169,-0.805 -0.582,-0.824 -0.456,-0.021 -0.433,0.507 -0.561,0.802 -3.678,8.448 -8.8075,15.888 -15.4723,22.254 -3.6168,3.454 -7.5863,6.457 -11.8781,9.028 -0.2715,0.163 -0.5918,0.261 -0.7219,0.594 12.9598,7.626 22.4903,18.299 28.6063,32.396 6.109,-14.082 15.73,-24.791 28.745,-32.455" />
        <path
           inkscape:connector-curvature="0"
           id="path22"
           style="fill:#1e4468;fill-opacity:1;fill-rule:nonzero;stroke:none;stroke-width:0.1"
           d="m 115.566,76.277 c -2.163,-7.5739 -4.357,-15.1059 -6.431,-22.67 -0.355,-1.2929 -0.868,-1.675 -2.167,-1.6281 -2.874,0.1031 -2.879,0.0313 -3.535,2.907 -1.795,7.875 -3.5982,15.7469 -5.3736,23.6262 -0.4508,2.0008 -0.7789,4.0289 -1.2297,6.0301 -0.1281,0.5668 -0.0227,0.7058 0.523,0.6969 1.2797,-0.02 2.5606,-0.025 3.8393,0.0027 0.555,0.0113 0.748,-0.2199 0.854,-0.7469 1.455,-7.1687 2.932,-14.334 4.405,-21.5 0.143,-0.6961 0.294,-1.391 0.472,-2.2328 0.777,1.652 0.886,3.3527 1.344,4.9539 1.76,6.166 3.495,12.3399 5.173,18.5289 0.213,0.784 0.491,1.0551 1.268,1 0.994,-0.0699 2.166,0.2641 2.941,-0.1609 0.744,-0.409 0.63,-1.709 0.891,-2.6129 2.063,-7.1551 4.085,-14.3211 6.218,-21.8332 0.546,1.6941 0.71,3.143 0.979,4.5641 1.209,6.4031 2.24,12.8402 3.595,19.2171 0.147,0.6899 0.386,0.8379 0.997,0.8227 1.159,-0.0297 2.321,-0.043 3.479,0.0031 0.742,0.0301 0.854,-0.2168 0.695,-0.9051 -1.236,-5.3546 -2.441,-10.7168 -3.647,-16.0789 -1.154,-5.13 -2.319,-10.2578 -3.422,-15.4 -0.14,-0.6488 -0.327,-0.9089 -0.978,-0.8589 -0.517,0.0402 -1.039,0.0089 -1.559,0.0089 -2.289,0 -2.285,0.0012 -2.906,2.1641 -1.552,5.4039 -3.158,10.793 -4.634,16.218 -0.487,1.7879 -0.927,3.5941 -1.399,5.3898 -0.054,0.2043 -0.1,0.3813 -0.392,0.4942" />
        <path
           inkscape:connector-curvature="0"
           id="path24"
           style="fill:#1e4468;fill-opacity:1;fill-rule:nonzero;stroke:none;stroke-width:0.1"
           d="m 170.46,21.1672 c 2.519,0 5.037,-0.0102 7.556,0.0129 0.311,0.0019 0.807,-0.284 0.821,0.4758 0.079,4.3089 -2.128,7.391 -6.093,8.0421 -1.901,0.3122 -3.898,0.3079 -5.737,-0.5539 -2.989,-1.4023 -4.155,-4.0281 -4.825,-7.055 -0.189,-0.8563 -0.008,-0.9391 0.721,-0.9321 2.519,0.025 5.038,0.0102 7.557,0.0102 z m 2.702,-4.5844 c -3.317,0 -6.636,-0.0297 -9.953,0.0203 -0.893,0.0129 -1.278,-0.1551 -1.188,-1.15 0.609,-6.71599 4.629,-10.82693 11.832,-10.15193 3.271,0.30664 6.175,1.64297 8.806,3.58399 0.218,0.16093 0.373,0.45781 0.707,0.33086 0.402,-0.15196 0.303,-0.5211 0.304,-0.82383 0.008,-1.55938 -0.02,-3.11914 0.016,-4.67735 0.014,-0.61093 -0.225,-0.95898 -0.762,-1.19687 -2.732,-1.21211 -5.55,-2.008986 -8.551,-2.305079 -2.892,-0.2859379 -5.717,-0.016016 -8.414,0.869139 -4,1.31289 -6.757,4.16211 -8.187,8.08086 -2.263,6.20121 -2.143,12.43711 0.962,18.31011 2.328,4.4032 6.143,6.9418 11.26,7.3329 4.039,0.3082 7.603,-0.6539 10.527,-3.5629 2.25,-2.2399 3.083,-5.1121 3.556,-8.1289 0.291,-1.8571 0.156,-3.7352 0.211,-5.6039 0.022,-0.7313 -0.182,-0.9543 -0.933,-0.9454 -3.397,0.0411 -6.795,0.018 -10.193,0.018" />
        <path
           inkscape:connector-curvature="0"
           id="path26"
           style="fill:#1e4468;fill-opacity:1;fill-rule:nonzero;stroke:none;stroke-width:0.1"
           d="m 157.24,64.4961 c 0,1.2769 -0.032,2.5551 0.014,3.8301 0.023,0.6519 -0.217,0.8429 -0.826,0.7699 -1.761,-0.2109 -3.528,-0.3672 -5.284,-0.609 -1.557,-0.2152 -3.177,-0.3711 -4.564,-1.1152 -2.601,-1.3957 -3.562,-3.8559 -2.907,-6.8848 0.515,-2.382 1.51,-3.2402 3.862,-3.693 3.536,-0.682 6.321,0.8321 8.981,2.834 0.595,0.4481 0.787,1.0129 0.741,1.7571 -0.065,1.0339 -0.016,2.0738 -0.017,3.1109 z m 0.001,-9.1801 c -2.142,-1.9691 -4.297,-3.4789 -6.985,-4.0301 -7.048,-1.4449 -11.527,3.243 -12.052,9.3411 -0.144,1.6652 -0.047,3.346 0.436,4.9679 1.09,3.6692 3.827,5.65 7.238,6.8211 3.055,1.0488 6.282,1.2 9.469,1.452 1.844,0.1449 1.853,0.0308 1.699,1.8601 -0.21,2.4957 -1.502,3.9989 -3.669,4.5289 -2.992,0.7309 -5.883,0.3051 -8.747,-0.5761 -0.947,-0.2918 -1.857,-0.7047 -2.778,-1.0778 -0.782,-0.316 -1.2,-0.2152 -1.152,0.775 0.059,1.1981 0.105,2.409 -0.012,3.5969 -0.11,1.1102 0.273,1.5738 1.345,1.8398 4.237,1.0532 8.493,1.684 12.809,0.618 4.864,-1.2008 7.281,-4.8187 7.367,-9.5859 0.138,-7.5571 0.019,-15.1188 0.06,-22.6778 0.005,-0.9511 -0.251,-1.2519 -1.188,-1.1761 -0.994,0.0789 -2.001,0.057 -2.998,0.0039 -0.704,-0.0379 -0.9,0.234 -0.854,0.8941 0.05,0.716 0.012,1.4379 0.012,2.425" />
        <path
           inkscape:connector-curvature="0"
           id="path28"
           style="fill:#1e4468;fill-opacity:1;fill-rule:nonzero;stroke:none;stroke-width:0.1"
           d="m 52.6488,17.5059 c 0,0.5601 0.0078,1.1191 -0.0011,1.6781 -0.0407,2.5039 -0.6133,4.9191 -1.8223,7.075 -1.466,2.614 -3.8965,3.3898 -6.8656,3.384 -3.227,-0.0059 -5.2301,-1.5399 -6.6274,-4.1809 -0.8828,-1.668 -1.175,-3.5019 -1.3613,-5.373 -0.3742,-3.7653 -0.2445,-7.4321 1.5168,-10.89613 1.4957,-2.94102 3.9066,-4.25391 7.1543,-4.14805 3.0187,0.09922 5.1461,1.53594 6.4933,4.23321 1.3028,2.60587 1.5719,5.38207 1.5133,8.22777 z m 5.7129,-0.1391 C 58.4855,12.9461 57.6113,8.90781 55.0965,5.30781 52.7285,1.91797 49.4766,0.212891 45.3648,0.0320313 42.9547,-0.0738281 40.5355,0.0488281 38.3777,1.11016 33.8672,3.32695 31.5164,7.18594 30.6891,12.0531 c -0.7493,4.4071 -0.6703,8.827 0.5851,13.0949 1.4641,4.9782 4.8555,8.2661 9.9731,9.4032 7.6312,1.6957 14.3121,-2.6961 16.3937,-10.5672 0.5844,-2.209 0.7895,-4.4488 0.7207,-6.6172" />
        <path
           inkscape:connector-curvature="0"
           id="path30"
           style="fill:#1e4468;fill-opacity:1;fill-rule:nonzero;stroke:none;stroke-width:0.1"
           d="m 202.324,72.4211 c 1.72,0 3.44,0 5.159,0 2.805,0 2.819,0.0027 2.295,2.8078 -1.008,5.4039 -5.618,6.857 -9.983,5.2262 -3.228,-1.2071 -4.628,-4.0481 -5.277,-7.2813 -0.142,-0.707 0.292,-0.7636 0.846,-0.7597 2.32,0.0168 4.64,0.007 6.96,0.007 z m 12.012,-12.2102 c 0,-1.9097 0.005,-3.7488 -0.004,-5.5871 -0.002,-0.334 0.104,-0.6898 -0.372,-0.891 -2.298,-0.9719 -4.574,-2.0648 -7.066,-2.3867 -5.034,-0.6492 -9.667,0.2051 -13.331,4.084 -2.412,2.5551 -3.539,5.709 -3.966,9.1129 -0.468,3.7269 -0.418,7.4781 0.739,11.0738 1.661,5.157 4.612,9.1742 10.355,10.2363 3.774,0.6981 7.317,0.0559 10.181,-2.6179 2.279,-2.1293 3.188,-5.0313 3.873,-8.0172 0.497,-2.166 0.171,-4.3371 0.322,-6.4989 0.058,-0.8339 -0.276,-0.9781 -1.025,-0.9742 -6.077,0.027 -12.154,-0.0097 -18.23,0.0403 -1.03,0.0078 -1.399,-0.2082 -1.319,-1.3012 0.448,-6.102 3.851,-10.25 10.278,-10.032 3.121,0.1058 5.898,1.4128 8.439,3.1941 0.317,0.2219 0.551,0.5738 1.126,0.5648" />
        <path
           inkscape:connector-curvature="0"
           id="path32"
           style="fill:#1e4468;fill-opacity:1;fill-rule:nonzero;stroke:none;stroke-width:0.1"
           d="M 85.3137,4.32305 C 82.8641,1.97188 80.298,0.360938 77.2688,0.0917969 71.0191,-0.462891 67.059,1.41914 65.548,8.41484 c -0.3093,1.43204 -0.4375,2.89606 -0.4335,4.37306 0.0191,6.7191 0.0246,13.4371 -0.0114,20.1562 -0.0047,0.8809 0.1961,1.2118 1.1223,1.1379 1.0726,-0.0851 2.1613,-0.073 3.2363,-0.0031 0.841,0.0551 1.0801,-0.2148 1.075,-1.0609 -0.0351,-6.0391 -0.0398,-12.0782 -0.0035,-18.116 0.009,-1.5071 0.0574,-3.0418 0.3402,-4.5149 0.8477,-4.41601 3.3934,-5.25312 7.3215,-4.69218 2.5617,0.36602 4.5961,1.8711 6.6321,3.33594 0.5523,0.39727 0.4878,0.95117 0.4878,1.50894 -0.0019,7.3981 0.0262,14.7973 -0.0304,22.1954 -0.0086,1.1386 0.334,1.4589 1.4011,1.3398 1.2965,-0.1449 2.9938,0.5469 3.8004,-0.268 0.7465,-0.7531 0.2055,-2.4332 0.2075,-3.7031 C 90.7082,20.7859 90.6766,11.468 90.732,2.15 90.7395,0.953906 90.3988,0.617969 89.2684,0.748828 88.4398,0.844922 87.5766,0.866016 86.7547,0.744922 c -1.3,-0.191797 -1.5988,0.376168 -1.4539,1.521098 0.073,0.57695 0.0129,1.17109 0.0129,2.05703" />
        <path
           inkscape:connector-curvature="0"
           id="path34"
           style="fill:#1e4468;fill-opacity:1;fill-rule:nonzero;stroke:none;stroke-width:0.1"
           d="m 31.2215,68.9949 c 0,-4.8129 0.3316,-6.8929 1.5914,-9.0929 1.4184,-2.4758 3.5855,-3.7731 6.4719,-3.6731 2.6547,0.0922 4.6828,1.4141 5.7711,3.757 2.4972,5.3782 2.4101,10.9711 0.3968,16.4172 -1.0629,2.875 -3.398,4.7078 -7.1254,4.4289 -2.966,-0.2218 -4.8168,-1.9761 -5.9906,-4.5718 -1.109,-2.4532 -1.2433,-5.0524 -1.1152,-7.2653 z m 8.1086,-17.9211 c -5.343,-0.0449 -8.6863,2.3434 -10.9942,6.4942 -2.3629,4.2511 -2.5754,8.8242 -2.3035,13.525 0.2192,3.7898 1.2442,7.264 3.5336,10.309 2.0266,2.6949 4.6844,4.2148 8.1094,4.589 6.9863,0.7641 11.9019,-4.141 13.3812,-10.1199 1.4067,-5.6852 1.3239,-11.3441 -0.7214,-16.868 -1.4942,-4.0351 -5.7043,-8.314 -11.0051,-7.9293" />
        <path
           inkscape:connector-curvature="0"
           id="path36"
           style="fill:#1e4468;fill-opacity:1;fill-rule:nonzero;stroke:none;stroke-width:0.1"
           d="m 0.0351563,6.13984 c 0,0.88008 0.0082031,1.76016 -0.0023438,2.63907 C 0.0234375,9.57188 0.407813,9.59609 0.906641,9.19297 3.61328,7.00391 6.63594,5.47695 10.1223,5.15391 c 2.6519,-0.2461 5.375,-0.3211 7.4054,1.9039 1.6207,1.77617 1.3301,5.23909 -1.4507,6.35309 -2.5082,1.0063 -5.2028,1.2821 -7.7813,2.0129 -2.15703,0.6121 -4.24414,1.3242 -5.83593,3.0203 -1.2711,1.3539 -1.90352,2.9539 -2.11602,4.8008 -0.726563,6.3141 3.53945,9.9141 8.37422,11.0789 4.68003,1.1282 9.09923,0.091 13.39963,-1.7758 0.5094,-0.221 0.7121,-0.523 0.6988,-1.089 -0.0355,-1.518 -0.0043,-3.0379 -0.0195,-4.557 -0.0028,-0.2469 0.1558,-0.5891 -0.2196,-0.7192 -0.2921,-0.1008 -0.5113,0.0524 -0.7535,0.2301 -3.3371,2.4531 -7.0679,3.4461 -11.2066,3.1902 -3.89806,-0.241 -6.00509,-3.5011 -4.20978,-6.657 0.29883,-0.525 0.71914,-0.8602 1.19297,-1.1172 1.57813,-0.8539 3.27731,-1.3277 5.05821,-1.5859 3.3559,-0.4852 6.6852,-1.086 9.1801,-3.7121 1.3152,-1.384 1.9023,-3.0688 2.0535,-4.9508 C 24.1984,7.75391 22.9316,4.65781 19.8297,2.31484 18.1109,1.01602 16.1035,0.569922 14.0773,0.289063 9.54219,-0.342188 5.18047,0.362891 1.01328,2.29414 0.285156,2.63086 -0.084375,3.01406 0.0164063,3.86406 c 0.0882817,0.74883 0.0183593,1.5168 0.01875,2.27578" />
        <path
           inkscape:connector-curvature="0"
           id="path38"
           style="fill:#1e4468;fill-opacity:1;fill-rule:nonzero;stroke:none;stroke-width:0.1"
           d="m 191.202,6.04805 c 0,0.8789 -0.006,1.75898 0.004,2.63789 0.003,0.22695 -0.098,0.51289 0.149,0.65898 0.325,0.19102 0.492,-0.125 0.702,-0.28711 3.263,-2.50898 6.863,-4.12383 11.063,-3.99765 1.874,0.05586 3.84,0.25078 5.191,1.6789 1.92,2.02696 1.853,5.78204 -1.835,6.90504 -2.373,0.7227 -4.822,1.1899 -7.23,1.8008 -1.937,0.491 -3.764,1.2289 -5.321,2.534 -3.525,2.9539 -3.364,9.8973 -0.283,12.9481 2.047,2.0281 4.46,3.1648 7.211,3.6332 4.251,0.725 8.254,-0.3012 12.143,-1.95 0.57,-0.2422 0.864,-0.5622 0.835,-1.2512 -0.06,-1.477 -0.011,-2.9578 -0.025,-4.4371 -0.002,-0.2539 0.139,-0.5918 -0.217,-0.7321 -0.286,-0.1109 -0.507,0.0321 -0.753,0.2122 -3.335,2.4531 -7.065,3.5242 -11.202,3.1832 -3.073,-0.2532 -5.425,-2.2422 -4.762,-5.3063 0.391,-1.8059 1.678,-2.5539 3.219,-3.1461 2.385,-0.918 4.949,-0.9808 7.396,-1.6129 3.861,-0.9961 6.439,-3.266 7.536,-7.15 0.802,-2.83982 -1.076,-7.59998 -3.687,-9.71287 -1.884,-1.52422 -4.088,-2.066014 -6.359,-2.380858 -4.118,-0.571094 -8.09,0.041797 -11.973,1.580858 -1.355,0.53789 -2.062,1.13906 -1.815,2.63399 0.083,0.50586 0.013,1.03711 0.013,1.55703" />
        <path
           inkscape:connector-curvature="0"
           id="path40"
           style="fill:#1e4468;fill-opacity:1;fill-rule:nonzero;stroke:none;stroke-width:0.1"
           d="m 0.0351563,57.2238 c 3.906e-4,0.8793 -0.00625,1.759 0.0050781,2.6391 0.0027344,0.216 -0.0929688,0.4992 0.2285156,0.5949 0.260938,0.0781 0.449609,-0.0566 0.639063,-0.2226 C 3.35781,58.0871 6.24414,56.809 9.42656,56.348 c 2.42854,-0.3531 4.83824,-0.1699 6.71484,1.7989 1.6844,1.7672 1.0906,5.223 -1.0797,6.3472 -1.7183,0.8911 -3.6125,1.1719 -5.45584,1.595 -1.90352,0.4359 -3.78281,0.9738 -5.4832,1.882 -2.1625,1.1539 -3.225394,3.193 -3.67891,5.5641 -0.842578,4.4039 0.86094,8.4839 4.62344,10.7726 2.34765,1.4281 4.98831,1.8383 7.68401,1.6313 2.664,-0.2051 5.2133,-0.9262 7.6183,-2.1403 0.6899,-0.3476 1.036,-0.7379 0.9953,-1.5519 -0.066,-1.3168 -0.0031,-2.6391 -0.0285,-3.9578 -0.0058,-0.3211 0.2168,-0.7832 -0.257,-0.9352 -0.377,-0.1219 -0.7309,-0.0141 -1.0969,0.2602 -2.1265,1.5929 -4.4953,2.6718 -7.1277,3.1089 C 10.9254,81.0441 9.06211,80.8539 7.35898,79.802 5.95938,78.9379 5.21133,77.6949 5.34375,76.0238 5.48203,74.2738 6.46367,73.1 8.0457,72.448 c 2.2375,-0.921 4.6453,-1.239 6.966,-1.8691 1.666,-0.4527 3.2371,-1.091 4.5598,-2.2238 2.3508,-2.0133 2.6551,-4.718 2.5801,-7.5821 C 22.0645,57.4398 20.502,54.9852 17.8078,53.1789 15.1129,51.373 12.0871,50.9461 8.92148,51.15 c -2.94492,0.1891 -5.62304,1.2129 -8.24023,2.4988 -0.544531,0.2684 -0.6707031,0.534 -0.6539062,1.0563 0.0277343,0.839 0.0074218,1.6789 0.0078125,2.5187" />
        <path
           inkscape:connector-curvature="0"
           id="path42"
           style="fill:#1e4468;fill-opacity:1;fill-rule:nonzero;stroke:none;stroke-width:0.1"
           d="m 148.831,9.34609 c 0,-1.99218 -0.024,-3.94609 0.015,-5.89921 0.01,-0.55469 -0.28,-0.775 -0.682,-0.9879 -4.931,-2.598043 -10.077,-2.98398 -15.326,-1.25585 -3.425,1.12773 -5.631,3.74296 -6.929,6.9707 -2.444,6.07737 -2.472,12.25817 0.088,18.31327 2.063,4.8797 5.969,7.3777 11.158,8.1109 3.918,0.554 7.42,-0.6269 10.867,-2.2402 0.627,-0.2937 0.853,-0.6738 0.827,-1.3719 -0.058,-1.5168 -0.013,-3.0379 -0.023,-4.557 -0.002,-0.266 0.132,-0.6109 -0.13,-0.784 -0.361,-0.2379 -0.602,0.1571 -0.814,0.327 -1.653,1.3301 -3.439,2.4472 -5.47,3.05 -3.175,0.9422 -6.26,0.9531 -8.997,-1.3199 -1.869,-1.5532 -2.779,-3.6571 -3.232,-5.9329 -0.672,-3.382 -0.703,-6.798 0.355,-10.1211 1.783,-5.60112 6.161,-7.36987 11.536,-5.95112 2.193,0.57929 4.052,1.77929 5.765,3.22695 0.242,0.2043 0.456,0.45 0.992,0.42226" />
        <path
           inkscape:connector-curvature="0"
           id="path44"
           style="fill:#1e4468;fill-opacity:1;fill-rule:nonzero;stroke:none;stroke-width:0.1"
           d="m 62.8,66.0219 c 0,-4.3188 -0.0207,-8.6379 0.018,-12.9559 0.0078,-0.8262 -0.1977,-1.1371 -1.0582,-1.073 -0.9942,0.075 -2.0008,0.0621 -2.9969,0.0031 -0.7274,-0.0441 -0.9617,0.1648 -0.9481,0.9238 0.0477,2.6781 0.0184,5.3582 0.0184,8.0371 0,5.9578 -0.0219,11.9168 0.0223,17.8739 0.007,0.9589 -0.1789,1.332 -1.2215,1.289 -1.9184,-0.0789 -1.9207,-0.016 -1.9207,1.9301 0,0.2398 0,0.4801 0,0.7199 0,2.3403 -0.0012,2.3731 2.3597,2.443 0.6821,0.0199 0.7489,0.2883 0.7743,0.857 0.1082,2.4199 0.3632,4.7981 1.3312,7.0832 1.7848,4.2137 5.9199,5.2641 9.4031,5.0758 1.2153,-0.0648 2.4344,-0.218 3.6379,-0.4859 0.4766,-0.1059 0.6989,-0.1762 0.6887,-0.7032 -0.0273,-1.3988 -0.0219,-2.7988 -0.0035,-4.1976 0.007,-0.5434 -0.1059,-0.6434 -0.6781,-0.4774 -1.1328,0.3282 -2.2996,0.684 -3.4641,0.7313 -4.0594,0.1629 -5.6766,-1.5 -5.9488,-5.4043 -0.1711,-2.4547 -0.1114,-2.459 2.3554,-2.459 1.7594,0 3.5196,-0.0226 5.2782,0.0121 0.6222,0.0129 0.8433,-0.1738 0.8183,-0.8121 -0.0453,-1.1566 -0.0515,-2.3199 0.002,-3.4769 0.032,-0.6981 -0.2184,-0.8848 -0.8863,-0.8739 C 68.1824,80.116 65.982,80.0578 63.784,80.1141 62.9742,80.1352 62.7813,79.8559 62.7863,79.098 62.8148,74.7391 62.8,70.3801 62.8,66.0219" />
        <path
           inkscape:connector-curvature="0"
           id="path46"
           style="fill:#1e4468;fill-opacity:1;fill-rule:nonzero;stroke:none;stroke-width:0.1"
           d="m 78.0074,70.8 c 0,2.7578 -0.0191,5.516 0.0129,8.2738 0.0082,0.7223 -0.1019,1.0571 -0.9609,1.0461 -2.1703,-0.025 -2.1707,0.025 -2.1707,2.1539 0,0.1602 0,0.3203 0,0.4801 0,2.3711 -8e-4,2.4 2.3394,2.4602 0.6516,0.0168 0.7981,0.2269 0.7914,0.8328 -0.0285,2.5582 0.0071,5.116 -0.0254,7.6742 -0.0082,0.6457 0.1274,0.9277 0.8422,0.8879 1.0762,-0.059 2.1602,-0.059 3.2364,0 0.7445,0.0422 0.9496,-0.211 0.9363,-0.943 -0.043,-2.3969 0.0293,-4.7969 -0.0387,-7.1941 -0.0269,-0.95 0.15,-1.3071 1.2074,-1.268 2.475,0.091 4.9571,-0.0219 7.4328,0.0551 0.9458,0.0301 1.1465,-0.282 1.0856,-1.141 -0.0738,-1.034 -0.0695,-2.0801 -4e-4,-3.1149 0.0508,-0.764 -0.2203,-0.9363 -0.9426,-0.9242 -2.5578,0.0422 -5.1176,-0.032 -7.6738,0.041 -0.9395,0.027 -1.1113,-0.2898 -1.1047,-1.1449 0.0383,-4.6762 -0.0012,-9.3531 0.0301,-14.0301 0.0094,-1.4277 0.0273,-2.8781 0.2672,-4.2801 0.6894,-4.0296 2.8336,-4.3 6.1363,-3.9277 0.8691,0.0981 1.6922,0.3957 2.4723,0.7867 0.6558,0.3293 0.8261,0.1063 0.8086,-0.5679 -0.0356,-1.3579 -0.0047,-2.718 -0.0157,-4.077 -0.0023,-0.2937 0.0957,-0.6238 -0.3793,-0.7418 -2.9363,-0.7293 -5.8711,-1.4512 -8.8613,-0.2832 -2.834,1.107 -4.3625,3.2473 -4.918,6.1922 -0.7003,3.7109 -0.4558,7.4578 -0.5066,11.1949 -0.007,0.5199 -8e-4,1.0391 -8e-4,1.559" />
        <path
           inkscape:connector-curvature="0"
           id="path48"
           style="fill:#1e4468;fill-opacity:1;fill-rule:nonzero;stroke:none;stroke-width:0.1"
           d="m 106.297,29.527 c 1.42,0.8121 2.523,1.83 3.788,2.6152 2.886,1.7906 5.954,2.0937 9.212,1.525 0.528,-0.0922 0.53,-0.3344 0.529,-0.7102 -0.004,-1.5191 -0.025,-3.0379 0.008,-4.5558 0.016,-0.7094 -0.147,-0.8371 -0.893,-0.6883 -2.663,0.5332 -5.342,0.8082 -7.944,-0.3469 -1.574,-0.6988 -2.954,-1.6969 -4.306,-2.743 -0.504,-0.3902 -0.391,-0.921 -0.391,-1.4281 -0.004,-6.9918 -0.028,-13.98474 0.023,-20.9781 0.008,-1.15469 -0.308,-1.578909 -1.475,-1.468753 -0.991,0.09375 -1.999,0.066797 -2.995,0.005078 -0.835,-0.051953 -1.116,0.230859 -1.102,1.080855 0.045,2.75586 0.017,5.51407 0.017,8.27112 0,7.5929 0.014,15.1847 -0.02,22.7769 -0.004,0.9051 0.177,1.2828 1.165,1.202 1.152,-0.0942 2.319,-0.0711 3.474,-0.0039 0.778,0.0437 0.954,-0.2582 0.923,-0.9653 -0.049,-1.1457 -0.013,-2.2949 -0.013,-3.5878" />
        <path
           inkscape:connector-curvature="0"
           id="path50"
           style="fill:#1e4468;fill-opacity:1;fill-rule:nonzero;stroke:none;stroke-width:0.1"
           d="m 174.724,80.4828 c 1.192,1.1192 2.264,1.9762 3.384,2.7813 2.669,1.9168 5.625,2.1168 8.734,1.6507 0.508,-0.0757 0.553,-0.332 0.552,-0.7277 -0.007,-1.6 -0.027,-3.2 0.007,-4.7992 0.017,-0.7688 -0.257,-0.8367 -0.94,-0.6609 -2.298,0.5929 -4.621,0.8269 -6.883,-0.1309 -1.644,-0.6961 -3.169,-1.6152 -4.51,-2.8121 -0.272,-0.243 -0.377,-0.5051 -0.375,-0.9238 0.034,-7.2 0.009,-14.4 0.053,-21.6 0.006,-0.9563 -0.162,-1.3883 -1.215,-1.2653 -1.3,0.152 -3.05,-0.548 -3.796,0.2723 -0.647,0.7117 -0.21,2.4308 -0.211,3.7047 -0.007,9.2793 0.017,18.5601 -0.031,27.839 -0.006,1.184 0.353,1.5559 1.492,1.4403 0.87,-0.0891 1.762,-0.0723 2.636,-0.0032 0.876,0.07 1.129,-0.3218 1.11,-1.1128 -0.028,-1.1192 -0.007,-2.2391 -0.007,-3.6524" />
        <path
           inkscape:connector-curvature="0"
           id="path52"
           style="fill:#a2ce32;fill-opacity:1;fill-rule:nonzero;stroke:none;stroke-width:0.1"
           d="m 17.9355,291.22 -0.0335,0.062 0.0746,-0.005 z" />
        <path
           inkscape:connector-curvature="0"
           id="path54"
           style="fill:#a2ce32;fill-opacity:1;fill-rule:nonzero;stroke:none;stroke-width:0.1"
           d="m 197.057,291.376 c 0.042,-0.043 0.084,-0.086 0.126,-0.128 -0.032,-0.003 -0.064,-0.007 -0.096,-0.01 -10e-4,0.052 -0.003,0.103 -0.004,0.155 l -0.026,-0.017" />
        <path
           inkscape:connector-curvature="0"
           id="path56"
           style="fill:#a2ce32;fill-opacity:1;fill-rule:nonzero;stroke:none;stroke-width:0.1"
           d="m 18.0184,167.295 c -0.0508,0.048 -0.102,0.097 -0.1528,0.145 0.1196,0.104 0.202,0.069 0.2586,-0.067 -0.0351,-0.023 -0.0711,-0.05 -0.1058,-0.078" />
        <path
           inkscape:connector-curvature="0"
           id="path58"
           style="fill:#a2ce32;fill-opacity:1;fill-rule:nonzero;stroke:none;stroke-width:0.1"
           d="m 196.957,167.381 c 0.065,0.124 0.149,0.168 0.266,0.059 -0.052,-0.049 -0.103,-0.097 -0.154,-0.146 -0.036,0.03 -0.074,0.059 -0.112,0.087" />
      </g>
      <g
         transform="matrix(0.33144336,0,0,0.33144336,270.45259,-21.661881)"
         id="g178">
        <path
           inkscape:connector-curvature="0"
           id="path60"
           style="fill:#211d1d;fill-opacity:1;fill-rule:nonzero;stroke:none;stroke-width:0.1"
           d="m 107.51212,3.5940056 c -0.093,-0.008 -0.187,-0.012 -0.28,-0.012 h -0.445 v 0.928 h 0.445 c 0.093,0 0.187,-0.003 0.28,-0.008 0.094,-0.005 0.178,-0.024 0.254,-0.055 0.075,-0.031 0.136,-0.078 0.183,-0.14 0.047,-0.062 0.07,-0.148 0.07,-0.257 0,-0.11 -0.023,-0.195 -0.07,-0.258 -0.047,-0.062 -0.108,-0.109 -0.183,-0.14 -0.076,-0.031 -0.16,-0.051 -0.254,-0.058 z m 0.328,-0.48 c 0.226,0.026 0.414,0.112 0.563,0.257 0.15,0.146 0.224,0.364 0.224,0.655 0,0.322 -0.094,0.569 -0.284,0.741 -0.19,0.172 -0.485,0.257 -0.885,0.257 h -1.279 v -3.314 h 0.608 v 1.357 h 0.445 l 0.826,-1.357 h 0.639 z m 1.653,-0.694 c -0.125,-0.291 -0.295,-0.545 -0.511,-0.76 -0.215,-0.216 -0.469,-0.386 -0.76,-0.511 -0.291,-0.125 -0.601,-0.18700005 -0.928,-0.18700005 -0.328,0 -0.637,0.062 -0.928,0.18700005 -0.291,0.125 -0.544,0.295 -0.76,0.511 -0.216,0.215 -0.386,0.469 -0.511,0.76 -0.125,0.291 -0.187,0.6 -0.187,0.928 0,0.327 0.062,0.637 0.187,0.928 0.125,0.291 0.295,0.544 0.511,0.76 0.216,0.216 0.469,0.386 0.76,0.511 0.291,0.124 0.6,0.187 0.928,0.187 0.327,0 0.637,-0.063 0.928,-0.187 0.291,-0.125 0.545,-0.295 0.76,-0.511 0.216,-0.216 0.386,-0.469 0.511,-0.76 0.125,-0.291 0.187,-0.601 0.187,-0.928 0,-0.328 -0.062,-0.637 -0.187,-0.928 z m 0.471,2.054 c -0.153,0.351 -0.361,0.658 -0.623,0.921 -0.263,0.262 -0.569,0.47 -0.921,0.624 -0.351,0.153 -0.726,0.229 -1.126,0.229 -0.4,0 -0.776,-0.076 -1.127,-0.229 -0.351,-0.154 -0.657,-0.362 -0.919,-0.624 -0.263,-0.263 -0.471,-0.57 -0.625,-0.921 -0.153,-0.35 -0.229,-0.726 -0.229,-1.126 0,-0.4 0.076,-0.776 0.229,-1.127 0.154,-0.351 0.362,-0.657 0.625,-0.92 0.262,-0.262 0.568,-0.47000005 0.919,-0.62400005 0.351,-0.153 0.727,-0.23 1.127,-0.23 0.4,0 0.775,0.077 1.126,0.23 0.352,0.154 0.658,0.36200005 0.921,0.62400005 0.262,0.263 0.47,0.569 0.623,0.92 0.154,0.351 0.231,0.727 0.231,1.127 0,0.4 -0.077,0.776 -0.231,1.126 z M 65.826118,18.261006 c -0.003,2.178 2.498,5.978 7.886,5.985 5.389,0 7.894,-3.798 7.894,-5.975 z m 23.299,-2.728 c 0,2.131 -0.381,4.155 -1.131,6.013 -0.75,1.856 -1.812,3.508 -3.154,4.91 -1.341,1.399 -2.971,2.51 -4.846,3.3 -1.875,0.789 -3.969,1.189 -6.221,1.189 -2.132,0 -4.164,-0.41 -6.04,-1.219 -1.877,-0.81 -3.529,-1.922 -4.91,-3.303 -1.383,-1.383 -2.495,-3.035 -3.304,-4.911 -0.809,-1.874 -1.219,-3.906 -1.219,-6.039 0,-2.135 0.391,-4.168 1.16,-6.0430004 0.771,-1.877 1.852,-3.529 3.213,-4.908 1.361,-1.382 3.033,-2.493 4.967,-3.302 1.937,-0.80900005 4.081,-1.2200000482421 6.374,-1.2200000482421 6.628,0 10.762,3.0160000482421 13.23,5.8360000482421 l -5.638,4.2950004 c -1.189,-1.4100004 -4.009,-3.3230004 -7.532,-3.3230004 -2.21,0 -4.029,0.511 -5.408,1.52 -1.381,1.009 -2.331,2.3980004 -2.826,4.1280004 l -0.079,0.276 h 23.364 z m -54.044,11.88 c -2.17,2.344 -5.236,3.532 -9.113,3.532 -1.869,0 -3.598,-0.385 -5.14,-1.145 -1.541,-0.76 -2.85,-1.827 -3.892,-3.172 l -0.427,-0.551 -0.003,0.495 v 3.77 H 8.7791176 V 0.60300555 H 16.566118 V 16.446006 l 0.007,-1.099 c 0,0.182 0.003,0.36 0.008,0.536 0.08,2.778 0.774,4.852 2.066,6.167 1.379,1.403 3.051,2.114 4.973,2.114 2.26,0 3.985,-0.692 5.128,-2.058 1.119,-1.339 1.691,-3.257 1.702,-5.7 h 0.001 v -0.061 c 0,-0.004 0,-0.009 0,-0.014 v 0 -15.72800045 h 7.907 V 17.485006 c 0,4.239 -1.103,7.579 -3.277,9.928 z M 101.04212,0.60300555 V 44.221006 H 93.208118 V 0.60300555 Z m -44.901002,-0.301 V 7.5930056 c -1.154,0.007 -2.107,0.068 -2.834,0.183 -0.809,0.128 -1.428,0.402 -1.839,0.815 -0.414,0.412 -0.688,1.01 -0.816,1.7770004 -0.122,0.733 -0.183,1.7 -0.183,2.872 v 10.402 h 5.672 v 6.7 h -5.672 v 11.586 h -7.834 v -28.748 c 0,-2.425 0.21,-4.4880004 0.626,-6.1320004 0.411,-1.625 1.114,-2.952 2.088,-3.945 0.973,-0.994 2.259,-1.715 3.824,-2.14500005 1.581,-0.436 3.591,-0.656 5.977,-0.656 z m -51.9300004,0.301 V 30.342006 H -3.6228825 V 0.60300555 Z M -3.8398825,35.351006 h 8.2670001 v 8.266 h -8.2670001 v -8.266" />
        <g
           id="g142"
           transform="translate(-299.07374,-147.51299)">
          <path
             d="m 425.274,155.861 c 0.826,-1.199 1.918,-2.217 3.279,-3.063 1.36,-0.846 2.842,-1.267 4.449,-1.267 2.103,0 3.71,0.462 4.824,1.392 1.113,0.929 1.669,2.113 1.669,3.556 0,0.945 -0.299,1.729 -0.896,2.347 -0.597,0.618 -1.36,1.121 -2.287,1.516 -0.929,0.389 -2.134,0.815 -3.619,1.267 -2.019,0.618 -3.637,1.204 -4.852,1.76 -1.217,0.561 -2.258,1.381 -3.122,2.476 -0.865,1.091 -1.299,2.503 -1.299,4.232 0,1.443 0.424,2.803 1.267,4.081 0.844,1.277 2.02,2.31 3.526,3.094 1.503,0.784 3.203,1.173 5.101,1.173 2.017,0 3.863,-0.389 5.532,-1.173 1.669,-0.784 3.019,-1.734 4.049,-2.845 l -3.091,-3.089 c -0.66,0.862 -1.555,1.594 -2.69,2.191 -1.134,0.597 -2.401,0.898 -3.8,0.898 -1.651,0 -2.991,-0.431 -4.021,-1.298 -1.031,-0.867 -1.545,-1.874 -1.545,-3.032 0,-0.904 0.288,-1.646 0.864,-2.222 0.579,-0.582 1.301,-1.044 2.165,-1.392 0.868,-0.353 2.062,-0.753 3.585,-1.204 2.02,-0.618 3.658,-1.22 4.917,-1.797 1.257,-0.576 2.329,-1.433 3.214,-2.565 0.888,-1.131 1.329,-2.606 1.329,-4.418 0,-1.651 -0.431,-3.157 -1.298,-4.517 -0.864,-1.36 -2.123,-2.44 -3.772,-3.245 -1.648,-0.805 -3.564,-1.204 -5.75,-1.204 -2.432,0 -4.574,0.503 -6.427,1.516 -1.856,1.007 -3.321,2.253 -4.39,3.738 l 3.089,3.094"
             style="fill:#221d1d;fill-opacity:1;fill-rule:nonzero;stroke:none;stroke-width:0.1"
             id="path62"
             inkscape:connector-curvature="0" />
          <path
             d="m 462.062,151.531 c 1.936,0 3.73,0.504 5.378,1.516 1.649,1.007 2.968,2.389 3.956,4.143 0.99,1.75 1.485,3.676 1.485,5.779 0,2.103 -0.495,4.029 -1.485,5.779 -0.988,1.755 -2.307,3.136 -3.956,4.143 -1.648,1.012 -3.442,1.516 -5.378,1.516 -1.94,0 -3.731,-0.504 -5.38,-1.516 -1.648,-1.007 -2.967,-2.388 -3.958,-4.143 -0.989,-1.75 -1.483,-3.676 -1.483,-5.779 0,-2.103 0.494,-4.029 1.483,-5.779 0.991,-1.754 2.31,-3.136 3.958,-4.143 1.649,-1.012 3.44,-1.516 5.38,-1.516 z m 0,-4.018 c -2.763,0 -5.299,0.69 -7.607,2.071 -2.308,1.381 -4.14,3.245 -5.501,5.597 -1.36,2.347 -2.04,4.943 -2.04,7.788 0,2.845 0.68,5.441 2.04,7.788 1.361,2.352 3.193,4.216 5.501,5.597 2.308,1.381 4.844,2.071 7.607,2.071 2.759,0 5.295,-0.69 7.603,-2.071 2.308,-1.381 4.143,-3.245 5.504,-5.597 1.36,-2.347 2.04,-4.943 2.04,-7.788 0,-2.845 -0.68,-5.441 -2.04,-7.788 -1.361,-2.352 -3.196,-4.216 -5.504,-5.597 -2.308,-1.381 -4.844,-2.071 -7.603,-2.071"
             style="fill:#221d1d;fill-opacity:1;fill-rule:nonzero;stroke:none;stroke-width:0.1"
             id="path64"
             inkscape:connector-curvature="0" />
          <path
             d="m 479.371,173.789 v 4.019 h 4.639 v 5.565 c 0,2.757 0.712,4.891 2.132,6.397 1.422,1.505 3.39,2.258 5.905,2.258 1.566,0 3.009,-0.311 4.328,-0.929 v -4.019 c -1.319,0.618 -2.658,0.93 -4.019,0.93 -1.277,0 -2.266,-0.395 -2.967,-1.174 -0.701,-0.784 -1.051,-1.941 -1.051,-3.463 v -5.565 h 7.11 v -4.019 h -7.11 v -25.658 h -4.328 v 25.658 h -4.639"
             style="fill:#221d1d;fill-opacity:1;fill-rule:nonzero;stroke:none;stroke-width:0.1"
             id="path66"
             inkscape:connector-curvature="0" />
          <path
             d="m 496.681,173.789 v 4.019 h 3.401 c 0.784,0 1.391,0.249 1.825,0.742 0.433,0.493 0.649,1.277 0.649,2.347 v 6.801 h 4.018 v -9.89 h 6.493 v -4.019 h -6.493 v -17.621 c 0,-1.527 0.351,-2.679 1.052,-3.463 0.701,-0.784 1.69,-1.174 2.967,-1.174 1.36,0 2.7,0.307 4.018,0.93 v -4.019 c -1.318,-0.623 -2.72,-0.929 -4.202,-0.929 -2.557,0 -4.556,0.753 -5.997,2.258 -1.443,1.501 -2.165,3.634 -2.165,6.397 v 17.621 h -5.566"
             style="fill:#221d1d;fill-opacity:1;fill-rule:nonzero;stroke:none;stroke-width:0.1"
             id="path68"
             inkscape:connector-curvature="0" />
          <path
             d="m 514.92,177.808 h 4.637 l 7.668,-22.751 h 0.122 l 7.36,22.751 h 3.71 l 7.357,-22.751 h 0.121 l 7.669,22.751 h 4.637 l -10.203,-29.677 h -4.018 l -7.357,22.444 h -0.125 l -7.357,-22.444 h -4.018 l -10.203,29.677"
             style="fill:#221d1d;fill-opacity:1;fill-rule:nonzero;stroke:none;stroke-width:0.1"
             id="path70"
             inkscape:connector-curvature="0" />
          <path
             d="m 569.947,151.531 c 1.854,0 3.502,0.41 4.945,1.236 1.441,0.825 2.576,1.988 3.401,3.494 0.823,1.506 1.236,3.224 1.236,5.161 v 1.859 l -10.202,-1.859 c -1.854,-0.327 -3.245,-0.935 -4.172,-1.823 -0.926,-0.887 -1.391,-2.03 -1.391,-3.431 0,-0.826 0.236,-1.6 0.711,-2.316 0.472,-0.722 1.184,-1.293 2.131,-1.703 0.95,-0.41 2.061,-0.618 3.341,-0.618 z m 2.163,26.894 c 2.227,0 4.236,-0.503 6.028,-1.516 1.793,-1.007 3.195,-2.378 4.205,-4.112 1.01,-1.729 1.514,-3.665 1.514,-5.809 v -18.857 h -4.328 v 3.893 h -0.062 c -0.948,-1.277 -2.246,-2.346 -3.895,-3.213 -1.648,-0.867 -3.524,-1.298 -5.625,-1.298 -1.98,0 -3.772,0.41 -5.379,1.235 -1.609,0.826 -2.865,1.906 -3.771,3.245 -0.909,1.34 -1.361,2.731 -1.361,4.175 0,2.471 0.742,4.47 2.225,5.996 1.485,1.527 3.627,2.513 6.43,2.97 l 11.438,1.854 v 0.124 c 0,1.402 -0.32,2.648 -0.958,3.738 -0.639,1.096 -1.526,1.958 -2.658,2.596 -1.135,0.639 -2.401,0.961 -3.803,0.961 -1.732,0 -3.318,-0.421 -4.761,-1.267 -1.444,-0.846 -2.638,-1.864 -3.585,-3.063 l -2.783,2.783 c 1.235,1.568 2.824,2.886 4.761,3.956 1.936,1.075 4.06,1.609 6.368,1.609"
             style="fill:#221d1d;fill-opacity:1;fill-rule:nonzero;stroke:none;stroke-width:0.1"
             id="path72"
             inkscape:connector-curvature="0" />
          <path
             d="m 604.879,174.095 c -1.652,0 -3.189,-0.389 -4.611,-1.173 -1.422,-0.784 -2.554,-1.905 -3.395,-3.37 -0.847,-1.464 -1.267,-3.141 -1.267,-5.036 v -16.385 h -4.33 v 29.677 h 4.33 v -3.894 h 0.125 c 0.944,1.277 2.263,2.346 3.956,3.213 1.692,0.867 3.623,1.298 5.814,1.298 h 1.236 v -4.33 c -0.373,0 -0.716,0 -1.028,0 -0.301,0 -0.581,0 -0.83,0"
             style="fill:#221d1d;fill-opacity:1;fill-rule:nonzero;stroke:none;stroke-width:0.1"
             id="path74"
             inkscape:connector-curvature="0" />
          <path
             d="m 631.772,165.134 c -0.207,1.729 -0.762,3.307 -1.671,4.73 -0.909,1.422 -2.072,2.534 -3.494,3.338 -1.423,0.805 -2.996,1.205 -4.73,1.205 -1.688,0 -3.276,-0.421 -4.761,-1.267 -1.48,-0.846 -2.711,-1.978 -3.676,-3.401 -0.971,-1.422 -1.558,-2.959 -1.765,-4.605 z m 2.784,-11.438 c -1.324,-1.734 -3.053,-3.198 -5.198,-4.392 -2.144,-1.194 -4.532,-1.791 -7.17,-1.791 -2.637,0 -5.103,0.69 -7.388,2.071 -2.289,1.381 -4.101,3.245 -5.441,5.597 -1.339,2.347 -2.009,4.943 -2.009,7.788 0,2.804 0.67,5.389 2.009,7.757 1.34,2.372 3.12,4.247 5.348,5.628 2.227,1.381 4.616,2.071 7.17,2.071 2.637,0 5.052,-0.638 7.237,-1.915 2.181,-1.278 3.895,-3.043 5.13,-5.286 1.236,-2.248 1.853,-4.792 1.853,-7.637 0,-0.535 -0.041,-1.013 -0.124,-1.423 -0.083,-0.41 -0.146,-0.659 -0.182,-0.742 h -24.116 c 0.083,-1.729 0.623,-3.359 1.609,-4.881 0.992,-1.526 2.269,-2.746 3.832,-3.65 1.568,-0.908 3.255,-1.36 5.072,-1.36 2.062,0 3.915,0.483 5.566,1.454 1.646,0.966 2.985,2.134 4.018,3.494 l 2.784,-2.783"
             style="fill:#221d1d;fill-opacity:1;fill-rule:nonzero;stroke:none;stroke-width:0.1"
             id="path76"
             inkscape:connector-curvature="0" />
          <path
             d="m 674.123,165.134 c -0.207,1.729 -0.763,3.307 -1.672,4.73 -0.908,1.422 -2.071,2.534 -3.494,3.338 -1.422,0.805 -2.996,1.205 -4.73,1.205 -1.687,0 -3.276,-0.421 -4.761,-1.267 -1.479,-0.846 -2.71,-1.978 -3.676,-3.401 -0.97,-1.422 -1.557,-2.959 -1.765,-4.605 z m 2.783,-11.438 c -1.324,-1.734 -3.053,-3.198 -5.197,-4.392 -2.144,-1.194 -4.533,-1.791 -7.17,-1.791 -2.638,0 -5.104,0.69 -7.388,2.071 -2.29,1.381 -4.102,3.245 -5.442,5.597 -1.339,2.347 -2.009,4.943 -2.009,7.788 0,2.804 0.67,5.389 2.009,7.757 1.34,2.372 3.121,4.247 5.348,5.628 2.228,1.381 4.616,2.071 7.17,2.071 2.638,0 5.052,-0.638 7.238,-1.915 2.181,-1.278 3.894,-3.043 5.13,-5.286 1.235,-2.248 1.853,-4.792 1.853,-7.637 0,-0.535 -0.042,-1.013 -0.125,-1.423 -0.082,-0.41 -0.145,-0.659 -0.181,-0.742 h -24.117 c 0.083,-1.729 0.623,-3.359 1.61,-4.881 0.992,-1.526 2.269,-2.746 3.831,-3.65 1.569,-0.908 3.256,-1.36 5.073,-1.36 2.061,0 3.915,0.483 5.566,1.454 1.646,0.966 2.985,2.134 4.018,3.494 l 2.783,-2.783"
             style="fill:#221d1d;fill-opacity:1;fill-rule:nonzero;stroke:none;stroke-width:0.1"
             id="path78"
             inkscape:connector-curvature="0" />
          <path
             d="m 688.344,191.41 v -43.279 h -4.33 v 43.279 h 4.33"
             style="fill:#221d1d;fill-opacity:1;fill-rule:nonzero;stroke:none;stroke-width:0.1"
             id="path80"
             inkscape:connector-curvature="0" />
          <path
             d="m 700.4,177.808 v -29.677 h -4.325 v 29.677 z m -4.943,9.89 c 0,0.784 0.265,1.444 0.8,1.978 0.534,0.535 1.199,0.805 1.977,0.805 0.785,0 1.444,-0.27 1.984,-0.805 0.535,-0.534 0.8,-1.194 0.8,-1.978 0,-0.784 -0.265,-1.443 -0.8,-1.978 -0.54,-0.535 -1.199,-0.805 -1.984,-0.805 -0.778,0 -1.443,0.27 -1.977,0.805 -0.535,0.535 -0.8,1.194 -0.8,1.978"
             style="fill:#221d1d;fill-opacity:1;fill-rule:nonzero;stroke:none;stroke-width:0.1"
             id="path82"
             inkscape:connector-curvature="0" />
          <path
             d="m 704.724,173.789 v 4.019 h 3.401 c 0.784,0 1.392,0.249 1.822,0.742 0.437,0.493 0.655,1.277 0.655,2.347 v 6.801 h 4.019 v -9.89 h 6.489 v -4.019 h -6.489 v -17.621 c 0,-1.527 0.347,-2.679 1.048,-3.463 0.701,-0.784 1.687,-1.174 2.97,-1.174 1.36,0 2.695,0.307 4.019,0.93 v -4.019 c -1.324,-0.623 -2.721,-0.929 -4.206,-0.929 -2.554,0 -4.553,0.753 -5.997,2.258 -1.443,1.501 -2.165,3.634 -2.165,6.397 v 17.621 h -5.566"
             style="fill:#221d1d;fill-opacity:1;fill-rule:nonzero;stroke:none;stroke-width:0.1"
             id="path84"
             inkscape:connector-curvature="0" />
          <path
             d="m 749.246,165.134 c -0.208,1.729 -0.764,3.307 -1.672,4.73 -0.909,1.422 -2.072,2.534 -3.494,3.338 -1.423,0.805 -2.996,1.205 -4.731,1.205 -1.687,0 -3.276,-0.421 -4.761,-1.267 -1.479,-0.846 -2.71,-1.978 -3.675,-3.401 -0.971,-1.422 -1.558,-2.959 -1.766,-4.605 z m 2.782,-11.438 c -1.324,-1.734 -3.052,-3.198 -5.197,-4.392 -2.144,-1.194 -4.533,-1.791 -7.17,-1.791 -2.638,0 -5.103,0.69 -7.388,2.071 -2.29,1.381 -4.102,3.245 -5.441,5.597 -1.34,2.347 -2.01,4.943 -2.01,7.788 0,2.804 0.67,5.389 2.01,7.757 1.339,2.372 3.12,4.247 5.348,5.628 2.227,1.381 4.615,2.071 7.169,2.071 2.638,0 5.052,-0.638 7.238,-1.915 2.181,-1.278 3.894,-3.043 5.13,-5.286 1.235,-2.248 1.853,-4.792 1.853,-7.637 0,-0.535 -0.041,-1.013 -0.124,-1.423 -0.083,-0.41 -0.146,-0.659 -0.182,-0.742 h -24.117 c 0.083,-1.729 0.624,-3.359 1.61,-4.881 0.991,-1.526 2.269,-2.746 3.831,-3.65 1.568,-0.908 3.256,-1.36 5.073,-1.36 2.061,0 3.915,0.483 5.566,1.454 1.646,0.966 2.985,2.134 4.019,3.494 l 2.782,-2.783"
             style="fill:#221d1d;fill-opacity:1;fill-rule:nonzero;stroke:none;stroke-width:0.1"
             id="path86"
             inkscape:connector-curvature="0" />
        </g>
        <g
           id="g152"
           transform="translate(42.447426,-86.778094)">
          <path
             d="m 438.568,113.36 c -1.648,0 -3.185,-0.389 -4.605,-1.173 -1.423,-0.784 -2.557,-1.905 -3.401,-3.37 -0.846,-1.464 -1.269,-3.141 -1.269,-5.036 V 87.3949 h -4.328 v 29.6771 h 4.328 v -3.893 h 0.124 c 0.948,1.277 2.266,2.346 3.956,3.213 1.69,0.868 3.627,1.298 5.813,1.298 h 1.236 v -4.33 c -0.369,0 -0.709,0 -1.021,0 -0.309,0 -0.586,0 -0.833,0"
             style="fill:#221d1d;fill-opacity:1;fill-rule:nonzero;stroke:none;stroke-width:0.1"
             id="path88"
             inkscape:connector-curvature="0" />
          <path
             d="m 465.462,104.399 c -0.205,1.729 -0.763,3.307 -1.669,4.73 -0.906,1.422 -2.072,2.533 -3.492,3.338 -1.422,0.805 -3,1.204 -4.729,1.204 -1.693,0 -3.279,-0.42 -4.761,-1.266 -1.485,-0.846 -2.711,-1.978 -3.679,-3.401 -0.971,-1.423 -1.558,-2.959 -1.763,-4.605 z m 2.783,-11.4381 c -1.319,-1.7339 -3.05,-3.198 -5.194,-4.3918 -2.142,-1.1941 -4.533,-1.791 -7.17,-1.791 -2.641,0 -5.102,0.6899 -7.389,2.0707 -2.289,1.3813 -4.101,3.2453 -5.441,5.5973 -1.339,2.3461 -2.009,4.943 -2.009,7.7879 0,2.803 0.67,5.389 2.009,7.757 1.34,2.373 3.123,4.247 5.348,5.628 2.225,1.381 4.615,2.071 7.173,2.071 2.637,0 5.046,-0.638 7.232,-1.915 2.185,-1.278 3.896,-3.043 5.132,-5.286 1.236,-2.248 1.854,-4.792 1.854,-7.637 0,-0.535 -0.042,-1.013 -0.122,-1.423 -0.083,-0.41 -0.146,-0.659 -0.187,-0.742 h -24.112 c 0.083,-1.7292 0.618,-3.36 1.607,-4.8811 0.989,-1.5258 2.267,-2.7457 3.835,-3.65 1.565,-0.9079 3.255,-1.3598 5.07,-1.3598 2.058,0 3.914,0.4828 5.563,1.4539 1.648,0.9648 2.988,2.134 4.018,3.4941 l 2.783,-2.7832"
             style="fill:#221d1d;fill-opacity:1;fill-rule:nonzero;stroke:none;stroke-width:0.1"
             id="path90"
             inkscape:connector-curvature="0" />
          <path
             d="m 475.353,95.1262 c 0.825,-1.1992 1.918,-2.2172 3.279,-3.0633 1.36,-0.8469 2.842,-1.2668 4.449,-1.2668 2.103,0 3.709,0.4617 4.823,1.391 1.114,0.9297 1.67,2.1141 1.67,3.557 0,0.945 -0.299,1.7289 -0.896,2.3469 -0.597,0.618 -1.361,1.1211 -2.287,1.5149 -0.93,0.3902 -2.134,0.8161 -3.619,1.2671 -2.02,0.618 -3.637,1.205 -4.852,1.761 -1.217,0.56 -2.258,1.38 -3.123,2.476 -0.864,1.091 -1.298,2.503 -1.298,4.232 0,1.443 0.423,2.803 1.267,4.081 0.844,1.277 2.02,2.31 3.525,3.094 1.503,0.784 3.204,1.173 5.102,1.173 2.017,0 3.862,-0.389 5.532,-1.173 1.669,-0.784 3.019,-1.734 4.049,-2.846 l -3.091,-3.089 c -0.66,0.862 -1.556,1.594 -2.69,2.191 -1.135,0.597 -2.401,0.898 -3.8,0.898 -1.652,0 -2.991,-0.43 -4.022,-1.297 -1.03,-0.868 -1.544,-1.874 -1.544,-3.032 0,-0.904 0.288,-1.646 0.864,-2.223 0.579,-0.581 1.301,-1.043 2.165,-1.391 0.867,-0.353 2.061,-0.753 3.585,-1.205 2.02,-0.618 3.658,-1.219 4.917,-1.796 1.257,-0.576 2.328,-1.433 3.214,-2.565 0.888,-1.1319 1.329,-2.6061 1.329,-4.4179 0,-1.6511 -0.431,-3.157 -1.298,-4.5171 -0.864,-1.3602 -2.123,-2.4399 -3.772,-3.245 -1.648,-0.805 -3.564,-1.2039 -5.75,-1.2039 -2.432,0 -4.574,0.5028 -6.428,1.5149 -1.856,1.0082 -3.32,2.2539 -4.389,3.7379 l 3.089,3.0953"
             style="fill:#221d1d;fill-opacity:1;fill-rule:nonzero;stroke:none;stroke-width:0.1"
             id="path92"
             inkscape:connector-curvature="0" />
          <path
             d="m 521.413,104.399 c -0.205,1.729 -0.763,3.307 -1.669,4.73 -0.906,1.422 -2.072,2.533 -3.492,3.338 -1.422,0.805 -3.001,1.204 -4.73,1.204 -1.692,0 -3.278,-0.42 -4.76,-1.266 -1.485,-0.846 -2.711,-1.978 -3.679,-3.401 -0.971,-1.423 -1.558,-2.959 -1.763,-4.605 z m 2.783,-11.4381 c -1.319,-1.7339 -3.051,-3.198 -5.195,-4.3918 -2.141,-1.1941 -4.532,-1.791 -7.17,-1.791 -2.64,0 -5.101,0.6899 -7.388,2.0707 -2.289,1.3813 -4.101,3.2453 -5.441,5.5973 -1.339,2.3461 -2.009,4.943 -2.009,7.7879 0,2.803 0.67,5.389 2.009,7.757 1.34,2.373 3.123,4.247 5.348,5.628 2.224,1.381 4.615,2.071 7.172,2.071 2.638,0 5.047,-0.638 7.233,-1.915 2.186,-1.278 3.896,-3.043 5.132,-5.286 1.236,-2.248 1.853,-4.792 1.853,-7.637 0,-0.535 -0.041,-1.013 -0.121,-1.423 -0.084,-0.41 -0.146,-0.659 -0.187,-0.742 H 501.32 c 0.084,-1.7292 0.618,-3.36 1.607,-4.8811 0.989,-1.5258 2.267,-2.7457 3.835,-3.65 1.565,-0.9079 3.255,-1.3598 5.069,-1.3598 2.059,0 3.915,0.4828 5.564,1.4539 1.648,0.9648 2.988,2.134 4.018,3.4941 l 2.783,-2.7832"
             style="fill:#221d1d;fill-opacity:1;fill-rule:nonzero;stroke:none;stroke-width:0.1"
             id="path94"
             inkscape:connector-curvature="0" />
          <path
             d="M 535.636,130.675 V 87.3949 h -4.33 v 43.2801 h 4.33"
             style="fill:#221d1d;fill-opacity:1;fill-rule:nonzero;stroke:none;stroke-width:0.1"
             id="path96"
             inkscape:connector-curvature="0" />
          <path
             d="M 548.001,130.675 V 87.3949 h -4.33 v 43.2801 h 4.33"
             style="fill:#221d1d;fill-opacity:1;fill-rule:nonzero;stroke:none;stroke-width:0.1"
             id="path98"
             inkscape:connector-curvature="0" />
          <path
             d="m 577.984,104.399 c -0.205,1.729 -0.763,3.307 -1.669,4.73 -0.906,1.422 -2.072,2.533 -3.491,3.338 -1.423,0.805 -3.001,1.204 -4.73,1.204 -1.693,0 -3.279,-0.42 -4.761,-1.266 -1.485,-0.846 -2.711,-1.978 -3.679,-3.401 -0.971,-1.423 -1.558,-2.959 -1.762,-4.605 z m 2.783,-11.4381 c -1.318,-1.7339 -3.05,-3.198 -5.195,-4.3918 -2.141,-1.1941 -4.532,-1.791 -7.169,-1.791 -2.641,0 -5.102,0.6899 -7.388,2.0707 -2.29,1.3813 -4.102,3.2453 -5.442,5.5973 -1.339,2.3461 -2.009,4.943 -2.009,7.7879 0,2.803 0.67,5.389 2.009,7.757 1.34,2.373 3.123,4.247 5.348,5.628 2.225,1.381 4.616,2.071 7.173,2.071 2.637,0 5.046,-0.638 7.232,-1.915 2.186,-1.278 3.897,-3.043 5.132,-5.286 1.236,-2.248 1.854,-4.792 1.854,-7.637 0,-0.535 -0.042,-1.013 -0.122,-1.423 -0.083,-0.41 -0.146,-0.659 -0.187,-0.742 h -24.111 c 0.083,-1.7292 0.618,-3.36 1.606,-4.8811 0.989,-1.5258 2.267,-2.7457 3.835,-3.65 1.565,-0.9079 3.255,-1.3598 5.07,-1.3598 2.058,0 3.914,0.4828 5.563,1.4539 1.648,0.9648 2.988,2.134 4.018,3.4941 l 2.783,-2.7832"
             style="fill:#221d1d;fill-opacity:1;fill-rule:nonzero;stroke:none;stroke-width:0.1"
             id="path100"
             inkscape:connector-curvature="0" />
          <path
             d="m 601.166,113.36 c -1.646,0 -3.182,-0.389 -4.605,-1.173 -1.423,-0.784 -2.555,-1.905 -3.396,-3.37 -0.851,-1.464 -1.271,-3.141 -1.271,-5.036 V 87.3949 h -4.328 v 29.6771 h 4.328 v -3.893 h 0.124 c 0.95,1.277 2.269,2.346 3.956,3.213 1.693,0.868 3.63,1.298 5.815,1.298 h 1.236 v -4.33 c -0.374,0 -0.712,0 -1.023,0 -0.306,0 -0.586,0 -0.836,0"
             style="fill:#221d1d;fill-opacity:1;fill-rule:nonzero;stroke:none;stroke-width:0.1"
             id="path102"
             inkscape:connector-curvature="0" />
        </g>
      </g>
    </g>
  </g>
</svg>
