<?xml version="1.0" standalone="no"?>
<!DOCTYPE svg PUBLIC "-//W3C//DTD SVG 20010904//EN"
 "http://www.w3.org/TR/2001/REC-SVG-20010904/DTD/svg10.dtd">
<svg version="1.0" xmlns="http://www.w3.org/2000/svg"
 width="1801.000000pt" height="559.000000pt" viewBox="0 0 1801.000000 559.000000"
 preserveAspectRatio="xMidYMid meet">
<metadata>
Created by potrace 1.16, written by Peter Selinger 2001-2019
</metadata>
<g transform="translate(0.000000,559.000000) scale(0.100000,-0.100000)"
fill="#000000" stroke="none">
<path d="M2460 3862 c87 -68 245 -203 357 -305 l122 -111 -65 -64 c-83 -80
-154 -190 -189 -289 -36 -102 -46 -290 -21 -396 56 -241 245 -447 489 -535
106 -38 176 -50 372 -61 183 -11 242 -27 330 -86 80 -54 137 -138 161 -239 9
-41 21 -73 24 -71 4 3 10 23 14 45 21 130 99 236 220 295 76 38 107 43 381 64
194 15 313 55 456 152 79 53 190 176 231 256 65 122 83 200 83 348 -1 119 -3
137 -32 218 -42 118 -84 186 -175 281 -74 77 -77 81 -60 99 50 56 400 357 481
414 2 2 2 5 -1 8 -3 3 -57 -8 -119 -24 -527 -140 -1201 -210 -1739 -182 -434
23 -819 80 -1219 181 -66 16 -123 30 -128 30 -4 -1 8 -13 27 -28z m829 -791
c158 -185 325 -415 430 -595 59 -101 161 -301 161 -316 0 -6 -23 1 -51 15 -84
43 -191 66 -359 75 -252 15 -352 53 -487 185 -64 63 -90 98 -118 156 -84 178
-84 344 2 518 27 55 58 97 111 150 l74 74 81 -89 c45 -48 115 -126 156 -173z
m1807 190 c112 -113 165 -229 172 -382 5 -120 -9 -188 -61 -292 -75 -150 -220
-267 -387 -312 -30 -9 -127 -20 -215 -25 -168 -10 -265 -30 -359 -75 -28 -13
-52 -23 -54 -21 -6 6 141 287 200 381 84 134 196 291 301 423 123 152 314 362
331 362 7 0 39 -27 72 -59z"/>
<path d="M3056 3120 c-47 -52 -91 -141 -106 -215 -26 -124 14 -257 107 -356
88 -94 161 -121 371 -139 149 -12 219 -30 262 -66 17 -15 33 -24 36 -21 6 5
-318 486 -328 487 -4 0 -56 -31 -115 -69 -59 -39 -108 -69 -110 -68 -1 2 18
66 43 144 l45 141 -73 101 c-40 56 -78 101 -84 101 -7 0 -28 -18 -48 -40z"/>
<path d="M4891 3063 c-39 -53 -71 -104 -71 -112 0 -9 18 -71 41 -139 23 -68
39 -126 36 -129 -4 -3 -54 25 -112 62 -60 39 -110 64 -114 59 -17 -18 -312
-455 -318 -470 -4 -10 7 -7 32 11 54 36 121 53 263 65 151 12 200 24 275 63
72 37 130 101 171 187 29 60 31 73 31 170 0 98 -2 110 -33 174 -36 77 -96 156
-117 156 -8 0 -45 -44 -84 -97z"/>
<path d="M2564 3688 c34 -76 158 -332 163 -338 3 -3 9 4 15 14 6 10 26 36 44
56 19 21 34 41 34 46 0 11 -262 274 -273 274 -3 0 4 -24 17 -52z"/>
<path d="M5387 3606 l-137 -136 46 -58 c26 -31 48 -59 50 -60 4 -6 185 371
181 381 -1 4 -64 -53 -140 -127z"/>
<path d="M7962 3098 l3 -563 24 -52 c30 -67 92 -124 167 -154 52 -21 76 -24
199 -24 137 0 142 1 207 32 161 76 232 222 232 473 -1 249 -66 375 -233 453
-60 29 -77 32 -185 35 -103 4 -204 -6 -252 -25 -12 -4 -14 27 -14 191 l0 196
-75 0 -76 0 3 -562z m502 48 c104 -32 156 -106 177 -252 21 -155 -15 -329 -83
-390 -54 -50 -108 -68 -203 -68 -137 1 -216 44 -236 131 -5 21 -9 153 -9 294
l0 257 73 20 c86 24 214 28 281 8z"/>
<path d="M15330 3599 c-54 -32 -74 -65 -78 -134 -3 -50 0 -66 20 -94 67 -99
209 -100 275 -1 32 46 32 134 1 180 -47 68 -147 91 -218 49z m164 -39 c19 -17
40 -47 46 -66 42 -126 -120 -227 -218 -136 -62 58 -60 145 4 201 29 26 43 31
84 31 41 0 55 -5 84 -30z"/>
<path d="M15350 3455 c0 -78 3 -95 15 -95 11 0 15 11 15 40 0 29 4 40 15 40 8
0 27 -18 41 -40 15 -22 33 -40 40 -40 20 0 17 17 -6 50 -18 25 -18 30 -5 37 8
5 17 22 21 39 9 45 -15 64 -82 64 l-54 0 0 -95z"/>
<path d="M6377 3289 c-56 -13 -134 -56 -181 -99 -90 -83 -129 -200 -129 -385
1 -178 33 -290 109 -374 53 -59 108 -93 188 -116 80 -23 302 -17 391 12 l60
19 3 73 c3 73 3 73 -20 67 -139 -41 -185 -48 -278 -44 -82 3 -105 8 -155 33
-105 52 -148 147 -148 325 0 178 43 273 148 325 50 25 73 30 155 33 93 4 140
-4 278 -44 21 -6 22 -4 22 64 0 80 1 79 -120 107 -71 16 -261 19 -323 4z"/>
<path d="M9224 3280 c-71 -23 -150 -88 -189 -155 -44 -74 -65 -183 -65 -329 0
-258 62 -381 229 -459 61 -29 76 -32 193 -35 136 -5 227 7 314 39 l54 20 0 79
0 79 -53 -23 c-75 -34 -155 -48 -270 -48 -112 0 -168 15 -224 58 -39 29 -80
105 -89 163 l-7 41 352 0 351 0 0 88 c0 116 -15 192 -55 278 -43 94 -92 147
-174 186 -62 30 -74 33 -186 35 -98 2 -131 -1 -181 -17z m295 -146 c32 -16 64
-43 82 -67 30 -41 69 -151 69 -193 l0 -24 -275 0 -275 0 0 25 c0 40 21 128 40
165 42 83 111 118 231 119 62 1 84 -4 128 -25z"/>
<path d="M10272 3285 c-40 -7 -113 -26 -163 -41 l-89 -27 0 -454 0 -453 75 0
75 0 2 402 3 403 80 17 c44 9 117 20 163 24 l82 7 0 68 0 69 -77 -1 c-43 0
-111 -7 -151 -14z"/>
<path d="M10867 3289 c-129 -30 -222 -133 -264 -290 -23 -88 -23 -310 0 -396
37 -137 96 -210 216 -267 61 -29 75 -31 194 -34 137 -4 227 7 313 39 l54 20 0
80 0 80 -27 -14 c-126 -64 -378 -80 -475 -31 -74 37 -138 134 -138 209 l0 25
350 0 350 0 0 79 c0 121 -23 221 -73 314 -75 142 -178 198 -361 196 -56 -1
-118 -5 -139 -10z m270 -152 c77 -40 127 -124 149 -249 l6 -38 -279 0 -280 0
8 55 c19 142 68 214 167 246 44 14 193 5 229 -14z"/>
<path d="M11763 3278 l-83 -20 0 -74 c0 -41 3 -74 8 -74 4 0 30 7 57 15 28 9
91 20 141 25 153 16 265 -13 318 -83 21 -27 45 -96 46 -132 0 -6 -61 -10 -162
-10 -173 0 -230 -9 -328 -52 -114 -50 -170 -136 -170 -264 0 -65 4 -85 31
-138 35 -70 79 -108 168 -143 78 -31 305 -33 395 -4 87 29 144 72 180 136 l31
55 3 218 c3 176 0 233 -13 293 -29 130 -106 215 -231 254 -90 27 -274 27 -391
-2z m441 -484 l46 -7 0 -103 c0 -56 -5 -115 -11 -131 -29 -77 -107 -113 -244
-113 -167 0 -255 59 -255 170 0 98 81 164 225 183 52 7 190 7 239 1z"/>
<path d="M12752 3282 c-113 -41 -182 -140 -182 -263 0 -130 64 -199 233 -250
207 -62 258 -91 278 -158 48 -162 -211 -227 -441 -111 l-60 30 0 -80 0 -81 53
-24 c79 -37 149 -48 277 -43 135 5 190 24 258 91 105 102 92 293 -25 397 -38
33 -69 48 -177 82 -152 48 -221 79 -237 109 -6 12 -9 40 -6 63 17 126 218 155
430 62 15 -7 17 -1 17 67 l0 76 -57 22 c-83 32 -285 38 -361 11z"/>
<path d="M13655 3286 c-211 -67 -299 -210 -299 -486 0 -250 66 -379 233 -459
l76 -36 145 0 c127 0 152 3 200 22 116 48 199 138 236 258 22 68 30 272 15
362 -40 237 -191 354 -454 352 -62 0 -130 -6 -152 -13z m306 -148 c61 -26 112
-83 136 -152 25 -72 26 -299 0 -371 -35 -101 -100 -154 -217 -175 -154 -28
-291 31 -340 145 -44 103 -49 291 -9 404 34 98 92 148 200 171 64 13 173 3
230 -22z"/>
<path d="M14710 3294 c-63 -12 -175 -46 -211 -64 l-39 -20 0 -450 0 -450 75 0
75 0 0 404 c0 377 1 405 18 410 62 17 149 29 227 29 122 0 184 -26 223 -92
l27 -46 3 -352 3 -353 74 0 75 0 0 340 c0 348 -5 411 -41 482 -27 53 -86 107
-149 137 -50 24 -67 26 -195 28 -77 0 -151 -1 -165 -3z"/>
<path d="M6970 3278 c0 -6 79 -222 176 -480 197 -526 186 -473 119 -593 -49
-89 -96 -127 -155 -127 -3 0 -22 3 -42 6 l-38 7 0 -69 c0 -80 2 -82 104 -82
103 0 193 63 255 179 23 44 405 1051 435 1149 7 22 6 22 -72 22 -77 0 -80 -1
-91 -27 -6 -16 -67 -183 -136 -373 -69 -189 -127 -345 -128 -347 -2 -1 -63
166 -137 372 l-135 375 -77 0 c-53 0 -78 -4 -78 -12z"/>
</g>
</svg>
