<?xml version="1.0" encoding="utf-8"?>
<!-- Generator: Adobe Illustrator 26.2.1, SVG Export Plug-In . SVG Version: 6.00 Build 0)  -->
<svg version="1.1" id="Layer_1" xmlns="http://www.w3.org/2000/svg" xmlns:xlink="http://www.w3.org/1999/xlink" x="0px" y="0px"
	 viewBox="0 0 872.5 218" style="enable-background:new 0 0 872.5 218;" xml:space="preserve">
<style type="text/css">
	
		.st0{clip-path:url(#SVGID_00000008116299356808112690000010412678621249449861_);fill:url(#SVGID_00000172434728775892683990000003191608437870919065_);}
	
		.st1{clip-path:url(#SVGID_00000106133091297418428520000009284276416184798907_);fill:url(#SVGID_00000147210720431892792890000016796593505817162937_);}
	
		.st2{clip-path:url(#SVGID_00000035526212637856018100000011860202850284756892_);fill:url(#SVGID_00000107560597580053681690000012843438706261490324_);}
	
		.st3{clip-path:url(#SVGID_00000006698144243326653000000003643239649802990771_);fill:url(#SVGID_00000113311536647327942610000004825923382822731183_);}
	
		.st4{clip-path:url(#SVGID_00000133517534673940758450000014971640991260428955_);fill:url(#SVGID_00000111162809876473026030000002904778475166312889_);}
	
		.st5{clip-path:url(#SVGID_00000133517019054555061410000007309451762757593486_);fill:url(#SVGID_00000017506281365185185570000007535598456349057200_);}
	
		.st6{clip-path:url(#SVGID_00000018197660281239216020000004774645971911868328_);fill:url(#SVGID_00000160883710637738809720000015996542027944427162_);}
	
		.st7{clip-path:url(#SVGID_00000140715697740344961920000015033101309859892109_);fill:url(#SVGID_00000054968648110206990810000006594867443591648914_);}
	
		.st8{clip-path:url(#SVGID_00000060728570864383207080000015808666013272128938_);fill:url(#SVGID_00000024681890288448340070000013180757733338826683_);}
	
		.st9{clip-path:url(#SVGID_00000121999868642716526700000008301194662425060751_);fill:url(#SVGID_00000168081879871032462790000008216103505139446416_);}
</style>
<g>
	<g>
		<defs>
			<polygon id="SVGID_1_" points="455.1,160.1 401.7,35.1 437.4,35.1 484.9,147.5 			"/>
		</defs>
		<clipPath id="SVGID_00000064347721055942208320000008613972191434319292_">
			<use xlink:href="#SVGID_1_"  style="overflow:visible;"/>
		</clipPath>
		
			<linearGradient id="SVGID_00000143595682190714727340000014270051757425946253_" gradientUnits="userSpaceOnUse" x1="-15.8003" y1="241.6381" x2="-14.8003" y2="241.6381" gradientTransform="matrix(-47.43 -115.3409 -115.3409 47.43 27591.373 -13120.7217)">
			<stop  offset="0" style="stop-color:#D10055"/>
			<stop  offset="5.000000e-02" style="stop-color:#D10055"/>
			<stop  offset="0.88" style="stop-color:#F9379F"/>
			<stop  offset="1" style="stop-color:#F9379F"/>
		</linearGradient>
		
			<polygon style="clip-path:url(#SVGID_00000064347721055942208320000008613972191434319292_);fill:url(#SVGID_00000143595682190714727340000014270051757425946253_);" points="
			528.8,142 472.8,5.9 357.8,53.2 413.8,189.4 		"/>
	</g>
</g>
<g>
	<g>
		<defs>
			<path id="SVGID_00000068677092072042633240000000509699324947672744_" d="M544.6,49.2c-11.1,11.1-17.4,26.2-17.4,41.9V162h32.3
				V91.1c0.1-7.1,2.9-14,8-19.1s12-8,19.1-8c7.1,0.1,14,2.9,19.1,8s8,12,8,19.1v71.5H646V91c0-15.7-6.3-30.8-17.4-41.9
				c-11.1-11.1-26.2-17.4-41.9-17.4C571,31.7,555.9,38,544.6,49.2"/>
		</defs>
		<clipPath id="SVGID_00000062880251196268696450000006126770317871172005_">
			<use xlink:href="#SVGID_00000068677092072042633240000000509699324947672744_"  style="overflow:visible;"/>
		</clipPath>
		
			<radialGradient id="SVGID_00000158027424362869172660000008629004786898978197_" cx="-15.9434" cy="240.9212" r="1" gradientTransform="matrix(0 -121.953 -177.601 0 43374.8047 -1795.8573)" gradientUnits="userSpaceOnUse">
			<stop  offset="0" style="stop-color:#D10055"/>
			<stop  offset="5.000000e-02" style="stop-color:#D10055"/>
			<stop  offset="0.9123" style="stop-color:#F9379F"/>
			<stop  offset="1" style="stop-color:#F9379F"/>
		</radialGradient>
		
			<rect x="527.2" y="31.7" style="clip-path:url(#SVGID_00000062880251196268696450000006126770317871172005_);fill:url(#SVGID_00000158027424362869172660000008629004786898978197_);" width="118.8" height="130.9"/>
	</g>
</g>
<g>
	<g>
		<defs>
			<path id="SVGID_00000125585085766454022470000017963025287684888724_" d="M498.3,35.1l-42.7,121.6l-0.2,0.5
				c-1.8,5-4.6,9.6-8.1,13.6c-7.1,8-15.8,11.9-26.8,11.9V215c20.8,0,38.9-8.3,52.3-24.1c5.8-7,10.5-15,13.5-23.6l46.4-132.2
				C532.7,35.1,498.3,35.1,498.3,35.1z"/>
		</defs>
		<clipPath id="SVGID_00000024721020075466936050000008152865541313054867_">
			<use xlink:href="#SVGID_00000125585085766454022470000017963025287684888724_"  style="overflow:visible;"/>
		</clipPath>
		
			<linearGradient id="SVGID_00000143581292591870265980000006694717600957287078_" gradientUnits="userSpaceOnUse" x1="-15.461" y1="240.9137" x2="-14.461" y2="240.9137" gradientTransform="matrix(0 -162.2159 -162.2159 0 39556.582 -2293.0278)">
			<stop  offset="0" style="stop-color:#D10055"/>
			<stop  offset="5.000000e-02" style="stop-color:#D10055"/>
			<stop  offset="0.88" style="stop-color:#F9379F"/>
			<stop  offset="1" style="stop-color:#F9379F"/>
		</linearGradient>
		
			<rect x="420.5" y="35.1" style="clip-path:url(#SVGID_00000024721020075466936050000008152865541313054867_);fill:url(#SVGID_00000143581292591870265980000006694717600957287078_);" width="112.1" height="179.9"/>
	</g>
</g>
<g>
	<g>
		<defs>
			<path id="SVGID_00000168808813649257565100000010027350261155047824_" d="M703.9,69c5.4-3.2,11.5-5,17.8-5s12.4,1.7,17.8,5
				c5.4,3.2,9.7,7.9,12.7,13.4h-61C694.1,76.9,698.5,72.3,703.9,69 M674.5,51.4c-12.5,12.5-19.6,29.5-19.6,47.2s7.1,34.7,19.6,47.2
				s29.5,19.6,47.2,19.6c10.1,0,20.2-2.3,29.3-6.7c9.2-4.4,17.1-10.9,23.4-19L749,119.8c-3.2,4.1-7.3,7.4-12.1,9.8
				c-4.7,2.3-9.9,3.4-15.2,3.4c-6.3,0-12.4-1.7-17.8-5c-5.4-3.2-9.8-7.9-12.7-13.4c-2.7-5-4.1-10.6-4-16.2c0-0.3,0-0.6,0-0.9
				c0,0.3,0,0.6,0,0.9c0,5.6,1.4,11.2,4,16.2h95.3c1.3-5.3,1.9-10.7,1.9-16.2c0.1-5.5-0.5-10.9-1.8-16.2l0,0
				c-3.7-14.4-12-27.3-23.7-36.4c-11.7-9.2-26.3-14.2-41.2-14.2C704,31.7,687,38.9,674.5,51.4"/>
		</defs>
		<clipPath id="SVGID_00000097469729946394851100000004224110480714780339_">
			<use xlink:href="#SVGID_00000168808813649257565100000010027350261155047824_"  style="overflow:visible;"/>
		</clipPath>
		
			<linearGradient id="SVGID_00000157296679187401900320000014236430520566988978_" gradientUnits="userSpaceOnUse" x1="-15.6559" y1="240.4114" x2="-14.6559" y2="240.4114" gradientTransform="matrix(37.649 -129.7497 -129.7497 -37.649 32477.668 7210.6133)">
			<stop  offset="0" style="stop-color:#D10055"/>
			<stop  offset="5.000000e-02" style="stop-color:#D10055"/>
			<stop  offset="0.88" style="stop-color:#F9379F"/>
			<stop  offset="1" style="stop-color:#F9379F"/>
		</linearGradient>
		
			<polygon style="clip-path:url(#SVGID_00000097469729946394851100000004224110480714780339_);fill:url(#SVGID_00000157296679187401900320000014236430520566988978_);" points="
			778.1,201.2 824.3,42.1 665.2,-4 619.1,155 		"/>
	</g>
</g>
<g>
	<g>
		<defs>
			<path id="SVGID_00000079484224318969199410000006999720063253081756_" d="M691.2,82.4c-2.7,5-4.1,10.6-4.1,16.2
				c0,5.6,1.5,11.2,4.1,16.2h95.3c1.3-5.3,1.9-10.7,1.9-16.2c0.1-5.5-0.5-10.9-1.8-16.2C786.6,82.4,691.2,82.4,691.2,82.4z"/>
		</defs>
		<clipPath id="SVGID_00000183211744010379030790000010122736950782217360_">
			<use xlink:href="#SVGID_00000079484224318969199410000006999720063253081756_"  style="overflow:visible;"/>
		</clipPath>
		
			<linearGradient id="SVGID_00000147219893326000555380000005072552544073659809_" gradientUnits="userSpaceOnUse" x1="-13.1559" y1="242.7192" x2="-12.1558" y2="242.7192" gradientTransform="matrix(-107.713 60.8938 60.8938 107.713 -15420.8574 -25266.0723)">
			<stop  offset="0" style="stop-color:#F9379F"/>
			<stop  offset="0.1024" style="stop-color:#F9379F"/>
			<stop  offset="1" style="stop-color:#D10055"/>
		</linearGradient>
		
			<polygon style="clip-path:url(#SVGID_00000183211744010379030790000010122736950782217360_);fill:url(#SVGID_00000147219893326000555380000005072552544073659809_);" points="
			764,39 673.3,90.2 711.7,158.2 802.4,106.9 		"/>
	</g>
</g>
<g>
	<g>
		<defs>
			<rect id="SVGID_00000075157598224562698650000005324438642414402441_" x="789.2" y="35.1" width="83.3" height="32.3"/>
		</defs>
		<clipPath id="SVGID_00000030478539409073348860000013338988035301490620_">
			<use xlink:href="#SVGID_00000075157598224562698650000005324438642414402441_"  style="overflow:visible;"/>
		</clipPath>
		
			<linearGradient id="SVGID_00000117660652172788058050000005345341981016309913_" gradientUnits="userSpaceOnUse" x1="-14.2431" y1="239.506" x2="-13.2431" y2="239.506" gradientTransform="matrix(153.048 -34.2763 -34.2763 -153.048 11096.3076 36246.6836)">
			<stop  offset="0" style="stop-color:#D10055"/>
			<stop  offset="5.000000e-02" style="stop-color:#D10055"/>
			<stop  offset="0.88" style="stop-color:#F9379F"/>
			<stop  offset="1" style="stop-color:#F9379F"/>
		</linearGradient>
		
			<polygon style="clip-path:url(#SVGID_00000030478539409073348860000013338988035301490620_);fill:url(#SVGID_00000117660652172788058050000005345341981016309913_);" points="
			793.1,85.2 879.4,65.9 868.5,17.3 782.3,36.6 		"/>
	</g>
</g>
<g>
	<g>
		<defs>
			<path id="SVGID_00000061449427351908758750000009009210471061332361_" d="M811.3,11.4v110.8c0,11.5,4.6,22.5,12.7,30.6
				c8.1,8.2,19.1,12.7,30.6,12.7h17.9v-32.3h-17.9c-2.9,0-5.7-1.2-7.8-3.2c-2-2-3.2-4.9-3.2-7.8V1.6L811.3,11.4z"/>
		</defs>
		<clipPath id="SVGID_00000042007124782499127470000007182033111751998617_">
			<use xlink:href="#SVGID_00000061449427351908758750000009009210471061332361_"  style="overflow:visible;"/>
		</clipPath>
		
			<linearGradient id="SVGID_00000169548359832078727840000011890003608626179492_" gradientUnits="userSpaceOnUse" x1="-15.3104" y1="240.7463" x2="-14.3104" y2="240.7463" gradientTransform="matrix(23.914 -176.1648 -176.1648 -23.914 43601.582 3272.1758)">
			<stop  offset="0" style="stop-color:#D10055"/>
			<stop  offset="5.000000e-02" style="stop-color:#D10055"/>
			<stop  offset="0.88" style="stop-color:#F9379F"/>
			<stop  offset="1" style="stop-color:#F9379F"/>
		</linearGradient>
		
			<polygon style="clip-path:url(#SVGID_00000042007124782499127470000007182033111751998617_);fill:url(#SVGID_00000169548359832078727840000011890003608626179492_);" points="
			871.4,173.7 894.3,4.5 812.4,-6.6 789.4,162.5 		"/>
	</g>
</g>
<g>
	<g>
		<defs>
			<path id="SVGID_00000124840983607015253330000001811260666134850471_" d="M280.5,98.3c0,37.2,30.3,67.5,67.5,67.5
				c24.3,0,46.7-13.2,58.6-34.2l-28.4-16.2c-6.1,10.8-17.8,17.6-30.3,17.6c-19.2,0-34.8-15.6-34.8-34.8s15.6-34.8,34.8-34.8
				c12.2,0,23.4,6.3,29.8,16.7l27.9-17c-12.4-20.3-34-32.3-57.7-32.3C310.8,30.7,280.5,61.1,280.5,98.3"/>
		</defs>
		<clipPath id="SVGID_00000103961013699020976060000002756768391196356003_">
			<use xlink:href="#SVGID_00000124840983607015253330000001811260666134850471_"  style="overflow:visible;"/>
		</clipPath>
		
			<linearGradient id="SVGID_00000137817862468004054850000015674311611053982388_" gradientUnits="userSpaceOnUse" x1="-13.8888" y1="239.1205" x2="-12.889" y2="239.1205" gradientTransform="matrix(126.121 0 0 -126.121 2032.168 30256.3613)">
			<stop  offset="0" style="stop-color:#F9379F"/>
			<stop  offset="1" style="stop-color:#D10055"/>
		</linearGradient>
		
			<rect x="280.5" y="30.7" style="clip-path:url(#SVGID_00000103961013699020976060000002756768391196356003_);fill:url(#SVGID_00000137817862468004054850000015674311611053982388_);" width="126.1" height="135.1"/>
	</g>
</g>
<g>
	<g>
		<defs>
			<path id="SVGID_00000127755560830400589750000015834176996368637868_" d="M145.5,1.6c-26.3,0-52.7,10.4-72.7,31.1L0,108.1
				l72.8,75.4c40.1,42,105.6,42,145.7,0c13.7-13.5,22.5-30.5,26.9-48c-2.4,5.5-6.4,11-10.8,15.5c-23.5,24-60.6,24-83.6,0l-41.6-43
				L151,65c23.5-24,60.6-24,83.6,0c4.4,4.5,7.8,10,10.8,15.5c-4.4-17.5-13.7-34-26.9-48c-20-20.7-46.3-31-72.7-31.1h-0.3V1.6z"/>
		</defs>
		<clipPath id="SVGID_00000020385136409044523510000008802284690919416722_">
			<use xlink:href="#SVGID_00000127755560830400589750000015834176996368637868_"  style="overflow:visible;"/>
		</clipPath>
		
			<linearGradient id="SVGID_00000130638545811214130430000015013152531420667542_" gradientUnits="userSpaceOnUse" x1="-13.9596" y1="240.3015" x2="-12.9596" y2="240.3015" gradientTransform="matrix(346.8429 1.599880e-02 1.599880e-02 -346.8429 4837.9448 83460.6328)">
			<stop  offset="0" style="stop-color:#F9379F"/>
			<stop  offset="1" style="stop-color:#D10055"/>
		</linearGradient>
		
			<rect y="1.6" style="clip-path:url(#SVGID_00000020385136409044523510000008802284690919416722_);fill:url(#SVGID_00000130638545811214130430000015013152531420667542_);" width="245.5" height="223.9"/>
	</g>
</g>
<g>
	<g>
		<defs>
			<path id="SVGID_00000049922047881524221700000013132931866591684013_" d="M174.1,108.1c0,20.5,15.6,37,35.7,37
				c19.6-0.5,35.7-17,35.7-37c0-20.5-15.6-37-35.7-37C190.2,71.1,174.1,87.6,174.1,108.1"/>
		</defs>
		<clipPath id="SVGID_00000153698818064568490890000014303313551744108931_">
			<use xlink:href="#SVGID_00000049922047881524221700000013132931866591684013_"  style="overflow:visible;"/>
		</clipPath>
		
			<linearGradient id="SVGID_00000044142598858359042160000005264213285187184550_" gradientUnits="userSpaceOnUse" x1="-13.8683" y1="238.8207" x2="-12.8683" y2="238.8207" gradientTransform="matrix(108.735 0.19 0.19 -108.735 1636.5585 26078.8379)">
			<stop  offset="0" style="stop-color:#F9379F"/>
			<stop  offset="1" style="stop-color:#D10055"/>
		</linearGradient>
		
			<polygon style="clip-path:url(#SVGID_00000153698818064568490890000014303313551744108931_);fill:url(#SVGID_00000044142598858359042160000005264213285187184550_);" points="
			173.9,145.1 245.4,145.2 245.6,71.1 174.1,71 		"/>
	</g>
</g>
</svg>
