<?xml version="1.0" encoding="UTF-8"?> <svg xmlns="http://www.w3.org/2000/svg" id="Layer_1" data-name="Layer 1" viewBox="0 0 358 300"><defs><style>.cls-1{fill:#647883;}.cls-2{fill:#00aeef;}</style></defs><path class="cls-1" d="M299.62,169.11h9.24V152.77c0-5.54,1.85-8.47,7.4-8.47H320v-6.94h-6.32c-9.25,0-14.18,3.24-14.18,12.49v19.26Zm-13.41-13.25v4.78c0,1.54-.62,2.15-2.16,2.15h-8c-1.85,0-2.77-1.38-2.77-3.39s1.08-3.54,2.77-3.54Zm-20-18.5V144h16a3.6,3.6,0,0,1,4,2.93v2.31H271.87c-5.7,0-7.86,3.85-7.86,9.86,0,6.63,2.16,9.87,7.86,9.87H289.6c3.85,0,6-2.16,6-6V147.53c0-6-3.55-10-9.87-10H266.17Zm-2.16,0h-9.4l-9.56,22.2-9.4-22.2h-9.56L240.73,169l-4.93,10.33h9.4Zm-38.23,0h-9.4l-9.71,22.2-9.25-22.2h-9.71L202.35,169l-4.93,10.33h9.4Zm-47.47,18.5v4.78c0,1.54-.62,2.15-2.16,2.15h-8c-1.85,0-2.77-1.38-2.77-3.39s1.08-3.54,2.77-3.54Zm-20-18.5V144h16a3.6,3.6,0,0,1,4,2.93v2.31H164c-5.7,0-7.86,3.85-7.86,9.86,0,6.63,2.16,9.87,7.86,9.87H181.7c3.85,0,6-2.16,6-6V147.53c0-6-3.55-10-9.87-10H158.27Zm-29.75,0h-9.71l12.79,29.29c1.23,2.62,3.7,2.77,5.86,2.77s4.62-.15,5.86-2.77l12.79-29.29H146.4l-8,21c-.15.47-.46,1.08-.77,1.08s-.61-.77-.77-1.08Z"></path><path class="cls-2" d="M67.79,132.89,38,150l33.45,19.42A55.42,55.42,0,0,0,74.88,150a58.49,58.49,0,0,0-3.39-19.27ZM77,127.5a39.75,39.75,0,0,1,0,44.85l23.73,13.87V113.78Z"></path></svg> 