<svg id="Group_43" data-name="Group 43" xmlns="http://www.w3.org/2000/svg" viewBox="0 0 850.39 367.4"><defs><style>.cls-1{fill:#01183a;}</style></defs><path id="Path_7" data-name="Path 7" class="cls-1" d="M481.57,131.86a74.82,74.82,0,0,1,21.87-21.79A87.81,87.81,0,0,1,532.3,98.25a153.38,153.38,0,0,1,33.16-3.53,208.71,208.71,0,0,1,28.48,2.07,92.12,92.12,0,0,1,27.3,8.1,54,54,0,0,1,20.48,17,46.94,46.94,0,0,1,7.6,29.25A182,182,0,0,1,645,187.26l-17.95,86.31a77.75,77.75,0,0,0-2.15,14.32c-.38,5.68-.57,10.58-.57,14.73a47.27,47.27,0,0,0,1.94,12.45H570.92V293.94a67.59,67.59,0,0,1-27.7,20.12,92.3,92.3,0,0,1-33.94,6.43,82,82,0,0,1-28.67-4.58,60,60,0,0,1-20.48-12.22A47.52,47.52,0,0,1,448,285.83a59.07,59.07,0,0,1-3.9-21.36,64.73,64.73,0,0,1,20.09-49.8A99.14,99.14,0,0,1,521,191.43q19.49-2.49,33.93-3.73a131.68,131.68,0,0,0,24-3.94,29.24,29.24,0,0,0,14.24-7.87,27.59,27.59,0,0,0,1.18-28.84,26,26,0,0,0-8.75-7.89,35.94,35.94,0,0,0-11.33-3.94,67.68,67.68,0,0,0-11.54-1.07,47.3,47.3,0,0,0-26.53,7.67,33.65,33.65,0,0,0-14.43,23.87H469.86A79.42,79.42,0,0,1,481.57,131.86Zm82.7,88.4q-12.09,1.45-24.19,2.28a110.46,110.46,0,0,0-15.22,2.69,42.09,42.09,0,0,0-13.06,5.62A27.71,27.71,0,0,0,502.63,241a34.13,34.13,0,0,0-3.51,16.41,20.14,20.14,0,0,0,9.16,18,37.85,37.85,0,0,0,21.26,6A45.73,45.73,0,0,0,566,265.91a53.49,53.49,0,0,0,9.55-15.56,153,153,0,0,0,5.83-17.43l5.45-20.75A53.9,53.9,0,0,1,564.27,220.26Z"/><path id="Path_8" data-name="Path 8" class="cls-1" d="M751.1,18.78,691.82,315.1h-55l58.9-296.3h55.39Z"/><g id="Group_42" data-name="Group 42"><path id="Path_9" data-name="Path 9" class="cls-1" d="M776.77,88.14l11.5,26.56-765,206.75-2,17.77L791.81,131.69l3.4,28.71,33.94-48Z"/><path id="Path_10" data-name="Path 10" class="cls-1" d="M34.9,328.62V100.53H21.25V342.24H773.84V328.62Z"/></g><path id="Path_11" data-name="Path 11" class="cls-1" d="M50.54,139.94l7.8-39.42H91.5a356.45,356.45,0,0,1,8.58-36.31A82.59,82.59,0,0,1,113,37.87a49.77,49.77,0,0,1,21.65-16.19,96.53,96.53,0,0,1,35.29-5.39q9,0,18.15.83c6.11.56,12.15,1.36,18.14,2.49L197.6,61.93l-9-.83c-3.12-.27-6.13-.41-9-.41a37.07,37.07,0,0,0-16,2.7,19.16,19.16,0,0,0-8.39,7.89,44.2,44.2,0,0,0-4.49,12.45q-1.56,7.29-3.91,16.8h39.41L178.48,140H138.71L106,305.13l-2,9.94H48.59L83.31,139.94Z"/><path id="Path_12" data-name="Path 12" class="cls-1" d="M259.62,100.53,216.71,315.1H161.32l42.52-214.55h55.78Zm-49.56-33.2L220.2,18.78H276L265.83,67.33Z"/><path id="Path_13" data-name="Path 13" class="cls-1" d="M327.88,100.53l-6.24,29.88h.78A84.26,84.26,0,0,1,393,94.7q58.89,0,58.91,57.68a60.49,60.49,0,0,1-.78,8.5q-.81,5.19-1.76,10.57c-.65,3.65-1.32,7-1.94,10.21s-1.11,5.75-1.37,7.69l-25,125.73H365.72l24.57-125.73c.52-3.34,1.24-7.75,2.19-13.29a87,87,0,0,0,1.35-12.87,19,19,0,0,0-8.38-15.77,29.92,29.92,0,0,0-18.14-6.23,45.42,45.42,0,0,0-22,5.19,55.12,55.12,0,0,0-16.39,13.48A76,76,0,0,0,317.58,179a121.87,121.87,0,0,0-6.84,22L288.15,315.07H233.09l41.73-214.54Z"/></svg>