<?xml version="1.0" encoding="UTF-8" standalone="no"?>
<!-- Created with Inkscape (http://www.inkscape.org/) -->

<svg
   version="1.1"
   id="svg2"
   width="1004.76"
   height="451.26666"
   viewBox="0 0 1004.76 451.26666"
   sodipodi:docname="software-sources-intel-logo.eps"
   xmlns:inkscape="http://www.inkscape.org/namespaces/inkscape"
   xmlns:sodipodi="http://sodipodi.sourceforge.net/DTD/sodipodi-0.dtd"
   xmlns="http://www.w3.org/2000/svg"
   xmlns:svg="http://www.w3.org/2000/svg">
  <defs
     id="defs6" />
  <sodipodi:namedview
     id="namedview4"
     pagecolor="#ffffff"
     bordercolor="#000000"
     borderopacity="0.25"
     inkscape:showpageshadow="2"
     inkscape:pageopacity="0.0"
     inkscape:pagecheckerboard="0"
     inkscape:deskcolor="#d1d1d1" />
  <g
     id="g8"
     inkscape:groupmode="layer"
     inkscape:label="ink_ext_XXXXXX"
     transform="matrix(1.3333333,0,0,-1.3333333,0,451.26667)">
    <g
       id="g10"
       transform="scale(0.1)">
      <path
         d="m 1970.83,2913.93 c -22.02,5.21 -42.06,15.98 -63.68,22.44 -46.09,13.77 -92.62,24.47 -140.75,28.61 -33.39,2.88 -66.7,5.09 -100.14,3.24 -113.07,-6.22 -218.86,-37.11 -316.11,-95.51 -39.28,-23.59 -75.49,-51.36 -109.34,-82.47 -69.39,-63.76 -122.49,-138.83 -160.57,-224.78 -1.1,-2.48 -1.64,-5.35 -5.48,-7.14 -76.084,170.47 -198.924,294.08 -373.115,362.81 -173.211,68.34 -346.758,62.65 -520.114,-7.61 2.465,10.3 9.305,16.64 14.321,23.57 26.851,37.11 56.66,71.73 87.836,105.34 40.753,43.92 85.238,83.71 132.976,119.5 57.027,42.73 116.813,81.35 181.75,111.73 74.789,34.99 151.035,65.67 232.074,82.5 46.891,9.73 94.407,15.97 141.942,22.35 56.01,7.51 111.97,6.67 167.73,4.43 29.3,-1.18 59.22,-5.48 88.65,-10.42 47.3,-7.95 94.88,-14.57 140.99,-28.15 68.48,-20.16 134.54,-46.44 198.41,-78.52 78.3,-39.33 150.01,-88.06 216.68,-144.81 70.81,-60.27 132.3,-128.73 185.32,-204.96 0.4,-0.58 0.25,-1.54 0.36,-2.32 l 0.26,0.17"
         style="fill:#a2ce32;fill-opacity:1;fill-rule:nonzero;stroke:none"
         id="path12" />
      <path
         d="m 181.262,1673.74 c 22.402,-8.03 44.605,-16.69 67.25,-23.98 46.554,-14.98 94.207,-24.83 143.101,-28.14 18.614,-1.26 37.231,-3.8 55.832,-3.68 112.629,0.76 219.7,24.89 319.731,77.74 7.39,3.91 14.851,7.68 22.281,11.51 1.301,-3.33 4.504,-4.31 7.219,-5.94 42.918,-25.71 82.613,-55.74 118.781,-90.28 66.648,-63.66 117.943,-138.06 154.723,-222.54 1.28,-2.95 1.05,-8.23 5.61,-8.02 4.13,0.19 4.51,5.13 5.82,8.24 33.03,78.6 80.45,147.61 139.92,208.33 42.07,42.96 89.8,78.88 141.44,109.62 34.01,-18.27 68.66,-35.23 105.11,-48.08 55.52,-19.57 112.36,-33.28 171.37,-37 22.98,-1.45 45.92,-4.48 68.96,-3.67 88.32,3.12 173.96,19.14 255.5,54.3 1.79,0.77 3.77,1.12 5.66,1.66 0.38,-0.28 0.76,-0.57 1.12,-0.87 -18.45,-30.73 -42.16,-57.53 -64.39,-85.39 -24.18,-30.3 -52.44,-56.91 -80.05,-84.02 -50.75,-49.82 -107.23,-92.52 -167.06,-130.6 -76.84,-48.91 -158.4,-88.99 -245.22,-116.33 -61.88,-19.48 -125.19,-34.72 -190.01,-42.68 -38.69,-4.75 -77.37,-7.65 -116.31,-9.37 -90.23,-3.97 -178.931,6.08 -266.978,24.86 -35.352,7.55 -70.43,16.53 -104.692,27.46 -62.308,19.88 -121.429,47.72 -179.332,78.3 -46.589,24.61 -89.996,53.76 -132.414,84.77 -34.046,24.89 -66.293,51.85 -96.816,80.86 -55.02,52.27 -104.82,109.07 -147.234,172.15 0.347,0.28 0.707,0.55 1.078,0.79"
         style="fill:#a2ce32;fill-opacity:1;fill-rule:nonzero;stroke:none"
         id="path14" />
      <path
         d="m 452.098,2056.55 c -128.844,-2.24 -242.172,108.27 -237.321,245.3 4.332,122.27 104.399,232.63 244.184,229.67 127.434,-2.7 235.215,-109.16 231.246,-246.23 C 686.664,2162.99 584.234,2055 452.098,2056.55"
         style="fill:#1e4468;fill-opacity:1;fill-rule:nonzero;stroke:none"
         id="path16" />
      <path
         d="m 1698.26,2056.55 c -130.03,-1.93 -238.82,107.89 -237.47,239.6 1.3,126.23 104.17,238.36 244.3,235.49 123.47,-2.52 237.24,-107.3 231.11,-249.69 -5.17,-119.8 -106.25,-226.97 -237.94,-225.4"
         style="fill:#1e4468;fill-opacity:1;fill-rule:nonzero;stroke:none"
         id="path18" />
      <path
         d="m 1362.97,1706.6 c -51.64,-30.74 -99.37,-66.66 -141.44,-109.62 -59.47,-60.72 -106.89,-129.73 -139.92,-208.33 -1.31,-3.11 -1.69,-8.05 -5.82,-8.24 -4.56,-0.21 -4.33,5.07 -5.61,8.02 -36.78,84.48 -88.075,158.88 -154.723,222.54 -36.168,34.54 -75.863,64.57 -118.781,90.28 -2.715,1.63 -5.918,2.61 -7.219,5.94 129.598,76.26 224.903,182.99 286.063,323.96 61.09,-140.82 157.3,-247.91 287.45,-324.55"
         style="fill:#1e4468;fill-opacity:1;fill-rule:nonzero;stroke:none"
         id="path20" />
      <path
         d="m 1155.66,762.77 c -21.63,-75.739 -43.57,-151.059 -64.31,-226.7 -3.55,-12.929 -8.68,-16.75 -21.67,-16.281 -28.74,1.031 -28.79,0.313 -35.35,29.07 -17.95,78.75 -35.982,157.469 -53.736,236.262 -4.508,20.008 -7.789,40.289 -12.297,60.301 -1.281,5.668 -0.227,7.058 5.23,6.969 12.797,-0.2 25.606,-0.25 38.393,0.027 5.55,0.113 7.48,-2.199 8.54,-7.469 14.55,-71.687 29.32,-143.34 44.05,-215 1.43,-6.961 2.94,-13.91 4.72,-22.328 7.77,16.52 8.86,33.527 13.44,49.539 17.6,61.66 34.95,123.399 51.73,185.289 2.13,7.84 4.91,10.551 12.68,10 9.94,-0.699 21.66,2.641 29.41,-1.609 7.44,-4.09 6.3,-17.09 8.91,-26.129 20.63,-71.551 40.85,-143.211 62.18,-218.332 5.46,16.941 7.1,31.43 9.79,45.641 12.09,64.031 22.4,128.402 35.95,192.171 1.47,6.899 3.86,8.379 9.97,8.227 11.59,-0.297 23.21,-0.43 34.79,0.031 7.42,0.301 8.54,-2.168 6.95,-9.051 -12.36,-53.546 -24.41,-107.168 -36.47,-160.789 -11.54,-51.3 -23.19,-102.578 -34.22,-154 -1.4,-6.488 -3.27,-9.089 -9.78,-8.589 -5.17,0.402 -10.39,0.089 -15.59,0.089 -22.89,0 -22.85,0.012 -29.06,21.641 -15.52,54.039 -31.58,107.93 -46.34,162.18 -4.87,17.879 -9.27,35.941 -13.99,53.898 -0.54,2.043 -1,3.813 -3.92,4.942"
         style="fill:#1e4468;fill-opacity:1;fill-rule:nonzero;stroke:none"
         id="path22" />
      <path
         d="m 1704.6,211.672 c 25.19,0 50.37,-0.102 75.56,0.129 3.11,0.019 8.07,-2.84 8.21,4.758 0.79,43.089 -21.28,73.91 -60.93,80.421 -19.01,3.122 -38.98,3.079 -57.37,-5.539 -29.89,-14.023 -41.55,-40.281 -48.25,-70.55 -1.89,-8.563 -0.08,-9.391 7.21,-9.321 25.19,0.25 50.38,0.102 75.57,0.102 z m 27.02,-45.844 c -33.17,0 -66.36,-0.297 -99.53,0.203 -8.93,0.129 -12.78,-1.551 -11.88,-11.5 6.09,-67.1599 46.29,-108.2693 118.32,-101.5193 32.71,3.0664 61.75,16.4297 88.06,35.8399 2.18,1.6093 3.73,4.5781 7.07,3.3086 4.02,-1.5196 3.03,-5.211 3.04,-8.2383 0.08,-15.5938 -0.2,-31.1914 0.16,-46.7735 0.14,-6.1093 -2.25,-9.5898 -7.62,-11.9687 -27.32,-12.1211 -55.5,-20.08986 -85.51,-23.05079 -28.92,-2.859379 -57.17,-0.16016 -84.14,8.69139 -40,13.1289 -67.57,41.6211 -81.87,80.8086 -22.63,62.0121 -21.43,124.3711 9.62,183.1011 23.28,44.032 61.43,69.418 112.6,73.329 40.39,3.082 76.03,-6.539 105.27,-35.629 22.5,-22.399 30.83,-51.121 35.56,-81.289 2.91,-18.571 1.56,-37.352 2.11,-56.039 0.22,-7.313 -1.82,-9.543 -9.33,-9.454 -33.97,0.411 -67.95,0.18 -101.93,0.18"
         style="fill:#1e4468;fill-opacity:1;fill-rule:nonzero;stroke:none"
         id="path24" />
      <path
         d="m 1572.4,644.961 c 0,12.769 -0.32,25.551 0.14,38.301 0.23,6.519 -2.17,8.429 -8.26,7.699 -17.61,-2.109 -35.28,-3.672 -52.84,-6.09 -15.57,-2.152 -31.77,-3.711 -45.64,-11.152 -26.01,-13.957 -35.62,-38.559 -29.07,-68.848 5.15,-23.82 15.1,-32.402 38.62,-36.93 35.36,-6.82 63.21,8.321 89.81,28.34 5.95,4.481 7.87,10.129 7.41,17.571 -0.65,10.339 -0.16,20.738 -0.17,31.109 z m 0.01,-91.801 c -21.42,-19.691 -42.97,-34.789 -69.85,-40.301 -70.48,-14.449 -115.27,32.43 -120.52,93.411 -1.44,16.652 -0.47,33.46 4.36,49.679 10.9,36.692 38.27,56.5 72.38,68.211 30.55,10.488 62.82,12 94.69,14.52 18.44,1.449 18.53,0.308 16.99,18.601 -2.1,24.957 -15.02,39.989 -36.69,45.289 -29.92,7.309 -58.83,3.051 -87.47,-5.761 -9.47,-2.918 -18.57,-7.047 -27.78,-10.778 -7.82,-3.16 -12,-2.152 -11.52,7.75 0.59,11.981 1.05,24.09 -0.12,35.969 -1.1,11.102 2.73,15.738 13.45,18.398 42.37,10.532 84.93,16.84 128.09,6.18 48.64,-12.008 72.81,-48.187 73.67,-95.859 1.38,-75.571 0.19,-151.188 0.6,-226.778 0.05,-9.511 -2.51,-12.519 -11.88,-11.761 -9.94,0.789 -20.01,0.57 -29.98,0.039 -7.04,-0.379 -9,2.34 -8.54,8.941 0.5,7.16 0.12,14.379 0.12,24.25"
         style="fill:#1e4468;fill-opacity:1;fill-rule:nonzero;stroke:none"
         id="path26" />
      <path
         d="m 526.488,175.059 c 0,5.601 0.078,11.191 -0.011,16.781 -0.407,25.039 -6.133,49.191 -18.223,70.75 -14.66,26.14 -38.965,33.898 -68.656,33.84 -32.27,-0.059 -52.301,-15.399 -66.274,-41.809 -8.828,-16.68 -11.75,-35.019 -13.613,-53.73 -3.742,-37.653 -2.445,-74.321 15.168,-108.9613 14.957,-29.4102 39.066,-42.5391 71.543,-41.4805 30.187,0.9922 51.461,15.3594 64.933,42.3321 13.028,26.0587 15.719,53.8207 15.133,82.2777 z m 57.129,-1.391 C 584.855,129.461 576.113,89.0781 550.965,53.0781 527.285,19.1797 494.766,2.12891 453.648,0.320313 429.547,-0.738281 405.355,0.488281 383.777,11.1016 338.672,33.2695 315.164,71.8594 306.891,120.531 c -7.493,44.071 -6.703,88.27 5.851,130.949 14.641,49.782 48.555,82.661 99.731,94.032 76.312,16.957 143.121,-26.961 163.937,-105.672 5.844,-22.09 7.895,-44.488 7.207,-66.172"
         style="fill:#1e4468;fill-opacity:1;fill-rule:nonzero;stroke:none"
         id="path28" />
      <path
         d="m 2023.24,724.211 c 17.2,0 34.4,0 51.59,0 28.05,0 28.19,0.027 22.95,28.078 -10.08,54.039 -56.18,68.57 -99.83,52.262 -32.28,-12.071 -46.28,-40.481 -52.77,-72.813 -1.42,-7.07 2.92,-7.636 8.46,-7.597 23.2,0.168 46.4,0.07 69.6,0.07 z m 120.12,-122.102 c 0,-19.097 0.05,-37.488 -0.04,-55.871 -0.02,-3.34 1.04,-6.898 -3.72,-8.91 -22.98,-9.719 -45.74,-20.648 -70.66,-23.867 -50.34,-6.492 -96.67,2.051 -133.31,40.84 -24.12,25.551 -35.39,57.09 -39.66,91.129 -4.68,37.269 -4.18,74.781 7.39,110.738 16.61,51.57 46.12,91.742 103.55,102.363 37.74,6.981 73.17,0.559 101.81,-26.179 22.79,-21.293 31.88,-50.313 38.73,-80.172 4.97,-21.66 1.71,-43.371 3.22,-64.989 0.58,-8.339 -2.76,-9.781 -10.25,-9.742 -60.77,0.27 -121.54,-0.097 -182.3,0.403 -10.3,0.078 -13.99,-2.082 -13.19,-13.012 4.48,-61.02 38.51,-102.5 102.78,-100.32 31.21,1.058 58.98,14.128 84.39,31.941 3.17,2.219 5.51,5.738 11.26,5.648"
         style="fill:#1e4468;fill-opacity:1;fill-rule:nonzero;stroke:none"
         id="path30" />
      <path
         d="M 853.137,43.2305 C 828.641,19.7188 802.98,3.60938 772.688,0.917969 710.191,-4.62891 670.59,14.1914 655.48,84.1484 c -3.093,14.3204 -4.375,28.9606 -4.335,43.7306 0.191,67.191 0.246,134.371 -0.114,201.562 -0.047,8.809 1.961,12.118 11.223,11.379 10.726,-0.851 21.613,-0.73 32.363,-0.031 8.41,0.551 10.801,-2.148 10.75,-10.609 -0.351,-60.391 -0.398,-120.782 -0.035,-181.16 0.09,-15.071 0.574,-30.418 3.402,-45.149 8.477,-44.1601 33.934,-52.5312 73.215,-46.9218 25.617,3.6602 45.961,18.711 66.321,33.3594 5.523,3.9727 4.878,9.5117 4.878,15.0894 -0.019,73.981 0.262,147.973 -0.304,221.954 -0.086,11.386 3.34,14.589 14.011,13.398 12.965,-1.449 29.938,5.469 38.004,-2.68 7.465,-7.531 2.055,-24.332 2.075,-37.031 0.148,-93.18 -0.168,-186.359 0.386,-279.539 0.075,-11.96094 -3.332,-15.32031 -14.636,-14.01172 -8.286,0.96094 -16.918,1.17188 -25.137,-0.03906 -13,-1.91797 -15.988,3.76168 -14.539,15.21098 0.73,5.7695 0.129,11.7109 0.129,20.5703"
         style="fill:#1e4468;fill-opacity:1;fill-rule:nonzero;stroke:none"
         id="path32" />
      <path
         d="m 312.215,689.949 c 0,-48.129 3.316,-68.929 15.914,-90.929 14.184,-24.758 35.855,-37.731 64.719,-36.731 26.547,0.922 46.828,14.141 57.711,37.57 24.972,53.782 24.101,109.711 3.968,164.172 -10.629,28.75 -33.98,47.078 -71.254,44.289 -29.66,-2.218 -48.168,-19.761 -59.906,-45.718 -11.09,-24.532 -12.433,-50.524 -11.152,-72.653 z m 81.086,-179.211 c -53.43,-0.449 -86.863,23.434 -109.942,64.942 -23.629,42.511 -25.754,88.242 -23.035,135.25 2.192,37.898 12.442,72.64 35.336,103.09 20.266,26.949 46.844,42.148 81.094,45.89 69.863,7.641 119.019,-41.41 133.812,-101.199 14.067,-56.852 13.239,-113.441 -7.214,-168.68 -14.942,-40.351 -57.043,-83.14 -110.051,-79.293"
         style="fill:#1e4468;fill-opacity:1;fill-rule:nonzero;stroke:none"
         id="path34" />
      <path
         d="m 0.351563,61.3984 c 0,8.8008 0.082031,17.6016 -0.023438,26.3907 -0.09375,7.9297 3.750005,8.1718 8.738285,4.1406 C 36.1328,70.0391 66.3594,54.7695 101.223,51.5391 c 26.519,-2.461 53.75,-3.211 74.054,19.039 16.207,17.7617 13.301,52.3909 -14.507,63.5309 -25.082,10.063 -52.028,12.821 -77.813,20.129 -21.5703,6.121 -42.4414,13.242 -58.3593,30.203 -12.711,13.539 -19.0352,29.539 -21.1602,48.008 -7.26563,63.141 35.3945,99.141 83.7422,110.789 46.8003,11.282 90.9923,0.91 133.9963,-17.758 5.094,-2.21 7.121,-5.23 6.988,-10.89 -0.355,-15.18 -0.043,-30.379 -0.195,-45.57 -0.028,-2.469 1.558,-5.891 -2.196,-7.192 -2.921,-1.008 -5.113,0.524 -7.535,2.301 -33.371,24.531 -70.679,34.461 -112.066,31.902 -38.9806,-2.41 -60.0509,-35.011 -42.0978,-66.57 2.9883,-5.25 7.1914,-8.602 11.9297,-11.172 15.7813,-8.539 32.7731,-13.277 50.5821,-15.859 33.559,-4.852 66.852,-10.86 91.801,-37.121 13.152,-13.84 19.023,-30.688 20.535,-49.508 C 241.984,77.5391 229.316,46.5781 198.297,23.1484 181.109,10.1602 161.035,5.69922 140.773,2.89063 95.4219,-3.42188 51.8047,3.62891 10.1328,22.9414 2.85156,26.3086 -0.84375,30.1406 0.164063,38.6406 c 0.882817,7.4883 0.183593,15.168 0.1875,22.7578"
         style="fill:#1e4468;fill-opacity:1;fill-rule:nonzero;stroke:none"
         id="path36" />
      <path
         d="m 1912.02,60.4805 c 0,8.789 -0.06,17.5898 0.04,26.3789 0.03,2.2695 -0.98,5.1289 1.49,6.5898 3.25,1.9102 4.92,-1.25 7.02,-2.8711 32.63,-25.0898 68.63,-41.2383 110.63,-39.9765 18.74,0.5586 38.4,2.5078 51.91,16.789 19.2,20.2696 18.53,57.8204 -18.35,69.0504 -23.73,7.227 -48.22,11.899 -72.3,18.008 -19.37,4.91 -37.64,12.289 -53.21,25.34 -35.25,29.539 -33.64,98.973 -2.83,129.481 20.47,20.281 44.6,31.648 72.11,36.332 42.51,7.25 82.54,-3.012 121.43,-19.5 5.7,-2.422 8.64,-5.622 8.35,-12.512 -0.6,-14.77 -0.11,-29.578 -0.25,-44.371 -0.02,-2.539 1.39,-5.918 -2.17,-7.321 -2.86,-1.109 -5.07,0.321 -7.53,2.122 -33.35,24.531 -70.65,35.242 -112.02,31.832 -30.73,-2.532 -54.25,-22.422 -47.62,-53.063 3.91,-18.059 16.78,-25.539 32.19,-31.461 23.85,-9.18 49.49,-9.808 73.96,-16.129 38.61,-9.961 64.39,-32.66 75.36,-71.5 8.02,-28.3982 -10.76,-75.9998 -36.87,-97.1287 -18.84,-15.2422 -40.88,-20.66014 -63.59,-23.80858 -41.18,-5.71094 -80.9,0.41797 -119.73,15.80858 -13.55,5.3789 -20.62,11.3906 -18.15,26.3399 0.83,5.0586 0.13,10.3711 0.13,15.5703"
         style="fill:#1e4468;fill-opacity:1;fill-rule:nonzero;stroke:none"
         id="path38" />
      <path
         d="m 0.351563,572.238 c 0.003906,8.793 -0.0625,17.59 0.050781,26.391 0.027344,2.16 -0.929688,4.992 2.285156,5.949 2.60938,0.781 4.49609,-0.566 6.39063,-2.226 C 33.5781,580.871 62.4414,568.09 94.2656,563.48 c 24.2854,-3.531 48.3824,-1.699 67.1484,17.989 16.844,17.672 10.906,52.23 -10.797,63.472 -17.183,8.911 -36.125,11.719 -54.5584,15.95 -19.0352,4.359 -37.8281,9.738 -54.832,18.82 -21.625,11.539 -32.25394,31.93 -36.7891,55.641 -8.42578,44.039 8.6094,84.839 46.2344,107.726 23.4765,14.281 49.8831,18.383 76.8401,16.313 26.64,-2.051 52.133,-9.262 76.183,-21.403 6.899,-3.476 10.36,-7.379 9.953,-15.519 -0.66,-13.168 -0.031,-26.391 -0.285,-39.578 -0.058,-3.211 2.168,-7.832 -2.57,-9.352 -3.77,-1.219 -7.309,-0.141 -10.969,2.602 -21.265,15.929 -44.953,26.718 -71.277,31.089 -19.293,3.211 -37.9259,1.309 -54.9572,-9.21 -13.996,-8.641 -21.4765,-21.071 -20.1523,-37.782 1.3828,-17.5 11.1992,-29.238 27.0195,-35.758 22.375,-9.21 46.453,-12.39 69.66,-18.691 16.66,-4.527 32.371,-10.91 45.598,-22.238 23.508,-20.133 26.551,-47.18 25.801,-75.821 -0.871,-33.332 -16.496,-57.878 -43.438,-75.941 -26.949,-18.059 -57.207,-22.328 -88.8632,-20.289 -29.4492,1.891 -56.2304,12.129 -82.4023,24.988 -5.44531,2.684 -6.707031,5.34 -6.539062,10.563 0.277343,8.39 0.074218,16.789 0.078125,25.187"
         style="fill:#1e4468;fill-opacity:1;fill-rule:nonzero;stroke:none"
         id="path40" />
      <path
         d="m 1488.31,93.4609 c 0,-19.9218 -0.24,-39.4609 0.15,-58.9921 0.1,-5.5469 -2.8,-7.75 -6.82,-9.879 -49.31,-25.98043 -100.77,-29.8398 -153.26,-12.5585 -34.25,11.2773 -56.31,37.4296 -69.29,69.707 -24.44,60.7737 -24.72,122.5817 0.88,183.1327 20.63,48.797 59.69,73.777 111.58,81.109 39.18,5.54 74.2,-6.269 108.67,-22.402 6.27,-2.937 8.53,-6.738 8.27,-13.719 -0.58,-15.168 -0.13,-30.379 -0.23,-45.57 -0.02,-2.66 1.32,-6.109 -1.3,-7.84 -3.61,-2.379 -6.02,1.571 -8.14,3.27 -16.53,13.301 -34.39,24.472 -54.7,30.5 -31.75,9.422 -62.6,9.531 -89.97,-13.199 -18.69,-15.532 -27.79,-36.571 -32.32,-59.329 -6.72,-33.82 -7.03,-67.98 3.55,-101.211 17.83,-56.0112 61.61,-73.6987 115.36,-59.5112 21.93,5.7929 40.52,17.7929 57.65,32.2695 2.42,2.043 4.56,4.5 9.92,4.2226"
         style="fill:#1e4468;fill-opacity:1;fill-rule:nonzero;stroke:none"
         id="path42" />
      <path
         d="m 628,660.219 c 0,-43.188 -0.207,-86.379 0.18,-129.559 0.078,-8.262 -1.977,-11.371 -10.582,-10.73 -9.942,0.75 -20.008,0.621 -29.969,0.031 -7.274,-0.441 -9.617,1.648 -9.481,9.238 0.477,26.781 0.184,53.582 0.184,80.371 0,59.578 -0.219,119.168 0.223,178.739 0.07,9.589 -1.789,13.32 -12.215,12.89 -19.184,-0.789 -19.207,-0.16 -19.207,19.301 0,2.398 0,4.801 0,7.199 0,23.403 -0.012,23.731 23.597,24.43 6.821,0.199 7.489,2.883 7.743,8.57 1.082,24.199 3.632,47.981 13.312,70.832 17.848,42.137 59.199,52.641 94.031,50.758 12.153,-0.648 24.344,-2.18 36.379,-4.859 4.766,-1.059 6.989,-1.762 6.887,-7.032 -0.273,-13.988 -0.219,-27.988 -0.035,-41.976 0.07,-5.434 -1.059,-6.434 -6.781,-4.774 -11.328,3.282 -22.996,6.84 -34.641,7.313 -40.594,1.629 -56.766,-15 -59.488,-54.043 -1.711,-24.547 -1.114,-24.59 23.554,-24.59 17.594,0 35.196,-0.226 52.782,0.121 6.222,0.129 8.433,-1.738 8.183,-8.121 -0.453,-11.566 -0.515,-23.199 0.02,-34.769 0.32,-6.981 -2.184,-8.848 -8.863,-8.739 -21.989,0.34 -43.993,-0.242 -65.973,0.321 -8.098,0.211 -10.027,-2.582 -9.977,-10.161 C 628.148,747.391 628,703.801 628,660.219"
         style="fill:#1e4468;fill-opacity:1;fill-rule:nonzero;stroke:none"
         id="path44" />
      <path
         d="m 780.074,708 c 0,27.578 -0.191,55.16 0.129,82.738 0.082,7.223 -1.019,10.571 -9.609,10.461 -21.703,-0.25 -21.707,0.25 -21.707,21.539 0,1.602 0,3.203 0,4.801 0,23.711 -0.008,24 23.394,24.602 6.516,0.168 7.981,2.269 7.914,8.328 -0.285,25.582 0.071,51.16 -0.254,76.742 -0.082,6.457 1.274,9.277 8.422,8.879 10.762,-0.59 21.602,-0.59 32.364,0 7.445,0.422 9.496,-2.11 9.363,-9.43 -0.43,-23.969 0.293,-47.969 -0.387,-71.941 -0.269,-9.5 1.5,-13.071 12.074,-12.68 24.75,0.91 49.571,-0.219 74.328,0.551 9.458,0.301 11.465,-2.82 10.856,-11.41 -0.738,-10.34 -0.695,-20.801 -0.004,-31.149 0.508,-7.64 -2.203,-9.363 -9.426,-9.242 -25.578,0.422 -51.176,-0.32 -76.738,0.41 -9.395,0.27 -11.113,-2.898 -11.047,-11.449 0.383,-46.762 -0.012,-93.531 0.301,-140.301 0.094,-14.277 0.273,-28.781 2.672,-42.801 6.894,-40.296 28.336,-43 61.363,-39.277 8.691,0.981 16.922,3.957 24.723,7.867 6.558,3.293 8.261,1.063 8.086,-5.679 -0.356,-13.579 -0.047,-27.18 -0.157,-40.77 -0.023,-2.937 0.957,-6.238 -3.793,-7.418 -29.363,-7.293 -58.711,-14.512 -88.613,-2.832 -28.34,11.07 -43.625,32.473 -49.18,61.922 -7.003,37.109 -4.558,74.578 -5.066,111.949 -0.07,5.199 -0.008,10.391 -0.008,15.59"
         style="fill:#1e4468;fill-opacity:1;fill-rule:nonzero;stroke:none"
         id="path46" />
      <path
         d="m 1062.97,295.27 c 14.2,8.121 25.23,18.3 37.88,26.152 28.86,17.906 59.54,20.937 92.12,15.25 5.28,-0.922 5.3,-3.344 5.29,-7.102 -0.04,-15.191 -0.25,-30.379 0.08,-45.558 0.16,-7.094 -1.47,-8.371 -8.93,-6.883 -26.63,5.332 -53.42,8.082 -79.44,-3.469 -15.74,-6.988 -29.54,-16.969 -43.06,-27.43 -5.04,-3.902 -3.91,-9.21 -3.91,-14.281 -0.04,-69.918 -0.28,-139.8474 0.23,-209.781 0.08,-11.5469 -3.08,-15.78909 -14.75,-14.68753 -9.91,0.9375 -19.99,0.66797 -29.95,0.05078 -8.35,-0.51953 -11.16,2.30859 -11.02,10.80855 0.45,27.5586 0.17,55.1407 0.17,82.7112 0,75.929 0.14,151.847 -0.2,227.769 -0.04,9.051 1.77,12.828 11.65,12.02 11.52,-0.942 23.19,-0.711 34.74,-0.039 7.78,0.437 9.54,-2.582 9.23,-9.653 -0.49,-11.457 -0.13,-22.949 -0.13,-35.878"
         style="fill:#1e4468;fill-opacity:1;fill-rule:nonzero;stroke:none"
         id="path48" />
      <path
         d="m 1747.24,804.828 c 11.92,11.192 22.64,19.762 33.84,27.813 26.69,19.168 56.25,21.168 87.34,16.507 5.08,-0.757 5.53,-3.32 5.52,-7.277 -0.07,-16 -0.27,-32 0.07,-47.992 0.17,-7.688 -2.57,-8.367 -9.4,-6.609 -22.98,5.929 -46.21,8.269 -68.83,-1.309 -16.44,-6.961 -31.69,-16.152 -45.1,-28.121 -2.72,-2.43 -3.77,-5.051 -3.75,-9.238 0.34,-72 0.09,-144 0.53,-216 0.06,-9.563 -1.62,-13.883 -12.15,-12.653 -13,1.52 -30.5,-5.48 -37.96,2.723 -6.47,7.117 -2.1,24.308 -2.11,37.047 -0.07,92.793 0.17,185.601 -0.31,278.39 -0.06,11.84 3.53,15.559 14.92,14.403 8.7,-0.891 17.62,-0.723 26.36,-0.032 8.76,0.7 11.29,-3.218 11.1,-11.128 -0.28,-11.192 -0.07,-22.391 -0.07,-36.524"
         style="fill:#1e4468;fill-opacity:1;fill-rule:nonzero;stroke:none"
         id="path50" />
      <path
         d="m 179.355,2912.2 -0.335,0.62 0.746,-0.05 z"
         style="fill:#a2ce32;fill-opacity:1;fill-rule:nonzero;stroke:none"
         id="path52" />
      <path
         d="m 1970.57,2913.76 c 0.42,-0.43 0.84,-0.86 1.26,-1.28 -0.32,-0.03 -0.64,-0.07 -0.96,-0.1 -0.01,0.52 -0.03,1.03 -0.04,1.55 l -0.26,-0.17"
         style="fill:#a2ce32;fill-opacity:1;fill-rule:nonzero;stroke:none"
         id="path54" />
      <path
         d="m 180.184,1672.95 c -0.508,0.48 -1.02,0.97 -1.528,1.45 1.196,1.04 2.02,0.69 2.586,-0.67 -0.351,-0.23 -0.711,-0.5 -1.058,-0.78"
         style="fill:#a2ce32;fill-opacity:1;fill-rule:nonzero;stroke:none"
         id="path56" />
      <path
         d="m 1969.57,1673.81 c 0.65,1.24 1.49,1.68 2.66,0.59 -0.52,-0.49 -1.03,-0.97 -1.54,-1.46 -0.36,0.3 -0.74,0.59 -1.12,0.87"
         style="fill:#a2ce32;fill-opacity:1;fill-rule:nonzero;stroke:none"
         id="path58" />
      <path
         d="m 5376.88,2110.47 c -0.93,-0.08 -1.87,-0.12 -2.8,-0.12 h -4.45 v 9.28 h 4.45 c 0.93,0 1.87,-0.03 2.8,-0.08 0.94,-0.05 1.78,-0.24 2.54,-0.55 0.75,-0.31 1.36,-0.78 1.83,-1.4 0.47,-0.62 0.7,-1.48 0.7,-2.57 0,-1.1 -0.23,-1.95 -0.7,-2.58 -0.47,-0.62 -1.08,-1.09 -1.83,-1.4 -0.76,-0.31 -1.6,-0.51 -2.54,-0.58 z m 3.28,-4.8 c 2.26,0.26 4.14,1.12 5.63,2.57 1.5,1.46 2.24,3.64 2.24,6.55 0,3.22 -0.94,5.69 -2.84,7.41 -1.9,1.72 -4.85,2.57 -8.85,2.57 h -12.79 v -33.14 h 6.08 v 13.57 h 4.45 l 8.26,-13.57 h 6.39 z m 16.53,-6.94 c -1.25,-2.91 -2.95,-5.45 -5.11,-7.6 -2.15,-2.16 -4.69,-3.86 -7.6,-5.11 -2.91,-1.25 -6.01,-1.87 -9.28,-1.87 -3.28,0 -6.37,0.62 -9.28,1.87 -2.91,1.25 -5.44,2.95 -7.6,5.11 -2.16,2.15 -3.86,4.69 -5.11,7.6 -1.25,2.91 -1.87,6 -1.87,9.28 0,3.27 0.62,6.37 1.87,9.28 1.25,2.91 2.95,5.44 5.11,7.6 2.16,2.16 4.69,3.86 7.6,5.11 2.91,1.24 6,1.87 9.28,1.87 3.27,0 6.37,-0.63 9.28,-1.87 2.91,-1.25 5.45,-2.95 7.6,-5.11 2.16,-2.16 3.86,-4.69 5.11,-7.6 1.25,-2.91 1.87,-6.01 1.87,-9.28 0,-3.28 -0.62,-6.37 -1.87,-9.28 z m 4.71,20.54 c -1.53,3.51 -3.61,6.58 -6.23,9.21 -2.63,2.62 -5.69,4.7 -9.21,6.24 -3.51,1.53 -7.26,2.29 -11.26,2.29 -4,0 -7.76,-0.76 -11.27,-2.29 -3.51,-1.54 -6.57,-3.62 -9.19,-6.24 -2.63,-2.63 -4.71,-5.7 -6.25,-9.21 -1.53,-3.5 -2.29,-7.26 -2.29,-11.26 0,-4 0.76,-7.76 2.29,-11.27 1.54,-3.51 3.62,-6.57 6.25,-9.2 2.62,-2.62 5.68,-4.7 9.19,-6.24 3.51,-1.53 7.27,-2.3 11.27,-2.3 4,0 7.75,0.77 11.26,2.3 3.52,1.54 6.58,3.62 9.21,6.24 2.62,2.63 4.7,5.69 6.23,9.2 1.54,3.51 2.31,7.27 2.31,11.27 0,4 -0.77,7.76 -2.31,11.26 z m -441.38,137.87 c -0.03,21.78 24.98,59.78 78.86,59.85 53.89,0 78.94,-37.98 78.94,-59.75 z m 232.99,-27.28 c 0,21.31 -3.81,41.55 -11.31,60.13 -7.5,18.56 -18.12,35.08 -31.54,49.1 -13.41,13.99 -29.71,25.1 -48.46,33 -18.75,7.89 -39.69,11.89 -62.21,11.89 -21.32,0 -41.64,-4.1 -60.4,-12.19 -18.77,-8.1 -35.29,-19.22 -49.1,-33.03 -13.83,-13.83 -24.95,-30.35 -33.04,-49.11 -8.09,-18.74 -12.19,-39.06 -12.19,-60.39 0,-21.35 3.91,-41.68 11.6,-60.43 7.71,-18.77 18.52,-35.29 32.13,-49.08 13.61,-13.82 30.33,-24.93 49.67,-33.02 19.37,-8.09 40.81,-12.2 63.74,-12.2 66.28,0 107.62,30.16 132.3,58.36 l -56.38,42.95 c -11.89,-14.1 -40.09,-33.23 -75.32,-33.23 -22.1,0 -40.29,5.11 -54.08,15.2 -13.81,10.09 -23.31,23.98 -28.26,41.28 l -0.79,2.76 h 233.64 z m -540.44,118.8 c -21.7,23.44 -52.36,35.32 -91.13,35.32 -18.69,0 -35.98,-3.85 -51.4,-11.45 -15.41,-7.6 -28.5,-18.27 -38.92,-31.72 l -4.27,-5.51 -0.03,4.95 v 37.7 h -77.27 v -297.39 h 77.87 v 158.43 l 0.07,-10.99 c 0,1.82 0.03,3.6 0.08,5.36 0.8,27.78 7.74,48.52 20.66,61.67 13.79,14.03 30.51,21.14 49.73,21.14 22.6,0 39.85,-6.92 51.28,-20.58 11.19,-13.39 16.91,-32.57 17.02,-57 h 0.01 v -0.61 c 0,-0.04 0,-0.09 0,-0.14 v 0 -157.28 h 79.07 v 168.82 c 0,42.39 -11.03,75.79 -32.77,99.28 z m 659.61,-268.1 v 436.18 h -78.34 v -436.18 z m -449.01,-3.01 v 72.91 c -11.54,0.07 -21.07,0.68 -28.34,1.83 -8.09,1.28 -14.28,4.02 -18.39,8.15 -4.14,4.12 -6.88,10.1 -8.16,17.77 -1.22,7.33 -1.83,17 -1.83,28.72 v 104.02 h 56.72 v 67 h -56.72 v 115.86 h -78.34 v -287.48 c 0,-24.25 2.1,-44.88 6.26,-61.32 4.11,-16.25 11.14,-29.52 20.88,-39.45 9.73,-9.94 22.59,-17.15 38.24,-21.45 15.81,-4.36 35.91,-6.56 59.77,-6.56 z m -519.3,3.01 v 297.39 h -78.34 v -297.39 z m -80.51,347.48 h 82.67 v 82.66 h -82.67 v -82.66"
         style="fill:#211d1d;fill-opacity:1;fill-rule:nonzero;stroke:none"
         id="path60" />
      <path
         d="m 4252.74,1558.61 c 8.26,-11.99 19.18,-22.17 32.79,-30.63 13.6,-8.46 28.42,-12.67 44.49,-12.67 21.03,0 37.1,4.62 48.24,13.92 11.13,9.29 16.69,21.13 16.69,35.56 0,9.45 -2.99,17.29 -8.96,23.47 -5.97,6.18 -13.6,11.21 -22.87,15.16 -9.29,3.89 -21.34,8.15 -36.19,12.67 -20.19,6.18 -36.37,12.04 -48.52,17.6 -12.17,5.61 -22.58,13.81 -31.22,24.76 -8.65,10.91 -12.99,25.03 -12.99,42.32 0,14.43 4.24,28.03 12.67,40.81 8.44,12.77 20.2,23.1 35.26,30.94 15.03,7.84 32.03,11.73 51.01,11.73 20.17,0 38.63,-3.89 55.32,-11.73 16.69,-7.84 30.19,-17.34 40.49,-28.45 l -30.91,-30.89 c -6.6,8.62 -15.55,15.94 -26.9,21.91 -11.34,5.97 -24.01,8.98 -38,8.98 -16.51,0 -29.91,-4.31 -40.21,-12.98 -10.31,-8.67 -15.45,-18.74 -15.45,-30.32 0,-9.04 2.88,-16.46 8.64,-22.22 5.79,-5.82 13.01,-10.44 21.65,-13.92 8.68,-3.53 20.62,-7.53 35.85,-12.04 20.2,-6.18 36.58,-12.2 49.17,-17.97 12.57,-5.76 23.29,-14.33 32.14,-25.65 8.88,-11.31 13.29,-26.06 13.29,-44.18 0,-16.51 -4.31,-31.57 -12.98,-45.17 -8.64,-13.6 -21.23,-24.4 -37.72,-32.45 -16.48,-8.05 -35.64,-12.04 -57.5,-12.04 -24.32,0 -45.74,5.03 -64.27,15.16 -18.56,10.07 -33.21,22.53 -43.9,37.38 l 30.89,30.94"
         style="fill:#221d1d;fill-opacity:1;fill-rule:nonzero;stroke:none"
         id="path62" />
      <path
         d="m 4620.62,1515.31 c 19.36,0 37.3,5.04 53.78,15.16 16.49,10.07 29.68,23.89 39.56,41.43 9.9,17.5 14.85,36.76 14.85,57.79 0,21.03 -4.95,40.29 -14.85,57.79 -9.88,17.55 -23.07,31.36 -39.56,41.43 -16.48,10.12 -34.42,15.16 -53.78,15.16 -19.4,0 -37.31,-5.04 -53.8,-15.16 -16.48,-10.07 -29.67,-23.88 -39.58,-41.43 -9.89,-17.5 -14.83,-36.76 -14.83,-57.79 0,-21.03 4.94,-40.29 14.83,-57.79 9.91,-17.54 23.1,-31.36 39.58,-41.43 16.49,-10.12 34.4,-15.16 53.8,-15.16 z m 0,-40.18 c -27.63,0 -52.99,6.9 -76.07,20.71 -23.08,13.81 -41.4,32.45 -55.01,55.97 -13.6,23.47 -20.4,49.43 -20.4,77.88 0,28.45 6.8,54.41 20.4,77.88 13.61,23.52 31.93,42.16 55.01,55.97 23.08,13.81 48.44,20.71 76.07,20.71 27.59,0 52.95,-6.9 76.03,-20.71 23.08,-13.81 41.43,-32.45 55.04,-55.97 13.6,-23.47 20.4,-49.43 20.4,-77.88 0,-28.45 -6.8,-54.41 -20.4,-77.88 -13.61,-23.52 -31.96,-42.16 -55.04,-55.97 -23.08,-13.81 -48.44,-20.71 -76.03,-20.71"
         style="fill:#221d1d;fill-opacity:1;fill-rule:nonzero;stroke:none"
         id="path64" />
      <path
         d="m 4793.71,1737.89 v 40.19 h 46.39 v 55.65 c 0,27.57 7.12,48.91 21.32,63.97 14.22,15.05 33.9,22.58 59.05,22.58 15.66,0 30.09,-3.11 43.28,-9.29 v -40.19 c -13.19,6.18 -26.58,9.3 -40.19,9.3 -12.77,0 -22.66,-3.95 -29.67,-11.74 -7.01,-7.84 -10.51,-19.41 -10.51,-34.63 v -55.65 h 71.1 v -40.19 h -71.1 v -256.58 h -43.28 v 256.58 h -46.39"
         style="fill:#221d1d;fill-opacity:1;fill-rule:nonzero;stroke:none"
         id="path66" />
      <path
         d="m 4966.81,1737.89 v 40.19 h 34.01 c 7.84,0 13.91,2.49 18.25,7.42 4.33,4.93 6.49,12.77 6.49,23.47 v 68.01 h 40.18 v -98.9 h 64.93 v -40.19 h -64.93 v -176.21 c 0,-15.27 3.51,-26.79 10.52,-34.63 7.01,-7.84 16.9,-11.74 29.67,-11.74 13.6,0 27,3.07 40.18,9.3 v -40.19 c -13.18,-6.23 -27.2,-9.29 -42.02,-9.29 -25.57,0 -45.56,7.53 -59.97,22.58 -14.43,15.01 -21.65,36.34 -21.65,63.97 v 176.21 h -55.66"
         style="fill:#221d1d;fill-opacity:1;fill-rule:nonzero;stroke:none"
         id="path68" />
      <path
         d="m 5149.2,1778.08 h 46.37 l 76.68,-227.51 h 1.22 l 73.6,227.51 h 37.1 l 73.57,-227.51 h 1.21 l 76.69,227.51 h 46.37 l -102.03,-296.77 h -40.18 l -73.57,224.44 h -1.25 l -73.57,-224.44 h -40.18 l -102.03,296.77"
         style="fill:#221d1d;fill-opacity:1;fill-rule:nonzero;stroke:none"
         id="path70" />
      <path
         d="m 5699.47,1515.31 c 18.54,0 35.02,4.1 49.45,12.36 14.41,8.25 25.76,19.88 34.01,34.94 8.23,15.06 12.36,32.24 12.36,51.61 v 18.59 l -102.02,-18.59 c -18.54,-3.27 -32.45,-9.35 -41.72,-18.23 -9.26,-8.87 -13.91,-20.3 -13.91,-34.31 0,-8.26 2.36,-16 7.11,-23.16 4.72,-7.22 11.84,-12.93 21.31,-17.03 9.5,-4.1 20.61,-6.18 33.41,-6.18 z m 21.63,268.94 c 22.27,0 42.36,-5.03 60.28,-15.16 17.93,-10.07 31.95,-23.78 42.05,-41.12 10.1,-17.29 15.14,-36.65 15.14,-58.09 v -188.57 h -43.28 v 38.93 h -0.62 c -9.48,-12.77 -22.46,-23.46 -38.95,-32.13 -16.48,-8.67 -35.24,-12.98 -56.25,-12.98 -19.8,0 -37.72,4.1 -53.79,12.35 -16.09,8.26 -28.65,19.06 -37.71,32.45 -9.09,13.4 -13.61,27.31 -13.61,41.75 0,24.71 7.42,44.7 22.25,59.96 14.85,15.27 36.27,25.13 64.3,29.7 l 114.38,18.54 v 1.24 c 0,14.02 -3.2,26.48 -9.58,37.38 -6.39,10.96 -15.26,19.58 -26.58,25.96 -11.35,6.39 -24.01,9.61 -38.03,9.61 -17.32,0 -33.18,-4.21 -47.61,-12.67 -14.44,-8.46 -26.38,-18.64 -35.85,-30.63 l -27.83,27.83 c 12.35,15.68 28.24,28.86 47.61,39.56 19.36,10.75 40.6,16.09 63.68,16.09"
         style="fill:#221d1d;fill-opacity:1;fill-rule:nonzero;stroke:none"
         id="path72" />
      <path
         d="m 6048.79,1740.95 c -16.52,0 -31.89,-3.89 -46.11,-11.73 -14.22,-7.84 -25.54,-19.05 -33.95,-33.7 -8.47,-14.64 -12.67,-31.41 -12.67,-50.36 v -163.85 h -43.3 v 296.77 h 43.3 v -38.94 h 1.25 c 9.44,12.77 22.63,23.46 39.56,32.13 16.92,8.67 36.23,12.98 58.14,12.98 h 12.36 v -43.3 c -3.73,0 -7.16,0 -10.28,0 -3.01,0 -5.81,0 -8.3,0"
         style="fill:#221d1d;fill-opacity:1;fill-rule:nonzero;stroke:none"
         id="path74" />
      <path
         d="m 6317.72,1651.34 c -2.07,17.29 -7.62,33.07 -16.71,47.3 -9.09,14.22 -20.72,25.34 -34.94,33.38 -14.23,8.05 -29.96,12.05 -47.3,12.05 -16.88,0 -32.76,-4.21 -47.61,-12.67 -14.8,-8.46 -27.11,-19.78 -36.76,-34.01 -9.71,-14.22 -15.58,-29.59 -17.65,-46.05 z m 27.84,-114.38 c -13.24,-17.34 -30.53,-31.98 -51.98,-43.92 -21.44,-11.94 -45.32,-17.91 -71.7,-17.91 -26.37,0 -51.03,6.9 -73.88,20.71 -22.89,13.81 -41.01,32.45 -54.41,55.97 -13.39,23.47 -20.09,49.43 -20.09,77.88 0,28.04 6.7,53.89 20.09,77.57 13.4,23.72 31.2,42.47 53.48,56.28 22.27,13.81 46.16,20.71 71.7,20.71 26.37,0 50.52,-6.38 72.37,-19.15 21.81,-12.78 38.95,-30.43 51.3,-52.86 12.36,-22.48 18.53,-47.92 18.53,-76.37 0,-5.35 -0.41,-10.13 -1.24,-14.23 -0.83,-4.1 -1.46,-6.59 -1.82,-7.42 h -241.16 c 0.83,-17.29 6.23,-33.59 16.09,-48.81 9.92,-15.26 22.69,-27.46 38.32,-36.5 15.68,-9.08 32.55,-13.6 50.72,-13.6 20.62,0 39.15,4.83 55.66,14.54 16.46,9.66 29.85,21.34 40.18,34.94 l 27.84,-27.83"
         style="fill:#221d1d;fill-opacity:1;fill-rule:nonzero;stroke:none"
         id="path76" />
      <path
         d="m 6741.23,1651.34 c -2.07,17.29 -7.63,33.07 -16.72,47.3 -9.08,14.22 -20.71,25.34 -34.94,33.38 -14.22,8.05 -29.96,12.05 -47.3,12.05 -16.87,0 -32.76,-4.21 -47.61,-12.67 -14.79,-8.46 -27.1,-19.78 -36.76,-34.01 -9.7,-14.22 -15.57,-29.59 -17.65,-46.05 z m 27.83,-114.38 c -13.24,-17.34 -30.53,-31.98 -51.97,-43.92 -21.44,-11.94 -45.33,-17.91 -71.7,-17.91 -26.38,0 -51.04,6.9 -73.88,20.71 -22.9,13.81 -41.02,32.45 -54.42,55.97 -13.39,23.47 -20.09,49.43 -20.09,77.88 0,28.04 6.7,53.89 20.09,77.57 13.4,23.72 31.21,42.47 53.48,56.28 22.28,13.81 46.16,20.71 71.7,20.71 26.38,0 50.52,-6.38 72.38,-19.15 21.81,-12.78 38.94,-30.43 51.3,-52.86 12.35,-22.48 18.53,-47.92 18.53,-76.37 0,-5.35 -0.42,-10.13 -1.25,-14.23 -0.82,-4.1 -1.45,-6.59 -1.81,-7.42 h -241.17 c 0.83,-17.29 6.23,-33.59 16.1,-48.81 9.92,-15.26 22.69,-27.46 38.31,-36.5 15.69,-9.08 32.56,-13.6 50.73,-13.6 20.61,0 39.15,4.83 55.66,14.54 16.46,9.66 29.85,21.34 40.18,34.94 l 27.83,-27.83"
         style="fill:#221d1d;fill-opacity:1;fill-rule:nonzero;stroke:none"
         id="path78" />
      <path
         d="m 6883.44,1914.1 v -432.79 h -43.3 v 432.79 h 43.3"
         style="fill:#221d1d;fill-opacity:1;fill-rule:nonzero;stroke:none"
         id="path80" />
      <path
         d="m 7004,1778.08 v -296.77 h -43.25 v 296.77 z m -49.43,98.9 c 0,7.84 2.65,14.44 8,19.78 5.34,5.35 11.99,8.05 19.77,8.05 7.85,0 14.44,-2.7 19.84,-8.05 5.35,-5.34 8,-11.94 8,-19.78 0,-7.84 -2.65,-14.43 -8,-19.78 -5.4,-5.35 -11.99,-8.05 -19.84,-8.05 -7.78,0 -14.43,2.7 -19.77,8.05 -5.35,5.35 -8,11.94 -8,19.78"
         style="fill:#221d1d;fill-opacity:1;fill-rule:nonzero;stroke:none"
         id="path82" />
      <path
         d="m 7047.24,1737.89 v 40.19 h 34.01 c 7.84,0 13.92,2.49 18.22,7.42 4.37,4.93 6.55,12.77 6.55,23.47 v 68.01 h 40.19 v -98.9 h 64.89 v -40.19 h -64.89 v -176.21 c 0,-15.27 3.47,-26.79 10.48,-34.63 7.01,-7.84 16.87,-11.74 29.7,-11.74 13.6,0 26.95,3.07 40.19,9.3 v -40.19 c -13.24,-6.23 -27.21,-9.29 -42.06,-9.29 -25.54,0 -45.53,7.53 -59.97,22.58 -14.43,15.01 -21.65,36.34 -21.65,63.97 v 176.21 h -55.66"
         style="fill:#221d1d;fill-opacity:1;fill-rule:nonzero;stroke:none"
         id="path84" />
      <path
         d="m 7492.46,1651.34 c -2.08,17.29 -7.64,33.07 -16.72,47.3 -9.09,14.22 -20.72,25.34 -34.94,33.38 -14.23,8.05 -29.96,12.05 -47.31,12.05 -16.87,0 -32.76,-4.21 -47.61,-12.67 -14.79,-8.46 -27.1,-19.78 -36.75,-34.01 -9.71,-14.22 -15.58,-29.59 -17.66,-46.05 z m 27.82,-114.38 c -13.24,-17.34 -30.52,-31.98 -51.97,-43.92 -21.44,-11.94 -45.33,-17.91 -71.7,-17.91 -26.38,0 -51.03,6.9 -73.88,20.71 -22.9,13.81 -41.02,32.45 -54.41,55.97 -13.4,23.47 -20.1,49.43 -20.1,77.88 0,28.04 6.7,53.89 20.1,77.57 13.39,23.72 31.2,42.47 53.48,56.28 22.27,13.81 46.15,20.71 71.69,20.71 26.38,0 50.52,-6.38 72.38,-19.15 21.81,-12.78 38.94,-30.43 51.3,-52.86 12.35,-22.48 18.53,-47.92 18.53,-76.37 0,-5.35 -0.41,-10.13 -1.24,-14.23 -0.83,-4.1 -1.46,-6.59 -1.82,-7.42 h -241.17 c 0.83,-17.29 6.24,-33.59 16.1,-48.81 9.91,-15.26 22.69,-27.46 38.31,-36.5 15.68,-9.08 32.56,-13.6 50.73,-13.6 20.61,0 39.15,4.83 55.66,14.54 16.46,9.66 29.85,21.34 40.19,34.94 l 27.82,-27.83"
         style="fill:#221d1d;fill-opacity:1;fill-rule:nonzero;stroke:none"
         id="path86" />
      <path
         d="m 4385.68,1133.6 c -16.48,0 -31.85,-3.89 -46.05,-11.73 -14.23,-7.84 -25.57,-19.05 -34.01,-33.7 -8.46,-14.64 -12.69,-31.41 -12.69,-50.36 V 873.949 h -43.28 v 296.771 h 43.28 v -38.93 h 1.24 c 9.48,12.77 22.66,23.46 39.56,32.13 16.9,8.68 36.27,12.98 58.13,12.98 h 12.36 v -43.3 c -3.69,0 -7.09,0 -10.21,0 -3.09,0 -5.86,0 -8.33,0"
         style="fill:#221d1d;fill-opacity:1;fill-rule:nonzero;stroke:none"
         id="path88" />
      <path
         d="m 4654.62,1043.99 c -2.05,17.29 -7.63,33.07 -16.69,47.3 -9.06,14.22 -20.72,25.33 -34.92,33.38 -14.22,8.05 -30,12.04 -47.29,12.04 -16.93,0 -32.79,-4.2 -47.61,-12.66 -14.85,-8.46 -27.11,-19.78 -36.79,-34.01 -9.71,-14.23 -15.58,-29.59 -17.63,-46.05 z m 27.83,-114.381 c -13.19,-17.339 -30.5,-31.98 -51.94,-43.918 -21.42,-11.941 -45.33,-17.91 -71.7,-17.91 -26.41,0 -51.02,6.899 -73.89,20.707 -22.89,13.813 -41.01,32.453 -54.41,55.973 -13.39,23.461 -20.09,49.43 -20.09,77.879 0,28.03 6.7,53.89 20.09,77.57 13.4,23.73 31.23,42.47 53.48,56.28 22.25,13.81 46.15,20.71 71.73,20.71 26.37,0 50.46,-6.38 72.32,-19.15 21.85,-12.78 38.96,-30.43 51.32,-52.86 12.36,-22.48 18.54,-47.92 18.54,-76.37 0,-5.35 -0.42,-10.13 -1.22,-14.23 -0.83,-4.1 -1.46,-6.59 -1.87,-7.42 h -241.12 c 0.83,-17.292 6.18,-33.6 16.07,-48.811 9.89,-15.258 22.67,-27.457 38.35,-36.5 15.65,-9.079 32.55,-13.598 50.7,-13.598 20.58,0 39.14,4.828 55.63,14.539 16.48,9.648 29.88,21.34 40.18,34.941 l 27.83,-27.832"
         style="fill:#221d1d;fill-opacity:1;fill-rule:nonzero;stroke:none"
         id="path90" />
      <path
         d="m 4753.53,951.262 c 8.25,-11.992 19.18,-22.172 32.79,-30.633 13.6,-8.469 28.42,-12.668 44.49,-12.668 21.03,0 37.09,4.617 48.23,13.91 11.14,9.297 16.7,21.141 16.7,35.57 0,9.45 -2.99,17.289 -8.96,23.469 -5.97,6.18 -13.61,11.211 -22.87,15.149 -9.3,3.902 -21.34,8.161 -36.19,12.671 -20.2,6.18 -36.37,12.05 -48.52,17.61 -12.17,5.6 -22.58,13.8 -31.23,24.76 -8.64,10.91 -12.98,25.03 -12.98,42.32 0,14.43 4.23,28.03 12.67,40.81 8.44,12.77 20.2,23.1 35.25,30.94 15.03,7.84 32.04,11.73 51.02,11.73 20.17,0 38.62,-3.89 55.32,-11.73 16.69,-7.84 30.19,-17.34 40.49,-28.46 l -30.91,-30.89 c -6.6,8.62 -15.56,15.94 -26.9,21.91 -11.35,5.97 -24.01,8.98 -38,8.98 -16.52,0 -29.91,-4.3 -40.22,-12.97 -10.3,-8.68 -15.44,-18.74 -15.44,-30.32 0,-9.04 2.88,-16.46 8.64,-22.23 5.79,-5.81 13.01,-10.43 21.65,-13.91 8.67,-3.53 20.61,-7.53 35.85,-12.05 20.2,-6.18 36.58,-12.19 49.17,-17.96 12.57,-5.76 23.28,-14.33 32.14,-25.65 8.88,-11.319 13.29,-26.061 13.29,-44.179 0,-16.511 -4.31,-31.57 -12.98,-45.171 -8.64,-13.602 -21.23,-24.399 -37.72,-32.45 -16.48,-8.05 -35.64,-12.039 -57.5,-12.039 -24.32,0 -45.74,5.028 -64.28,15.149 -18.56,10.082 -33.2,22.539 -43.89,37.379 l 30.89,30.953"
         style="fill:#221d1d;fill-opacity:1;fill-rule:nonzero;stroke:none"
         id="path92" />
      <path
         d="m 5214.13,1043.99 c -2.05,17.29 -7.63,33.07 -16.69,47.3 -9.06,14.22 -20.72,25.33 -34.92,33.38 -14.22,8.05 -30.01,12.04 -47.3,12.04 -16.92,0 -32.78,-4.2 -47.6,-12.66 -14.85,-8.46 -27.11,-19.78 -36.79,-34.01 -9.71,-14.23 -15.58,-29.59 -17.63,-46.05 z m 27.83,-114.381 c -13.19,-17.339 -30.51,-31.98 -51.95,-43.918 -21.41,-11.941 -45.32,-17.91 -71.7,-17.91 -26.4,0 -51.01,6.899 -73.88,20.707 -22.89,13.813 -41.01,32.453 -54.41,55.973 -13.39,23.461 -20.09,49.43 -20.09,77.879 0,28.03 6.7,53.89 20.09,77.57 13.4,23.73 31.23,42.47 53.48,56.28 22.24,13.81 46.15,20.71 71.72,20.71 26.38,0 50.47,-6.38 72.33,-19.15 21.86,-12.78 38.96,-30.43 51.32,-52.86 12.36,-22.48 18.53,-47.92 18.53,-76.37 0,-5.35 -0.41,-10.13 -1.21,-14.23 -0.84,-4.1 -1.46,-6.59 -1.87,-7.42 H 5013.2 c 0.84,-17.292 6.18,-33.6 16.07,-48.811 9.89,-15.258 22.67,-27.457 38.35,-36.5 15.65,-9.079 32.55,-13.598 50.69,-13.598 20.59,0 39.15,4.828 55.64,14.539 16.48,9.648 29.88,21.34 40.18,34.941 l 27.83,-27.832"
         style="fill:#221d1d;fill-opacity:1;fill-rule:nonzero;stroke:none"
         id="path94" />
      <path
         d="M 5356.36,1306.75 V 873.949 h -43.3 v 432.801 h 43.3"
         style="fill:#221d1d;fill-opacity:1;fill-rule:nonzero;stroke:none"
         id="path96" />
      <path
         d="M 5480.01,1306.75 V 873.949 h -43.3 v 432.801 h 43.3"
         style="fill:#221d1d;fill-opacity:1;fill-rule:nonzero;stroke:none"
         id="path98" />
      <path
         d="m 5779.84,1043.99 c -2.05,17.29 -7.63,33.07 -16.69,47.3 -9.06,14.22 -20.72,25.33 -34.91,33.38 -14.23,8.05 -30.01,12.04 -47.3,12.04 -16.93,0 -32.79,-4.2 -47.61,-12.66 -14.85,-8.46 -27.11,-19.78 -36.79,-34.01 -9.71,-14.23 -15.58,-29.59 -17.62,-46.05 z m 27.83,-114.381 c -13.18,-17.339 -30.5,-31.98 -51.95,-43.918 -21.41,-11.941 -45.32,-17.91 -71.69,-17.91 -26.41,0 -51.02,6.899 -73.88,20.707 -22.9,13.813 -41.02,32.453 -54.42,55.973 -13.39,23.461 -20.09,49.43 -20.09,77.879 0,28.03 6.7,53.89 20.09,77.57 13.4,23.73 31.23,42.47 53.48,56.28 22.25,13.81 46.16,20.71 71.73,20.71 26.37,0 50.46,-6.38 72.32,-19.15 21.86,-12.78 38.97,-30.43 51.32,-52.86 12.36,-22.48 18.54,-47.92 18.54,-76.37 0,-5.35 -0.42,-10.13 -1.22,-14.23 -0.83,-4.1 -1.46,-6.59 -1.87,-7.42 h -241.11 c 0.83,-17.292 6.18,-33.6 16.06,-48.811 9.89,-15.258 22.67,-27.457 38.35,-36.5 15.65,-9.079 32.55,-13.598 50.7,-13.598 20.58,0 39.14,4.828 55.63,14.539 16.48,9.648 29.88,21.34 40.18,34.941 l 27.83,-27.832"
         style="fill:#221d1d;fill-opacity:1;fill-rule:nonzero;stroke:none"
         id="path100" />
      <path
         d="m 6011.66,1133.6 c -16.46,0 -31.82,-3.89 -46.05,-11.73 -14.23,-7.84 -25.55,-19.05 -33.96,-33.7 -8.51,-14.64 -12.71,-31.41 -12.71,-50.36 V 873.949 h -43.28 v 296.771 h 43.28 v -38.93 h 1.24 c 9.5,12.77 22.69,23.46 39.56,32.13 16.93,8.68 36.3,12.98 58.15,12.98 h 12.36 v -43.3 c -3.74,0 -7.12,0 -10.23,0 -3.06,0 -5.86,0 -8.36,0"
         style="fill:#221d1d;fill-opacity:1;fill-rule:nonzero;stroke:none"
         id="path102" />
      <path
         d="M 3181.92,3327.29 V 57.2305"
         style="fill:none;stroke:#231f20;stroke-width:20;stroke-linecap:round;stroke-linejoin:miter;stroke-miterlimit:10;stroke-dasharray:none;stroke-opacity:1"
         id="path104" />
    </g>
  </g>
</svg>
