<?xml version="1.0" encoding="UTF-8" standalone="no"?>
<!DOCTYPE svg PUBLIC "-//W3C//DTD SVG 1.1//EN" "http://www.w3.org/Graphics/SVG/1.1/DTD/svg11.dtd">
<svg xmlns="http://www.w3.org/2000/svg" xmlns:xlink="http://www.w3.org/1999/xlink" version="1.1" width="308.667pt" height="100.453pt" viewBox="0 0 308.667 100.453">
<g enable-background="new">
<g id="Layer-1" data-name="Layer 1">
<clipPath id="cp0">
<path transform="matrix(1,0,0,-1,0,100.453)" d="M 0 100.453 L 308.667 100.453 L 308.667 0 L 0 0 Z "/>
</clipPath>
<g clip-path="url(#cp0)">
<path transform="matrix(1,0,0,-1,49.9743,38.073606)" d="M 0 0 L 0 -4.203 C 0 -5.245 -.845 -6.09 -1.887 -6.09 L -6.09 -6.09 C -7.132 -6.09 -7.977 -5.245 -7.977 -4.203 L -7.977 0 C -7.977 1.042 -7.132 1.887 -6.09 1.887 L -1.887 1.887 C -.845 1.887 0 1.042 0 0 " fill="#17445c"/>
<path transform="matrix(1,0,0,-1,49.4567,60.706605)" d="M 0 0 L 0 -2.753 C 0 -3.535 -.634 -4.169 -1.415 -4.169 L -4.169 -4.169 C -4.95 -4.169 -5.584 -3.535 -5.584 -2.753 L -5.584 0 C -5.584 .782 -4.95 1.415 -4.169 1.415 L -1.415 1.415 C -.634 1.415 0 .782 0 0 " fill="#17445c"/>
<path transform="matrix(1,0,0,-1,37.8093,49.766805)" d="M 0 0 L 0 -2.753 C 0 -3.535 -.634 -4.169 -1.415 -4.169 L -4.169 -4.169 C -4.95 -4.169 -5.584 -3.535 -5.584 -2.753 L -5.584 0 C -5.584 .782 -4.95 1.415 -4.169 1.415 L -1.415 1.415 C -.634 1.415 0 .782 0 0 " fill="#17445c"/>
<path transform="matrix(1,0,0,-1,64.4381,46.7783)" d="M 0 0 L 0 -7.034 C 0 -7.294 -.211 -7.505 -.472 -7.505 L -7.505 -7.505 C -7.766 -7.505 -7.977 -7.294 -7.977 -7.034 L -7.977 0 C -7.977 .261 -7.766 .472 -7.505 .472 L -.472 .472 C -.211 .472 0 .261 0 0 " fill="#cf2032"/>
<path transform="matrix(1,0,0,-1,63.2702,70.04961)" d="M 0 0 L 0 -6.004 C 0 -6.226 -.18 -6.407 -.403 -6.407 L -6.407 -6.407 C -6.629 -6.407 -6.809 -6.226 -6.809 -6.004 L -6.809 0 C -6.809 .222 -6.629 .403 -6.407 .403 L -.403 .403 C -.18 .403 0 .222 0 0 " fill="#cf2032"/>
<path transform="matrix(1,0,0,-1,86.9393,45.1099)" d="M 0 0 L -4.198 0 C -7.075 0 -9.429 2.354 -9.429 5.231 L -9.429 9.429 C -9.429 9.909 -9.818 10.297 -10.297 10.297 L -15.402 10.297 C -17.761 10.297 -19.69 12.227 -19.69 14.585 L -19.69 19.69 C -19.69 20.17 -20.079 20.558 -20.558 20.558 L -29.591 20.558 C -30.07 20.558 -30.459 20.17 -30.459 19.69 L -30.459 10.657 C -30.459 10.177 -30.07 9.789 -29.591 9.789 L -24.486 9.789 C -22.128 9.789 -20.198 7.859 -20.198 5.501 L -20.198 .396 C -20.198 -.083 -19.81 -.472 -19.33 -.472 L -13.008 -.472 C -11.299 -.472 -9.901 -1.87 -9.901 -3.578 L -9.901 -7.671 C -9.901 -9.115 -11.083 -10.297 -12.528 -10.297 L -19.33 -10.297 C -19.81 -10.297 -20.198 -10.686 -20.198 -11.165 L -20.198 -20.198 C -20.198 -20.678 -19.81 -21.066 -19.33 -21.066 L -10.297 -21.066 C -9.818 -21.066 -9.429 -20.678 -9.429 -20.198 L -9.429 -14.821 C -9.429 -12.592 -7.606 -10.769 -5.377 -10.769 L 0 -10.769 C .479 -10.769 .868 -10.38 .868 -9.901 L .868 -.868 C .868 -.388 .479 0 0 0 " fill="#cf2032"/>
<path transform="matrix(1,0,0,-1,102.8142,57.651704)" d="M 0 0 L 0 .982 C 0 1.409 .224 1.623 .673 1.623 L 3.214 1.623 C 3.663 1.623 3.889 1.409 3.889 .982 L 3.889 .302 C 3.889 -.756 4.134 -1.517 4.625 -1.983 C 5.114 -2.449 5.928 -2.681 7.066 -2.681 L 9.805 -2.681 C 10.942 -2.681 11.763 -2.437 12.265 -1.946 C 12.768 -1.455 13.022 -.655 13.022 .454 L 13.022 1.321 C 13.022 2.128 12.697 2.762 12.049 3.23 C 11.399 3.696 10.598 3.998 9.646 4.136 C 8.694 4.275 7.647 4.47 6.511 4.722 C 5.372 4.973 4.327 5.263 3.373 5.591 C 2.421 5.918 1.621 6.534 .971 7.442 C .323 8.348 0 9.506 0 10.917 L 0 12.503 C 0 14.34 .549 15.784 1.646 16.828 C 2.744 17.872 4.261 18.396 6.193 18.396 L 10.4 18.396 C 12.358 18.396 13.886 17.872 14.986 16.828 C 16.083 15.784 16.632 14.34 16.632 12.503 L 16.632 11.673 C 16.632 11.244 16.408 11.03 15.959 11.03 L 13.418 11.03 C 12.966 11.03 12.743 11.244 12.743 11.673 L 12.743 12.164 C 12.743 13.245 12.498 14.02 12.007 14.486 C 11.518 14.951 10.705 15.184 9.566 15.184 L 7.066 15.184 C 5.928 15.184 5.114 14.94 4.625 14.449 C 4.134 13.958 3.889 13.121 3.889 11.936 L 3.889 10.765 C 3.889 9.632 4.749 8.865 6.469 8.461 C 7.237 8.284 8.079 8.134 8.992 8.007 C 9.905 7.883 10.824 7.694 11.751 7.442 C 12.676 7.189 13.522 6.857 14.292 6.439 C 15.057 6.024 15.68 5.395 16.157 4.551 C 16.632 3.707 16.872 2.681 16.872 1.473 L 16.872 0 C 16.872 -1.84 16.321 -3.281 15.223 -4.325 C 14.126 -5.37 12.609 -5.893 10.679 -5.893 L 6.232 -5.893 C 4.3 -5.893 2.778 -5.37 1.667 -4.325 C .556 -3.281 0 -1.84 0 0 " fill="#17445c"/>
<path transform="matrix(1,0,0,-1,131.3175,51.6458)" d="M 0 0 L 5.279 0 C 7.158 0 8.099 .931 8.099 2.794 L 8.099 6.384 C 8.099 8.247 7.158 9.178 5.279 9.178 L 0 9.178 C -.293 9.178 -.436 9.051 -.436 8.8 L -.436 .378 C -.436 .124 -.293 0 0 0 M -1.111 -11.899 L -3.613 -11.899 C -4.062 -11.899 -4.288 -11.684 -4.288 -11.256 L -4.288 11.747 C -4.288 12.175 -4.062 12.39 -3.613 12.39 L 5.835 12.39 C 7.767 12.39 9.275 11.88 10.361 10.859 C 11.447 9.84 11.989 8.399 11.989 6.534 L 11.989 2.605 C 11.989 .768 11.447 -.669 10.361 -1.699 C 9.275 -2.732 7.767 -3.248 5.835 -3.248 L .039 -3.248 C -.279 -3.248 -.436 -3.375 -.436 -3.627 L -.436 -11.256 C -.436 -11.684 -.662 -11.899 -1.111 -11.899 " fill="#17445c"/>
<path transform="matrix(1,0,0,-1,163.3551,63.544706)" d="M 0 0 L -12.706 0 C -13.155 0 -13.379 .215 -13.379 .643 L -13.379 23.645 C -13.379 24.074 -13.155 24.289 -12.706 24.289 L 0 24.289 C .422 24.289 .634 24.074 .634 23.645 L .634 21.721 C .634 21.292 .422 21.077 0 21.077 L -9.051 21.077 C -9.37 21.077 -9.529 20.95 -9.529 20.699 L -9.529 14.317 C -9.529 14.064 -9.37 13.939 -9.051 13.939 L -1.39 13.939 C -.913 13.939 -.676 13.725 -.676 13.296 L -.676 11.371 C -.676 10.942 -.913 10.728 -1.39 10.728 L -9.051 10.728 C -9.37 10.728 -9.529 10.601 -9.529 10.35 L -9.529 3.627 C -9.529 3.35 -9.37 3.212 -9.051 3.212 L 0 3.212 C .422 3.212 .634 2.997 .634 2.568 L .634 .643 C .634 .215 .422 0 0 0 " fill="#17445c"/>
<path transform="matrix(1,0,0,-1,184.3954,63.544706)" d="M 0 0 L -12.704 0 C -13.153 0 -13.379 .215 -13.379 .643 L -13.379 23.645 C -13.379 24.074 -13.153 24.289 -12.704 24.289 L 0 24.289 C .424 24.289 .636 24.074 .636 23.645 L .636 21.721 C .636 21.292 .424 21.077 0 21.077 L -9.052 21.077 C -9.37 21.077 -9.527 20.95 -9.527 20.699 L -9.527 14.317 C -9.527 14.064 -9.37 13.939 -9.052 13.939 L -1.39 13.939 C -.913 13.939 -.676 13.725 -.676 13.296 L -.676 11.371 C -.676 10.942 -.913 10.728 -1.39 10.728 L -9.052 10.728 C -9.37 10.728 -9.527 10.601 -9.527 10.35 L -9.527 3.627 C -9.527 3.35 -9.37 3.212 -9.052 3.212 L 0 3.212 C .424 3.212 .636 2.997 .636 2.568 L .636 .643 C .636 .215 .424 0 0 0 " fill="#17445c"/>
<path transform="matrix(1,0,0,-1,246.8013,63.544706)" d="M 0 0 L -2.499 0 C -2.977 0 -3.214 .215 -3.214 .643 L -3.214 20.699 C -3.214 20.95 -3.348 21.077 -3.613 21.077 L -8.613 21.077 C -9.091 21.077 -9.328 21.292 -9.328 21.721 L -9.328 23.645 C -9.328 24.074 -9.091 24.289 -8.613 24.289 L 6.114 24.289 C 6.592 24.289 6.829 24.074 6.829 23.645 L 6.829 21.721 C 6.829 21.292 6.592 21.077 6.114 21.077 L 1.111 21.077 C .821 21.077 .676 20.95 .676 20.699 L .676 .643 C .676 .215 .45 0 0 0 " fill="#17445c"/>
<path transform="matrix(1,0,0,-1,207.0449,40.786905)" d="M 0 0 C -1.1 1.021 -2.615 1.531 -4.546 1.531 L -14.313 1.531 C -14.763 1.531 -14.989 1.317 -14.989 .888 L -14.989 -6.665 L -11.136 -6.665 L -11.136 -2.059 C -11.136 -1.808 -10.993 -1.681 -10.7 -1.681 L -5.102 -1.681 C -3.198 -1.681 -2.244 -2.612 -2.244 -4.475 L -2.244 -16.752 C -2.244 -18.615 -3.198 -19.546 -5.102 -19.546 L -10.7 -19.546 C -10.993 -19.546 -11.136 -19.408 -11.136 -19.131 L -11.136 -14.562 L -14.989 -14.562 L -14.989 -22.115 C -14.989 -22.543 -14.763 -22.758 -14.313 -22.758 L -4.546 -22.758 C -2.615 -22.758 -1.1 -22.241 0 -21.209 C 1.097 -20.178 1.646 -18.741 1.646 -16.902 L 1.646 -4.325 C 1.646 -2.46 1.097 -1.019 0 0 " fill="#17445c"/>
<path transform="matrix(1,0,0,-1,195.8479,50.448904)" d="M 0 0 L 0 -1.903 C 0 -2.443 -.438 -2.881 -.978 -2.881 L -2.881 -2.881 C -3.421 -2.881 -3.859 -2.443 -3.859 -1.903 L -3.859 0 C -3.859 .54 -3.421 .978 -2.881 .978 L -.978 .978 C -.438 .978 0 .54 0 0 " fill="#cf2032"/>
<path transform="matrix(1,0,0,-1,224.1196,42.502805)" d="M 0 0 L -3.342 -12.152 L 3.532 -12.152 L .152 0 Z M -6.228 -20.773 L -8.962 -20.773 C -9.317 -20.773 -9.444 -20.558 -9.342 -20.127 L -2.734 3 C -2.608 3.43 -2.304 3.646 -1.823 3.646 L 1.975 3.646 C 2.481 3.646 2.785 3.43 2.886 3 L 9.494 -20.127 C 9.595 -20.558 9.456 -20.773 9.076 -20.773 L 6.38 -20.773 C 6.152 -20.773 5.994 -20.729 5.905 -20.64 C 5.816 -20.552 5.747 -20.38 5.696 -20.127 L 4.253 -15.19 L -4.101 -15.19 L -5.544 -20.127 C -5.646 -20.558 -5.874 -20.773 -6.228 -20.773 " fill="#17445c"/>
<path transform="matrix(1,0,0,-1,266.9156,42.502805)" d="M 0 0 L -3.342 -12.152 L 3.532 -12.152 L .152 0 Z M -6.228 -20.773 L -8.962 -20.773 C -9.317 -20.773 -9.444 -20.558 -9.342 -20.127 L -2.734 3 C -2.608 3.43 -2.304 3.646 -1.823 3.646 L 1.975 3.646 C 2.481 3.646 2.785 3.43 2.886 3 L 9.494 -20.127 C 9.595 -20.558 9.456 -20.773 9.076 -20.773 L 6.38 -20.773 C 6.152 -20.773 5.994 -20.729 5.905 -20.64 C 5.816 -20.552 5.747 -20.38 5.696 -20.127 L 4.253 -15.19 L -4.101 -15.19 L -5.544 -20.127 C -5.646 -20.558 -5.874 -20.773 -6.228 -20.773 " fill="#17445c"/>
</g>
</g>
</g>
</svg>
