<?xml version="1.0" encoding="UTF-8"?>
<svg width="400px" height="74px" viewBox="0 0 400 74" version="1.1" xmlns="http://www.w3.org/2000/svg" xmlns:xlink="http://www.w3.org/1999/xlink">
    <!-- Generator: Sketch 53.2 (72643) - https://sketchapp.com -->
    <title>Group 23</title>
    <desc>Created with Sketch.</desc>
    <defs>
        <path d="M381.512517,22.764913 L381.512517,33.9220346 L397.840436,33.9220346 L397.840436,37.5363924 L381.512517,37.5363924 L381.512517,45.3936919 C381.512517,49.7413976 383.408474,51.6792878 387.727602,51.6792878 L400,51.6792878 L400,55.5555556 L386.99019,55.5555556 C379.300281,55.5555556 376.666667,53.0412197 376.666667,45.8127478 L376.666667,18.8888889 L400,18.8888889 L400,22.764913 L381.512517,22.764913 Z" id="path-1"></path>
    </defs>
    <g id="Desktop-[1200]" stroke="none" stroke-width="1" fill="none" fill-rule="evenodd">
        <g id="Group-23">
            <path d="M116.666667,46.6506161 C116.666667,52.3078718 113.432395,55.5555556 107.07014,55.5555556 L91.853403,55.5555556 L91.853403,48.85066 L105.267184,48.85066 C107.228956,48.85066 108.183578,48.169694 108.183578,46.4413318 C108.183578,45.0270179 107.123161,44.1365239 104.790243,42.5126821 L96.8373627,36.4363705 C92.8077782,33.3982147 91.1111111,30.5695868 91.1111111,27.2171391 C91.1111111,21.5077451 94.5044454,18.8888889 101.184826,18.8888889 L116.030416,18.8888889 L116.030416,25.5935408 L102.669409,25.5935408 C100.601596,25.5935408 99.5942002,26.2745068 99.5942002,28.0554946 C99.5942002,29.4174266 100.654617,30.3079205 103.040555,31.8791368 L110.940415,37.3268644 C114.97,40.0507282 116.666667,43.350794 116.666667,46.6506161" id="Fill-1" fill="#28286E"></path>
            <polygon id="Fill-3" fill="#28286E" points="147.777778 25.5937399 138.16247 25.5937399 138.16247 55.5555556 129.615308 55.5555556 129.615308 25.5937399 120 25.5937399 120 18.8888889 147.777778 18.8888889"></polygon>
            <path d="M170.706895,42.3555361 L165.607592,27.845723 L160.456011,42.3555361 L170.706895,42.3555361 Z M172.892414,48.483986 L158.218455,48.483986 L155.720961,55.5555556 L146.666667,55.5555556 L161.184517,18.8888889 L169.926352,18.8888889 L184.444444,55.5555556 L175.390392,55.5555556 L172.892414,48.483986 Z" id="Fill-5" fill="#28286E"></path>
            <path d="M198.859173,36.1744605 C203.524226,36.1744605 204.902537,34.5506186 204.902537,30.6745945 C204.902537,26.7983267 203.524226,25.1744848 198.859173,25.1744848 L195.148335,25.1744848 L195.148335,36.1744605 L198.859173,36.1744605 Z M214.444444,55.5555556 L205.909764,55.5555556 L204.266393,48.536368 C203.206154,43.665086 202.251939,42.3555361 198.541101,42.3029104 L195.148335,42.3029104 L195.148335,55.5555556 L186.666667,55.5555556 L186.666667,18.8888889 L201.880855,18.8888889 C209.779391,18.8888889 213.384205,22.345857 213.384205,29.8886209 C213.384205,34.9699182 211.36975,38.0602123 207.288075,39.3173803 C210.203734,40.6793122 211.63481,43.403176 212.801073,48.536368 L214.444444,55.5555556 Z" id="Fill-7" fill="#28286E"></path>
            <path d="M228.261991,36.6461421 L241.429682,18.8888889 L251.292721,18.8888889 L237.453724,36.6461421 L252.222222,55.5555556 L242.359183,55.5555556 L228.261991,36.6461421 Z M220,55.5555556 L228.261991,55.5555556 L228.261991,18.8888889 L220,18.8888889 L220,55.5555556 Z" id="Fill-9" fill="#28286E"></path>
            <polygon id="Fill-11" fill="#28286E" points="306.666667 18.8888889 295.578611 55.5555556 290.397164 55.5555556 281.640759 26.2221248 272.884114 55.5555556 267.651093 55.5555556 256.666667 18.8888889 261.744485 18.8888889 270.39726 49.8459179 279.568422 18.8888889 283.713338 18.8888889 292.8845 49.8459179 301.58909 18.8888889"></polygon>
            <path d="M328.634462,42.5126821 L321.692838,24.1268449 L314.698627,42.5126821 L328.634462,42.5126821 Z M329.949164,46.0222758 L313.383925,46.0222758 L309.755594,55.5555556 L304.444444,55.5555556 L319.116024,18.8888889 L324.217065,18.8888889 L338.888889,55.5555556 L333.577495,55.5555556 L329.949164,46.0222758 Z" id="Fill-13" fill="#28286E"></path>
            <path d="M354.838611,36.8554264 C360.670657,36.8554264 362.844512,34.6032442 362.844512,29.6793365 C362.844512,24.8601929 360.670657,22.5556286 354.838611,22.5556286 L348.211005,22.5556286 L348.211005,36.8554264 L354.838611,36.8554264 Z M368.888889,55.5555556 L363.95795,55.5555556 L362.632429,49.269716 C361.306908,42.72221 359.663261,40.5221662 354.679302,40.4174022 L348.211005,40.4174022 L348.211005,55.5555556 L343.333333,55.5555556 L343.333333,18.8888889 L356.482257,18.8888889 C364.276322,18.8888889 367.72243,22.293475 367.72243,29.2602806 C367.72243,34.4982366 365.548575,37.6935384 360.988783,38.7411783 C364.5942,40.1031102 366.237846,43.193648 367.510347,49.269716 L368.888889,55.5555556 Z" id="Fill-15" fill="#28286E"></path>
            <mask id="mask-2" fill="white">
                <use xlink:href="#path-1"></use>
            </mask>
            <use id="Fill-17" fill="#28286E" xlink:href="#path-1"></use>
            <path d="M35.5034963,41.3691667 L29.2198868,47.8491444 C29.2158571,47.8528111 29.2120645,47.8569667 29.2073238,47.8599 C29.1919164,47.8701667 29.1734275,47.8760333 29.1537535,47.8760333 C29.099235,47.8760333 29.0549091,47.8303222 29.0549091,47.7738556 C29.0549091,47.7626111 29.0565684,47.7513667 29.0601239,47.7411 C29.0601239,47.7408556 29.0596499,47.7420778 29.0596499,47.7418333 L31.4504034,38.5455889 C31.6542551,37.8863222 31.5027886,37.1358778 30.9955297,36.6130111 L24.7119201,30.1327889 C24.7083646,30.1286333 24.704572,30.1247222 24.7014905,30.1198333 C24.691772,30.1041889 24.6858461,30.0851222 24.6858461,30.0648333 C24.6858461,30.0083667 24.730172,29.9626556 24.7849275,29.9626556 C24.7960682,29.9626556 24.8067349,29.9646111 24.8166904,29.9680333 C24.8169275,29.9682778 24.8159793,29.9675444 24.8159793,29.9675444 L33.7337793,32.4332556 C34.3728306,32.6434778 35.1005337,32.4872778 35.6075555,31.9641667 L41.8914021,25.4844333 C41.8954318,25.4805222 41.8992243,25.4763667 41.9039651,25.4734333 C41.9193725,25.4631667 41.9376243,25.4573 41.9575354,25.4573 C42.0120539,25.4573 42.0563798,25.5030111 42.0563798,25.5594778 C42.0563798,25.5709667 42.0544835,25.5819667 42.051165,25.5922333 C42.051165,25.5922333 42.051639,25.5915 42.051639,25.5915 L39.6608855,34.7877444 C39.4570338,35.4467667 39.6085003,36.1974556 40.1155221,36.7203222 L46.3991317,43.2005444 C46.4029243,43.2047 46.4067169,43.2086111 46.4095613,43.2132556 C46.4195169,43.2291444 46.4254428,43.2482111 46.4254428,43.2685 C46.4254428,43.3247222 46.3808799,43.3704333 46.3263614,43.3704333 C46.3152207,43.3704333 46.304554,43.3687222 46.2945985,43.3653 C46.2943614,43.3653 46.2953096,43.3655444 46.2950725,43.3655444 L37.3775096,40.9000778 C36.7384583,40.6898556 36.0105181,40.8463 35.5034963,41.3691667 M70.8400002,35.9913889 L55.8310646,20.5136556 C55.3240428,19.9907889 54.5963397,19.8343444 53.9572884,20.0445667 L44.0875484,22.7740333 C44.0863633,22.7737889 44.0861262,22.7723222 44.0842299,22.7730556 C44.0749855,22.7759889 44.0650299,22.7777 44.0546003,22.7777 C44.0000819,22.7777 43.955756,22.7319889 43.955756,22.6755222 C43.955756,22.6393444 43.9737708,22.6078111 44.001267,22.5897222 C44.0015041,22.5894778 44.0003189,22.5897222 44.0003189,22.5897222 C45.0776513,21.8507667 46.7113092,20.5136556 50.6164912,16.4864333 C50.9779723,16.1136556 50.9779723,15.5089 50.6164912,15.1358778 L36.2103402,0.279766667 C35.848859,-0.0932555556 35.2624299,-0.0932555556 34.9009487,0.279766667 L19.8920131,15.7575 C19.3849913,16.2803667 19.2335247,17.0310556 19.4373764,17.6900778 L22.0838927,27.8680111 C22.0836557,27.8692333 22.0824705,27.8694778 22.0829446,27.8716778 C22.086026,27.8812111 22.0874483,27.8914778 22.0874483,27.9019889 C22.0874483,27.9584556 22.0431224,28.0041667 21.9883669,28.0041667 C21.9535224,28.0041667 21.9227077,27.9853444 21.9051669,27.9569889 C21.9049299,27.9569889 21.9051669,27.9579667 21.9051669,27.9579667 C21.1886046,26.8469667 19.8920131,25.1625 15.9870682,21.1352778 C15.6253499,20.7622556 15.0389208,20.7622556 14.6774396,21.1352778 L0.271288663,35.9913889 C-0.0904295543,36.3644111 -0.0904295543,36.9691667 0.271288663,37.3419444 L15.2799873,52.8196778 C15.7870091,53.3425444 16.5149492,53.4989889 17.1540005,53.2887667 L27.0237404,50.5593 C27.0249256,50.5595444 27.0249256,50.5610111 27.027059,50.5602778 C27.0363034,50.5573444 27.0462589,50.5556333 27.0564515,50.5556333 C27.111207,50.5556333 27.1555329,50.6013444 27.1555329,50.6578111 C27.1555329,50.6937444 27.1375181,50.7255222 27.1100219,50.7438556 C27.1097848,50.7438556 27.11097,50.7436111 27.11097,50.7438556 C26.0334005,51.4825667 24.3999797,52.8196778 20.4947977,56.8469 C20.1330795,57.2199222 20.1330795,57.8244333 20.4947977,58.1974556 L34.9009487,73.0535667 C35.2624299,73.4265889 35.848859,73.4265889 36.2103402,73.0535667 L51.2190388,57.5758333 C51.7260606,57.0529667 51.8777642,56.3022778 51.6739125,55.6432556 L49.0273962,45.4653222 C49.0273962,45.4638556 49.0288184,45.4638556 49.0281073,45.4619 C49.0252628,45.4521222 49.0238406,45.4421 49.0238406,45.4313444 C49.0238406,45.3748778 49.0681665,45.3291667 49.122685,45.3291667 C49.1577664,45.3291667 49.1885812,45.3479889 49.206122,45.3763444 C49.206122,45.3763444 49.206122,45.3753667 49.206122,45.3753667 C49.9224473,46.4863667 51.2190388,48.1710778 55.1242207,52.1980556 C55.4859389,52.5710778 56.0721311,52.5710778 56.4338493,52.1980556 L70.8400002,37.3419444 C71.2014814,36.9691667 71.2014814,36.3644111 70.8400002,35.9913889" id="Fill-20" fill="#28286E"></path>
        </g>
    </g>
</svg>