<?xml version="1.0" encoding="UTF-8" standalone="no"?>
<svg
   xmlns:dc="http://purl.org/dc/elements/1.1/"
   xmlns:cc="http://creativecommons.org/ns#"
   xmlns:rdf="http://www.w3.org/1999/02/22-rdf-syntax-ns#"
   xmlns:svg="http://www.w3.org/2000/svg"
   xmlns="http://www.w3.org/2000/svg"
   xmlns:sodipodi="http://sodipodi.sourceforge.net/DTD/sodipodi-0.dtd"
   xmlns:inkscape="http://www.inkscape.org/namespaces/inkscape"
   version="1.1"
   id="Layer_1"
   x="0px"
   y="0px"
   width="178.19829"
   height="66.286316"
   viewBox="0 0 178.19829 66.286316"
   enable-background="new 0 0 185 188"
   xml:space="preserve"
   sodipodi:docname="logo+text.svg"
   inkscape:version="1.0.2 (e86c870879, 2021-01-15, custom)"
   inkscape:export-filename="c:\Users\adish\Work\Fun\CoreC++\zeppelin\img\seo\logo.png"
   inkscape:export-xdpi="477.92676"
   inkscape:export-ydpi="477.92676"><metadata
   id="metadata235"><rdf:RDF><cc:Work
       rdf:about=""><dc:format>image/svg+xml</dc:format><dc:type
         rdf:resource="http://purl.org/dc/dcmitype/StillImage" /><dc:title /></cc:Work></rdf:RDF></metadata><defs
   id="defs233">
	
	
	
	
		<radialGradient
   gradientUnits="userSpaceOnUse"
   gradientTransform="matrix(0.498,0,0,0.498,172.2891,79.7388)"
   r="20.113701"
   cy="-60.055"
   cx="-310.58301"
   id="SVGID_1_">
		<stop
   id="stop48"
   style="stop-color:#FFCF4F"
   offset="0" />
		<stop
   id="stop50"
   style="stop-color:#F4C236"
   offset="1" />
	</radialGradient>
	
	
		<radialGradient
   gradientUnits="userSpaceOnUse"
   gradientTransform="matrix(0.498,0,0,0.498,172.2891,79.7388)"
   r="27.658199"
   cy="-70.269501"
   cx="-322.6347"
   id="SVGID_2_">
		<stop
   id="stop55"
   style="stop-color:#08A960"
   offset="0" />
		<stop
   id="stop57"
   style="stop-color:#07914B"
   offset="1" />
	</radialGradient>
	
	
		<radialGradient
   gradientUnits="userSpaceOnUse"
   gradientTransform="matrix(0.498,0,0,0.498,172.2891,79.7388)"
   r="40.540001"
   cy="-109.9511"
   cx="-313.18311"
   id="SVGID_3_">
		<stop
   id="stop62"
   style="stop-color:#567FC0"
   offset="0" />
		<stop
   id="stop64"
   style="stop-color:#557FC0"
   offset="1" />
	</radialGradient>
	
	
		<radialGradient
   gradientUnits="userSpaceOnUse"
   gradientTransform="matrix(0.498,0,0,0.498,172.2891,79.7388)"
   r="33.058399"
   cy="-119.9164"
   cx="-301.11911"
   id="SVGID_4_">
		<stop
   id="stop69"
   style="stop-color:#E14C40"
   offset="0" />
		<stop
   id="stop71"
   style="stop-color:#CD392D"
   offset="1" />
	</radialGradient>
	
<filter
   style="color-interpolation-filters:sRGB"
   inkscape:label="Greyscale"
   id="filter4319"><feColorMatrix
     values="0.21 0.72 0.072 0 0 0.21 0.72 0.072 0 0 0.21 0.72 0.072 0 0 0 0 0 1 0 "
     id="feColorMatrix4317" /></filter>
	
	
	
	
		<radialGradient
   gradientUnits="userSpaceOnUse"
   gradientTransform="matrix(0.498,0,0,0.498,172.2891,79.7388)"
   r="20.113701"
   cy="66.4552"
   cx="-310.58301"
   id="SVGID_5_">
		<stop
   id="stop124"
   style="stop-color:#CCCCCC"
   offset="0" />
		<stop
   id="stop126"
   style="stop-color:#C0C0C0"
   offset="1" />
	</radialGradient>
	
	
		<radialGradient
   gradientUnits="userSpaceOnUse"
   gradientTransform="matrix(0.498,0,0,0.498,172.2891,79.7388)"
   r="27.658199"
   cy="56.2407"
   cx="-322.6347"
   id="SVGID_6_">
		<stop
   id="stop131"
   style="stop-color:#A0A0A0"
   offset="0" />
		<stop
   id="stop133"
   style="stop-color:#7B7B7B"
   offset="1" />
	</radialGradient>
	
	
		<radialGradient
   gradientUnits="userSpaceOnUse"
   gradientTransform="matrix(0.498,0,0,0.498,172.2891,79.7388)"
   r="40.540001"
   cy="16.559"
   cx="-313.18311"
   id="SVGID_7_">
		<stop
   id="stop138"
   style="stop-color:#848484"
   offset="0" />
		<stop
   id="stop140"
   style="stop-color:#838383"
   offset="1" />
	</radialGradient>
	
	
		<radialGradient
   gradientUnits="userSpaceOnUse"
   gradientTransform="matrix(0.498,0,0,0.498,172.2891,79.7388)"
   r="33.058399"
   cy="6.5938001"
   cx="-301.11911"
   id="SVGID_8_">
		<stop
   id="stop145"
   style="stop-color:#626262"
   offset="0" />
		<stop
   id="stop147"
   style="stop-color:#474747"
   offset="1" />
	</radialGradient>
	

	
	
	
	
		<radialGradient
   gradientUnits="userSpaceOnUse"
   gradientTransform="matrix(0.498,0,0,0.498,172.2891,79.7388)"
   r="20.113701"
   cy="192.9653"
   cx="-310.26501"
   id="SVGID_9_">
		<stop
   id="stop200"
   style="stop-color:#FFCF4F"
   offset="0" />
		<stop
   id="stop202"
   style="stop-color:#F4C236"
   offset="1" />
	</radialGradient>
	
	
		<radialGradient
   gradientUnits="userSpaceOnUse"
   gradientTransform="matrix(0.498,0,0,0.498,172.2891,79.7388)"
   r="27.658199"
   cy="182.75079"
   cx="-322.31671"
   id="SVGID_10_">
		<stop
   id="stop207"
   style="stop-color:#08A960"
   offset="0" />
		<stop
   id="stop209"
   style="stop-color:#07914B"
   offset="1" />
	</radialGradient>
	
	
		<radialGradient
   gradientUnits="userSpaceOnUse"
   gradientTransform="matrix(0.498,0,0,0.498,172.2891,79.7388)"
   r="40.540001"
   cy="143.06911"
   cx="-312.86511"
   id="SVGID_11_">
		<stop
   id="stop214"
   style="stop-color:#567FC0"
   offset="0" />
		<stop
   id="stop216"
   style="stop-color:#557FC0"
   offset="1" />
	</radialGradient>
	
	
		<radialGradient
   gradientUnits="userSpaceOnUse"
   gradientTransform="matrix(0.498,0,0,0.498,172.2891,79.7388)"
   r="33.058399"
   cy="133.1039"
   cx="-300.80109"
   id="SVGID_12_">
		<stop
   id="stop221"
   style="stop-color:#E14C40"
   offset="0" />
		<stop
   id="stop223"
   style="stop-color:#CD392D"
   offset="1" />
	</radialGradient>
	
</defs><sodipodi:namedview
   pagecolor="#ffffff"
   bordercolor="#666666"
   borderopacity="1"
   objecttolerance="10"
   gridtolerance="10"
   guidetolerance="10"
   inkscape:pageopacity="0"
   inkscape:pageshadow="2"
   inkscape:window-width="1920"
   inkscape:window-height="1137"
   id="namedview231"
   showgrid="false"
   inkscape:zoom="4.4352259"
   inkscape:cx="135.05483"
   inkscape:cy="43.169742"
   inkscape:window-x="2685"
   inkscape:window-y="-4"
   inkscape:window-maximized="1"
   inkscape:current-layer="layer3"
   inkscape:document-rotation="0" />



<g
   transform="matrix(0.38169224,0,0,0.38169224,-3.5457286,-29.988741)"
   id="layer1"><g
     id="g4622"><path
       inkscape:connector-curvature="0"
       transform="scale(0.26458333)"
       id="path4505"
       d="m 390.92969,542.69141 c -243.11568,128.53878 -119.5773,351.83319 0,410.62695 119.5773,-58.79376 243.11569,-282.08817 0,-410.62695 z"
       style="opacity:1;fill:#b3862a;fill-opacity:1;fill-rule:evenodd;stroke:none;stroke-width:1;stroke-linecap:butt;stroke-linejoin:miter;stroke-miterlimit:4;stroke-dasharray:none;stroke-opacity:1" /><path
       inkscape:connector-curvature="0"
       style="opacity:1;fill:#778254;fill-opacity:1;fill-rule:evenodd;stroke:none;stroke-width:0.264583;stroke-linecap:butt;stroke-linejoin:miter;stroke-miterlimit:4;stroke-dasharray:none;stroke-opacity:1"
       d="M 103.37659,143.68564 C 164.99161,182.38756 199.81328,124.5405 197.46596,89.363122 168.17512,69.741596 100.66725,70.974507 103.37659,143.68564 Z"
       id="path4510" /><path
       inkscape:connector-curvature="0"
       id="path4601"
       d="m 106.67086,141.85552 c 57.30197,35.99279 89.68612,-17.80498 87.50312,-50.519939 -27.24049,-18.248016 -90.0228,-17.101409 -87.50312,50.519939 z"
       style="opacity:1;fill:#8f9c67;fill-opacity:1;fill-rule:evenodd;stroke:none;stroke-width:0.246062;stroke-linecap:butt;stroke-linejoin:miter;stroke-miterlimit:4;stroke-dasharray:none;stroke-opacity:1" /><path
       inkscape:connector-curvature="0"
       style="opacity:1;fill:#b3572f;fill-opacity:1;fill-rule:evenodd;stroke:none;stroke-width:0.264583;stroke-linecap:butt;stroke-linejoin:miter;stroke-miterlimit:4;stroke-dasharray:none;stroke-opacity:1"
       d="M 103.49037,143.68564 C 106.19971,70.974508 38.691845,69.741595 9.4010047,89.363121 7.0536848,124.5405 41.875348,182.38756 103.49037,143.68564 Z"
       id="path4514" /><path
       inkscape:connector-curvature="0"
       id="path4597"
       d="M 100.1961,141.85552 C 102.71579,74.234169 39.933474,73.08756 12.692992,91.33558 10.509985,124.05054 42.894131,177.8483 100.1961,141.85552 Z"
       style="opacity:1;fill:#d17750;fill-opacity:1;fill-rule:evenodd;stroke:none;stroke-width:0.246062;stroke-linecap:butt;stroke-linejoin:miter;stroke-miterlimit:4;stroke-dasharray:none;stroke-opacity:1" /><path
       inkscape:connector-curvature="0"
       style="opacity:1;fill:#d6ab54;fill-opacity:1;fill-rule:evenodd;stroke:none;stroke-width:0.246063;stroke-linecap:butt;stroke-linejoin:miter;stroke-miterlimit:4;stroke-dasharray:none;stroke-opacity:1"
       d="m 103.43348,147.3896 c -59.821655,31.62858 -29.423493,86.57296 0,101.0399 29.42349,-14.46694 59.82165,-69.41132 0,-101.0399 z"
       id="path4599" /><circle
       r="21.774761"
       cy="143.5871"
       cx="103.43348"
       id="path4521"
       style="opacity:1;fill:#659ad2;fill-opacity:1;stroke:#004482;stroke-width:3;stroke-linecap:round;stroke-linejoin:round;stroke-miterlimit:4;stroke-dasharray:none;stroke-opacity:1" /><path
       inkscape:connector-curvature="0"
       style="opacity:1;fill:#4283c8;fill-opacity:1;stroke:none;stroke-width:0.331131;stroke-linecap:round;stroke-linejoin:round;stroke-miterlimit:4;stroke-dasharray:none;stroke-opacity:1"
       id="path4571"
       d="m 117.7794,129.24411 a 20.284042,20.284042 0 0 1 5.94106,14.34299 20.284042,20.284042 0 0 1 -5.94106,14.34298 L 103.43642,143.5871 Z" /><ellipse
       ry="16.33107"
       rx="16.331072"
       style="opacity:1;fill:#0068c6;fill-opacity:1;stroke:none;stroke-width:0.2666;stroke-linecap:round;stroke-linejoin:round;stroke-miterlimit:4;stroke-dasharray:none;stroke-opacity:1"
       id="circle4549"
       cx="103.43348"
       cy="143.5871" /><circle
       style="opacity:1;fill:#ffffff;fill-opacity:1;stroke:none;stroke-width:0.196244;stroke-linecap:round;stroke-linejoin:round;stroke-miterlimit:4;stroke-dasharray:none;stroke-opacity:1"
       id="circle4547"
       cx="103.43348"
       cy="143.5871"
       r="12.021309" /><circle
       r="8.278512"
       style="opacity:1;fill:#0068c6;fill-opacity:1;stroke:none;stroke-width:0.135144;stroke-linecap:round;stroke-linejoin:round;stroke-miterlimit:4;stroke-dasharray:none;stroke-opacity:1"
       id="circle4545"
       cx="103.43348"
       cy="143.5871" /><path
       inkscape:connector-curvature="0"
       d="m 115.08492,131.93719 a 16.475452,16.475452 0 0 1 4.82555,11.64991 16.475452,16.475452 0 0 1 -4.82555,11.6499 l -11.64991,-11.6499 z"
       id="path4573"
       style="opacity:1;fill:#007be8;fill-opacity:1;stroke:none;stroke-width:0.268957;stroke-linecap:round;stroke-linejoin:round;stroke-miterlimit:4;stroke-dasharray:none;stroke-opacity:1" /><path
       inkscape:connector-curvature="0"
       d="m 111.96713,135.05334 a 12.068556,12.068556 0 0 1 3.5348,8.53376 12.068556,12.068556 0 0 1 -3.5348,8.53375 l -8.53376,-8.53375 z"
       id="circle4553"
       style="opacity:1;fill:#005bac;fill-opacity:1;stroke:none;stroke-width:0.197016;stroke-linecap:round;stroke-linejoin:round;stroke-miterlimit:4;stroke-dasharray:none;stroke-opacity:1" /><g
       transform="matrix(0.72972975,0,0,0.72972975,31.075767,38.795045)"
       id="g4561"><rect
         style="opacity:1;fill:#ffffff;fill-opacity:1;stroke:#004482;stroke-width:0;stroke-linecap:butt;stroke-linejoin:miter;stroke-miterlimit:4;stroke-dasharray:none;stroke-opacity:1"
         id="rect4555"
         width="2.1771417"
         height="6.992559"
         x="108.99699"
         y="140.04539"
         ry="0.34962791" /><rect
         ry="0.34962791"
         y="-113.58183"
         x="142.45311"
         height="6.992559"
         width="2.1771417"
         id="rect4557"
         style="opacity:1;fill:#ffffff;fill-opacity:1;stroke:#004482;stroke-width:0;stroke-linecap:butt;stroke-linejoin:miter;stroke-miterlimit:4;stroke-dasharray:none;stroke-opacity:1"
         transform="rotate(90)" /></g><g
       id="g4567"
       transform="matrix(0.72972975,0,0,0.72972975,36.839904,38.795045)"><rect
         ry="0.34962791"
         y="140.04539"
         x="108.99699"
         height="6.992559"
         width="2.1771417"
         id="rect4563"
         style="opacity:1;fill:#ffffff;fill-opacity:1;stroke:#004482;stroke-width:0;stroke-linecap:butt;stroke-linejoin:miter;stroke-miterlimit:4;stroke-dasharray:none;stroke-opacity:1" /><rect
         transform="rotate(90)"
         style="opacity:1;fill:#ffffff;fill-opacity:1;stroke:#004482;stroke-width:0;stroke-linecap:butt;stroke-linejoin:miter;stroke-miterlimit:4;stroke-dasharray:none;stroke-opacity:1"
         id="rect4565"
         width="2.1771417"
         height="6.992559"
         x="142.45311"
         y="-113.58183"
         ry="0.34962791" /></g></g></g>
<g
   inkscape:groupmode="layer"
   id="layer3"
   inkscape:label="Text-Path Layer"><g
     id="g101"
     transform="matrix(1.027803,0,0,1.027803,-3.9943849,0.56798537)"><g
       aria-label="Core C++
&lt;local&gt;
2021
"
       id="text93"
       style="font-style:normal;font-variant:normal;font-weight:normal;font-stretch:normal;font-size:22.2952px;line-height:0;font-family:'WLM Idea';-inkscape-font-specification:'WLM Idea';text-align:start;letter-spacing:0px;word-spacing:0px;text-anchor:start;fill:#4e4e4e;fill-opacity:1;stroke:none;stroke-width:0.55738px;stroke-linecap:butt;stroke-linejoin:miter;stroke-opacity:1"><path
         d="m 84.690455,5.4748514 q -1.534972,0 -2.394992,1.2628141 -0.86002,1.2519277 -0.86002,3.4618525 0,4.59403 3.494511,4.59403 1.055974,0 2.04663,-0.29393 0.990656,-0.293931 1.992198,-0.707612 v 3.636034 q -1.992198,0.881792 -4.50694,0.881792 -3.603375,0 -5.530255,-2.090175 -1.915994,-2.090175 -1.915994,-6.041912 0,-2.4711963 0.925338,-4.3436448 Q 78.877156,3.9616517 80.618968,2.9601095 82.371667,1.947681 84.734,1.947681 q 2.58006,0 4.931507,1.1212918 L 88.348261,6.4546209 Q 87.466469,6.0409404 86.584676,5.7578959 85.702883,5.4748514 84.690455,5.4748514 Z"
         style="font-style:normal;font-variant:normal;font-weight:normal;font-stretch:normal;font-size:22.2952px;line-height:110%;font-family:'WLM Idea';-inkscape-font-specification:'WLM Idea';letter-spacing:-1.01289px;fill:#4e4e4e;fill-opacity:1;stroke-width:0.55738px"
         id="path112" /><path
         d="m 102.58712,11.897785 q 0,3.026399 -1.63295,4.724667 -1.622065,1.68738 -4.550488,1.68738 -2.808672,0 -4.474281,-1.730926 -1.654722,-1.730926 -1.654722,-4.681121 0,-3.0155129 1.622063,-4.6811211 1.63295,-1.6764946 4.572258,-1.6764946 1.818017,0 3.211467,0.7729294 1.393453,0.7729293 2.144603,2.2208109 0.76205,1.4369954 0.76205,3.3638754 z m -7.990568,0 q 0,1.589404 0.424567,2.427651 0.424566,0.827361 1.426109,0.827361 0.990655,0 1.39345,-0.827361 0.41368,-0.838247 0.41368,-2.427651 0,-1.578518 -0.41368,-2.3841058 -0.413681,-0.8055883 -1.415223,-0.8055883 -0.97977,0 -1.404336,0.8055883 -0.424567,0.7947018 -0.424567,2.3841058 z"
         style="font-style:normal;font-variant:normal;font-weight:normal;font-stretch:normal;font-size:22.2952px;line-height:110%;font-family:'WLM Idea';-inkscape-font-specification:'WLM Idea';letter-spacing:-1.01289px;fill:#4e4e4e;fill-opacity:1;stroke-width:0.55738px"
         id="path114" /><path
         d="m 111.44813,5.5401693 q 0.5552,0 1.05597,0.087091 l 0.2395,0.043545 -0.38102,4.0170551 q -0.52255,-0.1306359 -1.44788,-0.1306359 -1.39345,0 -2.02486,0.6422935 -0.63141,0.631407 -0.63141,1.828903 v 6.063685 h -4.25655 V 5.7578959 l 3.83198,-0.010886 v 1.9813117 h 0.20684 q 0.53343,-0.9797695 1.48055,-1.5785176 0.95799,-0.6096344 1.92688,-0.6096344 z"
         style="font-style:normal;font-variant:normal;font-weight:normal;font-stretch:normal;font-size:22.2952px;line-height:110%;font-family:'WLM Idea';-inkscape-font-specification:'WLM Idea';letter-spacing:-1.01289px;fill:#4e4e4e;fill-opacity:1;stroke-width:0.55738px"
         id="path116" /><path
         d="m 118.95923,18.309832 q -3.08083,0 -4.78998,-1.632949 -1.69827,-1.643835 -1.69827,-4.670235 0,-3.1243759 1.57852,-4.7899841 1.57852,-1.6764946 4.50694,-1.6764946 2.7869,0 4.3001,1.458768 1.52408,1.4478817 1.52408,4.1803497 v 1.894222 h -7.60954 q 0.0435,1.034201 0.75116,1.622062 0.71849,0.587862 1.94865,0.587862 1.12129,0 2.05752,-0.20684 0.94711,-0.217727 2.04662,-0.729384 v 3.059058 q -1.00154,0.511658 -2.0684,0.707612 -1.06686,0.195953 -2.5474,0.195953 z m -0.25038,-9.8738993 q -0.75116,0 -1.26282,0.4789984 -0.50077,0.4681121 -0.58786,1.4805409 h 3.65781 q -0.0218,-0.8926792 -0.51166,-1.4261092 -0.479,-0.5334301 -1.29547,-0.5334301 z"
         style="font-style:normal;font-variant:normal;font-weight:normal;font-stretch:normal;font-size:22.2952px;line-height:110%;font-family:'WLM Idea';-inkscape-font-specification:'WLM Idea';letter-spacing:-1.01289px;fill:#4e4e4e;fill-opacity:1;stroke-width:0.55738px"
         id="path118" /><path
         d="m 137.88964,5.4748514 q -1.53498,0 -2.395,1.2628141 -0.86002,1.2519277 -0.86002,3.4618525 0,4.59403 3.49451,4.59403 1.05598,0 2.04663,-0.29393 0.99066,-0.293931 1.9922,-0.707612 v 3.636034 q -1.9922,0.881792 -4.50694,0.881792 -3.60337,0 -5.53025,-2.090175 -1.916,-2.090175 -1.916,-6.041912 0,-2.4711963 0.92534,-4.3436448 0.93623,-1.8724485 2.67804,-2.8739907 1.7527,-1.0124285 4.11503,-1.0124285 2.58006,0 4.93151,1.1212918 l -1.31725,3.3856481 q -0.88179,-0.4136805 -1.76358,-0.696725 -0.8818,-0.2830445 -1.89422,-0.2830445 z"
         style="font-style:normal;font-variant:normal;font-weight:normal;font-stretch:normal;font-size:22.2952px;line-height:110%;font-family:'WLM Idea';-inkscape-font-specification:'WLM Idea';letter-spacing:-1.01289px;fill:#4e4e4e;fill-opacity:1;stroke-width:0.55738px"
         id="path120" /><path
         d="m 147.38205,11.20106 h -4.04971 V 8.2835241 h 4.04971 V 4.2882416 h 2.92842 v 3.9952825 h 4.04972 V 11.20106 h -4.04972 v 3.929965 h -2.92842 z"
         style="font-style:normal;font-variant:normal;font-weight:normal;font-stretch:normal;font-size:22.2952px;line-height:110%;font-family:'WLM Idea';-inkscape-font-specification:'WLM Idea';letter-spacing:-1.01289px;fill:#4e4e4e;fill-opacity:1;stroke-width:0.55738px"
         id="path122" /><path
         d="M 158.98641,11.20106 H 154.9367 V 8.2835241 h 4.04971 V 4.2882416 h 2.92843 v 3.9952825 h 4.04971 V 11.20106 h -4.04971 v 3.929965 h -2.92843 z"
         style="font-style:normal;font-variant:normal;font-weight:normal;font-stretch:normal;font-size:22.2952px;line-height:110%;font-family:'WLM Idea';-inkscape-font-specification:'WLM Idea';letter-spacing:-1.01289px;fill:#4e4e4e;fill-opacity:1;stroke-width:0.55738px"
         id="path124" /><path
         d="m 77.288603,31.794464 6.713677,-4.154846 0.893422,1.405188 -5.933017,3.582362 5.933017,3.582362 -0.95414,1.396514 -6.652959,-4.146172 z"
         style="font-style:normal;font-variant:normal;font-weight:500;font-stretch:normal;font-size:16.9143px;line-height:110%;font-family:'Fira Code';-inkscape-font-specification:'Fira Code Medium';stroke-width:0.55738px"
         id="path126" /><path
         d="m 91.860899,35.567654 q 0,0.60718 0.364308,0.884748 0.372982,0.277568 1.023532,0.277568 0.69392,0 1.448558,-0.30359 l 0.494418,1.353144 q -1.023532,0.52044 -2.359328,0.52044 -0.91077,0 -1.569994,-0.34696 -0.659224,-0.355634 -1.006184,-1.006184 -0.338286,-0.659224 -0.338286,-1.552646 v -8.734718 h -2.767006 v -1.43121 h 4.709982 z"
         style="font-style:normal;font-variant:normal;font-weight:500;font-stretch:normal;font-size:16.9143px;line-height:110%;font-family:'Fira Code';-inkscape-font-specification:'Fira Code Medium';stroke-width:0.55738px"
         id="path128" /><path
         d="m 101.91404,28.66315 q 1.31845,0 2.24657,0.589832 0.92811,0.589832 1.40518,1.674082 0.47707,1.075576 0.47707,2.541482 0,1.457232 -0.48574,2.550156 -0.48574,1.08425 -1.41386,1.682756 -0.92812,0.598506 -2.23789,0.598506 -1.31845,0 -2.24657,-0.581158 -0.928118,-0.581158 -1.413862,-1.665408 -0.47707,-1.08425 -0.47707,-2.567504 0,-1.43121 0.485744,-2.524134 0.485744,-1.092924 1.413862,-1.69143 0.936796,-0.60718 2.246566,-0.60718 z m 0,1.509276 q -1.05823,0 -1.58734,0.815356 -0.520442,0.806682 -0.520442,2.498112 0,1.69143 0.520442,2.506786 0.52044,0.806682 1.57867,0.806682 1.05822,0 1.57866,-0.806682 0.52044,-0.815356 0.52044,-2.524134 0,-1.682756 -0.52044,-2.489438 -0.52044,-0.806682 -1.56999,-0.806682 z"
         style="font-style:normal;font-variant:normal;font-weight:500;font-stretch:normal;font-size:16.9143px;line-height:110%;font-family:'Fira Code';-inkscape-font-specification:'Fira Code Medium';stroke-width:0.55738px"
         id="path130" /><path
         d="m 113.06878,36.703948 q 0.60718,0 1.15364,-0.208176 0.55514,-0.208176 1.1016,-0.589832 l 0.9021,1.249056 q -0.61586,0.52044 -1.47458,0.832704 -0.85006,0.312264 -1.74348,0.312264 -1.38784,0 -2.39402,-0.589832 -1.00619,-0.589832 -1.5353,-1.665408 -0.52911,-1.08425 -0.52911,-2.51546 0,-1.405188 0.53778,-2.506786 0.53779,-1.101598 1.55265,-1.726126 1.02353,-0.633202 2.4027,-0.633202 1.83889,0 3.17468,1.101598 l -0.89342,1.223034 q -1.11027,-0.763312 -2.24657,-0.763312 -1.13629,0 -1.80419,0.82403 -0.65922,0.82403 -0.65922,2.480764 0,1.639386 0.65922,2.411372 0.65923,0.763312 1.79552,0.763312 z"
         style="font-style:normal;font-variant:normal;font-weight:500;font-stretch:normal;font-size:16.9143px;line-height:110%;font-family:'Fira Code';-inkscape-font-specification:'Fira Code Medium';stroke-width:0.55738px"
         id="path132" /><path
         d="m 126.06241,35.8192 q 0,0.529114 0.15613,0.78066 0.16481,0.251546 0.53779,0.372982 l -0.4337,1.318448 q -0.7026,-0.07807 -1.17967,-0.381656 -0.47707,-0.30359 -0.71994,-0.884748 -0.49442,0.624528 -1.25773,0.95414 -0.76331,0.320938 -1.66541,0.320938 -0.91944,0 -1.60469,-0.355634 -0.67657,-0.355634 -1.04088,-0.99751 -0.36431,-0.641876 -0.36431,-1.491928 0,-1.448558 1.12762,-2.229218 1.1363,-0.78066 3.22673,-0.78066 h 1.30978 v -0.598506 q 0,-0.8674 -0.52044,-1.266404 -0.52044,-0.399004 -1.51795,-0.399004 -0.47707,0 -1.11895,0.121436 -0.64188,0.121436 -1.31845,0.355634 l -0.47707,-1.370492 q 0.83271,-0.312264 1.65674,-0.468396 0.82403,-0.156132 1.55264,-0.156132 1.81287,0 2.73231,0.798008 0.91945,0.798008 0.91945,2.272588 z m -3.9727,1.049554 q 0.59851,0 1.15365,-0.312264 0.56381,-0.320938 0.91077,-0.876074 v -2.021042 h -1.07558 q -1.32712,0 -1.94298,0.442374 -0.60718,0.4337 -0.60718,1.266404 0,0.73729 0.39033,1.118946 0.39901,0.381656 1.17099,0.381656 z"
         style="font-style:normal;font-variant:normal;font-weight:500;font-stretch:normal;font-size:16.9143px;line-height:110%;font-family:'Fira Code';-inkscape-font-specification:'Fira Code Medium';stroke-width:0.55738px"
         id="path134" /><path
         d="m 133.496,35.567654 q 0,0.60718 0.36431,0.884748 0.37298,0.277568 1.02353,0.277568 0.69392,0 1.44856,-0.30359 l 0.49442,1.353144 q -1.02354,0.52044 -2.35933,0.52044 -0.91077,0 -1.57,-0.34696 -0.65922,-0.355634 -1.00618,-1.006184 -0.33829,-0.659224 -0.33829,-1.552646 v -8.734718 h -2.767 v -1.43121 h 4.70998 z"
         style="font-style:normal;font-variant:normal;font-weight:500;font-stretch:normal;font-size:16.9143px;line-height:110%;font-family:'Fira Code';-inkscape-font-specification:'Fira Code Medium';stroke-width:0.55738px"
         id="path136" /><path
         d="m 139.74126,29.070828 0.90209,-1.43121 6.705,4.146172 v 1.674082 l -6.65295,4.146172 -0.95414,-1.370492 5.94169,-3.608384 z"
         style="font-style:normal;font-variant:normal;font-weight:500;font-stretch:normal;font-size:16.9143px;line-height:110%;font-family:'Fira Code';-inkscape-font-specification:'Fira Code Medium';stroke-width:0.55738px"
         id="path138" /><path
         d="M 88.097876,61.222558 H 76.547481 V 58.392113 L 80.4339,54.462148 q 1.665609,-1.741812 2.177266,-2.373219 0.511658,-0.642294 0.707611,-1.099519 0.206841,-0.457226 0.206841,-0.957997 0,-0.620521 -0.402794,-0.97977 -0.402795,-0.359249 -1.132179,-0.359249 -0.751156,0 -1.524086,0.435453 -0.762043,0.424567 -1.730926,1.262815 L 76.3733,47.625534 q 1.230155,-1.099519 2.068402,-1.567631 0.838248,-0.478999 1.818017,-0.729384 0.990656,-0.250386 2.220811,-0.250386 1.545859,0 2.754241,0.544317 1.219269,0.544316 1.883335,1.556745 0.674952,1.001542 0.674952,2.25347 0,0.936224 -0.239499,1.730926 -0.228613,0.794702 -0.718498,1.567631 -0.489884,0.762043 -1.306359,1.611177 -0.805588,0.849133 -3.450966,3.222353 v 0.108863 h 6.02014 z"
         style="line-height:110%;letter-spacing:-1.01289px;fill:#4e4e4e;fill-opacity:1;stroke-width:0.55738px"
         id="path140" /><path
         d="m 100.2139,53.286425 q 0,4.223895 -1.415225,6.194321 -1.415223,1.959539 -4.332759,1.959539 -2.852218,0 -4.300099,-2.04663 -1.447882,-2.057516 -1.447882,-6.10723 0,-4.245668 1.415223,-6.22698 1.415222,-1.981312 4.332758,-1.981312 2.841332,0 4.289214,2.068403 1.45877,2.057516 1.45877,6.139889 z m -7.217638,0 q 0,2.699809 0.337476,3.712238 0.337476,1.012428 1.132178,1.012428 0.805588,0 1.132178,-1.045087 0.337477,-1.045088 0.337477,-3.679579 0,-2.645378 -0.337477,-3.701352 -0.337476,-1.06686 -1.132178,-1.06686 -0.794702,0 -1.132178,1.023315 -0.337476,1.023315 -0.337476,3.744897 z"
         style="line-height:110%;letter-spacing:-1.01289px;fill:#4e4e4e;fill-opacity:1;stroke-width:0.55738px"
         id="path142" /><path
         d="m 112.19928,61.222558 h -11.55039 v -2.830445 l 3.88642,-3.929965 q 1.66561,-1.741812 2.17726,-2.373219 0.51166,-0.642294 0.70762,-1.099519 0.20684,-0.457226 0.20684,-0.957997 0,-0.620521 -0.4028,-0.97977 -0.40279,-0.359249 -1.13218,-0.359249 -0.75115,0 -1.52408,0.435453 -0.76205,0.424567 -1.73093,1.262815 l -2.36233,-2.765128 q 1.23015,-1.099519 2.0684,-1.567631 0.83825,-0.478999 1.81802,-0.729384 0.99065,-0.250386 2.22081,-0.250386 1.54586,0 2.75424,0.544317 1.21927,0.544316 1.88333,1.556745 0.67496,1.001542 0.67496,2.25347 0,0.936224 -0.2395,1.730926 -0.22862,0.794702 -0.7185,1.567631 -0.48989,0.762043 -1.30636,1.611177 -0.80559,0.849133 -3.45097,3.222353 v 0.108863 h 6.02014 z"
         style="line-height:110%;letter-spacing:-1.01289px;fill:#4e4e4e;fill-opacity:1;stroke-width:0.55738px"
         id="path144" /><path
         d="m 122.29045,61.222558 h -4.36542 V 52.79654 q 0,-1.534972 0.0653,-2.808673 -0.4028,0.489885 -1.00154,1.023315 l -1.80713,1.491427 -2.2317,-2.743355 5.46493,-4.452508 h 3.87554 z"
         style="line-height:110%;letter-spacing:-1.01289px;fill:#4e4e4e;fill-opacity:1;stroke-width:0.55738px"
         id="path146" /></g><g
       aria-label="
"
       id="text99"
       style="font-style:normal;font-variant:normal;font-weight:normal;font-stretch:normal;font-size:28.6148px;line-height:125%;font-family:'WLM Idea';-inkscape-font-specification:'WLM Idea';text-align:start;letter-spacing:0px;word-spacing:0px;text-anchor:start;fill:#4e4e4e;fill-opacity:1;stroke:none;stroke-width:0.715369px;stroke-linecap:butt;stroke-linejoin:miter;stroke-opacity:1" /></g></g><g
   inkscape:groupmode="layer"
   id="layer2"
   inkscape:label="Text-FontLayer"
   style="display:none"
   sodipodi:insensitive="true"><g
     id="g133"
     transform="matrix(1.027803,0,0,1.027803,-3.9943849,0.56798537)"><text
       id="text94"
       y="18.092106"
       x="75.883415"
       style="font-style:normal;font-variant:normal;font-weight:normal;font-stretch:normal;font-size:22.2952px;line-height:0;font-family:'WLM Idea';-inkscape-font-specification:'WLM Idea';text-align:start;letter-spacing:0px;word-spacing:0px;text-anchor:start;fill:#4e4e4e;fill-opacity:1;stroke:none;stroke-width:0.55738px;stroke-linecap:butt;stroke-linejoin:miter;stroke-opacity:1"
       xml:space="preserve"><tspan
         style="font-style:normal;font-variant:normal;font-weight:normal;font-stretch:normal;font-size:22.2952px;line-height:110%;font-family:'WLM Idea';-inkscape-font-specification:'WLM Idea';letter-spacing:-1.01289px;fill:#4e4e4e;fill-opacity:1;stroke-width:0.55738px"
         id="tspan204"
         x="75.883415"
         y="18.092106"
         sodipodi:role="line">Core C++</tspan><tspan
         style="font-style:normal;font-variant:normal;font-weight:500;font-stretch:normal;font-size:16.9143px;line-height:110%;font-family:'Fira Code';-inkscape-font-specification:'Fira Code Medium';stroke-width:0.55738px"
         x="75.883415"
         y="38.065765"
         id="tspan212"
         sodipodi:role="line">&lt;local&gt;</tspan><tspan
         style="line-height:110%;letter-spacing:-1.01289px;fill:#4e4e4e;fill-opacity:1;stroke-width:0.55738px"
         id="tspan206"
         x="75.883415"
         y="61.222557"
         sodipodi:role="line">2021</tspan><tspan
         id="tspan96"
         y="73.484917"
         x="75.883415"
         style="line-height:125%;stroke-width:0.55738px"
         sodipodi:role="line" /></text><text
       xml:space="preserve"
       style="font-style:normal;font-variant:normal;font-weight:normal;font-stretch:normal;font-size:28.6148px;line-height:125%;font-family:'WLM Idea';-inkscape-font-specification:'WLM Idea';text-align:start;letter-spacing:0px;word-spacing:0px;text-anchor:start;fill:#4e4e4e;fill-opacity:1;stroke:none;stroke-width:0.715369px;stroke-linecap:butt;stroke-linejoin:miter;stroke-opacity:1"
       x="73.048828"
       y="50.501392"
       id="text122"><tspan
         sodipodi:role="line"
         x="73.048828"
         y="50.501392"
         style="letter-spacing:-1.3px;fill:#4e4e4e;fill-opacity:1;stroke-width:0.715369px"
         id="tspan118" /><tspan
         sodipodi:role="line"
         x="73.048828"
         y="86.269897"
         id="tspan120" /></text></g></g></svg>
