<?xml version="1.0" encoding="UTF-8" standalone="no"?>
<svg
   xmlns:dc="http://purl.org/dc/elements/1.1/"
   xmlns:cc="http://creativecommons.org/ns#"
   xmlns:rdf="http://www.w3.org/1999/02/22-rdf-syntax-ns#"
   xmlns:svg="http://www.w3.org/2000/svg"
   xmlns="http://www.w3.org/2000/svg"
   xmlns:sodipodi="http://sodipodi.sourceforge.net/DTD/sodipodi-0.dtd"
   xmlns:inkscape="http://www.inkscape.org/namespaces/inkscape"
   version="1.1"
   id="Layer_1"
   x="0px"
   y="0px"
   width="189.08688"
   height="186"
   viewBox="0 0 189.08688 186"
   enable-background="new 0 0 185 188"
   xml:space="preserve"
   sodipodi:docname="logos.svg"
   inkscape:version="1.0.2 (e86c870879, 2021-01-15, custom)"
   inkscape:export-filename="c:\Users\adishavit\Work\Fun\CoreC++Conf\2021\.png"
   inkscape:export-xdpi="390.70969"
   inkscape:export-ydpi="390.70969"><metadata
   id="metadata235"><rdf:RDF><cc:Work
       rdf:about=""><dc:format>image/svg+xml</dc:format><dc:type
         rdf:resource="http://purl.org/dc/dcmitype/StillImage" /></cc:Work></rdf:RDF></metadata><defs
   id="defs233">
	
	
	
	
		<radialGradient
   gradientUnits="userSpaceOnUse"
   gradientTransform="matrix(0.498,0,0,0.498,172.2891,79.7388)"
   r="20.113701"
   cy="-60.055"
   cx="-310.58301"
   id="SVGID_1_">
		<stop
   id="stop48"
   style="stop-color:#FFCF4F"
   offset="0" />
		<stop
   id="stop50"
   style="stop-color:#F4C236"
   offset="1" />
	</radialGradient>
	
	
		<radialGradient
   gradientUnits="userSpaceOnUse"
   gradientTransform="matrix(0.498,0,0,0.498,172.2891,79.7388)"
   r="27.658199"
   cy="-70.269501"
   cx="-322.6347"
   id="SVGID_2_">
		<stop
   id="stop55"
   style="stop-color:#08A960"
   offset="0" />
		<stop
   id="stop57"
   style="stop-color:#07914B"
   offset="1" />
	</radialGradient>
	
	
		<radialGradient
   gradientUnits="userSpaceOnUse"
   gradientTransform="matrix(0.498,0,0,0.498,172.2891,79.7388)"
   r="40.540001"
   cy="-109.9511"
   cx="-313.18311"
   id="SVGID_3_">
		<stop
   id="stop62"
   style="stop-color:#567FC0"
   offset="0" />
		<stop
   id="stop64"
   style="stop-color:#557FC0"
   offset="1" />
	</radialGradient>
	
	
		<radialGradient
   gradientUnits="userSpaceOnUse"
   gradientTransform="matrix(0.498,0,0,0.498,172.2891,79.7388)"
   r="33.058399"
   cy="-119.9164"
   cx="-301.11911"
   id="SVGID_4_">
		<stop
   id="stop69"
   style="stop-color:#E14C40"
   offset="0" />
		<stop
   id="stop71"
   style="stop-color:#CD392D"
   offset="1" />
	</radialGradient>
	
<filter
   style="color-interpolation-filters:sRGB"
   inkscape:label="Greyscale"
   id="filter4319"><feColorMatrix
     values="0.21 0.72 0.072 0 0 0.21 0.72 0.072 0 0 0.21 0.72 0.072 0 0 0 0 0 1 0 "
     id="feColorMatrix4317" /></filter>
	
	
	
	
		<radialGradient
   gradientUnits="userSpaceOnUse"
   gradientTransform="matrix(0.498,0,0,0.498,172.2891,79.7388)"
   r="20.113701"
   cy="66.4552"
   cx="-310.58301"
   id="SVGID_5_">
		<stop
   id="stop124"
   style="stop-color:#CCCCCC"
   offset="0" />
		<stop
   id="stop126"
   style="stop-color:#C0C0C0"
   offset="1" />
	</radialGradient>
	
	
		<radialGradient
   gradientUnits="userSpaceOnUse"
   gradientTransform="matrix(0.498,0,0,0.498,172.2891,79.7388)"
   r="27.658199"
   cy="56.2407"
   cx="-322.6347"
   id="SVGID_6_">
		<stop
   id="stop131"
   style="stop-color:#A0A0A0"
   offset="0" />
		<stop
   id="stop133"
   style="stop-color:#7B7B7B"
   offset="1" />
	</radialGradient>
	
	
		<radialGradient
   gradientUnits="userSpaceOnUse"
   gradientTransform="matrix(0.498,0,0,0.498,172.2891,79.7388)"
   r="40.540001"
   cy="16.559"
   cx="-313.18311"
   id="SVGID_7_">
		<stop
   id="stop138"
   style="stop-color:#848484"
   offset="0" />
		<stop
   id="stop140"
   style="stop-color:#838383"
   offset="1" />
	</radialGradient>
	
	
		<radialGradient
   gradientUnits="userSpaceOnUse"
   gradientTransform="matrix(0.498,0,0,0.498,172.2891,79.7388)"
   r="33.058399"
   cy="6.5938001"
   cx="-301.11911"
   id="SVGID_8_">
		<stop
   id="stop145"
   style="stop-color:#626262"
   offset="0" />
		<stop
   id="stop147"
   style="stop-color:#474747"
   offset="1" />
	</radialGradient>
	

	
	
	
	
		<radialGradient
   gradientUnits="userSpaceOnUse"
   gradientTransform="matrix(0.498,0,0,0.498,172.2891,79.7388)"
   r="20.113701"
   cy="192.9653"
   cx="-310.26501"
   id="SVGID_9_">
		<stop
   id="stop200"
   style="stop-color:#FFCF4F"
   offset="0" />
		<stop
   id="stop202"
   style="stop-color:#F4C236"
   offset="1" />
	</radialGradient>
	
	
		<radialGradient
   gradientUnits="userSpaceOnUse"
   gradientTransform="matrix(0.498,0,0,0.498,172.2891,79.7388)"
   r="27.658199"
   cy="182.75079"
   cx="-322.31671"
   id="SVGID_10_">
		<stop
   id="stop207"
   style="stop-color:#08A960"
   offset="0" />
		<stop
   id="stop209"
   style="stop-color:#07914B"
   offset="1" />
	</radialGradient>
	
	
		<radialGradient
   gradientUnits="userSpaceOnUse"
   gradientTransform="matrix(0.498,0,0,0.498,172.2891,79.7388)"
   r="40.540001"
   cy="143.06911"
   cx="-312.86511"
   id="SVGID_11_">
		<stop
   id="stop214"
   style="stop-color:#567FC0"
   offset="0" />
		<stop
   id="stop216"
   style="stop-color:#557FC0"
   offset="1" />
	</radialGradient>
	
	
		<radialGradient
   gradientUnits="userSpaceOnUse"
   gradientTransform="matrix(0.498,0,0,0.498,172.2891,79.7388)"
   r="33.058399"
   cy="133.1039"
   cx="-300.80109"
   id="SVGID_12_">
		<stop
   id="stop221"
   style="stop-color:#E14C40"
   offset="0" />
		<stop
   id="stop223"
   style="stop-color:#CD392D"
   offset="1" />
	</radialGradient>
	
</defs><sodipodi:namedview
   pagecolor="#ffffff"
   bordercolor="#666666"
   borderopacity="1"
   objecttolerance="10"
   gridtolerance="10"
   guidetolerance="10"
   inkscape:pageopacity="0"
   inkscape:pageshadow="2"
   inkscape:window-width="1920"
   inkscape:window-height="1137"
   id="namedview231"
   showgrid="false"
   inkscape:zoom="5.0904255"
   inkscape:cx="62.192693"
   inkscape:cy="93"
   inkscape:window-x="2685"
   inkscape:window-y="-4"
   inkscape:window-maximized="1"
   inkscape:current-layer="Layer_1"
   inkscape:document-rotation="0" />



<g
   id="g405"
   transform="translate(75.809201,-0.99999987)"><g
     id="layer1"
     transform="matrix(0.34549417,0,0,0.34549417,-72.513428,-26.144736)"><g
       id="g4622"><path
         style="opacity:1;fill:#b3862a;fill-opacity:1;fill-rule:evenodd;stroke:none;stroke-width:1;stroke-linecap:butt;stroke-linejoin:miter;stroke-miterlimit:4;stroke-dasharray:none;stroke-opacity:1"
         d="m 390.92969,542.69141 c -243.11568,128.53878 -119.5773,351.83319 0,410.62695 119.5773,-58.79376 243.11569,-282.08817 0,-410.62695 z"
         id="path4505"
         transform="scale(0.26458333)"
         inkscape:connector-curvature="0" /><path
         id="path4510"
         d="M 103.37659,143.68564 C 164.99161,182.38756 199.81328,124.5405 197.46596,89.363122 168.17512,69.741596 100.66725,70.974507 103.37659,143.68564 Z"
         style="opacity:1;fill:#778254;fill-opacity:1;fill-rule:evenodd;stroke:none;stroke-width:0.264583;stroke-linecap:butt;stroke-linejoin:miter;stroke-miterlimit:4;stroke-dasharray:none;stroke-opacity:1"
         inkscape:connector-curvature="0" /><path
         style="opacity:1;fill:#8f9c67;fill-opacity:1;fill-rule:evenodd;stroke:none;stroke-width:0.246062;stroke-linecap:butt;stroke-linejoin:miter;stroke-miterlimit:4;stroke-dasharray:none;stroke-opacity:1"
         d="m 106.67086,141.85552 c 57.30197,35.99279 89.68612,-17.80498 87.50312,-50.519939 -27.24049,-18.248016 -90.0228,-17.101409 -87.50312,50.519939 z"
         id="path4601"
         inkscape:connector-curvature="0" /><path
         id="path4514"
         d="M 103.49037,143.68564 C 106.19971,70.974508 38.691845,69.741595 9.4010047,89.363121 7.0536848,124.5405 41.875348,182.38756 103.49037,143.68564 Z"
         style="opacity:1;fill:#b3572f;fill-opacity:1;fill-rule:evenodd;stroke:none;stroke-width:0.264583;stroke-linecap:butt;stroke-linejoin:miter;stroke-miterlimit:4;stroke-dasharray:none;stroke-opacity:1"
         inkscape:connector-curvature="0" /><path
         style="opacity:1;fill:#d17750;fill-opacity:1;fill-rule:evenodd;stroke:none;stroke-width:0.246062;stroke-linecap:butt;stroke-linejoin:miter;stroke-miterlimit:4;stroke-dasharray:none;stroke-opacity:1"
         d="M 100.1961,141.85552 C 102.71579,74.234169 39.933474,73.08756 12.692992,91.33558 10.509985,124.05054 42.894131,177.8483 100.1961,141.85552 Z"
         id="path4597"
         inkscape:connector-curvature="0" /><path
         id="path4599"
         d="m 103.43348,147.3896 c -59.821655,31.62858 -29.423493,86.57296 0,101.0399 29.42349,-14.46694 59.82165,-69.41132 0,-101.0399 z"
         style="opacity:1;fill:#d6ab54;fill-opacity:1;fill-rule:evenodd;stroke:none;stroke-width:0.246063;stroke-linecap:butt;stroke-linejoin:miter;stroke-miterlimit:4;stroke-dasharray:none;stroke-opacity:1"
         inkscape:connector-curvature="0" /><circle
         style="opacity:1;fill:#659ad2;fill-opacity:1;stroke:#004482;stroke-width:3;stroke-linecap:round;stroke-linejoin:round;stroke-miterlimit:4;stroke-dasharray:none;stroke-opacity:1"
         id="path4521"
         cx="103.43348"
         cy="143.5871"
         r="21.774761" /><path
         d="m 117.7794,129.24411 a 20.284042,20.284042 0 0 1 5.94106,14.34299 20.284042,20.284042 0 0 1 -5.94106,14.34298 L 103.43642,143.5871 Z"
         id="path4571"
         style="opacity:1;fill:#4283c8;fill-opacity:1;stroke:none;stroke-width:0.331131;stroke-linecap:round;stroke-linejoin:round;stroke-miterlimit:4;stroke-dasharray:none;stroke-opacity:1"
         inkscape:connector-curvature="0" /><ellipse
         cy="143.5871"
         cx="103.43348"
         id="circle4549"
         style="opacity:1;fill:#0068c6;fill-opacity:1;stroke:none;stroke-width:0.2666;stroke-linecap:round;stroke-linejoin:round;stroke-miterlimit:4;stroke-dasharray:none;stroke-opacity:1"
         rx="16.331072"
         ry="16.33107" /><circle
         r="12.021309"
         cy="143.5871"
         cx="103.43348"
         id="circle4547"
         style="opacity:1;fill:#ffffff;fill-opacity:1;stroke:none;stroke-width:0.196244;stroke-linecap:round;stroke-linejoin:round;stroke-miterlimit:4;stroke-dasharray:none;stroke-opacity:1" /><circle
         cy="143.5871"
         cx="103.43348"
         id="circle4545"
         style="opacity:1;fill:#0068c6;fill-opacity:1;stroke:none;stroke-width:0.135144;stroke-linecap:round;stroke-linejoin:round;stroke-miterlimit:4;stroke-dasharray:none;stroke-opacity:1"
         r="8.278512" /><path
         style="opacity:1;fill:#007be8;fill-opacity:1;stroke:none;stroke-width:0.268957;stroke-linecap:round;stroke-linejoin:round;stroke-miterlimit:4;stroke-dasharray:none;stroke-opacity:1"
         id="path4573"
         d="m 115.08492,131.93719 a 16.475452,16.475452 0 0 1 4.82555,11.64991 16.475452,16.475452 0 0 1 -4.82555,11.6499 l -11.64991,-11.6499 z"
         inkscape:connector-curvature="0" /><path
         style="opacity:1;fill:#005bac;fill-opacity:1;stroke:none;stroke-width:0.197016;stroke-linecap:round;stroke-linejoin:round;stroke-miterlimit:4;stroke-dasharray:none;stroke-opacity:1"
         id="circle4553"
         d="m 111.96713,135.05334 a 12.068556,12.068556 0 0 1 3.5348,8.53376 12.068556,12.068556 0 0 1 -3.5348,8.53375 l -8.53376,-8.53375 z"
         inkscape:connector-curvature="0" /><g
         id="g4561"
         transform="matrix(0.72972975,0,0,0.72972975,31.075767,38.795045)"><rect
           ry="0.34962791"
           y="140.04539"
           x="108.99699"
           height="6.992559"
           width="2.1771417"
           id="rect4555"
           style="opacity:1;fill:#ffffff;fill-opacity:1;stroke:#004482;stroke-width:0;stroke-linecap:butt;stroke-linejoin:miter;stroke-miterlimit:4;stroke-dasharray:none;stroke-opacity:1" /><rect
           transform="rotate(90)"
           style="opacity:1;fill:#ffffff;fill-opacity:1;stroke:#004482;stroke-width:0;stroke-linecap:butt;stroke-linejoin:miter;stroke-miterlimit:4;stroke-dasharray:none;stroke-opacity:1"
           id="rect4557"
           width="2.1771417"
           height="6.992559"
           x="142.45311"
           y="-113.58183"
           ry="0.34962791" /></g><g
         transform="matrix(0.72972975,0,0,0.72972975,36.839904,38.795045)"
         id="g4567"><rect
           style="opacity:1;fill:#ffffff;fill-opacity:1;stroke:#004482;stroke-width:0;stroke-linecap:butt;stroke-linejoin:miter;stroke-miterlimit:4;stroke-dasharray:none;stroke-opacity:1"
           id="rect4563"
           width="2.1771417"
           height="6.992559"
           x="108.99699"
           y="140.04539"
           ry="0.34962791" /><rect
           ry="0.34962791"
           y="-113.58183"
           x="142.45311"
           height="6.992559"
           width="2.1771417"
           id="rect4565"
           style="opacity:1;fill:#ffffff;fill-opacity:1;stroke:#004482;stroke-width:0;stroke-linecap:butt;stroke-linejoin:miter;stroke-miterlimit:4;stroke-dasharray:none;stroke-opacity:1"
           transform="rotate(90)" /></g></g></g><g
     transform="matrix(0.34549417,0,0,0.34549417,-72.513428,99.855264)"
     id="g4273"><g
       id="g4271"><path
         inkscape:connector-curvature="0"
         transform="scale(0.26458333)"
         id="path4233"
         d="m 390.92969,542.69141 c -243.11568,128.53878 -119.5773,351.83319 0,410.62695 119.5773,-58.79376 243.11569,-282.08817 0,-410.62695 z"
         style="opacity:1;fill:#b3862a;fill-opacity:1;fill-rule:evenodd;stroke:none;stroke-width:1;stroke-linecap:butt;stroke-linejoin:miter;stroke-miterlimit:4;stroke-dasharray:none;stroke-opacity:1" /><path
         inkscape:connector-curvature="0"
         style="opacity:1;fill:#778254;fill-opacity:1;fill-rule:evenodd;stroke:none;stroke-width:0.264583;stroke-linecap:butt;stroke-linejoin:miter;stroke-miterlimit:4;stroke-dasharray:none;stroke-opacity:1"
         d="M 103.37659,143.68564 C 164.99161,182.38756 199.81328,124.5405 197.46596,89.363122 168.17512,69.741596 100.66725,70.974507 103.37659,143.68564 Z"
         id="path4235" /><path
         inkscape:connector-curvature="0"
         id="path4237"
         d="m 106.67086,141.85552 c 57.30197,35.99279 89.68612,-17.80498 87.50312,-50.519939 -27.24049,-18.248016 -90.0228,-17.101409 -87.50312,50.519939 z"
         style="opacity:1;fill:#8f9c67;fill-opacity:1;fill-rule:evenodd;stroke:none;stroke-width:0.246062;stroke-linecap:butt;stroke-linejoin:miter;stroke-miterlimit:4;stroke-dasharray:none;stroke-opacity:1" /><path
         inkscape:connector-curvature="0"
         style="opacity:1;fill:#b3572f;fill-opacity:1;fill-rule:evenodd;stroke:none;stroke-width:0.264583;stroke-linecap:butt;stroke-linejoin:miter;stroke-miterlimit:4;stroke-dasharray:none;stroke-opacity:1"
         d="M 103.49037,143.68564 C 106.19971,70.974508 38.691845,69.741595 9.4010047,89.363121 7.0536848,124.5405 41.875348,182.38756 103.49037,143.68564 Z"
         id="path4239" /><path
         inkscape:connector-curvature="0"
         id="path4241"
         d="M 100.1961,141.85552 C 102.71579,74.234169 39.933474,73.08756 12.692992,91.33558 10.509985,124.05054 42.894131,177.8483 100.1961,141.85552 Z"
         style="opacity:1;fill:#d17750;fill-opacity:1;fill-rule:evenodd;stroke:none;stroke-width:0.246062;stroke-linecap:butt;stroke-linejoin:miter;stroke-miterlimit:4;stroke-dasharray:none;stroke-opacity:1" /><path
         inkscape:connector-curvature="0"
         style="opacity:1;fill:#d6ab54;fill-opacity:1;fill-rule:evenodd;stroke:none;stroke-width:0.246063;stroke-linecap:butt;stroke-linejoin:miter;stroke-miterlimit:4;stroke-dasharray:none;stroke-opacity:1"
         d="m 103.43348,147.3896 c -59.821655,31.62858 -29.423493,86.57296 0,101.0399 29.42349,-14.46694 59.82165,-69.41132 0,-101.0399 z"
         id="path4243" /><circle
         r="21.774761"
         cy="143.5871"
         cx="103.43348"
         id="circle4245"
         style="opacity:1;fill:#659ad2;fill-opacity:1;stroke:#004482;stroke-width:3;stroke-linecap:round;stroke-linejoin:round;stroke-miterlimit:4;stroke-dasharray:none;stroke-opacity:1" /><path
         inkscape:connector-curvature="0"
         style="opacity:1;fill:#4283c8;fill-opacity:1;stroke:none;stroke-width:0.331131;stroke-linecap:round;stroke-linejoin:round;stroke-miterlimit:4;stroke-dasharray:none;stroke-opacity:1"
         id="path4247"
         d="m 117.7794,129.24411 a 20.284042,20.284042 0 0 1 5.94106,14.34299 20.284042,20.284042 0 0 1 -5.94106,14.34298 L 103.43642,143.5871 Z" /><ellipse
         ry="16.33107"
         rx="16.331072"
         style="opacity:1;fill:#0068c6;fill-opacity:1;stroke:none;stroke-width:0.2666;stroke-linecap:round;stroke-linejoin:round;stroke-miterlimit:4;stroke-dasharray:none;stroke-opacity:1"
         id="ellipse4249"
         cx="103.43348"
         cy="143.5871" /><circle
         style="opacity:1;fill:#ffffff;fill-opacity:1;stroke:none;stroke-width:0.196244;stroke-linecap:round;stroke-linejoin:round;stroke-miterlimit:4;stroke-dasharray:none;stroke-opacity:1"
         id="circle4251"
         cx="103.43348"
         cy="143.5871"
         r="12.021309" /><circle
         r="8.278512"
         style="opacity:1;fill:#0068c6;fill-opacity:1;stroke:none;stroke-width:0.135144;stroke-linecap:round;stroke-linejoin:round;stroke-miterlimit:4;stroke-dasharray:none;stroke-opacity:1"
         id="circle4253"
         cx="103.43348"
         cy="143.5871" /><path
         inkscape:connector-curvature="0"
         d="m 115.08492,131.93719 a 16.475452,16.475452 0 0 1 4.82555,11.64991 16.475452,16.475452 0 0 1 -4.82555,11.6499 l -11.64991,-11.6499 z"
         id="path4255"
         style="opacity:1;fill:#007be8;fill-opacity:1;stroke:none;stroke-width:0.268957;stroke-linecap:round;stroke-linejoin:round;stroke-miterlimit:4;stroke-dasharray:none;stroke-opacity:1" /><path
         inkscape:connector-curvature="0"
         d="m 111.96713,135.05334 a 12.068556,12.068556 0 0 1 3.5348,8.53376 12.068556,12.068556 0 0 1 -3.5348,8.53375 l -8.53376,-8.53375 z"
         id="path4257"
         style="opacity:1;fill:#005bac;fill-opacity:1;stroke:none;stroke-width:0.197016;stroke-linecap:round;stroke-linejoin:round;stroke-miterlimit:4;stroke-dasharray:none;stroke-opacity:1" /><g
         transform="matrix(0.72972975,0,0,0.72972975,31.075767,38.795045)"
         id="g4263"><rect
           style="opacity:1;fill:#ffffff;fill-opacity:1;stroke:#004482;stroke-width:0;stroke-linecap:butt;stroke-linejoin:miter;stroke-miterlimit:4;stroke-dasharray:none;stroke-opacity:1"
           id="rect4259"
           width="2.1771417"
           height="6.992559"
           x="108.99699"
           y="140.04539"
           ry="0.34962791" /><rect
           ry="0.34962791"
           y="-113.58183"
           x="142.45311"
           height="6.992559"
           width="2.1771417"
           id="rect4261"
           style="opacity:1;fill:#ffffff;fill-opacity:1;stroke:#004482;stroke-width:0;stroke-linecap:butt;stroke-linejoin:miter;stroke-miterlimit:4;stroke-dasharray:none;stroke-opacity:1"
           transform="rotate(90)" /></g><g
         id="g4269"
         transform="matrix(0.72972975,0,0,0.72972975,36.839904,38.795045)"><rect
           ry="0.34962791"
           y="140.04539"
           x="108.99699"
           height="6.992559"
           width="2.1771417"
           id="rect4265"
           style="opacity:1;fill:#ffffff;fill-opacity:1;stroke:#004482;stroke-width:0;stroke-linecap:butt;stroke-linejoin:miter;stroke-miterlimit:4;stroke-dasharray:none;stroke-opacity:1" /><rect
           transform="rotate(90)"
           style="opacity:1;fill:#ffffff;fill-opacity:1;stroke:#004482;stroke-width:0;stroke-linecap:butt;stroke-linejoin:miter;stroke-miterlimit:4;stroke-dasharray:none;stroke-opacity:1"
           id="rect4267"
           width="2.1771417"
           height="6.992559"
           x="142.45311"
           y="-113.58183"
           ry="0.34962791" /></g></g></g><g
     style="filter:url(#filter4319)"
     id="g4315"
     transform="matrix(0.34549417,0,0,0.34549417,-72.513428,36.855264)"><g
       id="g4313"><path
         style="opacity:1;fill:#b3862a;fill-opacity:1;fill-rule:evenodd;stroke:none;stroke-width:1;stroke-linecap:butt;stroke-linejoin:miter;stroke-miterlimit:4;stroke-dasharray:none;stroke-opacity:1"
         d="m 390.92969,542.69141 c -243.11568,128.53878 -119.5773,351.83319 0,410.62695 119.5773,-58.79376 243.11569,-282.08817 0,-410.62695 z"
         id="path4275"
         transform="scale(0.26458333)"
         inkscape:connector-curvature="0" /><path
         id="path4277"
         d="M 103.37659,143.68564 C 164.99161,182.38756 199.81328,124.5405 197.46596,89.363122 168.17512,69.741596 100.66725,70.974507 103.37659,143.68564 Z"
         style="opacity:1;fill:#778254;fill-opacity:1;fill-rule:evenodd;stroke:none;stroke-width:0.264583;stroke-linecap:butt;stroke-linejoin:miter;stroke-miterlimit:4;stroke-dasharray:none;stroke-opacity:1"
         inkscape:connector-curvature="0" /><path
         style="opacity:1;fill:#8f9c67;fill-opacity:1;fill-rule:evenodd;stroke:none;stroke-width:0.246062;stroke-linecap:butt;stroke-linejoin:miter;stroke-miterlimit:4;stroke-dasharray:none;stroke-opacity:1"
         d="m 106.67086,141.85552 c 57.30197,35.99279 89.68612,-17.80498 87.50312,-50.519939 -27.24049,-18.248016 -90.0228,-17.101409 -87.50312,50.519939 z"
         id="path4279"
         inkscape:connector-curvature="0" /><path
         id="path4281"
         d="M 103.49037,143.68564 C 106.19971,70.974508 38.691845,69.741595 9.4010047,89.363121 7.0536848,124.5405 41.875348,182.38756 103.49037,143.68564 Z"
         style="opacity:1;fill:#b3572f;fill-opacity:1;fill-rule:evenodd;stroke:none;stroke-width:0.264583;stroke-linecap:butt;stroke-linejoin:miter;stroke-miterlimit:4;stroke-dasharray:none;stroke-opacity:1"
         inkscape:connector-curvature="0" /><path
         style="opacity:1;fill:#d17750;fill-opacity:1;fill-rule:evenodd;stroke:none;stroke-width:0.246062;stroke-linecap:butt;stroke-linejoin:miter;stroke-miterlimit:4;stroke-dasharray:none;stroke-opacity:1"
         d="M 100.1961,141.85552 C 102.71579,74.234169 39.933474,73.08756 12.692992,91.33558 10.509985,124.05054 42.894131,177.8483 100.1961,141.85552 Z"
         id="path4283"
         inkscape:connector-curvature="0" /><path
         id="path4285"
         d="m 103.43348,147.3896 c -59.821655,31.62858 -29.423493,86.57296 0,101.0399 29.42349,-14.46694 59.82165,-69.41132 0,-101.0399 z"
         style="opacity:1;fill:#d6ab54;fill-opacity:1;fill-rule:evenodd;stroke:none;stroke-width:0.246063;stroke-linecap:butt;stroke-linejoin:miter;stroke-miterlimit:4;stroke-dasharray:none;stroke-opacity:1"
         inkscape:connector-curvature="0" /><circle
         style="opacity:1;fill:#659ad2;fill-opacity:1;stroke:#004482;stroke-width:3;stroke-linecap:round;stroke-linejoin:round;stroke-miterlimit:4;stroke-dasharray:none;stroke-opacity:1"
         id="circle4287"
         cx="103.43348"
         cy="143.5871"
         r="21.774761" /><path
         d="m 117.7794,129.24411 a 20.284042,20.284042 0 0 1 5.94106,14.34299 20.284042,20.284042 0 0 1 -5.94106,14.34298 L 103.43642,143.5871 Z"
         id="path4289"
         style="opacity:1;fill:#4283c8;fill-opacity:1;stroke:none;stroke-width:0.331131;stroke-linecap:round;stroke-linejoin:round;stroke-miterlimit:4;stroke-dasharray:none;stroke-opacity:1"
         inkscape:connector-curvature="0" /><ellipse
         cy="143.5871"
         cx="103.43348"
         id="ellipse4291"
         style="opacity:1;fill:#0068c6;fill-opacity:1;stroke:none;stroke-width:0.2666;stroke-linecap:round;stroke-linejoin:round;stroke-miterlimit:4;stroke-dasharray:none;stroke-opacity:1"
         rx="16.331072"
         ry="16.33107" /><circle
         r="12.021309"
         cy="143.5871"
         cx="103.43348"
         id="circle4293"
         style="opacity:1;fill:#ffffff;fill-opacity:1;stroke:none;stroke-width:0.196244;stroke-linecap:round;stroke-linejoin:round;stroke-miterlimit:4;stroke-dasharray:none;stroke-opacity:1" /><circle
         cy="143.5871"
         cx="103.43348"
         id="circle4295"
         style="opacity:1;fill:#0068c6;fill-opacity:1;stroke:none;stroke-width:0.135144;stroke-linecap:round;stroke-linejoin:round;stroke-miterlimit:4;stroke-dasharray:none;stroke-opacity:1"
         r="8.278512" /><path
         style="opacity:1;fill:#007be8;fill-opacity:1;stroke:none;stroke-width:0.268957;stroke-linecap:round;stroke-linejoin:round;stroke-miterlimit:4;stroke-dasharray:none;stroke-opacity:1"
         id="path4297"
         d="m 115.08492,131.93719 a 16.475452,16.475452 0 0 1 4.82555,11.64991 16.475452,16.475452 0 0 1 -4.82555,11.6499 l -11.64991,-11.6499 z"
         inkscape:connector-curvature="0" /><path
         style="opacity:1;fill:#005bac;fill-opacity:1;stroke:none;stroke-width:0.197016;stroke-linecap:round;stroke-linejoin:round;stroke-miterlimit:4;stroke-dasharray:none;stroke-opacity:1"
         id="path4299"
         d="m 111.96713,135.05334 a 12.068556,12.068556 0 0 1 3.5348,8.53376 12.068556,12.068556 0 0 1 -3.5348,8.53375 l -8.53376,-8.53375 z"
         inkscape:connector-curvature="0" /><g
         id="g4305"
         transform="matrix(0.72972975,0,0,0.72972975,31.075767,38.795045)"><rect
           ry="0.34962791"
           y="140.04539"
           x="108.99699"
           height="6.992559"
           width="2.1771417"
           id="rect4301"
           style="opacity:1;fill:#ffffff;fill-opacity:1;stroke:#004482;stroke-width:0;stroke-linecap:butt;stroke-linejoin:miter;stroke-miterlimit:4;stroke-dasharray:none;stroke-opacity:1" /><rect
           transform="rotate(90)"
           style="opacity:1;fill:#ffffff;fill-opacity:1;stroke:#004482;stroke-width:0;stroke-linecap:butt;stroke-linejoin:miter;stroke-miterlimit:4;stroke-dasharray:none;stroke-opacity:1"
           id="rect4303"
           width="2.1771417"
           height="6.992559"
           x="142.45311"
           y="-113.58183"
           ry="0.34962791" /></g><g
         transform="matrix(0.72972975,0,0,0.72972975,36.839904,38.795045)"
         id="g4311"><rect
           style="opacity:1;fill:#ffffff;fill-opacity:1;stroke:#004482;stroke-width:0;stroke-linecap:butt;stroke-linejoin:miter;stroke-miterlimit:4;stroke-dasharray:none;stroke-opacity:1"
           id="rect4307"
           width="2.1771417"
           height="6.992559"
           x="108.99699"
           y="140.04539"
           ry="0.34962791" /><rect
           ry="0.34962791"
           y="-113.58183"
           x="142.45311"
           height="6.992559"
           width="2.1771417"
           id="rect4309"
           style="opacity:1;fill:#ffffff;fill-opacity:1;stroke:#004482;stroke-width:0;stroke-linecap:butt;stroke-linejoin:miter;stroke-miterlimit:4;stroke-dasharray:none;stroke-opacity:1"
           transform="rotate(90)" /></g></g></g></g>
<g
   id="g392"
   transform="translate(159.05775,-0.31243381)"><g
     aria-label="Core C++ &lt;local&gt; 2021 "
     id="text815"
     style="font-style:normal;font-variant:normal;font-weight:normal;font-stretch:normal;font-size:20.7419px;line-height:0;font-family:'WLM Idea';-inkscape-font-specification:'WLM Idea';text-align:start;letter-spacing:0px;word-spacing:0px;text-anchor:start;display:inline;fill:#4e4e4e;fill-opacity:1;stroke:none;stroke-width:0.518548px;stroke-linecap:butt;stroke-linejoin:miter;stroke-opacity:1"
     transform="translate(-159.4956,0.31243336)"><path
       d="m 85.679776,5.6075448 q -1.428031,0 -2.228134,1.1748342 -0.800102,1.1647062 -0.800102,3.220666 0,4.273966 3.251049,4.273966 0.982405,0 1.904042,-0.273453 0.921637,-0.273453 1.853402,-0.658312 v 3.382712 q -1.853402,0.820358 -4.192943,0.820358 -3.352328,0 -5.144963,-1.944553 -1.782507,-1.944553 -1.782507,-5.6209738 0,-2.2990289 0.86087,-4.0410243 0.870998,-1.7419955 2.491459,-2.6737605 1.630588,-0.9418929 3.828338,-0.9418929 2.400308,0 4.58793,1.0431717 L 89.082744,6.5190541 Q 88.262385,6.1341946 87.442027,5.8708697 86.621669,5.6075448 85.679776,5.6075448 Z"
       style="font-style:normal;font-variant:normal;font-weight:normal;font-stretch:normal;font-size:20.7419px;line-height:110%;font-family:'WLM Idea';-inkscape-font-specification:'WLM Idea';letter-spacing:-0.942322px;fill:#4e4e4e;fill-opacity:1;stroke-width:0.518548px"
       id="path864" /><path
       d="m 102.32958,11.582994 q 0,2.815551 -1.51918,4.395501 -1.509054,1.569821 -4.233453,1.569821 -2.612994,0 -4.162559,-1.610333 -1.539438,-1.610333 -1.539438,-4.354989 0,-2.8054226 1.509054,-4.3549883 1.519182,-1.5596936 4.25371,-1.5596936 1.691356,0 2.987725,0.7190795 1.296371,0.7190795 1.995191,2.0660877 0.70895,1.3368802 0.70895,3.1295147 z m -7.433862,0 q 0,1.478671 0.394988,2.258518 0.394987,0.769719 1.326752,0.769719 0.921637,0 1.296369,-0.769719 0.384859,-0.779847 0.384859,-2.258518 0,-1.468542 -0.384859,-2.2180055 -0.38486,-0.7494631 -1.316625,-0.7494631 -0.911509,0 -1.306496,0.7494631 -0.394988,0.7393355 -0.394988,2.2180055 z"
       style="font-style:normal;font-variant:normal;font-weight:normal;font-stretch:normal;font-size:20.7419px;line-height:110%;font-family:'WLM Idea';-inkscape-font-specification:'WLM Idea';letter-spacing:-0.942322px;fill:#4e4e4e;fill-opacity:1;stroke-width:0.518548px"
       id="path866" /><path
       d="m 110.57325,5.6683121 q 0.51652,0 0.9824,0.081023 l 0.22282,0.040512 -0.35448,3.7371879 Q 110.93785,9.4055 110.07698,9.4055 q -1.29637,0 -1.88378,0.597545 -0.58742,0.587417 -0.58742,1.701484 v 5.641229 h -3.96 V 5.8708697 l 3.56501,-0.010128 V 7.704016 h 0.19243 q 0.49627,-0.9115093 1.37739,-1.4685427 0.89126,-0.5671613 1.79264,-0.5671612 z"
       style="font-style:normal;font-variant:normal;font-weight:normal;font-stretch:normal;font-size:20.7419px;line-height:110%;font-family:'WLM Idea';-inkscape-font-specification:'WLM Idea';letter-spacing:-0.942322px;fill:#4e4e4e;fill-opacity:1;stroke-width:0.518548px"
       id="path868" /><path
       d="m 117.56106,17.548316 q -2.86619,0 -4.45627,-1.519182 -1.57995,-1.52931 -1.57995,-4.344861 0,-2.9067016 1.46854,-4.4562673 1.46855,-1.5596936 4.19295,-1.5596936 2.59273,0 4.00051,1.357136 1.4179,1.3470081 1.4179,3.8891059 v 1.762251 h -7.07939 q 0.0405,0.962149 0.69883,1.509055 0.66844,0.546905 1.81289,0.546905 1.04317,0 1.91417,-0.192429 0.88112,-0.202558 1.90404,-0.678568 v 2.845934 q -0.93177,0.47601 -1.9243,0.658312 -0.99253,0.182302 -2.36992,0.182302 z m -0.23294,-9.1859877 q -0.69883,0 -1.17484,0.4456268 -0.46588,0.4354988 -0.5469,1.3773919 h 3.40296 q -0.0202,-0.8304864 -0.47601,-1.3267525 -0.44562,-0.4962662 -1.20521,-0.4962662 z"
       style="font-style:normal;font-variant:normal;font-weight:normal;font-stretch:normal;font-size:20.7419px;line-height:110%;font-family:'WLM Idea';-inkscape-font-specification:'WLM Idea';letter-spacing:-0.942322px;fill:#4e4e4e;fill-opacity:1;stroke-width:0.518548px"
       id="path870" /><path
       d="m 135.17258,5.6075448 q -1.42803,0 -2.22813,1.1748342 -0.8001,1.1647062 -0.8001,3.220666 0,4.273966 3.25104,4.273966 0.98241,0 1.90405,-0.273453 0.92163,-0.273453 1.8534,-0.658312 v 3.382712 q -1.8534,0.820358 -4.19294,0.820358 -3.35233,0 -5.14497,-1.944553 -1.7825,-1.944553 -1.7825,-5.6209738 0,-2.2990289 0.86087,-4.0410243 0.87099,-1.7419955 2.49145,-2.6737605 1.63059,-0.9418929 3.82834,-0.9418929 2.40031,0 4.58793,1.0431717 l -1.22547,3.1497709 q -0.82036,-0.3848595 -1.64072,-0.6481844 -0.82036,-0.2633249 -1.76225,-0.2633249 z"
       style="font-style:normal;font-variant:normal;font-weight:normal;font-stretch:normal;font-size:20.7419px;line-height:110%;font-family:'WLM Idea';-inkscape-font-specification:'WLM Idea';letter-spacing:-0.942322px;fill:#4e4e4e;fill-opacity:1;stroke-width:0.518548px"
       id="path872" /><path
       d="m 144.00366,10.93481 h -3.76757 V 8.220538 h 3.76757 V 4.5036058 h 2.7244 V 8.220538 h 3.76758 v 2.714272 h -3.76758 v 3.656165 h -2.7244 z"
       style="font-style:normal;font-variant:normal;font-weight:normal;font-stretch:normal;font-size:20.7419px;line-height:110%;font-family:'WLM Idea';-inkscape-font-specification:'WLM Idea';letter-spacing:-0.942322px;fill:#4e4e4e;fill-opacity:1;stroke-width:0.518548px"
       id="path874" /><path
       d="m 154.79956,10.93481 h -3.76758 V 8.220538 h 3.76758 V 4.5036058 h 2.7244 V 8.220538 h 3.76757 v 2.714272 h -3.76757 v 3.656165 h -2.7244 z"
       style="font-style:normal;font-variant:normal;font-weight:normal;font-stretch:normal;font-size:20.7419px;line-height:110%;font-family:'WLM Idea';-inkscape-font-specification:'WLM Idea';letter-spacing:-0.942322px;fill:#4e4e4e;fill-opacity:1;stroke-width:0.518548px"
       id="path876" /><path
       d="m 78.793611,30.093483 6.245941,-3.865383 0.831179,1.30729 -5.51967,3.332783 5.51967,3.332783 -0.887666,1.299221 -6.189454,-3.857313 z"
       style="font-style:normal;font-variant:normal;font-weight:500;font-stretch:normal;font-size:15.7359px;line-height:110%;font-family:'Fira Code';-inkscape-font-specification:'Fira Code Medium';stroke-width:0.518548px"
       id="path878" /><path
       d="m 92.350671,33.603799 q 0,0.564878 0.338927,0.823109 0.346997,0.25823 0.952224,0.25823 0.645575,0 1.347638,-0.28244 l 0.459973,1.258872 q -0.952224,0.484182 -2.194956,0.484182 -0.847318,0 -1.460615,-0.322788 Q 91.180566,35.492107 90.857778,34.88688 90.54306,34.273583 90.54306,33.442405 v -8.12618 h -2.574232 v -1.331499 h 4.381843 z"
       style="font-style:normal;font-variant:normal;font-weight:500;font-stretch:normal;font-size:15.7359px;line-height:110%;font-family:'Fira Code';-inkscape-font-specification:'Fira Code Medium';stroke-width:0.518548px"
       id="path880" /><path
       d="m 101.70342,27.180324 q 1.22659,0 2.09005,0.548739 0.86346,0.548739 1.30729,1.557451 0.44384,1.000641 0.44384,2.364419 0,1.355709 -0.45191,2.37249 -0.4519,1.008711 -1.31536,1.56552 -0.86345,0.556809 -2.08198,0.556809 -1.22659,0 -2.090048,-0.540669 -0.863457,-0.54067 -1.31536,-1.549381 -0.443833,-1.008712 -0.443833,-2.388629 0,-1.331499 0.451903,-2.348281 0.451902,-1.016781 1.315359,-1.57359 0.871529,-0.564878 2.090049,-0.564878 z m 0,1.404126 q -0.9845,0 -1.47675,0.758551 -0.484184,0.750482 -0.484184,2.324072 0,1.57359 0.484184,2.332141 0.48418,0.750481 1.46868,0.750481 0.9845,0 1.46869,-0.750481 0.48418,-0.758551 0.48418,-2.348281 0,-1.56552 -0.48418,-2.316001 -0.48419,-0.750482 -1.46062,-0.750482 z"
       style="font-style:normal;font-variant:normal;font-weight:500;font-stretch:normal;font-size:15.7359px;line-height:110%;font-family:'Fira Code';-inkscape-font-specification:'Fira Code Medium';stroke-width:0.518548px"
       id="path882" /><path
       d="m 112.08102,34.660929 q 0.56488,0 1.07327,-0.193673 0.51646,-0.193673 1.02485,-0.548739 l 0.83925,1.162036 q -0.57295,0.484181 -1.37185,0.77469 -0.79083,0.290509 -1.62201,0.290509 -1.29115,0 -2.22723,-0.548739 -0.93608,-0.548739 -1.42834,-1.549381 -0.49225,-1.008712 -0.49225,-2.340211 0,-1.30729 0.50032,-2.332141 0.50032,-1.024851 1.44448,-1.605869 0.95222,-0.589087 2.2353,-0.589087 1.71078,0 2.95351,1.024851 l -0.83118,1.137826 q -1.03292,-0.710132 -2.09005,-0.710132 -1.05713,0 -1.67849,0.76662 -0.6133,0.766621 -0.6133,2.307932 0,1.525172 0.6133,2.243375 0.61329,0.710133 1.67042,0.710133 z"
       style="font-style:normal;font-variant:normal;font-weight:500;font-stretch:normal;font-size:15.7359px;line-height:110%;font-family:'Fira Code';-inkscape-font-specification:'Fira Code Medium';stroke-width:0.518548px"
       id="path884" /><path
       d="m 124.1694,33.83782 q 0,0.492251 0.14525,0.726272 0.15333,0.234021 0.50032,0.346997 l -0.40348,1.226593 q -0.65364,-0.07263 -1.09748,-0.355066 -0.44383,-0.282439 -0.66978,-0.823109 -0.45997,0.581018 -1.17011,0.887666 -0.71013,0.298579 -1.54938,0.298579 -0.85539,0 -1.49289,-0.330857 -0.62944,-0.330858 -0.96836,-0.928015 -0.33893,-0.597157 -0.33893,-1.387987 0,-1.347639 1.04906,-2.073911 1.05713,-0.726272 3.00192,-0.726272 h 1.21853 v -0.556809 q 0,-0.806969 -0.48418,-1.178175 -0.48419,-0.371206 -1.4122,-0.371206 -0.44383,0 -1.04099,0.112976 -0.59716,0.112975 -1.22659,0.330857 l -0.44384,-1.275011 q 0.77469,-0.290509 1.54131,-0.435764 0.76663,-0.145254 1.44448,-0.145254 1.68656,0 2.54195,0.742412 0.85539,0.742411 0.85539,2.114259 z m -3.69592,0.976433 q 0.55681,0 1.07327,-0.290509 0.52453,-0.298579 0.84732,-0.815039 v -1.880238 h -1.00064 q -1.23467,0 -1.80762,0.411554 -0.56487,0.403485 -0.56487,1.178175 0,0.685924 0.36313,1.04099 0.37121,0.355067 1.08941,0.355067 z"
       style="font-style:normal;font-variant:normal;font-weight:500;font-stretch:normal;font-size:15.7359px;line-height:110%;font-family:'Fira Code';-inkscape-font-specification:'Fira Code Medium';stroke-width:0.518548px"
       id="path886" /><path
       d="m 131.0851,33.603799 q 0,0.564878 0.33893,0.823109 0.347,0.25823 0.95222,0.25823 0.64558,0 1.34764,-0.28244 l 0.45998,1.258872 q -0.95223,0.484182 -2.19496,0.484182 -0.84732,0 -1.46061,-0.322788 -0.6133,-0.330857 -0.93609,-0.936084 -0.31472,-0.613297 -0.31472,-1.444475 v -8.12618 h -2.57423 v -1.331499 h 4.38184 z"
       style="font-style:normal;font-variant:normal;font-weight:500;font-stretch:normal;font-size:15.7359px;line-height:110%;font-family:'Fira Code';-inkscape-font-specification:'Fira Code Medium';stroke-width:0.518548px"
       id="path888" /><path
       d="m 136.89526,27.559599 0.83925,-1.331499 6.23787,3.857313 v 1.557451 l -6.18946,3.857313 -0.88766,-1.275012 5.52774,-3.356992 z"
       style="font-style:normal;font-variant:normal;font-weight:500;font-stretch:normal;font-size:15.7359px;line-height:110%;font-family:'Fira Code';-inkscape-font-specification:'Fira Code Medium';stroke-width:0.518548px"
       id="path890" /><path
       d="M 88.849803,57.471339 H 78.104121 V 54.83809 l 3.615654,-3.656165 q 1.549565,-1.620461 2.025576,-2.207878 0.47601,-0.597545 0.658312,-1.022916 0.19243,-0.425371 0.19243,-0.891254 0,-0.577289 -0.374732,-0.911509 -0.374731,-0.33422 -1.053299,-0.33422 -0.698824,0 -1.417904,0.405115 -0.708951,0.394988 -1.610333,1.174834 l -2.19775,-2.572481 q 1.144451,-1.022916 1.924297,-1.458415 0.779847,-0.445627 1.691357,-0.678568 0.921637,-0.232941 2.066087,-0.232941 1.438159,0 2.562354,0.506394 1.134323,0.506394 1.752123,1.448287 0.627929,0.931765 0.627929,2.096471 0,0.870998 -0.222813,1.610333 -0.212686,0.739335 -0.668441,1.458415 -0.455754,0.708951 -1.215345,1.498926 -0.749463,0.789975 -3.210538,2.997853 v 0.101279 h 5.600718 z"
       style="line-height:110%;letter-spacing:-0.942322px;fill:#4e4e4e;fill-opacity:1;stroke-width:0.518548px"
       id="path892" /><path
       d="m 100.1217,50.088114 q 0,3.929617 -1.31662,5.762764 -1.316624,1.823018 -4.030896,1.823018 -2.653505,0 -4.000513,-1.904041 -1.347008,-1.91417 -1.347008,-5.681741 0,-3.949874 1.316624,-5.793148 1.316625,-1.843274 4.030897,-1.843274 2.643377,0 3.990385,1.924297 1.357131,1.914169 1.357131,5.712125 z m -6.71478,0 q 0,2.511714 0.313964,3.453607 0.313964,0.941893 1.0533,0.941893 0.749463,0 1.053299,-0.972277 0.313965,-0.972276 0.313965,-3.423223 0,-2.461075 -0.313965,-3.44348 -0.313964,-0.992532 -1.053299,-0.992532 -0.739336,0 -1.0533,0.952021 -0.313964,0.952021 -0.313964,3.483991 z"
       style="line-height:110%;letter-spacing:-0.942322px;fill:#4e4e4e;fill-opacity:1;stroke-width:0.518548px"
       id="path894" /><path
       d="M 111.27207,57.471339 H 100.52639 V 54.83809 l 3.61565,-3.656165 q 1.54957,-1.620461 2.02558,-2.207878 0.47601,-0.597545 0.65831,-1.022916 0.19243,-0.425371 0.19243,-0.891254 0,-0.577289 -0.37473,-0.911509 -0.37473,-0.33422 -1.0533,-0.33422 -0.69882,0 -1.4179,0.405115 -0.70895,0.394988 -1.61033,1.174834 l -2.19776,-2.572481 q 1.14446,-1.022916 1.9243,-1.458415 0.77985,-0.445627 1.69136,-0.678568 0.92164,-0.232941 2.06609,-0.232941 1.43816,0 2.56235,0.506394 1.13432,0.506394 1.75212,1.448287 0.62793,0.931765 0.62793,2.096471 0,0.870998 -0.22281,1.610333 -0.21269,0.739335 -0.66844,1.458415 -0.45576,0.708951 -1.21535,1.498926 -0.74946,0.789975 -3.21054,2.997853 v 0.101279 h 5.60072 z"
       style="line-height:110%;letter-spacing:-0.942322px;fill:#4e4e4e;fill-opacity:1;stroke-width:0.518548px"
       id="path896" /><path
       d="m 120.66019,57.471339 h -4.06128 v -7.83898 q 0,-1.428031 0.0608,-2.612993 -0.37473,0.455755 -0.93176,0.952021 l -1.68123,1.387519 -2.07621,-2.552226 5.08419,-4.142303 h 3.60553 z"
       style="line-height:110%;letter-spacing:-0.942322px;fill:#4e4e4e;fill-opacity:1;stroke-width:0.518548px"
       id="path898" /></g><g
     aria-label="Core C++ &lt;local&gt; 2021 "
     id="text825"
     style="font-style:normal;font-variant:normal;font-weight:normal;font-stretch:normal;font-size:20.7419px;line-height:0;font-family:'WLM Idea';-inkscape-font-specification:'WLM Idea';text-align:start;letter-spacing:0px;word-spacing:0px;text-anchor:start;display:inline;fill:#4e4e4e;fill-opacity:1;stroke:none;stroke-width:0.518548px;stroke-linecap:butt;stroke-linejoin:miter;stroke-opacity:1"
     transform="translate(-159.4956,0.31243336)"><path
       d="m 85.679776,67.181449 q -1.428031,0 -2.228134,1.174834 -0.800102,1.164706 -0.800102,3.220666 0,4.273966 3.251049,4.273966 0.982405,0 1.904042,-0.273453 0.921637,-0.273453 1.853402,-0.658312 v 3.382712 q -1.853402,0.820358 -4.192943,0.820358 -3.352328,0 -5.144963,-1.944553 -1.782507,-1.944553 -1.782507,-5.620974 0,-2.299029 0.86087,-4.041024 0.870998,-1.741996 2.491459,-2.673761 1.630588,-0.941892 3.828338,-0.941892 2.400308,0 4.58793,1.043171 l -1.225473,3.149771 q -0.820359,-0.384859 -1.640717,-0.648184 -0.820358,-0.263325 -1.762251,-0.263325 z"
       style="font-style:normal;font-variant:normal;font-weight:normal;font-stretch:normal;font-size:20.7419px;line-height:110%;font-family:'WLM Idea';-inkscape-font-specification:'WLM Idea';letter-spacing:-0.942322px;fill:#4e4e4e;fill-opacity:1;stroke-width:0.518548px"
       id="path901" /><path
       d="m 102.32958,73.156898 q 0,2.815551 -1.51918,4.395501 -1.509054,1.569821 -4.233453,1.569821 -2.612994,0 -4.162559,-1.610333 -1.539438,-1.610333 -1.539438,-4.354989 0,-2.805423 1.509054,-4.354988 1.519182,-1.559694 4.25371,-1.559694 1.691356,0 2.987725,0.71908 1.296371,0.719079 1.995191,2.066087 0.70895,1.336881 0.70895,3.129515 z m -7.433862,0 q 0,1.478671 0.394988,2.258518 0.394987,0.769719 1.326752,0.769719 0.921637,0 1.296369,-0.769719 0.384859,-0.779847 0.384859,-2.258518 0,-1.468542 -0.384859,-2.218005 -0.38486,-0.749464 -1.316625,-0.749464 -0.911509,0 -1.306496,0.749464 -0.394988,0.739335 -0.394988,2.218005 z"
       style="font-style:normal;font-variant:normal;font-weight:normal;font-stretch:normal;font-size:20.7419px;line-height:110%;font-family:'WLM Idea';-inkscape-font-specification:'WLM Idea';letter-spacing:-0.942322px;fill:#4e4e4e;fill-opacity:1;stroke-width:0.518548px"
       id="path903" /><path
       d="m 110.57325,67.242216 q 0.51652,0 0.9824,0.08102 l 0.22282,0.04051 -0.35448,3.737188 q -0.48614,-0.121535 -1.34701,-0.121535 -1.29637,0 -1.88378,0.597545 -0.58742,0.587417 -0.58742,1.701484 v 5.641229 h -3.96 V 67.444774 l 3.56501,-0.01013 v 1.843274 h 0.19243 q 0.49627,-0.911509 1.37739,-1.468543 0.89126,-0.567161 1.79264,-0.567161 z"
       style="font-style:normal;font-variant:normal;font-weight:normal;font-stretch:normal;font-size:20.7419px;line-height:110%;font-family:'WLM Idea';-inkscape-font-specification:'WLM Idea';letter-spacing:-0.942322px;fill:#4e4e4e;fill-opacity:1;stroke-width:0.518548px"
       id="path905" /><path
       d="m 117.56106,79.12222 q -2.86619,0 -4.45627,-1.519182 -1.57995,-1.52931 -1.57995,-4.344861 0,-2.906702 1.46854,-4.456267 1.46855,-1.559694 4.19295,-1.559694 2.59273,0 4.00051,1.357136 1.4179,1.347008 1.4179,3.889106 v 1.762252 h -7.07939 q 0.0405,0.962148 0.69883,1.509054 0.66844,0.546905 1.81289,0.546905 1.04317,0 1.91417,-0.192429 0.88112,-0.202558 1.90404,-0.678568 v 2.845934 q -0.93177,0.47601 -1.9243,0.658312 -0.99253,0.182302 -2.36992,0.182302 z m -0.23294,-9.185988 q -0.69883,0 -1.17484,0.445627 -0.46588,0.435499 -0.5469,1.377392 h 3.40296 q -0.0202,-0.830486 -0.47601,-1.326752 -0.44562,-0.496267 -1.20521,-0.496267 z"
       style="font-style:normal;font-variant:normal;font-weight:normal;font-stretch:normal;font-size:20.7419px;line-height:110%;font-family:'WLM Idea';-inkscape-font-specification:'WLM Idea';letter-spacing:-0.942322px;fill:#4e4e4e;fill-opacity:1;stroke-width:0.518548px"
       id="path907" /><path
       d="m 135.17258,67.181449 q -1.42803,0 -2.22813,1.174834 -0.8001,1.164706 -0.8001,3.220666 0,4.273966 3.25104,4.273966 0.98241,0 1.90405,-0.273453 0.92163,-0.273453 1.8534,-0.658312 v 3.382712 q -1.8534,0.820358 -4.19294,0.820358 -3.35233,0 -5.14497,-1.944553 -1.7825,-1.944553 -1.7825,-5.620974 0,-2.299029 0.86087,-4.041024 0.87099,-1.741996 2.49145,-2.673761 1.63059,-0.941892 3.82834,-0.941892 2.40031,0 4.58793,1.043171 l -1.22547,3.149771 q -0.82036,-0.384859 -1.64072,-0.648184 -0.82036,-0.263325 -1.76225,-0.263325 z"
       style="font-style:normal;font-variant:normal;font-weight:normal;font-stretch:normal;font-size:20.7419px;line-height:110%;font-family:'WLM Idea';-inkscape-font-specification:'WLM Idea';letter-spacing:-0.942322px;fill:#4e4e4e;fill-opacity:1;stroke-width:0.518548px"
       id="path909" /><path
       d="m 144.00366,72.508714 h -3.76757 v -2.714272 h 3.76757 V 66.07751 h 2.7244 v 3.716932 h 3.76758 v 2.714272 h -3.76758 v 3.656165 h -2.7244 z"
       style="font-style:normal;font-variant:normal;font-weight:normal;font-stretch:normal;font-size:20.7419px;line-height:110%;font-family:'WLM Idea';-inkscape-font-specification:'WLM Idea';letter-spacing:-0.942322px;fill:#4e4e4e;fill-opacity:1;stroke-width:0.518548px"
       id="path911" /><path
       d="m 154.79956,72.508714 h -3.76758 v -2.714272 h 3.76758 V 66.07751 h 2.7244 v 3.716932 h 3.76757 v 2.714272 h -3.76757 v 3.656165 h -2.7244 z"
       style="font-style:normal;font-variant:normal;font-weight:normal;font-stretch:normal;font-size:20.7419px;line-height:110%;font-family:'WLM Idea';-inkscape-font-specification:'WLM Idea';letter-spacing:-0.942322px;fill:#4e4e4e;fill-opacity:1;stroke-width:0.518548px"
       id="path913" /><path
       d="m 78.793611,91.667387 6.245941,-3.865383 0.831179,1.30729 -5.51967,3.332783 5.51967,3.332783 -0.887666,1.299221 -6.189454,-3.857313 z"
       style="font-style:normal;font-variant:normal;font-weight:500;font-stretch:normal;font-size:15.7359px;line-height:110%;font-family:'Fira Code';-inkscape-font-specification:'Fira Code Medium';stroke-width:0.518548px"
       id="path915" /><path
       d="m 92.350671,95.177703 q 0,0.564878 0.338927,0.823109 0.346997,0.25823 0.952224,0.25823 0.645575,0 1.347638,-0.282439 l 0.459973,1.258872 q -0.952224,0.484181 -2.194956,0.484181 -0.847318,0 -1.460615,-0.322788 -0.613296,-0.330857 -0.936084,-0.936084 -0.314718,-0.613297 -0.314718,-1.444475 v -8.12618 H 87.968828 V 85.55863 h 4.381843 z"
       style="font-style:normal;font-variant:normal;font-weight:500;font-stretch:normal;font-size:15.7359px;line-height:110%;font-family:'Fira Code';-inkscape-font-specification:'Fira Code Medium';stroke-width:0.518548px"
       id="path917" /><path
       d="m 101.70342,88.754228 q 1.22659,0 2.09005,0.548739 0.86346,0.548739 1.30729,1.557451 0.44384,1.000641 0.44384,2.364419 0,1.355709 -0.45191,2.37249 -0.4519,1.008712 -1.31536,1.56552 -0.86345,0.556809 -2.08198,0.556809 -1.22659,0 -2.090048,-0.540669 -0.863457,-0.54067 -1.31536,-1.549381 -0.443833,-1.008712 -0.443833,-2.388629 0,-1.331499 0.451903,-2.348281 0.451902,-1.016781 1.315359,-1.57359 0.871529,-0.564878 2.090049,-0.564878 z m 0,1.404126 q -0.9845,0 -1.47675,0.758551 -0.484184,0.750482 -0.484184,2.324072 0,1.57359 0.484184,2.332141 0.48418,0.750481 1.46868,0.750481 0.9845,0 1.46869,-0.750481 0.48418,-0.758551 0.48418,-2.348281 0,-1.56552 -0.48418,-2.316001 -0.48419,-0.750482 -1.46062,-0.750482 z"
       style="font-style:normal;font-variant:normal;font-weight:500;font-stretch:normal;font-size:15.7359px;line-height:110%;font-family:'Fira Code';-inkscape-font-specification:'Fira Code Medium';stroke-width:0.518548px"
       id="path919" /><path
       d="m 112.08102,96.234833 q 0.56488,0 1.07327,-0.193673 0.51646,-0.193673 1.02485,-0.548739 l 0.83925,1.162036 q -0.57295,0.484181 -1.37185,0.77469 -0.79083,0.290509 -1.62201,0.290509 -1.29115,0 -2.22723,-0.548739 -0.93608,-0.548739 -1.42834,-1.549381 -0.49225,-1.008711 -0.49225,-2.340211 0,-1.30729 0.50032,-2.332141 0.50032,-1.024851 1.44448,-1.605869 0.95222,-0.589087 2.2353,-0.589087 1.71078,0 2.95351,1.024851 l -0.83118,1.137826 q -1.03292,-0.710132 -2.09005,-0.710132 -1.05713,0 -1.67849,0.76662 -0.6133,0.766621 -0.6133,2.307932 0,1.525172 0.6133,2.243375 0.61329,0.710133 1.67042,0.710133 z"
       style="font-style:normal;font-variant:normal;font-weight:500;font-stretch:normal;font-size:15.7359px;line-height:110%;font-family:'Fira Code';-inkscape-font-specification:'Fira Code Medium';stroke-width:0.518548px"
       id="path921" /><path
       d="m 124.1694,95.411724 q 0,0.492251 0.14525,0.726272 0.15333,0.234021 0.50032,0.346997 l -0.40348,1.226593 q -0.65364,-0.07263 -1.09748,-0.355066 -0.44383,-0.282439 -0.66978,-0.823109 -0.45997,0.581018 -1.17011,0.887666 -0.71013,0.298579 -1.54938,0.298579 -0.85539,0 -1.49289,-0.330857 -0.62944,-0.330858 -0.96836,-0.928015 -0.33893,-0.597157 -0.33893,-1.387987 0,-1.347639 1.04906,-2.073911 1.05713,-0.726272 3.00192,-0.726272 h 1.21853 v -0.556809 q 0,-0.806969 -0.48418,-1.178175 -0.48419,-0.371206 -1.4122,-0.371206 -0.44383,0 -1.04099,0.112976 -0.59716,0.112975 -1.22659,0.330857 l -0.44384,-1.275011 q 0.77469,-0.290509 1.54131,-0.435764 0.76663,-0.145254 1.44448,-0.145254 1.68656,0 2.54195,0.742412 0.85539,0.742411 0.85539,2.114259 z m -3.69592,0.976433 q 0.55681,0 1.07327,-0.290509 0.52453,-0.298579 0.84732,-0.815039 v -1.880238 h -1.00064 q -1.23467,0 -1.80762,0.411554 -0.56487,0.403485 -0.56487,1.178175 0,0.685924 0.36313,1.04099 0.37121,0.355067 1.08941,0.355067 z"
       style="font-style:normal;font-variant:normal;font-weight:500;font-stretch:normal;font-size:15.7359px;line-height:110%;font-family:'Fira Code';-inkscape-font-specification:'Fira Code Medium';stroke-width:0.518548px"
       id="path923" /><path
       d="m 131.0851,95.177703 q 0,0.564878 0.33893,0.823109 0.347,0.25823 0.95222,0.25823 0.64558,0 1.34764,-0.282439 l 0.45998,1.258872 q -0.95223,0.484181 -2.19496,0.484181 -0.84732,0 -1.46061,-0.322788 -0.6133,-0.330857 -0.93609,-0.936084 -0.31472,-0.613297 -0.31472,-1.444475 v -8.12618 h -2.57423 V 85.55863 h 4.38184 z"
       style="font-style:normal;font-variant:normal;font-weight:500;font-stretch:normal;font-size:15.7359px;line-height:110%;font-family:'Fira Code';-inkscape-font-specification:'Fira Code Medium';stroke-width:0.518548px"
       id="path925" /><path
       d="m 136.89526,89.133503 0.83925,-1.331499 6.23787,3.857313 v 1.557451 l -6.18946,3.857313 -0.88766,-1.275012 5.52774,-3.356992 z"
       style="font-style:normal;font-variant:normal;font-weight:500;font-stretch:normal;font-size:15.7359px;line-height:110%;font-family:'Fira Code';-inkscape-font-specification:'Fira Code Medium';stroke-width:0.518548px"
       id="path927" /><path
       d="M 88.849803,119.04524 H 78.104121 v -2.63325 l 3.615654,-3.65616 q 1.549565,-1.62046 2.025576,-2.20788 0.47601,-0.59754 0.658312,-1.02292 0.19243,-0.42537 0.19243,-0.89125 0,-0.57729 -0.374732,-0.91151 -0.374731,-0.33422 -1.053299,-0.33422 -0.698824,0 -1.417904,0.40512 -0.708951,0.39498 -1.610333,1.17483 l -2.19775,-2.57248 q 1.144451,-1.02292 1.924297,-1.45841 0.779847,-0.44563 1.691357,-0.67857 0.921637,-0.23294 2.066087,-0.23294 1.438159,0 2.562354,0.50639 1.134323,0.50639 1.752123,1.44829 0.627929,0.93176 0.627929,2.09647 0,0.871 -0.222813,1.61033 -0.212686,0.73934 -0.668441,1.45842 -0.455754,0.70895 -1.215345,1.49892 -0.749463,0.78998 -3.210538,2.99785 v 0.10128 h 5.600718 z"
       style="line-height:110%;letter-spacing:-0.942322px;fill:#4e4e4e;fill-opacity:1;stroke-width:0.518548px"
       id="path929" /><path
       d="m 100.1217,111.66202 q 0,3.92962 -1.31662,5.76276 -1.316624,1.82302 -4.030896,1.82302 -2.653505,0 -4.000513,-1.90404 -1.347008,-1.91417 -1.347008,-5.68174 0,-3.94988 1.316624,-5.79315 1.316625,-1.84327 4.030897,-1.84327 2.643377,0 3.990385,1.92429 1.357131,1.91417 1.357131,5.71213 z m -6.71478,0 q 0,2.51171 0.313964,3.45361 0.313964,0.94189 1.0533,0.94189 0.749463,0 1.053299,-0.97228 0.313965,-0.97228 0.313965,-3.42322 0,-2.46108 -0.313965,-3.44348 -0.313964,-0.99253 -1.053299,-0.99253 -0.739336,0 -1.0533,0.95202 -0.313964,0.95202 -0.313964,3.48399 z"
       style="line-height:110%;letter-spacing:-0.942322px;fill:#4e4e4e;fill-opacity:1;stroke-width:0.518548px"
       id="path931" /><path
       d="m 111.27207,119.04524 h -10.74568 v -2.63325 l 3.61565,-3.65616 q 1.54957,-1.62046 2.02558,-2.20788 0.47601,-0.59754 0.65831,-1.02292 0.19243,-0.42537 0.19243,-0.89125 0,-0.57729 -0.37473,-0.91151 -0.37473,-0.33422 -1.0533,-0.33422 -0.69882,0 -1.4179,0.40512 -0.70895,0.39498 -1.61033,1.17483 l -2.19776,-2.57248 q 1.14446,-1.02292 1.9243,-1.45841 0.77985,-0.44563 1.69136,-0.67857 0.92164,-0.23294 2.06609,-0.23294 1.43816,0 2.56235,0.50639 1.13432,0.50639 1.75212,1.44829 0.62793,0.93176 0.62793,2.09647 0,0.871 -0.22281,1.61033 -0.21269,0.73934 -0.66844,1.45842 -0.45576,0.70895 -1.21535,1.49892 -0.74946,0.78998 -3.21054,2.99785 v 0.10128 h 5.60072 z"
       style="line-height:110%;letter-spacing:-0.942322px;fill:#4e4e4e;fill-opacity:1;stroke-width:0.518548px"
       id="path933" /><path
       d="m 120.66019,119.04524 h -4.06128 v -7.83898 q 0,-1.42803 0.0608,-2.61299 -0.37473,0.45575 -0.93176,0.95202 l -1.68123,1.38752 -2.07621,-2.55223 5.08419,-4.1423 h 3.60553 z"
       style="line-height:110%;letter-spacing:-0.942322px;fill:#4e4e4e;fill-opacity:1;stroke-width:0.518548px"
       id="path935" /></g><g
     id="g843"
     transform="matrix(0.93033053,0,0,0.93033053,-152.60594,126.82655)"
     style="display:inline"><g
       aria-label="Core C++ &lt;local&gt; 2021 "
       id="text835"
       style="font-style:normal;font-variant:normal;font-weight:normal;font-stretch:normal;font-size:22.2952px;line-height:0;font-family:'WLM Idea';-inkscape-font-specification:'WLM Idea';text-align:start;letter-spacing:0px;word-spacing:0px;text-anchor:start;fill:#e6e6e5;fill-opacity:1;stroke:none;stroke-width:0.55738px;stroke-linecap:butt;stroke-linejoin:miter;stroke-opacity:1"><path
         d="m 84.690455,5.4748514 q -1.534972,0 -2.394992,1.2628141 -0.86002,1.2519277 -0.86002,3.4618525 0,4.59403 3.494511,4.59403 1.055974,0 2.04663,-0.29393 0.990656,-0.293931 1.992198,-0.707612 v 3.636034 q -1.992198,0.881792 -4.50694,0.881792 -3.603375,0 -5.530255,-2.090175 -1.915994,-2.090175 -1.915994,-6.041912 0,-2.4711963 0.925338,-4.3436448 Q 78.877156,3.9616517 80.618968,2.9601095 82.371667,1.947681 84.734,1.947681 q 2.58006,0 4.931507,1.1212918 L 88.348261,6.4546209 Q 87.466469,6.0409404 86.584676,5.7578959 85.702883,5.4748514 84.690455,5.4748514 Z"
         style="font-style:normal;font-variant:normal;font-weight:normal;font-stretch:normal;font-size:22.2952px;line-height:110%;font-family:'WLM Idea';-inkscape-font-specification:'WLM Idea';letter-spacing:-1.01289px;fill:#e6e6e5;fill-opacity:1;stroke-width:0.55738px"
         id="path938" /><path
         d="m 102.58712,11.897785 q 0,3.026399 -1.63295,4.724667 -1.622065,1.68738 -4.550488,1.68738 -2.808672,0 -4.474281,-1.730926 -1.654722,-1.730926 -1.654722,-4.681121 0,-3.0155129 1.622063,-4.6811211 1.63295,-1.6764946 4.572258,-1.6764946 1.818017,0 3.211467,0.7729294 1.393453,0.7729293 2.144603,2.2208109 0.76205,1.4369954 0.76205,3.3638754 z m -7.990568,0 q 0,1.589404 0.424567,2.427651 0.424566,0.827361 1.426109,0.827361 0.990655,0 1.39345,-0.827361 0.41368,-0.838247 0.41368,-2.427651 0,-1.578518 -0.41368,-2.3841058 -0.413681,-0.8055883 -1.415223,-0.8055883 -0.97977,0 -1.404336,0.8055883 -0.424567,0.7947018 -0.424567,2.3841058 z"
         style="font-style:normal;font-variant:normal;font-weight:normal;font-stretch:normal;font-size:22.2952px;line-height:110%;font-family:'WLM Idea';-inkscape-font-specification:'WLM Idea';letter-spacing:-1.01289px;fill:#e6e6e5;fill-opacity:1;stroke-width:0.55738px"
         id="path940" /><path
         d="m 111.44813,5.5401693 q 0.5552,0 1.05597,0.087091 l 0.2395,0.043545 -0.38102,4.0170551 q -0.52255,-0.1306359 -1.44788,-0.1306359 -1.39345,0 -2.02486,0.6422935 -0.63141,0.631407 -0.63141,1.828903 v 6.063685 h -4.25655 V 5.7578959 l 3.83198,-0.010886 v 1.9813117 h 0.20684 q 0.53343,-0.9797695 1.48055,-1.5785176 0.95799,-0.6096344 1.92688,-0.6096347 z"
         style="font-style:normal;font-variant:normal;font-weight:normal;font-stretch:normal;font-size:22.2952px;line-height:110%;font-family:'WLM Idea';-inkscape-font-specification:'WLM Idea';letter-spacing:-1.01289px;fill:#e6e6e5;fill-opacity:1;stroke-width:0.55738px"
         id="path942" /><path
         d="m 118.95923,18.309832 q -3.08083,0 -4.78998,-1.632949 -1.69827,-1.643835 -1.69827,-4.670235 0,-3.1243759 1.57852,-4.7899841 1.57852,-1.6764946 4.50694,-1.6764946 2.7869,0 4.3001,1.458768 1.52408,1.4478817 1.52408,4.1803497 v 1.894222 h -7.60954 q 0.0435,1.034201 0.75116,1.622062 0.71849,0.587862 1.94865,0.587862 1.12129,0 2.05752,-0.20684 0.94711,-0.217727 2.04662,-0.729384 v 3.059058 q -1.00154,0.511658 -2.0684,0.707612 -1.06686,0.195953 -2.5474,0.195953 z m -0.25038,-9.8738993 q -0.75116,0 -1.26282,0.4789984 -0.50077,0.4681121 -0.58786,1.4805409 h 3.65781 q -0.0218,-0.8926792 -0.51166,-1.4261092 -0.479,-0.5334301 -1.29547,-0.5334301 z"
         style="font-style:normal;font-variant:normal;font-weight:normal;font-stretch:normal;font-size:22.2952px;line-height:110%;font-family:'WLM Idea';-inkscape-font-specification:'WLM Idea';letter-spacing:-1.01289px;fill:#e6e6e5;fill-opacity:1;stroke-width:0.55738px"
         id="path944" /><path
         d="m 137.88964,5.4748514 q -1.53498,0 -2.395,1.2628141 -0.86002,1.2519277 -0.86002,3.4618525 0,4.59403 3.49451,4.59403 1.05598,0 2.04663,-0.29393 0.99066,-0.293931 1.9922,-0.707612 v 3.636034 q -1.9922,0.881792 -4.50694,0.881792 -3.60337,0 -5.53025,-2.090175 -1.916,-2.090175 -1.916,-6.041912 0,-2.4711963 0.92534,-4.3436448 0.93623,-1.8724485 2.67804,-2.8739907 1.7527,-1.0124285 4.11503,-1.0124285 2.58006,0 4.93151,1.1212918 l -1.31725,3.3856481 q -0.88179,-0.4136805 -1.76358,-0.696725 -0.8818,-0.2830445 -1.89422,-0.2830445 z"
         style="font-style:normal;font-variant:normal;font-weight:normal;font-stretch:normal;font-size:22.2952px;line-height:110%;font-family:'WLM Idea';-inkscape-font-specification:'WLM Idea';letter-spacing:-1.01289px;fill:#e6e6e5;fill-opacity:1;stroke-width:0.55738px"
         id="path946" /><path
         d="m 147.38205,11.20106 h -4.04971 V 8.2835241 h 4.04971 V 4.2882416 h 2.92842 v 3.9952825 h 4.04972 V 11.20106 h -4.04972 v 3.929965 h -2.92842 z"
         style="font-style:normal;font-variant:normal;font-weight:normal;font-stretch:normal;font-size:22.2952px;line-height:110%;font-family:'WLM Idea';-inkscape-font-specification:'WLM Idea';letter-spacing:-1.01289px;fill:#e6e6e5;fill-opacity:1;stroke-width:0.55738px"
         id="path948" /><path
         d="M 158.98641,11.20106 H 154.9367 V 8.2835241 h 4.04971 V 4.2882416 h 2.92843 v 3.9952825 h 4.04971 V 11.20106 h -4.04971 v 3.929965 h -2.92843 z"
         style="font-style:normal;font-variant:normal;font-weight:normal;font-stretch:normal;font-size:22.2952px;line-height:110%;font-family:'WLM Idea';-inkscape-font-specification:'WLM Idea';letter-spacing:-1.01289px;fill:#e6e6e5;fill-opacity:1;stroke-width:0.55738px"
         id="path950" /><path
         d="m 77.288603,31.794464 6.713677,-4.154846 0.893422,1.405188 -5.933017,3.582362 5.933017,3.582362 -0.95414,1.396514 -6.652959,-4.146172 z"
         style="font-style:normal;font-variant:normal;font-weight:500;font-stretch:normal;font-size:16.9143px;line-height:110%;font-family:'Fira Code';-inkscape-font-specification:'Fira Code Medium';fill:#e6e6e5;fill-opacity:1;stroke-width:0.55738px"
         id="path952" /><path
         d="m 91.860899,35.567654 q 0,0.60718 0.364308,0.884748 0.372982,0.277568 1.023532,0.277568 0.69392,0 1.448558,-0.30359 l 0.494418,1.353144 q -1.023532,0.52044 -2.359328,0.52044 -0.91077,0 -1.569994,-0.34696 -0.659224,-0.355634 -1.006184,-1.006184 -0.338286,-0.659224 -0.338286,-1.552646 v -8.734718 h -2.767006 v -1.43121 h 4.709982 z"
         style="font-style:normal;font-variant:normal;font-weight:500;font-stretch:normal;font-size:16.9143px;line-height:110%;font-family:'Fira Code';-inkscape-font-specification:'Fira Code Medium';fill:#e6e6e5;fill-opacity:1;stroke-width:0.55738px"
         id="path954" /><path
         d="m 101.91404,28.66315 q 1.31845,0 2.24657,0.589832 0.92811,0.589832 1.40518,1.674082 0.47707,1.075576 0.47707,2.541482 0,1.457232 -0.48574,2.550156 -0.48574,1.08425 -1.41386,1.682756 -0.92812,0.598506 -2.23789,0.598506 -1.31845,0 -2.24657,-0.581158 -0.928118,-0.581158 -1.413862,-1.665408 -0.47707,-1.08425 -0.47707,-2.567504 0,-1.43121 0.485744,-2.524134 0.485744,-1.092924 1.413862,-1.69143 0.936796,-0.60718 2.246566,-0.60718 z m 0,1.509276 q -1.05823,0 -1.58734,0.815356 -0.520442,0.806682 -0.520442,2.498112 0,1.69143 0.520442,2.506786 0.52044,0.806682 1.57867,0.806682 1.05822,0 1.57866,-0.806682 0.52044,-0.815356 0.52044,-2.524134 0,-1.682756 -0.52044,-2.489438 -0.52044,-0.806682 -1.56999,-0.806682 z"
         style="font-style:normal;font-variant:normal;font-weight:500;font-stretch:normal;font-size:16.9143px;line-height:110%;font-family:'Fira Code';-inkscape-font-specification:'Fira Code Medium';fill:#e6e6e5;fill-opacity:1;stroke-width:0.55738px"
         id="path956" /><path
         d="m 113.06878,36.703948 q 0.60718,0 1.15364,-0.208176 0.55514,-0.208176 1.1016,-0.589832 l 0.9021,1.249056 q -0.61586,0.52044 -1.47458,0.832704 -0.85006,0.312264 -1.74348,0.312264 -1.38784,0 -2.39402,-0.589832 -1.00619,-0.589832 -1.5353,-1.665408 -0.52911,-1.08425 -0.52911,-2.51546 0,-1.405188 0.53778,-2.506786 0.53779,-1.101598 1.55265,-1.726126 1.02353,-0.633202 2.4027,-0.633202 1.83889,0 3.17468,1.101598 l -0.89342,1.223034 q -1.11027,-0.763312 -2.24657,-0.763312 -1.13629,0 -1.80419,0.82403 -0.65922,0.82403 -0.65922,2.480764 0,1.639386 0.65922,2.411372 0.65923,0.763312 1.79552,0.763312 z"
         style="font-style:normal;font-variant:normal;font-weight:500;font-stretch:normal;font-size:16.9143px;line-height:110%;font-family:'Fira Code';-inkscape-font-specification:'Fira Code Medium';fill:#e6e6e5;fill-opacity:1;stroke-width:0.55738px"
         id="path958" /><path
         d="m 126.06241,35.8192 q 0,0.529114 0.15613,0.78066 0.16481,0.251546 0.53779,0.372982 l -0.4337,1.318448 q -0.7026,-0.07807 -1.17967,-0.381656 -0.47707,-0.30359 -0.71994,-0.884748 -0.49442,0.624528 -1.25773,0.95414 -0.76331,0.320938 -1.66541,0.320938 -0.91944,0 -1.60469,-0.355634 -0.67657,-0.355634 -1.04088,-0.99751 -0.36431,-0.641876 -0.36431,-1.491928 0,-1.448558 1.12762,-2.229218 1.1363,-0.78066 3.22673,-0.78066 h 1.30978 v -0.598506 q 0,-0.8674 -0.52044,-1.266404 -0.52044,-0.399004 -1.51795,-0.399004 -0.47707,0 -1.11895,0.121436 -0.64188,0.121436 -1.31845,0.355634 l -0.47707,-1.370492 q 0.83271,-0.312264 1.65674,-0.468396 0.82403,-0.156132 1.55264,-0.156132 1.81287,0 2.73231,0.798008 0.91945,0.798008 0.91945,2.272588 z m -3.9727,1.049554 q 0.59851,0 1.15365,-0.312264 0.56381,-0.320938 0.91077,-0.876074 v -2.021042 h -1.07558 q -1.32712,0 -1.94298,0.442374 -0.60718,0.4337 -0.60718,1.266404 0,0.73729 0.39033,1.118946 0.39901,0.381656 1.17099,0.381656 z"
         style="font-style:normal;font-variant:normal;font-weight:500;font-stretch:normal;font-size:16.9143px;line-height:110%;font-family:'Fira Code';-inkscape-font-specification:'Fira Code Medium';fill:#e6e6e5;fill-opacity:1;stroke-width:0.55738px"
         id="path960" /><path
         d="m 133.496,35.567654 q 0,0.60718 0.36431,0.884748 0.37298,0.277568 1.02353,0.277568 0.69392,0 1.44856,-0.30359 l 0.49442,1.353144 q -1.02354,0.52044 -2.35933,0.52044 -0.91077,0 -1.57,-0.34696 -0.65922,-0.355634 -1.00618,-1.006184 -0.33829,-0.659224 -0.33829,-1.552646 v -8.734718 h -2.767 v -1.43121 h 4.70998 z"
         style="font-style:normal;font-variant:normal;font-weight:500;font-stretch:normal;font-size:16.9143px;line-height:110%;font-family:'Fira Code';-inkscape-font-specification:'Fira Code Medium';fill:#e6e6e5;fill-opacity:1;stroke-width:0.55738px"
         id="path962" /><path
         d="m 139.74126,29.070828 0.90209,-1.43121 6.705,4.146172 v 1.674082 l -6.65295,4.146172 -0.95414,-1.370492 5.94169,-3.608384 z"
         style="font-style:normal;font-variant:normal;font-weight:500;font-stretch:normal;font-size:16.9143px;line-height:110%;font-family:'Fira Code';-inkscape-font-specification:'Fira Code Medium';fill:#e6e6e5;fill-opacity:1;stroke-width:0.55738px"
         id="path964" /><path
         d="M 88.097876,61.222558 H 76.547481 V 58.392113 L 80.4339,54.462148 q 1.665609,-1.741812 2.177266,-2.373219 0.511658,-0.642294 0.707611,-1.099519 0.206841,-0.457226 0.206841,-0.957997 0,-0.620521 -0.402794,-0.97977 -0.402795,-0.359249 -1.132179,-0.359249 -0.751156,0 -1.524086,0.435453 -0.762043,0.424567 -1.730926,1.262815 L 76.3733,47.625534 q 1.230155,-1.099519 2.068402,-1.567631 0.838248,-0.478999 1.818017,-0.729384 0.990656,-0.250386 2.220811,-0.250386 1.545859,0 2.754241,0.544317 1.219269,0.544316 1.883335,1.556745 0.674952,1.001542 0.674952,2.25347 0,0.936224 -0.239499,1.730926 -0.228613,0.794702 -0.718498,1.567631 -0.489884,0.762043 -1.306359,1.611177 -0.805588,0.849133 -3.450966,3.222353 v 0.108863 h 6.02014 z"
         style="line-height:110%;letter-spacing:-1.01289px;fill:#e6e6e5;fill-opacity:1;stroke-width:0.55738px"
         id="path966" /><path
         d="m 100.2139,53.286425 q 0,4.223895 -1.415225,6.194321 -1.415223,1.959539 -4.332759,1.959539 -2.852218,0 -4.300099,-2.04663 -1.447882,-2.057516 -1.447882,-6.10723 0,-4.245668 1.415223,-6.22698 1.415222,-1.981312 4.332758,-1.981312 2.841332,0 4.289214,2.068403 1.45877,2.057516 1.45877,6.139889 z m -7.217638,0 q 0,2.699809 0.337476,3.712238 0.337476,1.012428 1.132178,1.012428 0.805588,0 1.132178,-1.045087 0.337477,-1.045088 0.337477,-3.679579 0,-2.645378 -0.337477,-3.701352 -0.337476,-1.06686 -1.132178,-1.06686 -0.794702,0 -1.132178,1.023315 -0.337476,1.023315 -0.337476,3.744897 z"
         style="line-height:110%;letter-spacing:-1.01289px;fill:#e6e6e5;fill-opacity:1;stroke-width:0.55738px"
         id="path968" /><path
         d="m 112.19928,61.222558 h -11.55039 v -2.830445 l 3.88642,-3.929965 q 1.66561,-1.741812 2.17726,-2.373219 0.51166,-0.642294 0.70762,-1.099519 0.20684,-0.457226 0.20684,-0.957997 0,-0.620521 -0.4028,-0.97977 -0.40279,-0.359249 -1.13218,-0.359249 -0.75115,0 -1.52408,0.435453 -0.76205,0.424567 -1.73093,1.262815 l -2.36233,-2.765128 q 1.23015,-1.099519 2.0684,-1.567631 0.83825,-0.478999 1.81802,-0.729384 0.99065,-0.250386 2.22081,-0.250386 1.54586,0 2.75424,0.544317 1.21927,0.544316 1.88333,1.556745 0.67496,1.001542 0.67496,2.25347 0,0.936224 -0.2395,1.730926 -0.22862,0.794702 -0.7185,1.567631 -0.48989,0.762043 -1.30636,1.611177 -0.80559,0.849133 -3.45097,3.222353 v 0.108863 h 6.02014 z"
         style="line-height:110%;letter-spacing:-1.01289px;fill:#e6e6e5;fill-opacity:1;stroke-width:0.55738px"
         id="path970" /><path
         d="m 122.29045,61.222558 h -4.36542 V 52.79654 q 0,-1.534972 0.0653,-2.808673 -0.4028,0.489885 -1.00154,1.023315 l -1.80713,1.491427 -2.2317,-2.743355 5.46493,-4.452508 h 3.87554 z"
         style="line-height:110%;letter-spacing:-1.01289px;fill:#e6e6e5;fill-opacity:1;stroke-width:0.55738px"
         id="path972" /></g><g
       aria-label=" "
       id="text841"
       style="font-style:normal;font-variant:normal;font-weight:normal;font-stretch:normal;font-size:28.6148px;line-height:125%;font-family:'WLM Idea';-inkscape-font-specification:'WLM Idea';text-align:start;letter-spacing:0px;word-spacing:0px;text-anchor:start;fill:#4e4e4e;fill-opacity:1;stroke:none;stroke-width:0.715369px;stroke-linecap:butt;stroke-linejoin:miter;stroke-opacity:1" /></g></g></svg>
