<?xml version="1.0" encoding="UTF-8" standalone="no"?>
<svg
   version="1.1"
   id="Layer_1"
   x="0px"
   y="0px"
   width="192.96333"
   height="66.286316"
   viewBox="0 0 192.96334 66.286316"
   enable-background="new 0 0 185 188"
   xml:space="preserve"
   sodipodi:docname="logo.svg"
   inkscape:version="1.4.2 (ebf0e94, 2025-05-08)"
   inkscape:export-filename="logo.png"
   inkscape:export-xdpi="477.92676"
   inkscape:export-ydpi="477.92676"
   xmlns:inkscape="http://www.inkscape.org/namespaces/inkscape"
   xmlns:sodipodi="http://sodipodi.sourceforge.net/DTD/sodipodi-0.dtd"
   xmlns="http://www.w3.org/2000/svg"
   xmlns:svg="http://www.w3.org/2000/svg"
   xmlns:rdf="http://www.w3.org/1999/02/22-rdf-syntax-ns#"
   xmlns:cc="http://creativecommons.org/ns#"
   xmlns:dc="http://purl.org/dc/elements/1.1/"><metadata
   id="metadata235"><rdf:RDF><cc:Work
       rdf:about=""><dc:format>image/svg+xml</dc:format><dc:type
         rdf:resource="http://purl.org/dc/dcmitype/StillImage" /></cc:Work></rdf:RDF></metadata><defs
   id="defs233">
	
	
	
	
		<radialGradient
   gradientUnits="userSpaceOnUse"
   gradientTransform="matrix(0.498,0,0,0.498,172.2891,79.7388)"
   r="20.113701"
   cy="-60.055"
   cx="-310.58301"
   id="SVGID_1_">
		<stop
   id="stop48"
   style="stop-color:#FFCF4F"
   offset="0" />
		<stop
   id="stop50"
   style="stop-color:#F4C236"
   offset="1" />
	</radialGradient>
	
	
		<radialGradient
   gradientUnits="userSpaceOnUse"
   gradientTransform="matrix(0.498,0,0,0.498,172.2891,79.7388)"
   r="27.658199"
   cy="-70.269501"
   cx="-322.6347"
   id="SVGID_2_">
		<stop
   id="stop55"
   style="stop-color:#08A960"
   offset="0" />
		<stop
   id="stop57"
   style="stop-color:#07914B"
   offset="1" />
	</radialGradient>
	
	
		<radialGradient
   gradientUnits="userSpaceOnUse"
   gradientTransform="matrix(0.498,0,0,0.498,172.2891,79.7388)"
   r="40.540001"
   cy="-109.9511"
   cx="-313.18311"
   id="SVGID_3_">
		<stop
   id="stop62"
   style="stop-color:#567FC0"
   offset="0" />
		<stop
   id="stop64"
   style="stop-color:#557FC0"
   offset="1" />
	</radialGradient>
	
	
		<radialGradient
   gradientUnits="userSpaceOnUse"
   gradientTransform="matrix(0.498,0,0,0.498,172.2891,79.7388)"
   r="33.058399"
   cy="-119.9164"
   cx="-301.11911"
   id="SVGID_4_">
		<stop
   id="stop69"
   style="stop-color:#E14C40"
   offset="0" />
		<stop
   id="stop71"
   style="stop-color:#CD392D"
   offset="1" />
	</radialGradient>
	
<filter
   style="color-interpolation-filters:sRGB"
   inkscape:label="Greyscale"
   id="filter4319"><feColorMatrix
     values="0.21 0.72 0.072 0 0 0.21 0.72 0.072 0 0 0.21 0.72 0.072 0 0 0 0 0 1 0 "
     id="feColorMatrix4317" /></filter>
	
	
	
	
		<radialGradient
   gradientUnits="userSpaceOnUse"
   gradientTransform="matrix(0.498,0,0,0.498,172.2891,79.7388)"
   r="20.113701"
   cy="66.4552"
   cx="-310.58301"
   id="SVGID_5_">
		<stop
   id="stop124"
   style="stop-color:#CCCCCC"
   offset="0" />
		<stop
   id="stop126"
   style="stop-color:#C0C0C0"
   offset="1" />
	</radialGradient>
	
	
		<radialGradient
   gradientUnits="userSpaceOnUse"
   gradientTransform="matrix(0.498,0,0,0.498,172.2891,79.7388)"
   r="27.658199"
   cy="56.2407"
   cx="-322.6347"
   id="SVGID_6_">
		<stop
   id="stop131"
   style="stop-color:#A0A0A0"
   offset="0" />
		<stop
   id="stop133"
   style="stop-color:#7B7B7B"
   offset="1" />
	</radialGradient>
	
	
		<radialGradient
   gradientUnits="userSpaceOnUse"
   gradientTransform="matrix(0.498,0,0,0.498,172.2891,79.7388)"
   r="40.540001"
   cy="16.559"
   cx="-313.18311"
   id="SVGID_7_">
		<stop
   id="stop138"
   style="stop-color:#848484"
   offset="0" />
		<stop
   id="stop140"
   style="stop-color:#838383"
   offset="1" />
	</radialGradient>
	
	
		<radialGradient
   gradientUnits="userSpaceOnUse"
   gradientTransform="matrix(0.498,0,0,0.498,172.2891,79.7388)"
   r="33.058399"
   cy="6.5938001"
   cx="-301.11911"
   id="SVGID_8_">
		<stop
   id="stop145"
   style="stop-color:#626262"
   offset="0" />
		<stop
   id="stop147"
   style="stop-color:#474747"
   offset="1" />
	</radialGradient>
	

	
	
	
	
		<radialGradient
   gradientUnits="userSpaceOnUse"
   gradientTransform="matrix(0.498,0,0,0.498,172.2891,79.7388)"
   r="20.113701"
   cy="192.9653"
   cx="-310.26501"
   id="SVGID_9_">
		<stop
   id="stop200"
   style="stop-color:#FFCF4F"
   offset="0" />
		<stop
   id="stop202"
   style="stop-color:#F4C236"
   offset="1" />
	</radialGradient>
	
	
		<radialGradient
   gradientUnits="userSpaceOnUse"
   gradientTransform="matrix(0.498,0,0,0.498,172.2891,79.7388)"
   r="27.658199"
   cy="182.75079"
   cx="-322.31671"
   id="SVGID_10_">
		<stop
   id="stop207"
   style="stop-color:#08A960"
   offset="0" />
		<stop
   id="stop209"
   style="stop-color:#07914B"
   offset="1" />
	</radialGradient>
	
	
		<radialGradient
   gradientUnits="userSpaceOnUse"
   gradientTransform="matrix(0.498,0,0,0.498,172.2891,79.7388)"
   r="40.540001"
   cy="143.06911"
   cx="-312.86511"
   id="SVGID_11_">
		<stop
   id="stop214"
   style="stop-color:#567FC0"
   offset="0" />
		<stop
   id="stop216"
   style="stop-color:#557FC0"
   offset="1" />
	</radialGradient>
	
	
		<radialGradient
   gradientUnits="userSpaceOnUse"
   gradientTransform="matrix(0.498,0,0,0.498,172.2891,79.7388)"
   r="33.058399"
   cy="133.1039"
   cx="-300.80109"
   id="SVGID_12_">
		<stop
   id="stop221"
   style="stop-color:#E14C40"
   offset="0" />
		<stop
   id="stop223"
   style="stop-color:#CD392D"
   offset="1" />
	</radialGradient>
	
</defs><sodipodi:namedview
   pagecolor="#ffffff"
   bordercolor="#666666"
   borderopacity="1"
   objecttolerance="10"
   gridtolerance="10"
   guidetolerance="10"
   inkscape:pageopacity="0"
   inkscape:pageshadow="2"
   inkscape:window-width="2400"
   inkscape:window-height="1411"
   id="namedview231"
   showgrid="false"
   inkscape:zoom="3.2015061"
   inkscape:cx="91.831779"
   inkscape:cy="47.633831"
   inkscape:window-x="2391"
   inkscape:window-y="-9"
   inkscape:window-maximized="1"
   inkscape:current-layer="g16"
   inkscape:document-rotation="0"
   inkscape:pagecheckerboard="0"
   showguides="false"
   inkscape:showpageshadow="2"
   inkscape:deskcolor="#d1d1d1" />




<g
   inkscape:groupmode="layer"
   id="layer2"
   inkscape:label="2022 Text-PathLayer"
   style="display:none"
   transform="translate(-3.1831818e-8,0.51420642)"
   sodipodi:insensitive="true"><g
     id="g133"
     transform="matrix(1.027803,0,0,1.027803,-5.588682,8.3777166)"><g
       aria-label="Core C++ 2022 "
       id="text94"
       style="font-size:28.53980064px;line-height:0;font-family:'WLM Idea';-inkscape-font-specification:'WLM Idea';letter-spacing:0px;word-spacing:0px;fill:#4e4e4e;stroke-width:0.55738002px"><path
         d="m 87.157194,1.9409199 q -1.964898,0 -3.065799,1.6165121 -1.100901,1.6025767 -1.100901,4.431473 0,5.88076 4.47328,5.88076 1.351738,0 2.619864,-0.376257 1.268126,-0.376258 2.550188,-0.905805 v 4.65444 q -2.550188,1.128772 -5.769277,1.128772 -4.612633,0 -7.079208,-2.675606 -2.452639,-2.675607 -2.452639,-7.7341749 0,-3.1633471 1.184513,-5.5602444 1.198449,-2.39689733 3.428121,-3.6789587 2.243607,-1.2959968 5.2676,-1.2959968 3.302701,0 6.312758,1.4353513 L 91.839505,3.1951103 Q 90.710734,2.6655632 89.581962,2.3032415 88.453191,1.9409199 87.157194,1.9409199 Z"
         style="line-height:110.00000238%;letter-spacing:-1.01288998px"
         id="path9544"
         inkscape:connector-curvature="0" /><path
         d="m 110.35018,10.162835 q 0,3.874055 -2.09032,6.047985 -2.07638,2.159995 -5.82502,2.159995 -3.595342,0 -5.727465,-2.215737 -2.118189,-2.215736 -2.118189,-5.992243 0,-3.8601194 2.076382,-5.9922432 2.090318,-2.1460592 5.852892,-2.1460592 2.32722,0 4.11095,0.9894169 1.78374,0.9894169 2.74529,2.8428317 0.97548,1.8394793 0.97548,4.3060538 z m -10.22862,0 q 0,2.034576 0.54348,3.107605 0.54348,1.059094 1.82555,1.059094 1.26812,0 1.78373,-1.059094 0.52955,-1.073029 0.52955,-3.107605 0,-2.0206401 -0.52955,-3.0518634 -0.52954,-1.0312232 -1.8116,-1.0312232 -1.2542,0 -1.79768,1.0312232 -0.54348,1.0172878 -0.54348,3.0518634 z"
         style="line-height:110.00000238%;letter-spacing:-1.01288998px"
         id="path9546"
         inkscape:connector-curvature="0" /><path
         d="m 121.97674,2.0245326 q 0.71071,0 1.35174,0.1114836 l 0.30658,0.055742 -0.48774,5.1421809 q -0.6689,-0.1672254 -1.85341,-0.1672254 -1.78374,0 -2.592,0.8221916 -0.80825,0.808256 -0.80825,2.3411547 v 7.762046 H 112.4449 V 2.3032415 l 4.90527,-0.013935 v 2.5362518 h 0.26478 q 0.68283,-1.2541904 1.89522,-2.0206402 1.22632,-0.7803851 2.46657,-0.7803855 z"
         style="line-height:110.00000238%;letter-spacing:-1.01288998px"
         id="path9548"
         inkscape:connector-curvature="0" /><path
         d="m 131.87531,18.370815 q -3.94373,0 -6.1316,-2.090318 -2.17393,-2.104252 -2.17393,-5.978307 0,-3.9994744 2.02064,-6.1315982 2.02064,-2.1460592 5.76928,-2.1460592 3.56747,0 5.5045,1.8673502 1.95096,1.8534148 1.95096,5.3512126 v 2.4247686 h -9.74087 q 0.0557,1.323867 0.96154,2.076382 0.91974,0.752514 2.49445,0.752514 1.43535,0 2.6338,-0.264774 1.21238,-0.278709 2.61986,-0.933675 v 3.915862 q -1.28206,0.654966 -2.64773,0.905804 -1.36568,0.250838 -3.2609,0.250838 z M 131.5548,5.7313621 q -0.96155,0 -1.61652,0.6131598 -0.64103,0.5992243 -0.75251,1.8952211 h 4.68231 q -0.0279,-1.1427068 -0.65497,-1.8255438 -0.61316,-0.6828371 -1.65831,-0.6828371 z"
         style="line-height:110.00000238%;letter-spacing:-1.01288998px"
         id="path9550"
         inkscape:connector-curvature="0" /><path
         d="m 156.67527,1.9409199 q -1.9649,0 -3.0658,1.6165121 -1.1009,1.6025767 -1.1009,4.431473 0,5.88076 4.47328,5.88076 1.35174,0 2.61986,-0.376257 1.26813,-0.376258 2.55019,-0.905805 v 4.65444 q -2.55019,1.128772 -5.76928,1.128772 -4.61263,0 -7.0792,-2.675606 -2.45264,-2.675607 -2.45264,-7.7341749 0,-3.1633471 1.18451,-5.5602444 1.19845,-2.39689733 3.42812,-3.6789587 2.24361,-1.2959968 5.2676,-1.2959968 3.3027,0 6.31276,1.4353513 l -1.68619,4.3339248 q -1.12877,-0.5295471 -2.25754,-0.8918688 -1.12878,-0.3623216 -2.42477,-0.3623216 z"
         style="line-height:110.00000238%;letter-spacing:-1.01288998px"
         id="path9552"
         inkscape:connector-curvature="0" /><path
         d="M 169.11009,9.2709663 H 163.9261 V 5.5362658 h 5.18399 V 0.42195586 h 3.74863 V 5.5362658 h 5.18399 v 3.7347005 h -5.18399 v 5.0306977 h -3.74863 z"
         style="line-height:110.00000238%;letter-spacing:-1.01288998px"
         id="path9554"
         inkscape:connector-curvature="0" /><path
         d="M 184.24839,9.2709663 H 179.0644 V 5.5362658 h 5.18399 V 0.42195586 h 3.74863 V 5.5362658 h 5.18399 v 3.7347005 h -5.18399 v 5.0306977 h -3.74863 z"
         style="line-height:110.00000238%;letter-spacing:-1.01288998px"
         id="path9556"
         inkscape:connector-curvature="0" /><path
         d="m 83.962374,28.373085 q 2.312456,0 3.86385,0.804968 1.56603,0.804969 2.341727,2.136826 0.790333,1.317222 0.790333,2.868616 0,1.229407 -0.424438,2.414906 -0.409802,1.170864 -1.361129,2.488086 -0.951326,1.302585 -2.531992,2.897887 -1.56603,1.595302 -3.878486,3.658949 h 8.664391 l -0.497617,3.527226 H 77.449445 v -3.278418 q 2.502721,-2.414906 4.185838,-4.156565 1.697752,-1.74166 2.707622,-3.000338 1.024506,-1.273315 1.463579,-2.253913 0.439074,-0.980598 0.439074,-1.888018 0,-1.229406 -0.717154,-1.94656 -0.702518,-0.717154 -2.005104,-0.717154 -1.156228,0 -2.005104,0.482981 -0.848876,0.482981 -1.639209,1.56603 l -2.839344,-2.136826 q 1.141592,-1.580666 2.810073,-2.517357 1.66848,-0.951326 4.112658,-0.951326 z"
         style="font-weight:bold;line-height:110.00000238%;font-family:'Fira Code';-inkscape-font-specification:'Fira Code Bold';letter-spacing:-1.01288998px"
         id="path9558"
         inkscape:connector-curvature="0" /><path
         d="m 101.21497,28.373085 q 3.62968,0 5.47379,2.810072 1.85874,2.795437 1.85874,7.800879 0,5.020078 -1.85874,7.859422 -1.84411,2.824709 -5.47379,2.824709 -3.658949,0 -5.503059,-2.824709 -1.829475,-2.839344 -1.829475,-7.859422 0,-5.005442 1.829475,-7.800879 1.84411,-2.810072 5.503059,-2.810072 z m 0,3.351597 q -1.551395,0 -2.268548,1.66848 -0.717154,1.653845 -0.717154,5.590874 0,1.28795 0.04391,2.29782 0.04391,0.995234 0.131722,1.770931 l 4.9469,-10.347507 q -0.35126,-0.55616 -0.87815,-0.761061 -0.51225,-0.219537 -1.25868,-0.219537 z m 2.95643,7.259354 q 0,-1.683116 -0.0732,-2.839344 l -4.668817,9.644989 q 0.321987,0.307351 0.761057,0.424438 0.45371,0.117086 1.02451,0.117086 1.03914,0 1.68312,-0.702518 0.65861,-0.702518 0.96596,-2.312456 0.30735,-1.624573 0.30735,-4.332195 z"
         style="font-weight:bold;line-height:110.00000238%;font-family:'Fira Code';-inkscape-font-specification:'Fira Code Bold';letter-spacing:-1.01288998px"
         id="path9560"
         inkscape:connector-curvature="0" /><path
         d="m 117.06253,28.373085 q 2.31245,0 3.86385,0.804968 1.56603,0.804969 2.34173,2.136826 0.79033,1.317222 0.79033,2.868616 0,1.229407 -0.42444,2.414906 -0.4098,1.170864 -1.36113,2.488086 -0.95132,1.302585 -2.53199,2.897887 -1.56603,1.595302 -3.87849,3.658949 h 8.66439 l -0.49761,3.527226 H 110.5496 v -3.278418 q 2.50272,-2.414906 4.18584,-4.156565 1.69775,-1.74166 2.70762,-3.000338 1.02451,-1.273315 1.46358,-2.253913 0.43907,-0.980598 0.43907,-1.888018 0,-1.229406 -0.71715,-1.94656 -0.70252,-0.717154 -2.0051,-0.717154 -1.15623,0 -2.00511,0.482981 -0.84887,0.482981 -1.63921,1.56603 l -2.83934,-2.136826 q 1.14159,-1.580666 2.81007,-2.517357 1.66848,-0.951326 4.11266,-0.951326 z"
         style="font-weight:bold;line-height:110.00000238%;font-family:'Fira Code';-inkscape-font-specification:'Fira Code Bold';letter-spacing:-1.01288998px"
         id="path9562"
         inkscape:connector-curvature="0" /><path
         d="m 133.6126,28.373085 q 2.31246,0 3.86385,0.804968 1.56603,0.804969 2.34173,2.136826 0.79033,1.317222 0.79033,2.868616 0,1.229407 -0.42443,2.414906 -0.40981,1.170864 -1.36113,2.488086 -0.95133,1.302585 -2.53199,2.897887 -1.56603,1.595302 -3.87849,3.658949 h 8.66439 l -0.49762,3.527226 h -13.47956 v -3.278418 q 2.50272,-2.414906 4.18583,-4.156565 1.69776,-1.74166 2.70763,-3.000338 1.0245,-1.273315 1.46357,-2.253913 0.43908,-0.980598 0.43908,-1.888018 0,-1.229406 -0.71716,-1.94656 -0.70251,-0.717154 -2.0051,-0.717154 -1.15623,0 -2.0051,0.482981 -0.84888,0.482981 -1.63921,1.56603 l -2.83935,-2.136826 q 1.1416,-1.580666 2.81008,-2.517357 1.66848,-0.951326 4.11265,-0.951326 z"
         style="font-weight:bold;line-height:110.00000238%;font-family:'Fira Code';-inkscape-font-specification:'Fira Code Bold';letter-spacing:-1.01288998px"
         id="path9564"
         inkscape:connector-curvature="0" /></g><g
       aria-label=" "
       id="text122"
       style="font-size:28.6147995px;line-height:125%;font-family:'WLM Idea';-inkscape-font-specification:'WLM Idea';letter-spacing:0px;word-spacing:0px;fill:#4e4e4e;stroke-width:0.71536899px" /></g></g><g
   inkscape:groupmode="layer"
   id="g9362"
   inkscape:label="2022 Text-FontLayer"
   style="display:none"
   transform="translate(-3.1831818e-8,0.51420642)"
   sodipodi:insensitive="true"><g
     id="g9360"
     transform="matrix(1.027803,0,0,1.027803,-5.588682,8.3777166)"><text
   id="text9352"
   y="18.092106"
   x="75.883415"
   style="font-style:normal;font-variant:normal;font-weight:normal;font-stretch:normal;font-size:28.53980064px;line-height:0;font-family:'WLM Idea';-inkscape-font-specification:'WLM Idea';text-align:start;letter-spacing:0px;word-spacing:0px;text-anchor:start;fill:#4e4e4e;fill-opacity:1;stroke:none;stroke-width:0.55738002px;stroke-linecap:butt;stroke-linejoin:miter;stroke-opacity:1"
   xml:space="preserve"><tspan
     style="font-style:normal;font-variant:normal;font-weight:normal;font-stretch:normal;font-size:28.53980064px;line-height:110.00000238%;font-family:'WLM Idea';-inkscape-font-specification:'WLM Idea';letter-spacing:-1.01288998px;fill:#4e4e4e;fill-opacity:1;stroke-width:0.55738002px"
     x="75.883415"
     y="18.092106"
     id="tspan9346"
     sodipodi:role="line">Core C++</tspan><tspan
     style="font-style:normal;font-variant:normal;font-weight:bold;font-stretch:normal;font-size:28.53980064px;line-height:110.00000238%;font-family:'Fira Code';-inkscape-font-specification:'Fira Code Bold';letter-spacing:-1.01288998px;fill:#4e4e4e;fill-opacity:1;stroke-width:0.55738002px"
     id="tspan9348"
     x="75.883415"
     y="49.170551"
     sodipodi:role="line">2022</tspan><tspan
     id="tspan9350"
     y="65.182777"
     x="75.883415"
     sodipodi:role="line"
     style="font-size:28.53980064px;line-height:125%;stroke-width:0.55738002px" /></text>

<text
   xml:space="preserve"
   style="font-style:normal;font-variant:normal;font-weight:normal;font-stretch:normal;font-size:28.6147995px;line-height:125%;font-family:'WLM Idea';-inkscape-font-specification:'WLM Idea';text-align:start;letter-spacing:0px;word-spacing:0px;text-anchor:start;fill:#4e4e4e;fill-opacity:1;stroke:none;stroke-width:0.71536899px;stroke-linecap:butt;stroke-linejoin:miter;stroke-opacity:1"
   x="73.048828"
   y="50.501392"
   id="text9358"><tspan
     sodipodi:role="line"
     x="73.048828"
     y="75.855507"
     id="tspan9354"
     style="letter-spacing:-1.29999995px;fill:#4e4e4e;fill-opacity:1;stroke-width:0.71536899px" /><tspan
     sodipodi:role="line"
     x="73.048828"
     y="111.62402"
     id="tspan9356" /></text>

</g></g><g
   transform="translate(-3.1831818e-8,0.51420642)"
   style="display:none"
   inkscape:label="2023 Text-FontLayer"
   id="g144"
   inkscape:groupmode="layer"
   sodipodi:insensitive="true"><g
     transform="matrix(1.027803,0,0,1.027803,-5.588682,8.3777166)"
     id="g142"><text
   xml:space="preserve"
   style="font-style:normal;font-variant:normal;font-weight:normal;font-stretch:normal;font-size:28.53980064px;line-height:0;font-family:'WLM Idea';-inkscape-font-specification:'WLM Idea';text-align:start;letter-spacing:0px;word-spacing:0px;text-anchor:start;fill:#4e4e4e;fill-opacity:1;stroke:none;stroke-width:0.55738002px;stroke-linecap:butt;stroke-linejoin:miter;stroke-opacity:1"
   x="75.883415"
   y="18.092106"
   id="text134"><tspan
     sodipodi:role="line"
     id="tspan128"
     y="18.092106"
     x="75.883415"
     style="font-style:normal;font-variant:normal;font-weight:normal;font-stretch:normal;font-size:28.53980064px;line-height:110.00000238%;font-family:'WLM Idea';-inkscape-font-specification:'WLM Idea';letter-spacing:-1.01288998px;fill:#4e4e4e;fill-opacity:1;stroke-width:0.55738002px">Core C++</tspan><tspan
     sodipodi:role="line"
     y="49.170551"
     x="75.883415"
     id="tspan130"
     style="font-style:normal;font-variant:normal;font-weight:bold;font-stretch:normal;font-size:28.53980064px;line-height:110.00000238%;font-family:'Fira Code';-inkscape-font-specification:'Fira Code Bold';letter-spacing:-1.01288998px;fill:#4e4e4e;fill-opacity:1;stroke-width:0.55738002px">2023</tspan><tspan
     sodipodi:role="line"
     x="75.883415"
     y="65.182777"
     id="tspan132"
     style="font-size:28.53980064px;line-height:125%;stroke-width:0.55738002px" /></text>

<text
   id="text140"
   y="50.501392"
   x="73.048828"
   style="font-style:normal;font-variant:normal;font-weight:normal;font-stretch:normal;font-size:28.6147995px;line-height:125%;font-family:'WLM Idea';-inkscape-font-specification:'WLM Idea';text-align:start;letter-spacing:0px;word-spacing:0px;text-anchor:start;fill:#4e4e4e;fill-opacity:1;stroke:none;stroke-width:0.71536899px;stroke-linecap:butt;stroke-linejoin:miter;stroke-opacity:1"
   xml:space="preserve"><tspan
     id="tspan136"
     y="75.855507"
     x="73.048828"
     sodipodi:role="line"
     style="letter-spacing:-1.29999995px;fill:#4e4e4e;fill-opacity:1;stroke-width:0.71536899px" /><tspan
     id="tspan138"
     y="111.62402"
     x="73.048828"
     sodipodi:role="line" /></text>

</g></g><g
   inkscape:groupmode="layer"
   id="g162"
   inkscape:label="2023 Text-PathLayer"
   style="display:none"
   transform="translate(-3.1831818e-8,0.51420642)"
   sodipodi:insensitive="true"><g
     id="g160"
     transform="matrix(1.027803,0,0,1.027803,-5.588682,8.3777166)"><g
       aria-label="Core C++ 2023 "
       style="font-style:normal;font-variant:normal;font-weight:normal;font-stretch:normal;font-size:28.53980064px;line-height:0;font-family:'WLM Idea';-inkscape-font-specification:'WLM Idea';text-align:start;letter-spacing:0px;word-spacing:0px;text-anchor:start;fill:#4e4e4e;fill-opacity:1;stroke:none;stroke-width:0.55738002px;stroke-linecap:butt;stroke-linejoin:miter;stroke-opacity:1"
       id="text152"><path
         d="m 87.157194,1.9409199 q -1.964898,0 -3.065799,1.6165121 -1.100901,1.6025767 -1.100901,4.431473 0,5.88076 4.47328,5.88076 1.351738,0 2.619864,-0.376257 1.268126,-0.376258 2.550188,-0.905805 v 4.65444 q -2.550188,1.128772 -5.769277,1.128772 -4.612633,0 -7.079208,-2.675606 -2.452639,-2.675607 -2.452639,-7.7341749 0,-3.1633471 1.184513,-5.5602444 1.198449,-2.39689733 3.428121,-3.6789587 2.243607,-1.2959968 5.2676,-1.2959968 3.302701,0 6.312758,1.4353513 L 91.839505,3.1951103 Q 90.710734,2.6655632 89.581962,2.3032415 88.453191,1.9409199 87.157194,1.9409199 Z"
         style="font-style:normal;font-variant:normal;font-weight:normal;font-stretch:normal;font-size:28.53980064px;line-height:110.00000238%;font-family:'WLM Idea';-inkscape-font-specification:'WLM Idea';letter-spacing:-1.01288998px;fill:#4e4e4e;fill-opacity:1;stroke-width:0.55738002px"
         id="path164"
         inkscape:connector-curvature="0" /><path
         d="m 110.33624,10.162835 q 0,3.874055 -2.09031,6.047985 -2.07638,2.159995 -5.82502,2.159995 -3.595347,0 -5.727471,-2.215737 -2.118188,-2.215736 -2.118188,-5.992243 0,-3.8601194 2.076382,-5.9922432 2.090318,-2.1460592 5.852887,-2.1460592 2.32722,0 4.11096,0.9894169 1.78374,0.9894169 2.74528,2.8428317 0.97548,1.8394793 0.97548,4.3060538 z m -10.22862,0 q 0,2.034576 0.54349,3.107605 0.54348,1.059094 1.82554,1.059094 1.26813,0 1.78374,-1.059094 0.52955,-1.073029 0.52955,-3.107605 0,-2.0206401 -0.52955,-3.0518634 -0.52955,-1.0312232 -1.81161,-1.0312232 -1.25419,0 -1.79767,1.0312232 -0.54349,1.0172878 -0.54349,3.0518634 z"
         style="font-style:normal;font-variant:normal;font-weight:normal;font-stretch:normal;font-size:28.53980064px;line-height:110.00000238%;font-family:'WLM Idea';-inkscape-font-specification:'WLM Idea';letter-spacing:-1.01288998px;fill:#4e4e4e;fill-opacity:1;stroke-width:0.55738002px"
         id="path166"
         inkscape:connector-curvature="0" /><path
         d="m 121.94887,2.0245326 q 0.71071,0 1.35174,0.1114836 l 0.30658,0.055742 -0.48774,5.1421809 q -0.6689,-0.1672254 -1.85342,-0.1672254 -1.78374,0 -2.59199,0.8221916 -0.80826,0.808256 -0.80826,2.3411547 v 7.762046 h -5.44876 V 2.3032415 l 4.90528,-0.013935 v 2.5362518 h 0.26477 q 0.68284,-1.2541904 1.89522,-2.0206402 1.22632,-0.7803851 2.46658,-0.7803855 z"
         style="font-style:normal;font-variant:normal;font-weight:normal;font-stretch:normal;font-size:28.53980064px;line-height:110.00000238%;font-family:'WLM Idea';-inkscape-font-specification:'WLM Idea';letter-spacing:-1.01288998px;fill:#4e4e4e;fill-opacity:1;stroke-width:0.55738002px"
         id="path168"
         inkscape:connector-curvature="0" /><path
         d="m 131.84047,18.370815 q -3.94373,0 -6.1316,-2.090318 -2.17393,-2.104252 -2.17393,-5.978307 0,-3.9994744 2.02064,-6.1315982 2.02064,-2.1460592 5.76928,-2.1460592 3.56747,0 5.5045,1.8673502 1.95096,1.8534148 1.95096,5.3512126 v 2.4247686 h -9.74087 q 0.0557,1.323867 0.96154,2.076382 0.91974,0.752514 2.49445,0.752514 1.43535,0 2.6338,-0.264774 1.21238,-0.278709 2.61986,-0.933675 v 3.915862 q -1.28206,0.654966 -2.64773,0.905804 -1.36568,0.250838 -3.2609,0.250838 z M 131.51996,5.7313621 q -0.96155,0 -1.61652,0.6131598 -0.64103,0.5992243 -0.75251,1.8952211 h 4.68231 q -0.0279,-1.1427068 -0.65497,-1.8255438 -0.61316,-0.6828371 -1.65831,-0.6828371 z"
         style="font-style:normal;font-variant:normal;font-weight:normal;font-stretch:normal;font-size:28.53980064px;line-height:110.00000238%;font-family:'WLM Idea';-inkscape-font-specification:'WLM Idea';letter-spacing:-1.01288998px;fill:#4e4e4e;fill-opacity:1;stroke-width:0.55738002px"
         id="path170"
         inkscape:connector-curvature="0" /><path
         d="m 156.67527,1.9409199 q -1.9649,0 -3.0658,1.6165121 -1.1009,1.6025767 -1.1009,4.431473 0,5.88076 4.47328,5.88076 1.35174,0 2.61986,-0.376257 1.26813,-0.376258 2.55019,-0.905805 v 4.65444 q -2.55019,1.128772 -5.76928,1.128772 -4.61263,0 -7.0792,-2.675606 -2.45264,-2.675607 -2.45264,-7.7341749 0,-3.1633471 1.18451,-5.5602444 1.19845,-2.39689733 3.42812,-3.6789587 2.24361,-1.2959968 5.2676,-1.2959968 3.3027,0 6.31276,1.4353513 l -1.68619,4.3339248 q -1.12877,-0.5295471 -2.25754,-0.8918688 -1.12878,-0.3623216 -2.42477,-0.3623216 z"
         style="font-style:normal;font-variant:normal;font-weight:normal;font-stretch:normal;font-size:28.53980064px;line-height:110.00000238%;font-family:'WLM Idea';-inkscape-font-specification:'WLM Idea';letter-spacing:-1.01288998px;fill:#4e4e4e;fill-opacity:1;stroke-width:0.55738002px"
         id="path172"
         inkscape:connector-curvature="0" /><path
         d="m 169.09615,9.2709663 h -5.18399 V 5.5362658 h 5.18399 V 0.42195586 h 3.74864 V 5.5362658 h 5.18398 v 3.7347005 h -5.18398 v 5.0306977 h -3.74864 z"
         style="font-style:normal;font-variant:normal;font-weight:normal;font-stretch:normal;font-size:28.53980064px;line-height:110.00000238%;font-family:'WLM Idea';-inkscape-font-specification:'WLM Idea';letter-spacing:-1.01288998px;fill:#4e4e4e;fill-opacity:1;stroke-width:0.55738002px"
         id="path174"
         inkscape:connector-curvature="0" /><path
         d="M 184.24839,9.2709663 H 179.0644 V 5.5362658 h 5.18399 V 0.42195586 h 3.74863 V 5.5362658 h 5.18399 v 3.7347005 h -5.18399 v 5.0306977 h -3.74863 z"
         style="font-style:normal;font-variant:normal;font-weight:normal;font-stretch:normal;font-size:28.53980064px;line-height:110.00000238%;font-family:'WLM Idea';-inkscape-font-specification:'WLM Idea';letter-spacing:-1.01288998px;fill:#4e4e4e;fill-opacity:1;stroke-width:0.55738002px"
         id="path176"
         inkscape:connector-curvature="0" /><path
         d="m 83.962374,28.373085 q 2.312456,0 3.86385,0.804968 1.56603,0.804969 2.341727,2.136826 0.790333,1.317222 0.790333,2.868616 0,1.229407 -0.424438,2.414906 -0.409802,1.170864 -1.361129,2.488086 -0.951326,1.302585 -2.531992,2.897887 -1.56603,1.595302 -3.878486,3.658949 h 8.664391 l -0.497617,3.527226 H 77.449445 v -3.278418 q 2.502721,-2.414906 4.185838,-4.156565 1.697752,-1.74166 2.707622,-3.000338 1.024506,-1.273315 1.463579,-2.253913 0.439074,-0.980598 0.439074,-1.888018 0,-1.229406 -0.717154,-1.94656 -0.702518,-0.717154 -2.005104,-0.717154 -1.156228,0 -2.005104,0.482981 -0.848876,0.482981 -1.639209,1.56603 l -2.839344,-2.136826 q 1.141592,-1.580666 2.810073,-2.517357 1.66848,-0.951326 4.112658,-0.951326 z"
         style="font-style:normal;font-variant:normal;font-weight:bold;font-stretch:normal;font-size:28.53980064px;line-height:110.00000238%;font-family:'Fira Code';-inkscape-font-specification:'Fira Code Bold';letter-spacing:-1.01288998px;fill:#4e4e4e;fill-opacity:1;stroke-width:0.55738002px"
         id="path178"
         inkscape:connector-curvature="0" /><path
         d="m 101.21067,28.373085 q 3.62968,0 5.47379,2.810072 1.85874,2.795437 1.85874,7.800879 0,5.020078 -1.85874,7.859422 -1.84411,2.824709 -5.47379,2.824709 -3.65895,0 -5.50306,-2.824709 -1.829475,-2.839344 -1.829475,-7.859422 0,-5.005442 1.829475,-7.800879 1.84411,-2.810072 5.50306,-2.810072 z m 0,3.351597 q -1.551396,0 -2.26855,1.66848 -0.717154,1.653845 -0.717154,5.590874 0,1.28795 0.04391,2.29782 0.04391,0.995234 0.131722,1.770931 L 103.34749,32.70528 q -0.35125,-0.55616 -0.87814,-0.761061 -0.51226,-0.219537 -1.25868,-0.219537 z m 2.95643,7.259354 q 0,-1.683116 -0.0732,-2.839344 l -4.668818,9.644989 q 0.321987,0.307351 0.761058,0.424438 0.45371,0.117086 1.02451,0.117086 1.03914,0 1.68312,-0.702518 0.65861,-0.702518 0.96596,-2.312456 0.30735,-1.624573 0.30735,-4.332195 z"
         style="font-style:normal;font-variant:normal;font-weight:bold;font-stretch:normal;font-size:28.53980064px;line-height:110.00000238%;font-family:'Fira Code';-inkscape-font-specification:'Fira Code Bold';letter-spacing:-1.01288998px;fill:#4e4e4e;fill-opacity:1;stroke-width:0.55738002px"
         id="path180"
         inkscape:connector-curvature="0" /><path
         d="m 117.05393,28.373085 q 2.31245,0 3.86385,0.804968 1.56603,0.804969 2.34172,2.136826 0.79034,1.317222 0.79034,2.868616 0,1.229407 -0.42444,2.414906 -0.4098,1.170864 -1.36113,2.488086 -0.95133,1.302585 -2.53199,2.897887 -1.56603,1.595302 -3.87849,3.658949 h 8.66439 l -0.49761,3.527226 H 110.541 v -3.278418 q 2.50272,-2.414906 4.18584,-4.156565 1.69775,-1.74166 2.70762,-3.000338 1.0245,-1.273315 1.46358,-2.253913 0.43907,-0.980598 0.43907,-1.888018 0,-1.229406 -0.71715,-1.94656 -0.70252,-0.717154 -2.00511,-0.717154 -1.15622,0 -2.0051,0.482981 -0.84888,0.482981 -1.63921,1.56603 l -2.83934,-2.136826 q 1.14159,-1.580666 2.81007,-2.517357 1.66848,-0.951326 4.11266,-0.951326 z"
         style="font-style:normal;font-variant:normal;font-weight:bold;font-stretch:normal;font-size:28.53980064px;line-height:110.00000238%;font-family:'Fira Code';-inkscape-font-specification:'Fira Code Bold';letter-spacing:-1.01288998px;fill:#4e4e4e;fill-opacity:1;stroke-width:0.55738002px"
         id="path182"
         inkscape:connector-curvature="0" /><path
         d="m 133.48262,28.373085 q 2.19537,0 3.73212,0.717153 1.5514,0.702519 2.35637,1.888018 0.8196,1.170864 0.8196,2.590536 0,1.931925 -1.14159,3.13206 -1.12696,1.185499 -3.00034,1.727024 2.09292,0.27808 3.43941,1.434308 1.3465,1.141592 1.3465,3.600405 0,1.712388 -0.95133,3.117425 -0.93669,1.405036 -2.69299,2.253912 -1.75629,0.834241 -4.20047,0.834241 -2.26855,0 -4.06875,-0.790333 -1.8002,-0.804969 -3.07352,-2.253913 l 2.60517,-2.429542 q 0.87815,1.00987 1.94657,1.478215 1.08304,0.45371 2.28318,0.45371 1.50749,0 2.45881,-0.761061 0.95133,-0.775697 0.95133,-2.224641 0,-1.609938 -0.90742,-2.312456 -0.89278,-0.717154 -2.53199,-0.717154 h -1.84411 l 0.52689,-3.190603 h 1.31722 q 1.34649,0 2.19537,-0.658611 0.86351,-0.658611 0.86351,-1.990468 0,-1.141592 -0.81961,-1.800203 -0.8196,-0.658611 -2.12219,-0.658611 -1.21477,0 -2.21,0.468346 -0.9806,0.468345 -1.84411,1.28795 l -2.371,-2.458814 q 1.3904,-1.346493 3.11742,-2.034375 1.72703,-0.702518 3.81995,-0.702518 z"
         style="font-style:normal;font-variant:normal;font-weight:bold;font-stretch:normal;font-size:28.53980064px;line-height:110.00000238%;font-family:'Fira Code';-inkscape-font-specification:'Fira Code Bold';letter-spacing:-1.01288998px;fill:#4e4e4e;fill-opacity:1;stroke-width:0.55738002px"
         id="path184"
         inkscape:connector-curvature="0" /></g><g
       aria-label=" "
       style="font-style:normal;font-variant:normal;font-weight:normal;font-stretch:normal;font-size:28.6147995px;line-height:125%;font-family:'WLM Idea';-inkscape-font-specification:'WLM Idea';text-align:start;letter-spacing:0px;word-spacing:0px;text-anchor:start;fill:#4e4e4e;fill-opacity:1;stroke:none;stroke-width:0.71536899px;stroke-linecap:butt;stroke-linejoin:miter;stroke-opacity:1"
       id="text158" /></g></g><g
   inkscape:groupmode="layer"
   id="g161"
   inkscape:label="2024 Text-FontLayer"
   style="display:none"
   transform="translate(-3.1831818e-8,0.51420642)"
   sodipodi:insensitive="true"><g
     id="g159"
     transform="matrix(1.027803,0,0,1.027803,-5.588682,8.3777166)"><text
   id="text151"
   y="18.092106"
   x="75.883415"
   style="font-style:normal;font-variant:normal;font-weight:normal;font-stretch:normal;font-size:28.53980064px;line-height:0;font-family:'WLM Idea';-inkscape-font-specification:'WLM Idea';text-align:start;letter-spacing:0px;word-spacing:0px;text-anchor:start;fill:#4e4e4e;fill-opacity:1;stroke:none;stroke-width:0.55738002px;stroke-linecap:butt;stroke-linejoin:miter;stroke-opacity:1"
   xml:space="preserve"><tspan
     style="font-style:normal;font-variant:normal;font-weight:normal;font-stretch:normal;font-size:28.53980064px;line-height:110.00000238%;font-family:'WLM Idea';-inkscape-font-specification:'WLM Idea';letter-spacing:-1.01288998px;fill:#4e4e4e;fill-opacity:1;stroke-width:0.55738002px"
     x="75.883415"
     y="18.092106"
     id="tspan145"
     sodipodi:role="line">Core C++</tspan><tspan
     style="font-style:normal;font-variant:normal;font-weight:bold;font-stretch:normal;font-size:28.53980064px;line-height:110.00000238%;font-family:'Fira Code';-inkscape-font-specification:'Fira Code Bold';letter-spacing:-1.01288998px;fill:#4e4e4e;fill-opacity:1;stroke-width:0.55738002px"
     id="tspan147"
     x="75.883415"
     y="49.170551"
     sodipodi:role="line">2024</tspan><tspan
     id="tspan149"
     y="65.182777"
     x="75.883415"
     sodipodi:role="line"
     style="font-size:28.53980064px;line-height:125%;stroke-width:0.55738002px" /></text>

<text
   xml:space="preserve"
   style="font-style:normal;font-variant:normal;font-weight:normal;font-stretch:normal;font-size:28.6147995px;line-height:125%;font-family:'WLM Idea';-inkscape-font-specification:'WLM Idea';text-align:start;letter-spacing:0px;word-spacing:0px;text-anchor:start;fill:#4e4e4e;fill-opacity:1;stroke:none;stroke-width:0.71536899px;stroke-linecap:butt;stroke-linejoin:miter;stroke-opacity:1"
   x="73.048828"
   y="50.501392"
   id="text157"><tspan
     sodipodi:role="line"
     x="73.048828"
     y="75.855507"
     id="tspan153"
     style="letter-spacing:-1.29999995px;fill:#4e4e4e;fill-opacity:1;stroke-width:0.71536899px" /><tspan
     sodipodi:role="line"
     x="73.048828"
     y="111.62402"
     id="tspan155" /></text>

</g></g><g
   transform="translate(-3.1831818e-8,0.51420642)"
   style="display:none"
   inkscape:label="2024 Text-PathLayer"
   id="g197"
   inkscape:groupmode="layer"
   sodipodi:insensitive="true"><g
     transform="matrix(1.027803,0,0,1.027803,-5.588682,8.3777166)"
     id="g195"><g
   aria-label="Core C++ 2024 "
   style="font-style:normal;font-variant:normal;font-weight:normal;font-stretch:normal;font-size:28.5398px;line-height:0;font-family:'WLM Idea';-inkscape-font-specification:'WLM Idea';text-align:start;letter-spacing:0px;word-spacing:0px;text-anchor:start;fill:#4e4e4e;fill-opacity:1;stroke:none;stroke-width:0.55738px;stroke-linecap:butt;stroke-linejoin:miter;stroke-opacity:1"
   id="text187"><path
     d="m 87.157194,1.9409199 q -1.964898,0 -3.065799,1.6165121 -1.100901,1.6025767 -1.100901,4.431473 0,5.88076 4.47328,5.88076 1.351738,0 2.619864,-0.376257 1.268126,-0.376258 2.550188,-0.905805 v 4.65444 q -2.550188,1.128772 -5.769277,1.128772 -4.612633,0 -7.079208,-2.675606 -2.452639,-2.675607 -2.452639,-7.7341749 0,-3.1633471 1.184513,-5.5602444 1.198449,-2.39689733 3.428121,-3.6789587 2.243607,-1.2959968 5.2676,-1.2959968 3.302701,0 6.312758,1.4353513 L 91.839505,3.1951103 Q 90.710734,2.6655632 89.581962,2.3032415 88.453191,1.9409199 87.157194,1.9409199 Z"
     style="font-style:normal;font-variant:normal;font-weight:normal;font-stretch:normal;font-size:28.5398px;line-height:110%;font-family:'WLM Idea';-inkscape-font-specification:'WLM Idea';letter-spacing:-1.01289px;fill:#4e4e4e;fill-opacity:1;stroke-width:0.55738px"
     id="path199" /><path
     d="m 110.33624,10.162835 q 0,3.874055 -2.09031,6.047985 -2.07638,2.159995 -5.82502,2.159995 -3.595347,0 -5.727471,-2.215737 -2.118188,-2.215736 -2.118188,-5.992243 0,-3.8601194 2.076382,-5.9922432 2.090318,-2.1460592 5.852887,-2.1460592 2.32722,0 4.11096,0.9894169 1.78374,0.9894169 2.74528,2.8428317 0.97548,1.8394793 0.97548,4.3060538 z m -10.22862,0 q 0,2.034576 0.54349,3.107605 0.54348,1.059094 1.82554,1.059094 1.26813,0 1.78374,-1.059094 0.52955,-1.073029 0.52955,-3.107605 0,-2.0206401 -0.52955,-3.0518634 -0.52955,-1.0312232 -1.81161,-1.0312232 -1.25419,0 -1.79767,1.0312232 -0.54349,1.0172878 -0.54349,3.0518634 z"
     style="font-style:normal;font-variant:normal;font-weight:normal;font-stretch:normal;font-size:28.5398px;line-height:110%;font-family:'WLM Idea';-inkscape-font-specification:'WLM Idea';letter-spacing:-1.01289px;fill:#4e4e4e;fill-opacity:1;stroke-width:0.55738px"
     id="path201" /><path
     d="m 121.94887,2.0245326 q 0.71071,0 1.35174,0.1114836 l 0.30658,0.055742 -0.48774,5.1421809 q -0.6689,-0.1672254 -1.85342,-0.1672254 -1.78374,0 -2.59199,0.8221916 -0.80826,0.808256 -0.80826,2.3411547 v 7.762046 h -5.44876 V 2.3032415 l 4.90528,-0.013935 v 2.5362518 h 0.26477 q 0.68284,-1.2541904 1.89522,-2.0206402 1.22632,-0.7803851 2.46658,-0.7803855 z"
     style="font-style:normal;font-variant:normal;font-weight:normal;font-stretch:normal;font-size:28.5398px;line-height:110%;font-family:'WLM Idea';-inkscape-font-specification:'WLM Idea';letter-spacing:-1.01289px;fill:#4e4e4e;fill-opacity:1;stroke-width:0.55738px"
     id="path203" /><path
     d="m 131.84047,18.370815 q -3.94373,0 -6.1316,-2.090318 -2.17393,-2.104252 -2.17393,-5.978307 0,-3.9994744 2.02064,-6.1315982 2.02064,-2.1460592 5.76928,-2.1460592 3.56747,0 5.5045,1.8673502 1.95096,1.8534148 1.95096,5.3512126 v 2.4247686 h -9.74087 q 0.0557,1.323867 0.96154,2.076382 0.91974,0.752514 2.49445,0.752514 1.43535,0 2.6338,-0.264774 1.21238,-0.278709 2.61986,-0.933675 v 3.915862 q -1.28206,0.654966 -2.64773,0.905804 -1.36568,0.250838 -3.2609,0.250838 z M 131.51996,5.7313621 q -0.96155,0 -1.61652,0.6131598 -0.64103,0.5992243 -0.75251,1.8952211 h 4.68231 q -0.0279,-1.1427068 -0.65497,-1.8255438 -0.61316,-0.6828371 -1.65831,-0.6828371 z"
     style="font-style:normal;font-variant:normal;font-weight:normal;font-stretch:normal;font-size:28.5398px;line-height:110%;font-family:'WLM Idea';-inkscape-font-specification:'WLM Idea';letter-spacing:-1.01289px;fill:#4e4e4e;fill-opacity:1;stroke-width:0.55738px"
     id="path205" /><path
     d="m 156.67527,1.9409199 q -1.9649,0 -3.0658,1.6165121 -1.1009,1.6025767 -1.1009,4.431473 0,5.88076 4.47328,5.88076 1.35174,0 2.61986,-0.376257 1.26813,-0.376258 2.55019,-0.905805 v 4.65444 q -2.55019,1.128772 -5.76928,1.128772 -4.61263,0 -7.0792,-2.675606 -2.45264,-2.675607 -2.45264,-7.7341749 0,-3.1633471 1.18451,-5.5602444 1.19845,-2.39689733 3.42812,-3.6789587 2.24361,-1.2959968 5.2676,-1.2959968 3.3027,0 6.31276,1.4353513 l -1.68619,4.3339248 q -1.12877,-0.5295471 -2.25754,-0.8918688 -1.12878,-0.3623216 -2.42477,-0.3623216 z"
     style="font-style:normal;font-variant:normal;font-weight:normal;font-stretch:normal;font-size:28.5398px;line-height:110%;font-family:'WLM Idea';-inkscape-font-specification:'WLM Idea';letter-spacing:-1.01289px;fill:#4e4e4e;fill-opacity:1;stroke-width:0.55738px"
     id="path207" /><path
     d="m 169.09615,9.2709663 h -5.18399 V 5.5362658 h 5.18399 V 0.42195586 h 3.74864 V 5.5362658 h 5.18398 v 3.7347005 h -5.18398 v 5.0306977 h -3.74864 z"
     style="font-style:normal;font-variant:normal;font-weight:normal;font-stretch:normal;font-size:28.5398px;line-height:110%;font-family:'WLM Idea';-inkscape-font-specification:'WLM Idea';letter-spacing:-1.01289px;fill:#4e4e4e;fill-opacity:1;stroke-width:0.55738px"
     id="path209" /><path
     d="M 184.24839,9.2709663 H 179.0644 V 5.5362658 h 5.18399 V 0.42195586 h 3.74863 V 5.5362658 h 5.18399 v 3.7347005 h -5.18399 v 5.0306977 h -3.74863 z"
     style="font-style:normal;font-variant:normal;font-weight:normal;font-stretch:normal;font-size:28.5398px;line-height:110%;font-family:'WLM Idea';-inkscape-font-specification:'WLM Idea';letter-spacing:-1.01289px;fill:#4e4e4e;fill-opacity:1;stroke-width:0.55738px"
     id="path211" /><path
     d="m 83.962374,28.373085 q 2.312456,0 3.86385,0.804968 1.56603,0.804969 2.341727,2.136826 0.790333,1.317222 0.790333,2.868616 0,1.229407 -0.424438,2.414906 -0.409802,1.170864 -1.361129,2.488086 -0.951326,1.302585 -2.531992,2.897887 -1.56603,1.595302 -3.878486,3.658949 h 8.664391 l -0.497617,3.527226 H 77.449445 v -3.278418 q 2.502721,-2.414906 4.185838,-4.156565 1.697752,-1.74166 2.707622,-3.000338 1.024506,-1.273315 1.463579,-2.253913 0.439074,-0.980598 0.439074,-1.888018 0,-1.229406 -0.717154,-1.94656 -0.702518,-0.717154 -2.005104,-0.717154 -1.156228,0 -2.005104,0.482981 -0.848876,0.482981 -1.639209,1.56603 l -2.839344,-2.136826 q 1.141592,-1.580666 2.810073,-2.517357 1.66848,-0.951326 4.112658,-0.951326 z"
     style="font-style:normal;font-variant:normal;font-weight:bold;font-stretch:normal;font-size:28.5398px;line-height:110%;font-family:'Fira Code';-inkscape-font-specification:'Fira Code Bold';letter-spacing:-1.01289px;fill:#4e4e4e;fill-opacity:1;stroke-width:0.55738px"
     id="path213" /><path
     d="m 101.21067,28.373085 q 3.62968,0 5.47379,2.810072 1.85874,2.795437 1.85874,7.800879 0,5.020078 -1.85874,7.859422 -1.84411,2.824709 -5.47379,2.824709 -3.65895,0 -5.50306,-2.824709 -1.829475,-2.839344 -1.829475,-7.859422 0,-5.005442 1.829475,-7.800879 1.84411,-2.810072 5.50306,-2.810072 z m 0,3.351597 q -1.551396,0 -2.26855,1.66848 -0.717154,1.653845 -0.717154,5.590874 0,1.28795 0.04391,2.29782 0.04391,0.995234 0.131722,1.770931 L 103.34749,32.70528 q -0.35125,-0.55616 -0.87814,-0.761061 -0.51226,-0.219537 -1.25868,-0.219537 z m 2.95643,7.259354 q 0,-1.683116 -0.0732,-2.839344 l -4.668818,9.644989 q 0.321987,0.307351 0.761058,0.424438 0.45371,0.117086 1.02451,0.117086 1.03914,0 1.68312,-0.702518 0.65861,-0.702518 0.96596,-2.312456 0.30735,-1.624573 0.30735,-4.332195 z"
     style="font-style:normal;font-variant:normal;font-weight:bold;font-stretch:normal;font-size:28.5398px;line-height:110%;font-family:'Fira Code';-inkscape-font-specification:'Fira Code Bold';letter-spacing:-1.01289px;fill:#4e4e4e;fill-opacity:1;stroke-width:0.55738px"
     id="path215" /><path
     d="m 117.05393,28.373085 q 2.31245,0 3.86385,0.804968 1.56603,0.804969 2.34172,2.136826 0.79034,1.317222 0.79034,2.868616 0,1.229407 -0.42444,2.414906 -0.4098,1.170864 -1.36113,2.488086 -0.95133,1.302585 -2.53199,2.897887 -1.56603,1.595302 -3.87849,3.658949 h 8.66439 l -0.49761,3.527226 H 110.541 v -3.278418 q 2.50272,-2.414906 4.18584,-4.156565 1.69775,-1.74166 2.70762,-3.000338 1.0245,-1.273315 1.46358,-2.253913 0.43907,-0.980598 0.43907,-1.888018 0,-1.229406 -0.71715,-1.94656 -0.70252,-0.717154 -2.00511,-0.717154 -1.15622,0 -2.0051,0.482981 -0.84888,0.482981 -1.63921,1.56603 l -2.83934,-2.136826 q 1.14159,-1.580666 2.81007,-2.517357 1.66848,-0.951326 4.11266,-0.951326 z"
     style="font-style:normal;font-variant:normal;font-weight:bold;font-stretch:normal;font-size:28.5398px;line-height:110%;font-family:'Fira Code';-inkscape-font-specification:'Fira Code Bold';letter-spacing:-1.01289px;fill:#4e4e4e;fill-opacity:1;stroke-width:0.55738px"
     id="path217" /><path
     d="m 139.68819,36.554494 v 4.888356 h 2.03438 v 3.468683 h -2.03438 v 4.259016 h -4.43464 l -0.0293,-4.259016 h -8.40095 v -3.073517 l 5.63478,-13.464931 3.93703,1.448943 -4.80054,11.620822 h 3.64431 l 0.54153,-4.888356 z"
     style="font-style:normal;font-variant:normal;font-weight:bold;font-stretch:normal;font-size:28.5398px;line-height:110%;font-family:'Fira Code';-inkscape-font-specification:'Fira Code Bold';letter-spacing:-1.01289px;fill:#4e4e4e;fill-opacity:1;stroke-width:0.55738px"
     id="path219" /></g>
<g
   aria-label=" "
   style="font-style:normal;font-variant:normal;font-weight:normal;font-stretch:normal;font-size:28.6148px;line-height:125%;font-family:'WLM Idea';-inkscape-font-specification:'WLM Idea';text-align:start;letter-spacing:0px;word-spacing:0px;text-anchor:start;fill:#4e4e4e;fill-opacity:1;stroke:none;stroke-width:0.715369px;stroke-linecap:butt;stroke-linejoin:miter;stroke-opacity:1"
   id="text193" />
</g></g><g
   inkscape:groupmode="layer"
   id="g11"
   inkscape:label="2025 Text-FontLayer"
   style="display:none"
   transform="translate(-3.1831818e-8,0.51420642)"
   sodipodi:insensitive="true"><g
     id="g10"
     transform="matrix(1.027803,0,0,1.027803,-5.588682,8.3777166)"><text
   id="text8"
   y="18.092106"
   x="75.883415"
   style="font-style:normal;font-variant:normal;font-weight:normal;font-stretch:normal;font-size:28.5398px;line-height:0;font-family:'WLM Idea';-inkscape-font-specification:'WLM Idea';text-align:start;letter-spacing:0px;word-spacing:0px;text-anchor:start;fill:#4e4e4e;fill-opacity:1;stroke:none;stroke-width:0.55738px;stroke-linecap:butt;stroke-linejoin:miter;stroke-opacity:1"
   xml:space="preserve"><tspan
     style="font-style:normal;font-variant:normal;font-weight:normal;font-stretch:normal;font-size:28.5398px;line-height:110%;font-family:'WLM Idea';-inkscape-font-specification:'WLM Idea';letter-spacing:-1.01289px;fill:#4e4e4e;fill-opacity:1;stroke-width:0.55738px"
     x="75.883415"
     y="18.092106"
     id="tspan6"
     sodipodi:role="line">Core C++</tspan><tspan
     style="font-style:normal;font-variant:normal;font-weight:bold;font-stretch:normal;font-size:28.5398px;line-height:110%;font-family:'Fira Code';-inkscape-font-specification:'Fira Code Bold';letter-spacing:-1.01289px;fill:#4e4e4e;fill-opacity:1;stroke-width:0.55738px"
     id="tspan7"
     x="75.883415"
     y="49.170551"
     sodipodi:role="line">2025</tspan><tspan
     id="tspan8"
     y="65.182777"
     x="75.883415"
     sodipodi:role="line"
     style="font-size:28.5398px;line-height:125%;stroke-width:0.55738px" /></text>

<text
   xml:space="preserve"
   style="font-style:normal;font-variant:normal;font-weight:normal;font-stretch:normal;font-size:28.6148px;line-height:125%;font-family:'WLM Idea';-inkscape-font-specification:'WLM Idea';text-align:start;letter-spacing:0px;word-spacing:0px;text-anchor:start;fill:#4e4e4e;fill-opacity:1;stroke:none;stroke-width:0.715369px;stroke-linecap:butt;stroke-linejoin:miter;stroke-opacity:1"
   x="73.048828"
   y="50.501392"
   id="text10"><tspan
     sodipodi:role="line"
     x="73.048828"
     y="50.501392"
     id="tspan9"
     style="letter-spacing:-1.3px;fill:#4e4e4e;fill-opacity:1;stroke-width:0.715369px" /><tspan
     sodipodi:role="line"
     x="73.048828"
     y="86.269897"
     id="tspan10" /></text>

</g></g><g
   inkscape:groupmode="layer"
   id="g16"
   inkscape:label="2025 Text-PathLayer"
   style="display:inline"
   transform="translate(-3.1831818e-8,0.51420642)"><g
     id="g15"
     transform="matrix(1.027803,0,0,1.027803,-5.588682,8.3777166)"><g
   id="text13"
   style="font-size:28.5398px;line-height:0;font-family:'WLM Idea';-inkscape-font-specification:'WLM Idea';letter-spacing:0px;word-spacing:0px;fill:#4e4e4e;stroke-width:0.55738px"
   aria-label="Core C++&#10;2025&#10;"><path
     style="line-height:110%;letter-spacing:-1.01289px"
     d="m 87.157194,1.9409199 q -1.964898,0 -3.065799,1.6165121 -1.100901,1.6025767 -1.100901,4.431473 0,5.88076 4.47328,5.88076 1.351738,0 2.619864,-0.376257 1.268126,-0.376258 2.550188,-0.905805 v 4.65444 q -2.550188,1.128772 -5.769277,1.128772 -4.612633,0 -7.079208,-2.675606 -2.452639,-2.675607 -2.452639,-7.7341749 0,-3.1633471 1.184513,-5.5602444 1.198449,-2.39689733 3.428121,-3.6789587 2.243607,-1.2959968 5.2676,-1.2959968 3.302701,0 6.312758,1.4353513 L 91.839505,3.1951103 Q 90.710734,2.6655632 89.581962,2.3032415 88.453191,1.9409199 87.157194,1.9409199 Z m 23.192986,8.2219151 q 0,3.874055 -2.09032,6.047985 -2.07638,2.159995 -5.82502,2.159995 -3.595342,0 -5.727465,-2.215737 -2.118189,-2.215736 -2.118189,-5.992243 0,-3.8601194 2.076382,-5.9922432 2.090318,-2.1460592 5.852892,-2.1460592 2.32722,0 4.11095,0.9894169 1.78374,0.9894169 2.74529,2.8428317 0.97548,1.8394793 0.97548,4.3060538 z m -10.22862,0 q 0,2.034576 0.54348,3.107605 0.54348,1.059094 1.82555,1.059094 1.26812,0 1.78373,-1.059094 0.52955,-1.073029 0.52955,-3.107605 0,-2.0206401 -0.52955,-3.0518634 -0.52954,-1.0312232 -1.8116,-1.0312232 -1.2542,0 -1.79768,1.0312232 -0.54348,1.0172878 -0.54348,3.0518634 z m 21.85518,-8.1383024 q 0.71071,0 1.35174,0.1114836 l 0.30658,0.055742 -0.48774,5.1421809 q -0.6689,-0.1672254 -1.85341,-0.1672254 -1.78374,0 -2.592,0.8221916 -0.80825,0.808256 -0.80825,2.341155 v 7.762046 H 112.4449 V 2.3032415 l 4.90527,-0.013935 v 2.5362518 h 0.26478 q 0.68283,-1.2541904 1.89522,-2.0206402 1.22632,-0.7803851 2.46657,-0.7803851 z m 9.89857,16.3462824 q -3.94373,0 -6.1316,-2.090318 -2.17393,-2.104252 -2.17393,-5.978307 0,-3.9994744 2.02064,-6.1315982 2.02064,-2.1460592 5.76928,-2.1460592 3.56747,0 5.5045,1.8673502 1.95096,1.8534148 1.95096,5.3512126 v 2.4247686 h -9.74087 q 0.0557,1.323867 0.96154,2.076382 0.91974,0.752514 2.49445,0.752514 1.43535,0 2.6338,-0.264774 1.21238,-0.278709 2.61986,-0.933675 v 3.915862 q -1.28206,0.654966 -2.64773,0.905804 -1.36568,0.250838 -3.2609,0.250838 z M 131.5548,5.7313621 q -0.96155,0 -1.61652,0.6131598 -0.64103,0.5992243 -0.75251,1.8952211 h 4.68231 q -0.0279,-1.1427068 -0.65497,-1.8255438 -0.61316,-0.6828371 -1.65831,-0.6828371 z m 25.12047,-3.7904422 q -1.9649,0 -3.0658,1.6165121 -1.1009,1.6025767 -1.1009,4.431473 0,5.88076 4.47328,5.88076 1.35174,0 2.61986,-0.376257 1.26813,-0.376258 2.55019,-0.905805 v 4.65444 q -2.55019,1.128772 -5.76928,1.128772 -4.61263,0 -7.0792,-2.675606 -2.45264,-2.675607 -2.45264,-7.7341749 0,-3.1633471 1.18451,-5.5602444 1.19845,-2.39689733 3.42812,-3.6789587 2.24361,-1.2959968 5.2676,-1.2959968 3.3027,0 6.31276,1.4353513 l -1.68619,4.3339248 q -1.12877,-0.5295471 -2.25754,-0.8918688 -1.12878,-0.3623216 -2.42477,-0.3623216 z m 12.43482,7.3300464 H 163.9261 V 5.5362658 h 5.18399 V 0.42195586 h 3.74863 V 5.5362658 h 5.18399 v 3.7347005 h -5.18399 v 5.0306977 h -3.74863 z m 15.1383,0 H 179.0644 V 5.5362658 h 5.18399 V 0.42195586 h 3.74863 V 5.5362658 h 5.18399 v 3.7347005 h -5.18399 v 5.0306977 h -3.74863 z"
     id="path16" /><path
     style="font-weight:bold;line-height:110%;font-family:'Fira Code';-inkscape-font-specification:'Fira Code Bold';letter-spacing:-1.01289px"
     d="m 83.962374,28.373085 q 2.312456,0 3.86385,0.804968 1.56603,0.804969 2.341727,2.136826 0.790333,1.317222 0.790333,2.868616 0,1.229407 -0.424438,2.414906 -0.409802,1.170864 -1.361129,2.488086 -0.951326,1.302585 -2.531992,2.897887 -1.56603,1.595302 -3.878486,3.658949 h 8.664391 l -0.497617,3.527226 H 77.449445 v -3.278418 q 2.502721,-2.414906 4.185838,-4.156565 1.697752,-1.74166 2.707622,-3.000338 1.024506,-1.273315 1.463579,-2.253913 0.439074,-0.980598 0.439074,-1.888018 0,-1.229406 -0.717154,-1.94656 -0.702518,-0.717154 -2.005104,-0.717154 -1.156228,0 -2.005104,0.482981 -0.848876,0.482981 -1.639209,1.56603 l -2.839344,-2.136826 q 1.141592,-1.580666 2.810073,-2.517357 1.66848,-0.951326 4.112658,-0.951326 z m 17.252596,0 q 3.62968,0 5.47379,2.810072 1.85874,2.795437 1.85874,7.800879 0,5.020078 -1.85874,7.859422 -1.84411,2.824709 -5.47379,2.824709 -3.658949,0 -5.503059,-2.824709 -1.829475,-2.839344 -1.829475,-7.859422 0,-5.005442 1.829475,-7.800879 1.84411,-2.810072 5.503059,-2.810072 z m 0,3.351597 q -1.551395,0 -2.268548,1.66848 -0.717154,1.653845 -0.717154,5.590874 0,1.28795 0.04391,2.29782 0.04391,0.995234 0.131722,1.770931 L 103.3518,32.70528 q -0.35126,-0.55616 -0.87815,-0.761061 -0.51225,-0.219537 -1.25868,-0.219537 z m 2.95643,7.259354 q 0,-1.683116 -0.0732,-2.839344 l -4.668817,9.644989 q 0.321987,0.307351 0.761057,0.424438 0.45371,0.117086 1.02451,0.117086 1.03914,0 1.68312,-0.702518 0.65861,-0.702518 0.96596,-2.312456 0.30735,-1.624573 0.30735,-4.332195 z m 12.89113,-10.610951 q 2.31245,0 3.86385,0.804968 1.56603,0.804969 2.34173,2.136826 0.79033,1.317222 0.79033,2.868616 0,1.229407 -0.42444,2.414906 -0.4098,1.170864 -1.36113,2.488086 -0.95132,1.302585 -2.53199,2.897887 -1.56603,1.595302 -3.87849,3.658949 h 8.66439 l -0.49761,3.527226 H 110.5496 v -3.278418 q 2.50272,-2.414906 4.18584,-4.156565 1.69775,-1.74166 2.70762,-3.000338 1.02451,-1.273315 1.46358,-2.253913 0.43907,-0.980598 0.43907,-1.888018 0,-1.229406 -0.71715,-1.94656 -0.70252,-0.717154 -2.0051,-0.717154 -1.15623,0 -2.00511,0.482981 -0.84887,0.482981 -1.63921,1.56603 l -2.83934,-2.136826 q 1.14159,-1.580666 2.81007,-2.517357 1.66848,-0.951326 4.11266,-0.951326 z m 23.54598,0.512252 -0.51225,3.30769 h -7.42035 v 4.376103 q 0.74643,-0.351259 1.53676,-0.497617 0.79034,-0.146358 1.46358,-0.146358 1.56603,0 2.85398,0.790333 1.30259,0.790333 2.06365,2.268548 0.7757,1.478215 0.7757,3.527227 0,2.049011 -1.00987,3.673584 -0.99524,1.624574 -2.7808,2.561264 -1.78557,0.922056 -4.17121,0.922056 -2.21,0 -3.90775,-0.819605 -1.69776,-0.83424 -2.82471,-2.210005 l 2.66371,-2.429542 q 0.73179,0.936691 1.68312,1.434308 0.96596,0.482981 2.01974,0.482981 1.60994,0 2.5759,-0.980598 0.9806,-0.980598 0.9806,-2.561264 0,-1.873382 -0.76106,-2.663715 -0.74643,-0.804969 -1.97584,-0.804969 -0.55616,0 -1.1855,0.146358 -0.62934,0.146358 -1.30258,0.526889 H 128.2559 V 28.885337 Z"
     id="path17" /></g>

<text
   xml:space="preserve"
   style="font-style:normal;font-variant:normal;font-weight:normal;font-stretch:normal;font-size:28.6148px;line-height:125%;font-family:'WLM Idea';-inkscape-font-specification:'WLM Idea';text-align:start;letter-spacing:0px;word-spacing:0px;text-anchor:start;fill:#4e4e4e;fill-opacity:1;stroke:none;stroke-width:0.715369px;stroke-linecap:butt;stroke-linejoin:miter;stroke-opacity:1"
   x="73.048828"
   y="50.501392"
   id="text15"><tspan
     sodipodi:role="line"
     x="73.048828"
     y="50.501392"
     id="tspan14"
     style="letter-spacing:-1.3px;fill:#4e4e4e;fill-opacity:1;stroke-width:0.715369px" /><tspan
     sodipodi:role="line"
     x="73.048828"
     y="86.269897"
     id="tspan15" /></text>

</g></g><g
   transform="translate(-3.1831818e-8,0.51420642)"
   style="display:inline"
   inkscape:label="Logo"
   id="g105"
   inkscape:groupmode="layer"
   sodipodi:insensitive="true"><g
     transform="matrix(0.38169224,0,0,0.38169224,-3.5457286,-30.502947)"
     id="layer1"><g
       id="g4622"><path
         inkscape:connector-curvature="0"
         transform="scale(0.26458333)"
         id="path4505"
         d="m 390.92969,542.69141 c -243.11568,128.53878 -119.5773,351.83319 0,410.62695 119.5773,-58.79376 243.11569,-282.08817 0,-410.62695 z"
         style="opacity:1;fill:#b3862a;fill-opacity:1;fill-rule:evenodd;stroke:none;stroke-width:1;stroke-linecap:butt;stroke-linejoin:miter;stroke-miterlimit:4;stroke-dasharray:none;stroke-opacity:1" /><path
         inkscape:connector-curvature="0"
         style="opacity:1;fill:#778254;fill-opacity:1;fill-rule:evenodd;stroke:none;stroke-width:0.26458299;stroke-linecap:butt;stroke-linejoin:miter;stroke-miterlimit:4;stroke-dasharray:none;stroke-opacity:1"
         d="M 103.37659,143.68564 C 164.99161,182.38756 199.81328,124.5405 197.46596,89.363122 168.17512,69.741596 100.66725,70.974507 103.37659,143.68564 Z"
         id="path4510" /><path
         inkscape:connector-curvature="0"
         id="path4601"
         d="m 106.67086,141.85552 c 57.30197,35.99279 89.68612,-17.80498 87.50312,-50.519939 -27.24049,-18.248016 -90.0228,-17.101409 -87.50312,50.519939 z"
         style="opacity:1;fill:#8f9c67;fill-opacity:1;fill-rule:evenodd;stroke:none;stroke-width:0.246062;stroke-linecap:butt;stroke-linejoin:miter;stroke-miterlimit:4;stroke-dasharray:none;stroke-opacity:1" /><path
         inkscape:connector-curvature="0"
         style="opacity:1;fill:#b3572f;fill-opacity:1;fill-rule:evenodd;stroke:none;stroke-width:0.26458299;stroke-linecap:butt;stroke-linejoin:miter;stroke-miterlimit:4;stroke-dasharray:none;stroke-opacity:1"
         d="M 103.49037,143.68564 C 106.19971,70.974508 38.691845,69.741595 9.4010047,89.363121 7.0536848,124.5405 41.875348,182.38756 103.49037,143.68564 Z"
         id="path4514" /><path
         inkscape:connector-curvature="0"
         id="path4597"
         d="M 100.1961,141.85552 C 102.71579,74.234169 39.933474,73.08756 12.692992,91.33558 10.509985,124.05054 42.894131,177.8483 100.1961,141.85552 Z"
         style="opacity:1;fill:#d17750;fill-opacity:1;fill-rule:evenodd;stroke:none;stroke-width:0.246062;stroke-linecap:butt;stroke-linejoin:miter;stroke-miterlimit:4;stroke-dasharray:none;stroke-opacity:1" /><path
         inkscape:connector-curvature="0"
         style="opacity:1;fill:#d6ab54;fill-opacity:1;fill-rule:evenodd;stroke:none;stroke-width:0.24606299;stroke-linecap:butt;stroke-linejoin:miter;stroke-miterlimit:4;stroke-dasharray:none;stroke-opacity:1"
         d="m 103.43348,147.3896 c -59.821655,31.62858 -29.423493,86.57296 0,101.0399 29.42349,-14.46694 59.82165,-69.41132 0,-101.0399 z"
         id="path4599" /><circle
         r="21.774761"
         cy="143.5871"
         cx="103.43348"
         id="path4521"
         style="opacity:1;fill:#659ad2;fill-opacity:1;stroke:#004482;stroke-width:3;stroke-linecap:round;stroke-linejoin:round;stroke-miterlimit:4;stroke-dasharray:none;stroke-opacity:1" /><path
         inkscape:connector-curvature="0"
         style="opacity:1;fill:#4283c8;fill-opacity:1;stroke:none;stroke-width:0.33113101;stroke-linecap:round;stroke-linejoin:round;stroke-miterlimit:4;stroke-dasharray:none;stroke-opacity:1"
         id="path4571"
         d="m 117.7794,129.24411 a 20.284042,20.284042 0 0 1 5.94106,14.34299 20.284042,20.284042 0 0 1 -5.94106,14.34298 L 103.43642,143.5871 Z" /><ellipse
         ry="16.33107"
         rx="16.331072"
         style="opacity:1;fill:#0068c6;fill-opacity:1;stroke:none;stroke-width:0.26660001;stroke-linecap:round;stroke-linejoin:round;stroke-miterlimit:4;stroke-dasharray:none;stroke-opacity:1"
         id="circle4549"
         cx="103.43348"
         cy="143.5871" /><circle
         style="opacity:1;fill:#ffffff;fill-opacity:1;stroke:none;stroke-width:0.196244;stroke-linecap:round;stroke-linejoin:round;stroke-miterlimit:4;stroke-dasharray:none;stroke-opacity:1"
         id="circle4547"
         cx="103.43348"
         cy="143.5871"
         r="12.021309" /><circle
         r="8.278512"
         style="opacity:1;fill:#0068c6;fill-opacity:1;stroke:none;stroke-width:0.135144;stroke-linecap:round;stroke-linejoin:round;stroke-miterlimit:4;stroke-dasharray:none;stroke-opacity:1"
         id="circle4545"
         cx="103.43348"
         cy="143.5871" /><path
         inkscape:connector-curvature="0"
         d="m 115.08492,131.93719 a 16.475452,16.475452 0 0 1 4.82555,11.64991 16.475452,16.475452 0 0 1 -4.82555,11.6499 l -11.64991,-11.6499 z"
         id="path4573"
         style="opacity:1;fill:#007be8;fill-opacity:1;stroke:none;stroke-width:0.26895699;stroke-linecap:round;stroke-linejoin:round;stroke-miterlimit:4;stroke-dasharray:none;stroke-opacity:1" /><path
         inkscape:connector-curvature="0"
         d="m 111.96713,135.05334 a 12.068556,12.068556 0 0 1 3.5348,8.53376 12.068556,12.068556 0 0 1 -3.5348,8.53375 l -8.53376,-8.53375 z"
         id="circle4553"
         style="opacity:1;fill:#005bac;fill-opacity:1;stroke:none;stroke-width:0.197016;stroke-linecap:round;stroke-linejoin:round;stroke-miterlimit:4;stroke-dasharray:none;stroke-opacity:1" /><g
         transform="matrix(0.72972975,0,0,0.72972975,31.075767,38.795045)"
         id="g4561"><rect
           style="opacity:1;fill:#ffffff;fill-opacity:1;stroke:#004482;stroke-width:0;stroke-linecap:butt;stroke-linejoin:miter;stroke-miterlimit:4;stroke-dasharray:none;stroke-opacity:1"
           id="rect4555"
           width="2.1771417"
           height="6.992559"
           x="108.99699"
           y="140.04539"
           ry="0.34962791" /><rect
           ry="0.34962791"
           y="-113.58183"
           x="142.45311"
           height="6.992559"
           width="2.1771417"
           id="rect4557"
           style="opacity:1;fill:#ffffff;fill-opacity:1;stroke:#004482;stroke-width:0;stroke-linecap:butt;stroke-linejoin:miter;stroke-miterlimit:4;stroke-dasharray:none;stroke-opacity:1"
           transform="rotate(90)" /></g><g
         id="g4567"
         transform="matrix(0.72972975,0,0,0.72972975,36.839904,38.795045)"><rect
           ry="0.34962791"
           y="140.04539"
           x="108.99699"
           height="6.992559"
           width="2.1771417"
           id="rect4563"
           style="opacity:1;fill:#ffffff;fill-opacity:1;stroke:#004482;stroke-width:0;stroke-linecap:butt;stroke-linejoin:miter;stroke-miterlimit:4;stroke-dasharray:none;stroke-opacity:1" /><rect
           transform="rotate(90)"
           style="opacity:1;fill:#ffffff;fill-opacity:1;stroke:#004482;stroke-width:0;stroke-linecap:butt;stroke-linejoin:miter;stroke-miterlimit:4;stroke-dasharray:none;stroke-opacity:1"
           id="rect4565"
           width="2.1771417"
           height="6.992559"
           x="142.45311"
           y="-113.58183"
           ry="0.34962791" /></g></g></g></g></svg>
